<?xml version="1.0" encoding="iso-8859-1"?>
<!-- Generator: Adobe Illustrator 19.0.0, SVG Export Plug-In . SVG Version: 6.00 Build 0)  -->
<svg width="126" height="53" viewBox="0 0 126 53" fill="none" xmlns="http://www.w3.org/2000/svg">
<path fill-rule="evenodd" clip-rule="evenodd" d="M43.0193 9.68176C42.7128 9.71568 42.3723 9.76045 42.1146 9.94629C42.0779 9.97884 42.0603 10.0073 42.0359 10.0521C41.9233 10.3492 41.9192 10.6706 41.9138 10.9853V12.9061C42.7263 12.9197 43.5294 12.9658 44.3365 13.0567C44.6132 13.0892 44.8899 13.1272 45.1666 13.1693C45.9181 13.2873 46.6561 13.446 47.3899 13.6549C47.7114 13.7512 48.0274 13.8556 48.3449 13.9723C48.6474 14.0889 48.9417 14.2138 49.2374 14.3494C49.5196 14.4864 49.7922 14.6302 50.0662 14.7848C50.3253 14.9422 50.5749 15.105 50.8218 15.284C50.9954 15.4169 51.1636 15.554 51.3305 15.6991C51.4892 15.8442 51.6411 15.9935 51.7903 16.1494C51.9327 16.3068 52.067 16.4669 52.2 16.6337C52.3248 16.8046 52.4428 16.9755 52.5581 17.1546C52.6652 17.3364 52.7629 17.5195 52.8565 17.7094C52.942 17.9047 53.0179 18.0973 53.0884 18.2994C53.1522 18.5056 53.2065 18.7091 53.2553 18.9207C53.296 19.1364 53.3285 19.3494 53.3543 19.5705C53.3787 19.8581 53.3896 20.1416 53.3842 20.4305C53.372 20.6719 53.3489 20.9025 53.3123 21.1413C53.2797 21.3135 53.2417 21.4804 53.197 21.6513C53.1454 21.8168 53.0885 21.9782 53.0261 22.141C52.9569 22.2997 52.8823 22.453 52.8009 22.609C52.7141 22.7609 52.6218 22.9074 52.5242 23.0525C52.3519 23.2926 52.1701 23.5124 51.9666 23.7281C51.8405 23.8542 51.7103 23.9777 51.5773 24.0957C51.3386 24.2937 51.0971 24.4714 50.8381 24.6423C50.6563 24.7549 50.4732 24.8621 50.2833 24.9597C49.9808 25.1062 49.6783 25.2229 49.3595 25.3273C48.9933 25.4359 48.6284 25.5213 48.2553 25.5905C47.7616 25.6746 47.2678 25.7329 46.77 25.7736C46.1935 25.8143 45.6183 25.8319 45.0432 25.8347H34.1507V24.4809L34.6607 24.4551L34.8045 24.4307L34.9293 24.3955L35.0378 24.3466L35.1314 24.2856L35.2155 24.211C35.2861 24.1269 35.3403 24.0469 35.3878 23.9505C35.5723 23.5192 35.6157 23.0403 35.6428 22.5778C35.6483 22.4082 35.6523 22.24 35.655 22.0718L35.6537 10.7493C35.6415 10.2027 35.6116 9.63836 35.4204 9.12018C35.3837 9.03337 35.3431 8.96013 35.2902 8.87603L35.2155 8.78649L35.1314 8.71189L35.0378 8.6522L34.9293 8.60202L34.8045 8.56675L34.6607 8.54233L34.1507 8.51654V7.1628L48.5076 7.16143L48.7532 7.14922C49.0719 7.11802 49.4138 7.06786 49.6715 6.86031L50.1612 6.39502L51.7551 13.583L50.5247 13.9831L50.2643 13.195L50.0825 12.7705C49.9794 12.567 49.8723 12.373 49.7542 12.179L49.4992 11.8155L49.2144 11.4764L48.8983 11.1617C48.6976 10.984 48.4941 10.8185 48.2743 10.6666C48.0179 10.4943 47.7575 10.3451 47.4808 10.2121C47.2027 10.0833 46.9246 9.97747 46.633 9.89202C46.3319 9.80791 46.0334 9.74824 45.7241 9.70619C45.4406 9.67228 45.1599 9.656 44.875 9.65328L43.4426 9.65465C43.2961 9.66279 43.1577 9.67091 43.0193 9.68176ZM41.9192 22.2441C41.9274 22.4774 41.9382 22.7107 41.9898 22.9413C42.0345 23.0851 42.0929 23.1543 42.2272 23.2235C42.5297 23.3455 42.8864 23.3442 43.2079 23.3483C43.4751 23.3456 43.7329 23.3279 43.9987 23.2926L44.247 23.2492C44.6403 23.1651 44.9998 23.0431 45.3565 22.8559C45.4854 22.7826 45.6048 22.7066 45.7241 22.6198C45.8951 22.4855 46.0429 22.3458 46.1854 22.183C46.3251 22.0108 46.4404 21.8358 46.5475 21.6418C46.6316 21.4696 46.6981 21.3 46.7551 21.1168C46.7876 21.0002 46.8148 20.8849 46.8392 20.7655C46.8921 20.4508 46.9097 20.1456 46.9029 19.8268C46.8921 19.6261 46.8717 19.4335 46.8392 19.2354C46.7998 19.0414 46.7524 18.8597 46.6913 18.6738C46.6221 18.4866 46.5475 18.3103 46.458 18.1353C46.359 17.9535 46.2545 17.7854 46.1392 17.6172C46.0158 17.4503 45.8869 17.297 45.7472 17.1437C45.6007 16.9945 45.4515 16.8575 45.2901 16.7232C45.1205 16.5917 44.9482 16.4709 44.7665 16.357C44.5711 16.2417 44.3758 16.1399 44.1723 16.0436L43.8563 15.9107C43.2296 15.6815 42.5839 15.5431 41.9152 15.5187L41.9165 22.0718L41.9192 22.2441ZM62.1321 21.9429C62.1361 22.5194 62.1565 23.1041 62.3166 23.6643C62.3505 23.7715 62.3898 23.8705 62.4414 23.9736L62.516 24.0916L62.596 24.1852L62.6882 24.2639L62.794 24.3317L62.9175 24.386L63.0599 24.428L63.224 24.4565L63.7476 24.4918V25.8374H54.3351V24.4836L54.8451 24.4579L54.9889 24.4348L55.1137 24.3982L55.2222 24.3494L55.3158 24.2897L55.3985 24.2164C55.4691 24.1323 55.5233 24.0509 55.5722 23.9532C55.7553 23.5219 55.7987 23.043 55.8258 22.5805C55.8326 22.4109 55.8367 22.2427 55.838 22.0745L55.8367 10.752C55.8245 10.2067 55.7946 9.64109 55.6047 9.12291C55.5667 9.03474 55.5247 8.96149 55.4745 8.87739L55.3999 8.78785L55.3171 8.71326L55.2235 8.6522L55.115 8.60471L54.9902 8.56944L54.8464 8.54506L54.3364 8.51927V7.16549H63.749V8.51927L63.2376 8.54506L63.0897 8.56944L62.9582 8.60881L62.8429 8.66035L62.7384 8.72679L62.6435 8.80822C62.5621 8.8991 62.497 8.9859 62.4386 9.0917L62.3668 9.24905C62.2406 9.59088 62.189 9.93134 62.1551 10.2935C62.1402 10.5051 62.1334 10.7168 62.1321 10.9297V15.3111L66.877 10.7819C66.8757 10.6652 66.8702 10.5499 66.8648 10.4346C66.8336 9.95441 66.7807 9.44576 66.546 9.01847L66.4647 8.89908L66.3792 8.80275L66.2856 8.7241L66.1812 8.65899L66.0645 8.60745L65.9316 8.56944L65.781 8.54506L65.2669 8.51927V7.16549H74.6741V8.51927L74.1654 8.54506L74.0243 8.56944L73.9009 8.60471L73.7937 8.65356L73.7001 8.71462L73.616 8.79058C73.5441 8.87604 73.4871 8.95877 73.4383 9.0578C73.2511 9.48644 73.2091 9.96256 73.1819 10.4251C73.1765 10.5933 73.1724 10.7602 73.1711 10.9284V22.2495C73.1833 22.7921 73.2118 23.3591 73.4058 23.8732C73.4437 23.9614 73.4871 24.036 73.5387 24.1214L73.6146 24.2123L73.6987 24.2883L73.7923 24.3494L73.8995 24.3982L74.0229 24.4334L74.164 24.4579L74.6727 24.4836V25.8374H65.2655V24.4904L65.7864 24.4551L65.9492 24.4266L66.0916 24.3846L66.2137 24.3304L66.3195 24.2639L66.4118 24.1839C66.4877 24.097 66.546 24.0143 66.5976 23.9112C66.7943 23.4649 66.8363 22.9603 66.8635 22.4787C66.8702 22.2997 66.8743 22.1206 66.8757 21.9416V14.3033L62.1307 18.8353V21.9429H62.1321ZM83.9334 10.8782C83.8113 11.0219 83.6933 11.1698 83.5766 11.319C82.7464 12.4205 82.0655 13.6359 81.5134 14.9001C81.0576 15.9609 80.69 17.0637 80.416 18.1855L80.355 18.45C80.1013 19.6071 79.9562 20.7967 79.9751 21.9823C79.9846 22.1817 80.0077 22.373 80.0471 22.571C80.0918 22.7582 80.1474 22.9305 80.222 23.1082C80.3034 23.2818 80.3916 23.4391 80.5001 23.5978C80.5652 23.6833 80.629 23.7606 80.7049 23.8393C80.785 23.9126 80.8636 23.975 80.9545 24.0374C81.0888 24.1201 81.219 24.1825 81.3655 24.2408C81.4903 24.2829 81.6124 24.3181 81.7399 24.348C82.0682 24.409 82.4046 24.4389 82.7356 24.4836V25.8374H76.0834C76.0834 25.4237 76.0807 25.0127 76.0997 24.6003C76.1621 23.4066 76.3357 22.2224 76.5446 21.0463C76.6762 20.3084 76.8458 19.5827 77.0425 18.8624C77.1578 18.446 77.2825 18.035 77.4141 17.6239C77.7451 16.612 78.1154 15.6123 78.54 14.637C78.8194 14.0103 79.1247 13.4012 79.457 12.8017C79.6591 12.4449 79.8707 12.095 80.0891 11.7491C80.5354 11.06 81.0129 10.4007 81.5297 9.76178C81.5975 9.6614 81.6558 9.56374 81.7115 9.45251L81.782 9.25447C81.8254 9.05643 81.8593 8.79872 81.7304 8.62645C81.6328 8.54642 81.5378 8.54638 81.4171 8.5396H80.8324V7.16822H95.2165V8.5247L94.7323 8.54506L94.5003 8.58576L94.3226 8.65899L94.1856 8.76206C94.0893 8.86922 94.0228 8.9764 93.9563 9.10391C93.9075 9.21379 93.8722 9.31688 93.8397 9.43082C93.7732 9.73603 93.7502 10.044 93.7339 10.3559C93.7203 10.6476 93.7135 10.9392 93.7135 11.2309V22.1234C93.723 22.6944 93.7461 23.2791 93.8885 23.8366C93.917 23.9329 93.9482 24.017 93.9889 24.1093L94.0499 24.1988L94.1245 24.2734L94.2181 24.3371L94.3362 24.3914L94.4827 24.4321L94.6604 24.4592L95.2138 24.485V25.8374H85.8921V24.5067L86.3832 24.4891L86.63 24.4497L86.8199 24.3778L86.961 24.2801C87.056 24.1798 87.1211 24.0794 87.1862 23.9587C87.2337 23.8529 87.2703 23.7538 87.3015 23.644C87.3679 23.3388 87.3856 23.0281 87.3991 22.7175C87.4114 22.4123 87.4154 22.1084 87.4168 21.8032L87.4154 11.1793C87.4032 10.771 87.3734 10.3193 87.1645 9.95986C87.1156 9.88662 87.0627 9.83099 86.999 9.7713C86.9054 9.70619 86.8294 9.66956 86.7209 9.63023L86.4659 9.58274L86.1593 9.58138L85.8528 9.62075L85.5516 9.69803C85.3956 9.75501 85.2532 9.81741 85.104 9.89202C84.948 9.98019 84.8056 10.0751 84.6591 10.1796C84.5044 10.3017 84.3607 10.4292 84.2169 10.5648L83.9334 10.8782ZM95.9938 23.7728L94.4582 30.9255L95.6913 31.1711L95.8134 30.7288C95.9015 30.4277 96.0019 30.1374 96.1199 29.8499C96.2569 29.5284 96.4089 29.2204 96.5838 28.9179C96.7629 28.6182 96.9555 28.3374 97.1698 28.0634C97.4995 27.6537 97.8562 27.2752 98.2672 26.947C98.3703 26.8697 98.4734 26.7964 98.5806 26.7245C98.8017 26.5834 99.0241 26.4627 99.2629 26.3529C99.5125 26.2457 99.7607 26.1561 100.023 26.0815C100.302 26.0069 100.579 25.9513 100.865 25.9093C101.174 25.8713 101.478 25.8483 101.79 25.8401L110.551 25.8388C110.722 25.8401 110.892 25.8455 111.064 25.855C111.382 25.8781 111.69 25.9174 112.004 25.9785C112.243 26.03 112.472 26.0938 112.706 26.1724C113.171 26.3447 113.602 26.5672 114.013 26.8466L114.215 26.9958C114.735 27.4095 115.165 27.9101 115.539 28.4554C115.964 29.0997 116.299 29.8051 116.588 30.5186C116.672 30.7342 116.755 30.9527 116.835 31.1697L118.005 30.9255L116.656 23.8718L116.15 24.1445C116.037 24.1988 115.926 24.2517 115.802 24.272C115.587 24.2829 115.519 24.1404 115.444 23.9641L115.405 23.8244C115.275 23.2601 115.256 22.6714 115.248 22.0976V11.2295C115.248 10.9378 115.253 10.6462 115.268 10.3546C115.284 10.0439 115.307 9.73466 115.374 9.42945C115.406 9.31551 115.443 9.21242 115.49 9.10255C115.557 8.97504 115.623 8.8679 115.72 8.76074L115.857 8.65762L116.034 8.58439L116.266 8.5437L116.751 8.52333V7.16685H102.371V8.53827H102.95C103.062 8.54506 103.152 8.54504 103.243 8.61829C103.369 8.78785 103.327 9.06184 103.286 9.25311L103.216 9.45793C103.163 9.56645 103.106 9.6614 103.039 9.76178C102.71 10.1701 102.395 10.5838 102.094 11.0125C101.881 11.3218 101.676 11.6337 101.477 11.9512C101.017 12.7081 100.603 13.4853 100.225 14.2857C99.5654 15.7086 99.0336 17.1844 98.6145 18.6955C98.3446 19.6993 98.1221 20.718 97.9444 21.7435L97.8169 22.4015C97.7531 22.6741 97.6839 22.9399 97.6039 23.2099L97.4493 23.6277L97.2892 23.9451L97.1346 24.1594C97.0559 24.2367 96.9989 24.2883 96.8931 24.3195L96.8009 24.3236C96.7073 24.3086 96.6408 24.2761 96.5608 24.2286L95.9938 23.7728ZM107.2 23.2615H103.345C103.094 23.2601 102.843 23.256 102.593 23.2438C102.341 23.2275 102.091 23.2153 101.866 23.0919C101.732 23.001 101.671 22.8993 101.618 22.75C101.527 22.4571 101.498 22.1478 101.473 21.8439C101.474 21.3203 101.501 20.8022 101.555 20.284C101.612 19.7522 101.696 19.2286 101.804 18.705C101.927 18.1245 102.08 17.5575 102.254 16.9932C102.476 16.2824 102.731 15.5879 103.027 14.9056C103.557 13.7024 104.202 12.5467 104.98 11.4859L105.223 11.1725C105.4 10.9568 105.58 10.7493 105.771 10.5458C105.954 10.3641 106.137 10.1972 106.34 10.0399C106.444 9.96528 106.549 9.89609 106.66 9.83369C106.747 9.78893 106.833 9.75095 106.924 9.71703C107.198 9.62751 107.464 9.58817 107.753 9.57732L108.005 9.58274L108.264 9.63023C108.372 9.66821 108.448 9.70619 108.541 9.7713C108.604 9.82963 108.655 9.88388 108.703 9.95713C108.907 10.3207 108.939 10.771 108.951 11.1793L108.952 21.8005L108.937 22.1708C108.921 22.3146 108.899 22.4489 108.864 22.5913C108.833 22.6863 108.802 22.765 108.75 22.8504C108.654 22.9793 108.567 23.0634 108.422 23.1353L108.286 23.1773C107.928 23.2479 107.565 23.2587 107.2 23.2615Z" fill="white"/>
<path fill-rule="evenodd" clip-rule="evenodd" d="M43.5905 9.31167C42.7115 9.31167 42.1337 9.44867 41.842 9.72675C41.6603 9.90852 41.568 10.3277 41.568 10.9842V13.2522C43.1619 13.2522 44.6513 13.3933 46.0403 13.6795C47.4293 13.9617 48.6488 14.3931 49.696 14.9763C50.7486 15.5556 51.568 16.288 52.1553 17.1711C52.744 18.0501 53.0384 19.0797 53.0384 20.2503C53.0384 21.1714 52.801 21.9947 52.3276 22.7232C51.8542 23.4516 51.1895 24.0566 50.3376 24.5395C49.2402 25.173 47.4728 25.4917 45.0365 25.4917H34.4899V24.8121C35.0461 24.8121 35.4327 24.5992 35.6552 24.18C35.879 23.7568 35.9929 23.0555 35.9929 22.0761V10.9272C35.9929 9.94787 35.879 9.24793 35.6552 8.82336C35.4327 8.40421 35.0447 8.19123 34.4899 8.19123V7.51163H47.6545H48.3694C49.1344 7.51163 49.6621 7.36651 49.9497 7.0708L51.3428 13.3553L50.7419 13.552C50.3539 12.2484 49.6268 11.2148 48.5606 10.4552C47.4904 9.69422 46.2614 9.31167 44.867 9.31167H43.5905ZM41.568 21.8849C41.568 22.4139 41.5965 22.7964 41.6548 23.0283C41.7132 23.2617 41.8542 23.4339 42.0821 23.5384C42.31 23.6428 42.683 23.693 43.208 23.693C43.9866 23.693 44.6825 23.552 45.2983 23.2698C45.9128 22.9877 46.3916 22.5685 46.7335 22.0124C47.0794 21.4576 47.2517 20.7793 47.2517 19.9776C47.2517 19.0946 47.0061 18.2888 46.5151 17.5509C46.0227 16.813 45.3444 16.2297 44.4804 15.8065C43.6109 15.3792 42.641 15.1635 41.5694 15.1635V21.8849H41.568ZM61.7863 21.9445C61.7863 22.9836 61.9043 23.7161 62.1417 24.1434C62.3736 24.5761 62.7969 24.7985 63.4032 24.8121V25.4917H54.6824V24.8121C55.2386 24.8121 55.6252 24.6033 55.8476 24.18C56.0715 23.7568 56.184 23.0555 56.184 22.0761V10.9272C56.184 9.94787 56.0715 9.24793 55.8476 8.82336C55.6238 8.39878 55.2372 8.19123 54.6824 8.19123V7.51163H63.4032V8.19123C62.843 8.19123 62.4374 8.40827 62.1783 8.84641C61.9192 9.28727 61.7863 9.97906 61.7863 10.9259V16.1171L67.223 10.9259C67.223 9.96549 67.0955 9.26829 66.8405 8.83693C66.5855 8.40422 66.1758 8.18987 65.6115 8.18987V7.51031H74.3269V8.18987C73.7762 8.18987 73.3936 8.40284 73.1658 8.82741C72.9379 9.25063 72.8239 9.95193 72.8239 10.9259V22.0748C72.8239 23.0487 72.9379 23.75 73.1658 24.1732C73.3936 24.5965 73.7762 24.8108 74.3269 24.8108V25.4904H65.6115V24.8108C66.2125 24.7972 66.6357 24.5747 66.869 24.142C67.105 23.7147 67.2244 22.9822 67.2244 21.9432V13.4951L61.7876 18.6863V21.9445H61.7863ZM83.6716 10.6519C83.011 11.4251 82.3694 12.4099 81.7455 13.6077C81.1255 14.8 80.6155 16.1212 80.2194 17.5645C79.8233 19.0078 79.628 20.4375 79.628 21.8577C79.628 22.5916 79.8233 23.2386 80.2194 23.7989C80.6114 24.3591 81.2531 24.6765 82.1456 24.7552L82.3911 24.7864V25.4931H76.4294V25.2462C76.4294 24.1909 76.58 22.8154 76.8852 21.1062C77.185 19.4039 77.7371 17.5455 78.5428 15.5243C79.3445 13.5073 80.4338 11.653 81.8079 9.96821C82.0493 9.63588 82.1673 9.30353 82.1673 8.9617C82.1673 8.4476 81.9218 8.19397 81.4294 8.19397H81.1785V7.51436H94.8721V8.19397C94.4122 8.19397 94.0758 8.33503 93.8561 8.6131C93.6377 8.89525 93.502 9.23573 93.4518 9.63725C93.3962 10.0428 93.3691 10.5705 93.3691 11.2311V21.9459C93.3691 22.9253 93.4518 23.6496 93.6146 24.1136C93.7787 24.5829 94.1979 24.8148 94.8721 24.8148V25.4944H86.2435V24.8433C86.7169 24.8433 87.0669 24.7104 87.2907 24.4431C87.5091 24.1746 87.6461 23.8422 87.6963 23.4462C87.7465 23.0446 87.7696 22.4993 87.7696 21.8075V11.3111C87.7696 10.5732 87.6556 10.0401 87.4237 9.71727C87.1917 9.39307 86.8227 9.23438 86.3222 9.23438C85.374 9.23031 84.4923 9.7037 83.6716 10.6519ZM96.2123 24.3984L94.8694 30.6545L95.4431 30.7684C95.8352 29.3116 96.5677 28.0636 97.6379 27.034C98.7041 26.0045 100.143 25.4904 101.951 25.4904H110.553C111.523 25.4904 112.369 25.645 113.098 25.9502C113.822 26.2609 114.432 26.6596 114.919 27.1575C115.412 27.6485 115.826 28.2033 116.167 28.8205C116.505 29.435 116.805 30.0861 117.054 30.7698L117.601 30.6558L116.403 24.3998C116.144 24.5449 115.934 24.6182 115.775 24.6182C115.42 24.6182 115.183 24.3862 115.069 23.9114C114.955 23.4421 114.9 22.7829 114.9 21.9445V11.2297C114.9 10.5705 114.928 10.0415 114.982 9.63588C115.032 9.23437 115.169 8.89389 115.387 8.61174C115.607 8.33366 115.944 8.1926 116.403 8.1926V7.513H102.714V8.1926H102.961C103.434 8.1926 103.672 8.43812 103.672 8.93459C103.672 9.30219 103.553 9.64402 103.316 9.96821C102.561 10.8933 101.896 11.8659 101.326 12.8914C100.756 13.9156 100.275 14.9465 99.8775 15.9788C99.4773 17.0124 99.1531 18.0053 98.8981 18.9657C98.6471 19.9261 98.4437 20.8729 98.2836 21.8035C97.9553 23.7147 97.4724 24.6711 96.8403 24.6711C96.6314 24.6724 96.4225 24.5802 96.2123 24.3984ZM107.201 23.6062H103.345C102.862 23.6062 102.497 23.5913 102.238 23.5601C101.983 23.5289 101.778 23.4557 101.627 23.3471C101.473 23.2332 101.359 23.0731 101.291 22.8602C101.218 22.6458 101.163 22.3135 101.127 21.8577C101.127 20.428 101.326 18.9942 101.726 17.555C102.128 16.1158 102.638 14.8054 103.262 13.6171C103.882 12.4275 104.527 11.44 105.206 10.6519C105.634 10.1554 106.044 9.79054 106.427 9.56808C106.809 9.34426 107.282 9.23028 107.852 9.23028C108.362 9.23028 108.731 9.38901 108.958 9.71321C109.186 10.0361 109.3 10.5691 109.3 11.3071V21.8035C109.3 22.3718 109.214 22.7869 109.04 23.0406C108.868 23.2956 108.64 23.4556 108.366 23.5153C108.09 23.5737 107.702 23.6062 107.201 23.6062Z" fill="#35BCA8"/>
<path d="M16.2262 32.4523C25.1876 32.4523 32.4523 25.1876 32.4523 16.2262C32.4523 7.2647 25.1876 0 16.2262 0C7.26471 0 0 7.2647 0 16.2262C0 25.1876 7.26471 32.4523 16.2262 32.4523Z" fill="white"/>
<path d="M122.067 10.3452C123.874 10.3452 125.34 8.87972 125.34 7.07199C125.34 5.26427 123.874 3.79883 122.067 3.79883C120.259 3.79883 118.793 5.26427 118.793 7.07199C118.793 8.87972 120.259 10.3452 122.067 10.3452Z" fill="white"/>
<path fill-rule="evenodd" clip-rule="evenodd" d="M6.38912 15.1345C6.45424 14.4074 6.57088 13.5691 6.90186 12.9262C7.39426 11.9712 7.60859 11.6606 8.48759 10.8969C9.43034 10.0776 10.7081 9.94059 11.0011 9.9121C11.2141 9.8904 12.7537 9.7344 13.4835 10.7178C13.4889 10.726 13.6585 10.924 13.767 11.118C13.8511 11.2658 13.9583 11.4761 13.9718 11.5168C14.0451 11.5887 14.0763 11.5466 14.0559 11.3527C13.9067 10.8399 13.6449 10.5578 13.5567 10.3367C13.5038 10.2743 13.3845 10.0613 13.4306 9.94601C13.4767 9.83206 13.5418 9.84562 13.6395 9.80493C13.908 9.69234 13.9487 9.65165 14.3448 9.44275C15.236 8.69127 15.6009 7.18152 14.7884 6.10584C14.06 5.14003 13.1823 4.56486 11.7228 4.50653C10.2618 4.4482 9.52122 5.34485 9.4344 5.57273C9.35844 5.77214 9.17666 5.98917 9.19023 6.5833C9.18345 6.18585 9.44796 5.277 10.5793 4.99078C11.6658 4.71542 13.9189 5.43573 14.1115 7.66035C14.254 9.29897 13.318 9.65709 13.2556 9.85378L13.1851 9.81983C13.2502 9.73166 13.6883 9.31119 13.6653 8.64923C13.6327 7.74175 13.2936 6.70811 12.0917 6.29845C10.8899 5.8888 9.45746 5.85758 9.27027 6.63484C9.05323 7.53961 10.4111 8.47965 10.8777 8.61801C10.8397 8.57189 10.5359 8.43896 10.5467 8.08628C10.5684 7.45552 11.5681 7.43926 11.8544 7.49216C13.6178 7.80822 13.2366 9.37223 13.2366 9.35052C13.2257 9.02633 12.9043 7.93979 11.9602 7.82449C11.4569 7.78244 11.1368 7.92759 11.0133 8.0768C10.8167 8.31554 10.9197 8.62208 11.1327 8.69398C11.7974 8.91915 11.7553 8.76586 12.4525 8.91507C13.1498 9.06564 13.0725 9.6028 12.4987 9.59195C11.9398 9.58109 11.5817 9.54586 10.2944 9.76697C8.94472 10.0003 7.87718 11.0271 7.54077 11.4381C7.20029 11.8573 6.35792 12.7159 6.08799 14.4956C5.81805 16.274 5.79225 16.9196 6.1992 18.8011C6.31992 19.3599 6.53969 19.8429 6.82997 20.243C7.51771 21.1939 8.47672 21.5601 9.59039 21.5262C11.1747 21.4774 11.4393 20.966 12.8202 20.9239C14.2024 20.8832 14.6799 21.6334 16.3131 21.5845C17.9463 21.5357 18.1891 20.9429 19.4411 20.9063C20.6931 20.8697 21.2995 21.7704 22.6628 21.6334C24.1698 21.4842 24.9755 21.065 25.6429 20.2701C26.1272 19.6923 26.2832 18.8065 26.606 17.6847C25.6565 18.4836 24.0057 18.7658 22.481 18.2829C20.9563 17.8027 20.2387 17.7118 18.3817 18.3046C16.5247 18.8974 15.822 18.4864 14.7925 18.1201C13.7629 17.7539 13.1471 17.7593 12.34 17.9248C11.5125 18.0957 10.1791 18.5894 9.19973 18.5555C8.219 18.5216 8.0006 18.2924 7.86631 18.2721C7.73202 18.2531 7.01716 17.7783 6.75807 17.1231C6.5017 16.4706 6.34165 15.6635 6.38912 15.1345ZM6.43253 14.9785C6.43117 15.0884 6.52341 15.9633 6.90594 16.6795C7.28846 17.3958 8.1783 17.9763 8.31124 17.9831C8.44417 17.9899 8.68699 18.1581 10.327 17.6901C11.967 17.2221 12.5299 17.1313 13.6368 17.1313C14.745 17.1299 15.666 17.7796 16.7973 17.8095C17.9002 17.838 19.0654 17.1855 20.3961 17.1787C21.7268 17.172 22.1798 17.7213 23.8442 17.7227C25.5086 17.724 26.7593 16.9522 26.8434 16.7921C26.6888 17.1313 25.3621 17.956 23.8035 17.9248C22.2463 17.8936 21.6874 17.374 20.3554 17.3808C19.0247 17.3876 17.8595 18.0401 16.7567 18.0116C15.6254 17.9817 14.703 17.332 13.5947 17.3333C12.4878 17.3333 11.6604 17.5341 10.2849 17.8922C8.90945 18.249 8.76294 18.2015 8.27597 18.1608C7.78899 18.1215 7.07141 17.3714 6.79876 16.7596C6.52882 16.1492 6.4054 15.2403 6.43253 14.9785ZM9.83048 24.5077C11.016 25.2931 11.4447 24.5105 12.8256 24.3721C14.1997 24.2365 14.7219 25.0097 16.3565 24.9608C17.991 24.912 18.2895 24.3897 19.5117 24.4332C20.2469 24.4603 21.6766 25.2335 22.6519 24.383C20.9278 25.871 18.965 26.6157 16.4786 26.6903C13.9922 26.7649 11.6373 25.9307 9.83048 24.5077ZM13.8999 9.57841C14.8128 8.71162 15.5385 6.93057 13.6897 5.30958C16.1842 7.21543 14.5388 9.29626 13.8999 9.57841ZM23.8809 23.2842C22.1622 24.8483 20.5155 23.9787 19.5117 23.8797C18.2651 23.759 17.9273 24.3586 16.2927 24.4074C14.6582 24.4562 14.2065 23.7793 12.8256 23.82C11.4447 23.8607 10.1818 25.1087 8.73988 23.5134C7.98432 22.7579 7.28709 21.7609 6.89507 20.7381C7.57331 21.6646 8.4496 22.1312 9.56327 22.0986C11.1463 22.0512 11.3687 21.4557 12.751 21.415C14.1319 21.3743 14.646 22.1624 16.2819 22.1136C17.9151 22.0648 18.2474 21.5642 19.4994 21.5249C20.7515 21.4883 21.2886 22.1841 22.6587 22.1624C24.0816 22.1407 25.5195 21.1139 25.6266 20.8222C25.3879 21.4232 24.4248 22.7688 23.8809 23.2842ZM18.9718 27.0268C17.4349 26.6334 16.1096 27.6182 15.9102 28.4795C15.8058 28.9258 15.9224 29.2947 16.2073 29.3666C17.131 29.6013 17.1853 28.3398 17.4417 27.9315C17.6804 27.5544 18.2121 27.2045 18.9718 27.0268ZM16.2263 2.13133C23.9894 2.13133 30.3201 8.46339 30.3201 16.2265C30.3201 23.9896 23.9894 30.3202 16.2263 30.3202C8.46317 30.3202 2.1325 23.9896 2.1325 16.2265C2.1325 8.46339 8.46453 2.13133 16.2263 2.13133ZM16.2263 1.74747C24.201 1.74747 30.7053 8.25178 30.7053 16.2265C30.7053 24.2012 24.201 30.7042 16.2263 30.7042C8.25292 30.7042 1.74862 24.2012 1.74862 16.2265C1.74862 8.25178 8.25292 1.74747 16.2263 1.74747ZM16.2263 1.12486C24.5442 1.12486 31.3279 7.90859 31.3279 16.2265C31.3279 24.5444 24.5442 31.3281 16.2263 31.3281C7.90973 31.3281 1.12463 24.5444 1.12463 16.2265C1.12463 7.90859 7.90973 1.12486 16.2263 1.12486ZM16.2263 0.450684C24.9145 0.450684 32.0007 7.53827 32.0007 16.2265C32.0007 24.9147 24.9145 32.0009 16.2263 32.0009C7.53806 32.0009 0.451813 24.9147 0.451813 16.2265C0.451813 7.53827 7.53806 0.450684 16.2263 0.450684Z" fill="#35BCA8"/>
<path fill-rule="evenodd" clip-rule="evenodd" d="M121.932 6.82128C122.097 6.82128 122.211 6.78464 122.277 6.70868C122.342 6.63272 122.379 6.55136 122.386 6.46183C122.386 6.45505 122.386 6.44825 122.386 6.44147C122.386 6.43468 122.386 6.42789 122.386 6.42247C122.386 6.41568 122.386 6.40755 122.386 6.39941C122.386 6.39127 122.386 6.38179 122.386 6.37229C122.376 6.28683 122.338 6.20818 122.273 6.13493C122.207 6.06303 122.094 6.02775 121.934 6.02775H121.747V6.81859H121.932V6.82128ZM120.732 5.27218H120.781H122.208C122.24 5.27218 122.315 5.27627 122.429 5.28576C122.544 5.2939 122.665 5.32372 122.794 5.37526C122.944 5.43902 123.083 5.53941 123.209 5.68184C123.335 5.82292 123.399 6.0318 123.399 6.30581C123.399 6.6083 123.327 6.83756 123.185 6.9922C123.042 7.1482 122.885 7.25942 122.714 7.32453C122.708 7.3286 122.702 7.33133 122.695 7.33269C122.688 7.33404 122.683 7.33676 122.676 7.33948L123.639 8.71764H123.59H122.425L121.745 7.66096V8.71764H121.696H120.733V5.27218H120.732ZM122.067 9.70515C120.617 9.70515 119.433 8.52229 119.433 7.07222C119.433 5.62215 120.617 4.43933 122.067 4.43933C123.517 4.43933 124.7 5.62215 124.7 7.07222C124.7 8.52229 123.517 9.70515 122.067 9.70515ZM122.067 9.98189C120.465 9.98189 119.157 8.67558 119.157 7.07222C119.157 5.47022 120.465 4.1626 122.067 4.1626C123.669 4.1626 124.976 5.47022 124.976 7.07222C124.975 8.67558 123.669 9.98189 122.067 9.98189Z" fill="#35BCA8"/>
<path fill-rule="evenodd" clip-rule="evenodd" d="M12.6707 42.7598C11.8175 42.7598 11.1392 42.502 10.636 41.9866C10.1327 41.4698 9.88315 40.7441 9.88315 39.8095C9.88315 38.9074 10.1354 38.1885 10.6387 37.6527C11.1419 37.1155 11.8215 36.8469 12.6748 36.8469C12.9013 36.8469 13.1048 36.8591 13.2865 36.8835C13.4683 36.9106 13.6419 36.9459 13.8074 36.9907C13.9363 37.0287 14.0787 37.0816 14.2307 37.1467C14.3826 37.2145 14.5074 37.2715 14.601 37.319V38.6768H14.4558C14.3866 38.6157 14.2998 38.5411 14.1954 38.457C14.0909 38.3729 13.9716 38.2875 13.84 38.2061C13.707 38.1233 13.5605 38.0555 13.4018 37.9985C13.2431 37.9402 13.0763 37.9131 12.9027 37.9131C12.6965 37.9131 12.5066 37.9443 12.3357 38.0094C12.1634 38.0759 11.9992 38.1871 11.8432 38.3472C11.7008 38.4923 11.5842 38.6904 11.4933 38.9372C11.4038 39.1855 11.3576 39.4757 11.3576 39.8135C11.3576 40.1689 11.4051 40.4646 11.4987 40.7074C11.5937 40.9475 11.7171 41.1415 11.8704 41.2894C12.0182 41.4318 12.1824 41.5362 12.3655 41.6C12.5486 41.6637 12.7304 41.6936 12.9108 41.6936C13.0993 41.6936 13.2784 41.6637 13.4493 41.6013C13.6202 41.5376 13.7627 41.4684 13.8807 41.3938C14.0082 41.3138 14.1208 41.2337 14.2171 41.1523C14.3134 41.0682 14.3988 40.9977 14.4694 40.9339H14.5996V42.2715C14.4952 42.3189 14.3744 42.3759 14.2374 42.4383C14.0991 42.5007 13.958 42.5536 13.8115 42.5956C13.6338 42.6499 13.4669 42.6892 13.311 42.7191C13.1577 42.7448 12.9433 42.7598 12.6707 42.7598ZM20.2493 42.6499H18.8183V38.0433H16.8717V42.6499H15.442V36.9568H20.248V42.6499H20.2493ZM21.4267 42.6499V36.9568H25.2764V38.0433H22.8483V39.0417H25.0852V40.1268H22.8483V41.5647H25.2764V42.6513H21.4267V42.6499ZM31.5772 43.9575H30.2655V42.6499H26.2436V36.9568H27.6747V41.5674H29.609V36.9568H31.0387V41.5674H31.5772V43.9575ZM37.2392 42.6499H35.8325V38.8979L33.6459 42.6499H32.3219V36.9568H33.7286V40.348L35.7498 36.9568H37.2378V42.6499H37.2392ZM37.7804 42.6499L39.7039 36.9568H41.2638L43.1873 42.6499H41.7155L41.3588 41.4874H39.5723L39.2156 42.6499H37.7804ZM41.0468 40.4551L40.4662 38.5791L39.8843 40.4551H41.0468ZM48.6539 42.6499V36.9568H44.4556C44.4407 37.4343 44.4312 37.7978 44.4271 38.0474C44.4244 38.297 44.4149 38.5791 44.3986 38.8911C44.3634 39.5788 44.3118 40.1025 44.244 40.4646C44.1775 40.8282 44.0514 41.0967 43.8683 41.269C43.8181 41.3192 43.7421 41.3531 43.6417 41.3734C43.5427 41.3938 43.4627 41.4033 43.3976 41.4033C43.3596 41.4033 43.3284 41.4019 43.304 41.3992C43.2809 41.3965 43.2565 41.3938 43.2294 41.3911H43.1751V42.6499C43.2131 42.654 43.304 42.6607 43.4464 42.6716C43.5875 42.6824 43.7204 42.6879 43.8411 42.6879C44.0188 42.6879 44.2006 42.6526 44.3837 42.5821C44.5669 42.5129 44.7215 42.4166 44.8422 42.2945C44.925 42.2131 45.0104 42.1019 45.1027 41.9622C45.1936 41.8211 45.2831 41.6298 45.374 41.3843C45.4553 41.155 45.5286 40.8594 45.5924 40.4999C45.6547 40.1391 45.7022 39.7104 45.7294 39.214C45.7402 39.0417 45.7497 38.8572 45.7578 38.6659C45.766 38.4733 45.7755 38.2671 45.7863 38.0447H47.2228V42.6513H48.6539V42.6499ZM54.7472 42.6499H53.3405V38.8979L51.1553 42.6499H49.8313V36.9568H51.238V40.348L53.2592 36.9568H54.7472V42.6499ZM59.5844 39.9532C59.7105 40.0631 59.8136 40.2001 59.8896 40.3615C59.9669 40.5229 60.0036 40.721 60.0036 40.9529C60.0036 41.5227 59.7852 41.9649 59.3484 42.2837C58.9116 42.6011 58.2835 42.7611 57.4656 42.7611C57.0939 42.7611 56.7385 42.7299 56.4007 42.6621C56.0643 42.5956 55.7551 42.5061 55.4743 42.3922V41.1184H55.6059C55.7958 41.2527 56.0481 41.3802 56.3601 41.5077C56.672 41.6339 56.9772 41.6963 57.2757 41.6963C57.6609 41.6963 57.9661 41.6271 58.1927 41.4915C58.4192 41.3518 58.5331 41.1415 58.5331 40.8553C58.5331 40.6071 58.4504 40.4253 58.2849 40.3059C58.1194 40.1879 57.821 40.1282 57.391 40.1282H56.573V39.1122H57.3516C57.7097 39.1122 57.9702 39.058 58.1357 38.9494C58.3025 38.8409 58.3839 38.6795 58.3839 38.4625C58.3839 38.2712 58.293 38.1328 58.1112 38.046C57.9295 37.9592 57.6867 37.9158 57.3828 37.9158C57.2119 37.9158 57.0492 37.9335 56.8945 37.9687C56.7399 38.0026 56.5906 38.0501 56.4414 38.103C56.3044 38.1546 56.1783 38.2102 56.0616 38.2712C55.9463 38.3322 55.8568 38.3784 55.7971 38.4096H55.6628V37.224C55.8283 37.1548 56.0982 37.0762 56.4753 36.9853C56.8511 36.8957 57.2458 36.8496 57.6596 36.8496C58.3934 36.8496 58.9428 36.9704 59.3063 37.2145C59.6712 37.4587 59.853 37.7964 59.853 38.2291C59.853 38.552 59.7526 38.8314 59.5532 39.0661C59.3538 39.3008 59.0947 39.4581 58.7786 39.5368V39.5938C58.8966 39.6155 59.0323 39.6575 59.1869 39.7213C59.3416 39.781 59.4745 39.8583 59.5844 39.9532ZM65.7957 42.6499H64.3877V38.8979L62.2024 42.6499H60.8785V36.9568H62.2865V40.348L64.3077 36.9568H65.7957V42.6499ZM71.3314 38.7541C71.3314 39.0186 71.2894 39.2709 71.2053 39.511C71.1212 39.7498 71.0005 39.9505 70.8418 40.1106C70.7455 40.2096 70.6383 40.3018 70.523 40.3846C70.4077 40.47 70.2789 40.5419 70.1378 40.5989C69.9967 40.6573 69.8448 40.7047 69.6806 40.7373C69.5165 40.7698 69.3334 40.7874 69.1285 40.7874H68.3798V42.6499H66.9501V36.9568H69.1598C69.488 36.9568 69.7715 36.9866 70.0102 37.0477C70.249 37.1073 70.4647 37.201 70.6573 37.3312C70.8716 37.4723 71.0371 37.6635 71.1551 37.9036C71.2732 38.1423 71.3314 38.4258 71.3314 38.7541ZM69.8624 38.788C69.8624 38.6266 69.8258 38.4882 69.7485 38.3716C69.6725 38.2563 69.5802 38.1762 69.4731 38.1328C69.3388 38.0745 69.21 38.0406 69.0852 38.0311C68.9617 38.0216 68.7935 38.0175 68.5819 38.0175H68.3798V39.724H68.4788C68.6144 39.724 68.7406 39.7226 68.8613 39.7199C68.9821 39.7172 69.0865 39.7077 69.1747 39.6928C69.252 39.6792 69.3334 39.6562 69.4175 39.6168C69.5016 39.5816 69.568 39.5382 69.6142 39.4934C69.7105 39.3998 69.777 39.3008 69.8095 39.199C69.8461 39.0986 69.8624 38.9616 69.8624 38.788ZM77.281 39.804C77.281 40.7264 77.0355 41.4481 76.5444 41.9771C76.052 42.5048 75.3778 42.7679 74.5219 42.7679C73.6619 42.7679 72.9891 42.5007 72.4994 41.9676C72.0097 41.4332 71.7642 40.7129 71.7642 39.804C71.7642 38.8884 72.0097 38.1654 72.4994 37.635C72.9891 37.1033 73.6619 36.8374 74.5219 36.8374C75.3778 36.8374 76.052 37.1019 76.5444 37.6309C77.0368 38.16 77.281 38.883 77.281 39.804ZM75.8051 39.8013C75.8051 39.4622 75.7698 39.1719 75.6993 38.9345C75.6301 38.6944 75.5365 38.5004 75.4185 38.3458C75.2951 38.1912 75.1567 38.0786 75.0034 38.0135C74.8488 37.9443 74.6887 37.9117 74.5232 37.9117C74.3482 37.9117 74.1882 37.9416 74.0458 38.004C73.9033 38.0677 73.765 38.1789 73.6334 38.339C73.5154 38.4855 73.4204 38.6836 73.3499 38.9278C73.2766 39.1733 73.24 39.4649 73.24 39.804C73.24 40.154 73.2739 40.4443 73.3431 40.6749C73.4123 40.9068 73.5059 41.0981 73.6253 41.2554C73.7473 41.4128 73.8857 41.5254 74.0417 41.5919C74.1964 41.661 74.3591 41.6936 74.5232 41.6936C74.6914 41.6936 74.8542 41.6583 75.0143 41.5851C75.1716 41.5132 75.3073 41.3992 75.4226 41.2473C75.546 41.0805 75.6396 40.8878 75.7061 40.6667C75.7726 40.447 75.8051 40.1581 75.8051 39.8013ZM82.6784 40.9068C82.6784 41.189 82.6241 41.4385 82.5183 41.6529C82.4111 41.8658 82.2674 42.0422 82.087 42.1846C81.8726 42.3528 81.638 42.4722 81.3802 42.5441C81.1252 42.616 80.7997 42.6513 80.4036 42.6513H78.1247V36.9581H80.135C80.5528 36.9581 80.8702 36.9744 81.0859 37.007C81.3016 37.0382 81.5037 37.1046 81.6909 37.2064C81.8944 37.3149 82.0476 37.4627 82.148 37.6459C82.2484 37.8304 82.2986 38.0406 82.2986 38.2807C82.2986 38.5588 82.2294 38.8056 82.0897 39.0227C81.9513 39.2384 81.76 39.3984 81.5159 39.5015V39.5314C81.8672 39.606 82.148 39.7565 82.361 39.9844C82.5726 40.211 82.6784 40.5189 82.6784 40.9068ZM80.8471 38.5669C80.8471 38.4747 80.8241 38.3797 80.7766 38.2834C80.7291 38.1871 80.6559 38.1165 80.5555 38.0745C80.4619 38.0324 80.3507 38.0094 80.2204 38.0053C80.0916 38.0026 79.9003 37.9999 79.6453 37.9999H79.5463V39.2058H79.7267C79.9709 39.2058 80.1431 39.2031 80.2408 39.1977C80.3385 39.1922 80.4402 39.1665 80.5447 39.1176C80.6572 39.0647 80.7386 38.9888 80.7807 38.8952C80.8254 38.8002 80.8471 38.6917 80.8471 38.5669ZM81.2066 40.8797C81.2066 40.7034 81.1713 40.5663 81.0994 40.466C81.0276 40.3669 80.9204 40.291 80.7793 40.2408C80.6938 40.2069 80.5731 40.1892 80.4212 40.1852C80.2693 40.1811 80.0658 40.1797 79.8121 40.1797H79.5476V41.6054H79.625C79.9966 41.6054 80.253 41.6013 80.3954 41.5973C80.5379 41.5905 80.6844 41.558 80.8309 41.4942C80.9611 41.4372 81.056 41.3558 81.1157 41.2473C81.1754 41.1388 81.2066 41.0167 81.2066 40.8797ZM82.8845 42.6499L84.808 36.9568H86.3666L88.2901 42.6499H86.8184L86.4602 41.4874H84.6737L84.317 42.6499H82.8845ZM86.1496 40.4551L85.569 38.5791L84.9871 40.4551H86.1496ZM93.6631 42.6499H92.2334V40.1268H90.2868V42.6499H88.8571V36.9568H90.2868V39.0417H92.2334V36.9568H93.6631V42.6499ZM99.6465 42.6499H98.2154V40.1268H96.2689V42.6499H94.8392V36.9568H96.2689V39.0417H98.2154V36.9568H99.6465V42.6499ZM105.313 40.8309C105.313 41.1076 105.26 41.3626 105.154 41.5959C105.048 41.8292 104.903 42.0192 104.721 42.167C104.501 42.3434 104.265 42.4681 104.012 42.54C103.758 42.6119 103.449 42.6485 103.085 42.6485H100.825V36.9554H102.251V39.0932H103.107C103.441 39.0932 103.744 39.1176 104.013 39.1638C104.283 39.2112 104.528 39.3225 104.75 39.4961C104.948 39.648 105.089 39.8406 105.178 40.0699C105.268 40.3005 105.313 40.5555 105.313 40.8309ZM103.837 40.8716C103.837 40.778 103.827 40.6884 103.807 40.6043C103.785 40.5202 103.742 40.4429 103.673 40.3724C103.603 40.3005 103.51 40.2449 103.389 40.2055C103.27 40.1662 103.104 40.1458 102.891 40.1458H102.25V41.5932H102.891C103.183 41.5932 103.412 41.5321 103.582 41.4074C103.751 41.2826 103.837 41.1049 103.837 40.8716ZM107.167 42.6499H105.737V36.9568H107.167V42.6499ZM108.344 42.6499V36.9568H112.194V38.0433H109.766V39.0417H112.003V40.1268H109.766V41.5647H112.194V42.6513H108.344V42.6499ZM16.0321 52.1005H14.6091V48.3281L13.5728 50.763H12.5974L11.5611 48.3281V52.1005H10.2155V46.4087H11.8622L13.1238 49.218L14.3812 46.4087H16.0293V52.1005H16.0321ZM16.5963 52.1005L18.5198 46.4087H20.0798L22.0032 52.1005H20.5315L20.1747 50.9379H18.3883L18.0315 52.1005H16.5963ZM19.8627 49.9043L19.2822 48.0297L18.7002 49.9043H19.8627ZM26.4077 47.4939H23.9986V52.1005H22.5675V46.4087H26.4077V47.4939ZM26.3847 52.1005H27.8198L28.1766 50.9379H29.963L30.3212 52.1005H31.7929L29.8694 46.4087H28.3109L26.3847 52.1005ZM29.6497 49.9043H28.4872L29.0691 48.0297L29.6497 49.9043ZM36.0373 49.4038C36.1635 49.5137 36.2666 49.6493 36.3425 49.8107C36.4199 49.9721 36.4565 50.1702 36.4565 50.4022C36.4565 50.9719 36.2381 51.4154 35.8013 51.7328C35.3645 52.0516 34.7365 52.2117 33.9185 52.2117C33.5468 52.2117 33.1915 52.1791 32.8537 52.1126C32.5173 52.0462 32.208 51.9567 31.9272 51.8414V50.569H32.0574C32.2487 50.7019 32.501 50.8308 32.8116 50.9569C33.1236 51.0845 33.4288 51.1469 33.7259 51.1469C34.1111 51.1469 34.4177 51.0777 34.6429 50.9407C34.8694 50.8023 34.9834 50.5907 34.9834 50.3059C34.9834 50.0563 34.9006 49.8745 34.7351 49.7565C34.5696 49.6371 34.2712 49.5788 33.8412 49.5788H33.0219V48.5614H33.8005C34.1586 48.5614 34.4204 48.5072 34.5859 48.3987C34.7514 48.2901 34.8341 48.1287 34.8341 47.913C34.8341 47.7204 34.7433 47.5834 34.5615 47.4966C34.3784 47.4084 34.1356 47.365 33.8331 47.365C33.6622 47.365 33.4994 47.384 33.3447 47.4179C33.1915 47.4532 33.0409 47.4993 32.8917 47.5535C32.7547 47.6037 32.6285 47.6607 32.5119 47.7217C32.3966 47.7814 32.307 47.8289 32.2474 47.8588H32.1131V46.6746C32.2786 46.6054 32.5485 46.5267 32.9242 46.4358C33.3 46.3463 33.6961 46.2988 34.1084 46.2988C34.8423 46.2988 35.3917 46.4209 35.7552 46.6651C36.1201 46.9079 36.3019 47.2456 36.3019 47.6784C36.3019 48.0026 36.2015 48.282 36.0007 48.5167C35.8013 48.75 35.5436 48.9073 35.2275 48.9874V49.0443C35.3442 49.066 35.4812 49.1067 35.6358 49.1718C35.7945 49.2315 35.9275 49.3102 36.0373 49.4038ZM42.2486 52.1005H40.842V48.3498L38.6567 52.1005H37.3328V46.4087H38.7394V49.7985L40.7606 46.4087H42.2486V52.1005ZM48.2104 52.1005H46.7793V49.5788H44.8327V52.1005H43.403V46.4087H44.8327V48.4923H46.7793V46.4087H48.2104V52.1005ZM53.8777 50.2814C53.8777 50.5595 53.8234 50.8145 53.7176 51.0465C53.6118 51.2798 53.4667 51.4697 53.2849 51.6175C53.0652 51.7952 52.8291 51.9187 52.5755 51.9906C52.3218 52.0625 52.0125 52.0991 51.649 52.0991H49.3891V46.4073H50.8161V48.5438H51.6721C52.0071 48.5438 52.3083 48.5682 52.5782 48.6157C52.8481 48.6618 53.0937 48.773 53.3148 48.9467C53.5128 49.0986 53.6539 49.2912 53.7434 49.5205C53.8316 49.7524 53.8777 50.0061 53.8777 50.2814ZM52.4019 50.3221C52.4019 50.2299 52.391 50.139 52.372 50.0549C52.3503 49.9708 52.3069 49.8935 52.2377 49.8229C52.1685 49.751 52.0736 49.6954 51.9542 49.6561C51.8349 49.6168 51.6694 49.5978 51.4578 49.5978H50.8161V51.0438H51.4578C51.748 51.0438 51.9786 50.9827 52.1482 50.8579C52.3164 50.7358 52.4019 50.5554 52.4019 50.3221ZM55.732 52.1005H54.3009V46.4087H55.732V52.1005ZM61.6571 52.2117C60.8039 52.2117 60.1256 51.954 59.6224 51.4371C59.1191 50.9203 58.8695 50.196 58.8695 49.26C58.8695 48.3593 59.1219 47.6404 59.6251 47.1032C60.1284 46.566 60.8079 46.2975 61.6611 46.2975C61.8877 46.2975 62.0912 46.311 62.2729 46.3355C62.4547 46.3612 62.6283 46.3965 62.7938 46.4426C62.9227 46.4806 63.0651 46.5321 63.217 46.5986C63.3689 46.6651 63.4938 46.722 63.5874 46.7709V48.1273H63.4435C63.3744 48.0663 63.2862 47.993 63.1831 47.9089C63.0787 47.8235 62.9593 47.7394 62.8277 47.658C62.6948 47.5752 62.5483 47.5061 62.3896 47.4491C62.2309 47.3921 62.0654 47.3637 61.8904 47.3637C61.6842 47.3637 61.4943 47.3948 61.3234 47.4613C61.1511 47.5264 60.987 47.639 60.831 47.7991C60.6885 47.9429 60.5719 48.1409 60.4824 48.3878C60.3915 48.6374 60.3454 48.9263 60.3454 49.2641C60.3454 49.6208 60.3928 49.9165 60.4864 50.158C60.5814 50.3981 60.7049 50.5921 60.8581 50.7399C61.0046 50.8837 61.1701 50.9881 61.3519 51.0505C61.535 51.1143 61.7168 51.1455 61.8972 51.1455C62.0857 51.1455 62.2648 51.1143 62.4357 51.0519C62.6066 50.9895 62.7504 50.9203 62.8671 50.8443C62.9946 50.7643 63.1071 50.6843 63.2034 50.6029C63.2998 50.5202 63.3852 50.4496 63.4558 50.3859H63.586V51.722C63.4815 51.7708 63.3608 51.8265 63.2238 51.8902C63.0855 51.9513 62.9444 52.0042 62.7979 52.0476C62.6202 52.1005 62.4533 52.1398 62.2973 52.1697C62.144 52.1968 61.9297 52.2117 61.6571 52.2117ZM63.8166 52.1005L65.7401 46.4087H67.3L69.2235 52.1005H67.7517L67.3936 50.9379H65.6071L65.2504 52.1005H63.8166ZM67.083 49.9043L66.5024 48.0297L65.9205 49.9043H67.083ZM74.5951 52.1005H73.1641V49.5788H71.2189V52.1005H69.7878V46.4087H71.2189V48.4923H73.1641V46.4087H74.5951V52.1005ZM76.8659 52.1005V47.4939H75.1838V46.4073H79.979V47.4939H78.297V52.1005H76.8659ZM80.5664 52.1005V46.4087H84.416V47.4952H81.9879V48.4923H84.2247V49.5788H81.9879V51.0166H84.416V52.1018H80.5664V52.1005ZM90.2 52.1005H88.5438L87.4477 50.2869L86.33 52.1005H84.7484L86.5972 49.2342L84.8202 46.4087H86.4738L87.4979 48.1287L88.5519 46.4087H90.1363L88.3511 49.1773L90.2 52.1005ZM95.55 52.1005H94.1189V49.5788H92.1737V52.1005H90.7426V46.4087H92.1737V48.4923H94.1189V46.4087H95.55V52.1005ZM101.643 52.1005H100.235V48.3498L98.05 52.1005H96.726V46.4087H98.134V49.7985L100.155 46.4087H101.643V52.1005ZM107.818 52.1005H106.113L104.59 49.8026H104.229V52.1005H102.798V46.4087H104.229V48.7296C104.451 48.7188 104.619 48.6686 104.731 48.5804C104.84 48.4909 104.972 48.2955 105.125 47.9917C105.17 47.9022 105.22 47.795 105.279 47.6729C105.336 47.5522 105.387 47.4451 105.429 47.3528C105.595 47.0096 105.797 46.7641 106.036 46.6176C106.273 46.4711 106.588 46.3978 106.978 46.3978C107.104 46.3978 107.21 46.3992 107.296 46.4033C107.38 46.4073 107.445 46.4101 107.49 46.4101V47.6281H107.161C106.999 47.6281 106.856 47.6797 106.734 47.7787C106.615 47.8791 106.49 48.0812 106.366 48.3823C106.267 48.6211 106.173 48.8029 106.084 48.925C105.998 49.0498 105.915 49.1311 105.837 49.1759L107.818 52.1005ZM113.196 52.1005H111.79V48.3498L109.604 52.1005H108.28V46.4087H109.689V49.7985L111.71 46.4087H113.198V52.1005H113.196Z" fill="#35BCA8" stroke="#00B9AB" stroke-width="0.216" stroke-miterlimit="22.9256"/>
</svg>
