<?xml version="1.0" encoding="iso-8859-1"?>
<!-- Generator: Adobe Illustrator 19.0.0, SVG Export Plug-In . SVG Version: 6.00 Build 0)  -->
<svg width="114" height="55" viewBox="0 0 114 55" fill="none" xmlns="http://www.w3.org/2000/svg">
<path fill-rule="evenodd" clip-rule="evenodd" d="M60.3695 9.11375C60.3695 9.04264 60.3512 8.90329 60.159 8.90329H59.2874C59.2182 8.90329 59.0779 8.9033 59.0625 9.11375L58.9741 10.1949C58.6445 14.4145 58.7137 12.7395 58.0852 16.3134C58.0852 16.3662 58.0679 16.4191 58.0852 16.4546C58.1025 16.5046 58.19 16.5738 58.3293 16.5738H60.1273C60.3877 16.5738 60.3695 16.4191 60.3695 16.3316V9.11375ZM62.3395 6.63731C62.9324 6.63731 62.9487 6.93137 62.9487 7.24657V16.3316C62.9487 16.5402 62.9487 16.5738 63.1582 16.5738H63.5426C63.8549 16.5738 64.1518 16.593 64.1518 17.185V20.483C64.1518 21.075 63.8539 21.0933 63.5426 21.0933H62.2703C61.6754 21.0933 61.66 20.7963 61.66 20.483V19.1041C61.66 18.9637 61.5543 18.8436 61.3785 18.8436H57.1425C56.81 18.8436 56.8283 19.0858 56.8283 19.1742V20.483C56.8283 21.075 56.5313 21.0933 56.218 21.0933H54.9457C54.3518 21.0933 54.3336 20.7963 54.3336 20.483V17.185C54.3336 16.593 54.6315 16.5738 54.9457 16.5738H55.1023C55.5386 16.5738 55.6789 15.5638 55.7664 15.1285C56.3583 12.3734 56.4467 9.87868 56.4967 8.51986L56.5505 7.13991C56.5688 6.61714 56.8455 6.63731 57.1588 6.63731H62.3395Z" fill="black"/>
<path fill-rule="evenodd" clip-rule="evenodd" d="M69.3921 16.5737C70.698 16.5737 71.2563 15.8789 71.2563 15.0765C71.2563 14.2904 70.7336 13.5236 69.3921 13.5236H68.6396C68.3609 13.5236 68.3609 13.7148 68.3609 13.8205V16.3652C68.3609 16.5237 68.4484 16.5737 68.5896 16.5737H69.3921ZM70.8739 10.0708C70.8739 9.53072 70.5587 8.90319 69.2325 8.90319H68.6761C68.4666 8.90319 68.36 9.02427 68.36 9.14727V11.049C68.36 11.1528 68.5003 11.2585 68.6925 11.2585L69.2498 11.2576C70.4203 11.2566 70.8739 10.6993 70.8739 10.0708ZM65.7817 7.12347C65.7817 6.91494 65.799 6.63721 66.3035 6.63721H69.6698C72.5114 6.63721 73.5752 8.10077 73.5752 9.7229C73.5752 10.803 73.0342 11.7448 71.9175 12.1811V12.2512C73.2427 12.6866 74.0461 13.8368 74.0461 15.3388C74.0461 17.1685 73.0342 18.8426 70.035 18.8426H66.3035C65.9383 18.8426 65.7817 18.6148 65.7817 18.2496V7.12347Z" fill="black"/>
<path fill-rule="evenodd" clip-rule="evenodd" d="M75.6634 7.24647C75.6634 6.93127 75.6807 6.63721 76.2736 6.63721H81.9924C82.5853 6.63721 82.6036 6.93127 82.6036 7.24647V8.48325C82.6036 8.88493 82.2211 8.90319 82.0635 8.90319H78.5579C78.4358 8.90319 78.2455 8.92145 78.2455 9.1838V11.0125C78.2455 11.1528 78.2273 11.3277 78.4358 11.3277H81.1909C81.5205 11.3277 81.5936 11.5536 81.5936 11.6583V13.2449C81.5936 13.3496 81.5936 13.5937 81.2438 13.5937H78.4714C78.2273 13.5937 78.2455 13.7504 78.2455 13.8907V16.3652C78.2455 16.4882 78.2628 16.5737 78.4358 16.5737H82.3604C82.7958 16.5737 82.8304 16.8187 82.8304 17.0119V18.2323C82.8304 18.5475 82.814 18.8435 82.2211 18.8435H76.2746C75.9594 18.8435 75.6644 18.8262 75.6644 18.2323V7.24647H75.6634Z" fill="black"/>
<path fill-rule="evenodd" clip-rule="evenodd" d="M87.7553 11.6578C88.6288 11.6578 89.3438 11.0995 89.3438 10.2452C89.3448 9.56671 88.9613 8.86617 87.739 8.86617H86.7799C86.6579 8.86617 86.5531 8.93631 86.5531 9.09295V11.481C86.5531 11.5694 86.6223 11.6568 86.7444 11.6568H87.7553V11.6578ZM87.7553 6.6367C91.7328 6.6367 92.1335 9.09391 92.1335 10.3691C92.1335 13.9238 88.4357 13.9238 87.9292 13.9238H86.8145C86.6569 13.9238 86.5531 14.0641 86.5531 14.1842V18.2309C86.5531 18.8247 86.2581 18.842 85.9429 18.842H84.5841C84.2689 18.842 83.9729 18.8247 83.9729 18.2309V7.245C83.9729 6.9298 83.9902 6.63574 84.5841 6.63574H87.7553V6.6367Z" fill="black"/>
<path fill-rule="evenodd" clip-rule="evenodd" d="M93.8834 18.8543C93.574 18.8543 93.2828 18.836 93.2828 18.245V7.25818C93.2828 6.94394 93.3011 6.64795 93.8834 6.64795H95.2221C95.8054 6.64795 95.8227 6.94394 95.8227 7.25818V12.9606H95.8755C95.8755 12.9606 98.6835 7.61086 98.8152 7.36197C99.042 6.92857 99.1169 6.64892 99.731 6.64892H100.947C101.53 6.64892 101.547 6.94489 101.547 7.25913V18.246C101.547 18.5583 101.529 18.8552 100.947 18.8552H99.607C99.0237 18.8552 99.0064 18.5583 99.0064 18.246V12.2629H98.9555C98.9555 12.2629 96.0879 18.0567 95.9774 18.246C95.8727 18.4247 95.7007 18.8552 95.1865 18.8552H93.8834V18.8543Z" fill="black"/>
<path fill-rule="evenodd" clip-rule="evenodd" d="M58.6483 33.1035C59.9552 33.1035 60.5136 32.4077 60.5136 31.6053C60.5136 30.8192 59.9918 30.0524 58.6483 30.0524H57.8978C57.6172 30.0524 57.6172 30.2436 57.6172 30.3493V32.894C57.6172 33.0526 57.7056 33.1035 57.8459 33.1035H58.6483ZM60.1301 26.5996C60.1301 26.0595 59.8149 25.432 58.4897 25.432H57.9305C57.7229 25.432 57.6172 25.5531 57.6172 25.6761V27.5779C57.6172 27.6817 57.7575 27.7874 57.9497 27.7874L58.509 27.7864C59.6746 27.7854 60.1301 27.2281 60.1301 26.5996ZM55.036 23.6523C55.036 23.4438 55.0562 23.167 55.5597 23.167H58.9241C61.7667 23.167 62.8295 24.6296 62.8295 26.2517C62.8295 27.3309 62.2894 28.2736 61.1737 28.7099V28.7801C62.4989 29.2154 63.3023 30.3647 63.3023 31.8667C63.3023 33.6974 62.2894 35.3714 59.2912 35.3714H55.5597C55.1936 35.3714 55.035 35.1436 55.035 34.7785V23.6523H55.036Z" fill="black"/>
<path fill-rule="evenodd" clip-rule="evenodd" d="M65.2204 23.7753C65.2204 23.4601 65.2377 23.167 65.8316 23.167H71.5523C72.1433 23.167 72.1615 23.4601 72.1615 23.7763V25.0121C72.1615 25.4138 71.7791 25.432 71.6215 25.432H68.1168C67.9957 25.432 67.8035 25.4503 67.8035 25.7126V27.5414C67.8035 27.6817 67.7843 27.8566 67.9957 27.8566H70.7527C71.0824 27.8566 71.1525 28.0824 71.1525 28.1871V29.7737C71.1525 29.8784 71.1525 30.1225 70.8046 30.1225H68.0313C67.7862 30.1225 67.8045 30.2792 67.8045 30.4195V32.894C67.8045 33.017 67.8218 33.1035 67.9967 33.1035H71.9194C72.3566 33.1035 72.3893 33.3476 72.3893 33.5407V34.7612C72.3893 35.0764 72.3739 35.3723 71.78 35.3723H65.8335C65.5221 35.3723 65.2223 35.355 65.2223 34.7612V23.7753H65.2204Z" fill="black"/>
<path fill-rule="evenodd" clip-rule="evenodd" d="M81.1938 23.167C81.7838 23.167 81.8011 23.4601 81.8011 23.7762V34.7612C81.8011 35.0764 81.7838 35.3723 81.1938 35.3723H79.8311C79.2392 35.3723 79.2219 35.0764 79.2219 34.7612V25.6588C79.2219 25.432 79.0643 25.3964 78.9067 25.3964H77.4066C77.3701 25.3964 77.1798 25.3965 77.1798 25.6069L77.1279 27.648C77.0241 31.6918 77.4594 35.4434 73.8327 35.4434C72.9111 35.4434 72.6478 35.355 72.6478 34.8669V33.3658C72.6478 33.1563 72.6632 32.9843 73.063 32.9843H73.2408C74.3209 32.9843 74.5285 33.0026 74.5659 26.565L74.5832 23.7762C74.5832 23.461 74.5986 23.1679 75.1925 23.1679H81.1938V23.167Z" fill="black"/>
<path fill-rule="evenodd" clip-rule="evenodd" d="M91.5079 23.167C92.0999 23.167 92.1191 23.4601 92.1191 23.7762V34.7612C92.1191 35.0764 92.0999 35.3723 91.5079 35.3723H90.1491C89.5543 35.3723 89.5379 35.0764 89.5379 34.7612V25.6588C89.5379 25.432 89.3803 25.3964 89.2227 25.3964H87.7236C87.689 25.3964 87.4968 25.3965 87.4968 25.6069L87.4449 27.648C87.3411 31.6918 87.7774 35.4434 84.1488 35.4434C83.2253 35.4434 82.962 35.355 82.962 34.8669V33.3658C82.962 33.1563 82.9812 32.9843 83.3819 32.9843H83.5549C84.6379 32.9843 84.8474 33.0026 84.8801 26.565L84.9003 23.7762C84.9003 23.461 84.9185 23.1679 85.5105 23.1679H91.5079V23.167Z" fill="black"/>
<path fill-rule="evenodd" clip-rule="evenodd" d="M0 54.335L14.1734 47.2488V7.08865L0 0.000488281V54.335Z" fill="url(#paint0_linear)"/>
<path fill-rule="evenodd" clip-rule="evenodd" d="M16.5364 54.3345L28.3497 47.2483V7.08816L16.5364 0V54.3345Z" fill="url(#paint1_linear)"/>
<path fill-rule="evenodd" clip-rule="evenodd" d="M30.7137 54.3345L37.8 47.2483V7.08816L30.7137 0V54.3345Z" fill="url(#paint2_linear)"/>
<path fill-rule="evenodd" clip-rule="evenodd" d="M40.1602 54.3345L44.8853 47.2483V7.08816L40.1602 0V54.3345Z" fill="url(#paint3_linear)"/>
<path fill-rule="evenodd" clip-rule="evenodd" d="M59.2865 40.6516H55.7001V45.6967C55.7001 47.8954 54.8679 48.0136 54.7266 48.0136V50.5563H55.7577V48.915H59.0049V50.5563H60.036V48.0136H59.2865V40.6516ZM56.7312 45.6967V41.5539H58.2553V48.0136H56.2507C56.4612 47.7109 56.7312 47.2535 56.7312 45.6967ZM60.7875 40.6516V48.9159H62.3231C63.5657 48.9159 63.976 48.7987 64.3979 48.3413C64.7496 47.9655 64.9139 47.4975 64.9139 46.3722C64.9139 44.6261 63.9174 44.4493 63.4609 44.4493C64.1528 44.4493 64.7852 44.039 64.7852 42.4764C64.7852 41.7048 64.4805 40.6516 62.8392 40.6516H60.7875ZM61.8186 41.5779H62.5922C63.1784 41.5779 63.7761 41.6375 63.7761 42.8022C63.7761 43.9592 63.214 44.039 62.5346 44.039H61.8196V41.5779H61.8186ZM61.8186 44.9298H62.5567C63.6704 44.9298 63.8934 45.3882 63.8934 46.5836C63.8934 47.7205 63.5301 48.0251 62.6393 48.0251H61.8186V44.9298ZM69.6371 48.9159V47.9905H66.9406V44.9663H69.2268V44.0284H66.9406V41.5779H69.5545V40.6516H65.9095V48.9159H69.6371ZM70.551 40.6516V48.9159H71.5821V45.517H72.4499C73.0005 45.517 73.704 45.4699 74.0912 45.0019C74.49 44.5233 74.5246 43.7036 74.5246 43.1318C74.5246 42.3131 74.5131 41.7173 74.0912 41.2041C73.8327 40.887 73.5051 40.6525 72.6959 40.6525H70.551V40.6516ZM71.5831 41.5904H72.1222C73.3417 41.5904 73.5175 41.8691 73.5175 43.0376C73.5175 44.0774 73.506 44.6146 72.4624 44.6146H71.5831V41.5904ZM79.5063 48.9159V40.6516H78.4752V41.4491L76.4706 45.9302V40.6516H75.4395V48.9159H76.4706V48.0145L78.4752 43.5326V48.9169H79.5063V48.9159ZM96.0457 48.9159V40.6516H92.0961V48.9159H93.1272V41.5549H95.0146V48.9159H96.0457ZM101.239 43.102C101.239 41.4837 100.863 40.5122 99.2928 40.5122C98.3549 40.5122 97.8744 40.863 97.6169 41.1916C97.3238 41.5674 97.1479 42.1651 97.1479 43.2077V45.9629C97.1479 47.7801 97.2536 49.0332 99.1295 49.0332C100.888 49.0332 101.24 48.0607 101.24 45.4468V43.102H101.239ZM98.2031 43.1491C98.2031 42.0008 98.3905 41.379 99.2227 41.379C100.184 41.379 100.184 42.2352 100.184 43.1491V45.8687C100.184 47.5562 100.043 48.1769 99.1871 48.1769C98.5779 48.1769 98.3905 47.8262 98.3078 47.5792C98.2262 47.3217 98.2031 46.97 98.2031 46.3722V43.1491ZM106.302 40.6516H102.716V46.8902C102.716 47.6638 102.54 48.0011 101.942 48.0011H101.895V48.915H102.2C103.407 48.915 103.747 48.47 103.747 46.7605V41.5539H105.27V48.915H106.302V40.6516ZM107.475 40.6516V48.9159H109.373C109.924 48.9159 110.628 48.8688 111.015 48.4009C111.414 47.9194 111.449 47.0997 111.449 46.525C111.449 45.7044 111.438 45.1066 111.015 44.5906C110.757 44.2744 110.429 44.04 109.619 44.04H108.494V40.6525H107.475V40.6516ZM108.494 44.9779H109.046C110.265 44.9779 110.44 45.2585 110.44 46.4309C110.44 47.4745 110.429 48.0136 109.385 48.0136H108.494V44.9779ZM113.218 48.9159V40.6516H112.198V48.9159H113.218Z" fill="black"/>
<path fill-rule="evenodd" clip-rule="evenodd" d="M88.0984 45.8542V44.9989H86.2937V43.0059H85.3202V44.9989H83.504V45.8542H85.3202V47.8348H86.2937V45.8542H88.0984Z" fill="#00A651"/>
<defs>
<linearGradient id="paint0_linear" x1="0.00038439" y1="27.1679" x2="14.1733" y2="27.1679" gradientUnits="userSpaceOnUse">
<stop stop-color="#0072BC"/>
<stop offset="1" stop-color="#00AEEF"/>
</linearGradient>
<linearGradient id="paint1_linear" x1="16.5368" y1="27.1674" x2="28.35" y2="27.1674" gradientUnits="userSpaceOnUse">
<stop stop-color="#0DB14B"/>
<stop offset="1" stop-color="#A6CE39"/>
</linearGradient>
<linearGradient id="paint2_linear" x1="30.7136" y1="27.1674" x2="37.7998" y2="27.1674" gradientUnits="userSpaceOnUse">
<stop stop-color="#EF4123"/>
<stop offset="1" stop-color="#F99D1C"/>
</linearGradient>
<linearGradient id="paint3_linear" x1="40.1605" y1="27.1674" x2="44.8847" y2="27.1674" gradientUnits="userSpaceOnUse">
<stop stop-color="#F99D1C"/>
<stop offset="1" stop-color="#FFF200"/>
</linearGradient>
</defs>
</svg>
