<?xml version="1.0" encoding="iso-8859-1"?>
<!-- Generator: Adobe Illustrator 19.0.0, SVG Export Plug-In . SVG Version: 6.00 Build 0)  -->
<svg width="71" height="47" viewBox="0 0 71 47" fill="none" xmlns="http://www.w3.org/2000/svg">
<path d="M70.2862 0H0V46.9033H70.2862V0Z" fill="#534F8F"/>
<path fill-rule="evenodd" clip-rule="evenodd" d="M6.47699 39.3039V31.1678H7.29694V38.4831H63.0623V22.6992H63.8823V39.3031H6.47699V39.3039ZM6.47699 19.4899V6.50537H63.8832V8.23234H63.0632V7.32534H7.29782V19.4899H6.47699Z" fill="white"/>
<path fill-rule="evenodd" clip-rule="evenodd" d="M15.6462 17.5109C16.7508 17.275 17.3958 17.309 17.5699 17.6206L21.3868 16.6196L21.7533 16.3306L21.8073 16.3141C22.414 16.2923 22.8135 16.4446 23.0041 16.7719L23.059 16.8703C22.6977 17.6685 21.8943 18.8932 20.6478 20.5453L20.5381 20.5827L20.4511 20.5505L20.3963 20.4461L20.9098 17.9923C20.1064 18.0906 18.9365 18.3805 17.4106 18.8505C16.9519 18.9863 16.4592 19.6322 15.9239 20.769C15.3172 21.5185 14.4154 23.4866 13.2063 26.6672L13.1793 26.7333L13.2063 26.7882C15.8412 25.7767 17.7274 24.9785 18.8703 24.3927C19.3073 24.4588 19.6024 24.6234 19.7504 24.8845L19.8052 24.9829C19.4605 25.7924 18.8434 26.568 17.9564 27.3226L17.8746 27.2904L17.8415 27.2365C17.798 27.1599 17.8633 26.7664 18.033 26.0605L18.006 26.0109L17.4376 26.1858C14.1847 27.2957 12.6153 27.9563 12.7354 28.1644C11.8171 31.2753 11.7135 33.4454 12.4186 34.6753L12.4786 34.7798C12.6423 35.0688 13.0148 35.2498 13.5885 35.3212C13.6215 35.3752 13.5336 35.457 13.3317 35.5719C12.5936 35.8017 11.7518 35.4901 10.8065 34.6483L10.5219 34.2653C9.8873 33.1599 9.8168 31.4164 10.3086 29.0331L9.94303 29.2019L9.65839 29.2898C8.71309 29.4909 8.10549 29.3665 7.84349 28.9077L7.89834 28.8903L8.54943 28.7484L8.66347 28.7162C10.1676 28.2514 10.8448 27.8849 10.6925 27.6168C11.9503 23.8992 12.9722 21.4062 13.7652 20.1379L13.6503 20.1701C12.5788 20.5035 10.8457 21.4497 8.44585 23.0139C6.06691 25.0481 5.16512 26.5619 5.73962 27.5568L5.85451 27.7587C5.99117 27.9937 6.44469 28.2079 7.21591 28.3933L7.13322 28.6013C5.35663 28.9016 4.17541 28.5413 3.58525 27.5133C2.83579 26.2172 3.83073 24.5172 6.57003 22.4116C8.92721 20.8326 11.5229 19.6017 14.3553 18.7278L15.2249 17.6946L15.6462 17.5109Z" fill="white"/>
<path fill-rule="evenodd" clip-rule="evenodd" d="M23.442 22.8739L23.6005 22.8252C24.3491 22.8304 25.169 23.1908 26.0551 23.9133L26.2736 24.1805C26.5417 24.8803 26.5356 25.2746 26.2518 25.3608L26.1805 25.3286L26.1474 25.2746C26.1587 24.9352 26.1091 24.6679 26.0055 24.4869L25.9785 24.4381C25.7809 24.0934 25.344 24.0221 24.6607 24.2362C23.0373 24.7332 21.7525 26.3792 20.8002 29.1621C20.5487 30.4904 20.56 31.3817 20.822 31.8465C21.8065 29.7296 22.8014 28.0792 23.8015 26.9041C23.7519 26.8153 23.8894 26.6961 24.2167 26.549C24.578 26.4393 25.0915 26.5977 25.7583 27.0243L25.7801 27.0686C25.5067 27.1557 25.4737 27.9043 25.693 29.3318L26.0865 30.2223C26.3546 30.6871 26.7759 30.9874 27.3486 31.1136L27.4043 31.2059L27.2442 31.2555C26.5287 31.4749 25.8175 31.2668 25.1124 30.6262L24.517 29.9211C24.2159 29.4015 24.0191 28.7181 23.9156 27.8712L23.8555 27.8877C23.3524 28.4022 22.6752 29.7853 21.8169 32.038C21.6193 32.9564 21.4391 33.4377 21.2703 33.4917C20.8925 33.6075 20.2971 33.3063 19.4885 32.5899L19.4066 32.448C18.4274 30.748 18.7503 28.4518 20.3685 25.5593C21.272 24.1213 22.2991 23.2291 23.442 22.8739Z" fill="white"/>
<path fill-rule="evenodd" clip-rule="evenodd" d="M28.6742 21.2609C29.6091 21.2774 30.1888 21.4628 30.4073 21.8023C30.6257 22.147 30.2384 23.8687 29.2426 26.958C31.1829 22.9835 32.485 20.8674 33.1414 20.622C33.2119 20.5828 33.278 20.561 33.3268 20.561C34.2625 20.568 34.8466 20.7752 35.0825 21.1851C35.1747 21.3436 34.9728 22.2018 34.4818 23.766C34.0936 25.5809 34.1206 26.8822 34.5741 27.6691C34.9519 28.3254 35.3775 28.5822 35.8476 28.4343L35.8807 28.4943C35.892 28.6963 35.744 28.839 35.4376 28.9374L35.3776 28.9548C34.3113 29.1341 33.453 28.7189 32.7975 27.7179L32.6765 27.5107C32.0698 26.4557 32.0533 24.7009 32.633 22.2454L32.6496 22.1426L32.606 22.1966C31.6268 23.5145 30.4125 25.9143 28.9754 29.397C28.7952 30.1299 28.7177 30.5721 28.7456 30.7244C28.7673 30.8785 28.8379 30.9864 28.958 31.0526C28.0449 31.2336 27.4443 31.0856 27.1605 30.6034L27.0177 30.3362C26.821 29.9915 26.9638 28.6675 27.4443 26.3661L28.2042 22.3864L28.1711 22.3367L28.1171 22.3533C27.4991 23.1132 27.1492 23.5188 27.0726 23.5728C26.996 23.6268 26.9255 23.6381 26.8541 23.605C26.7836 23.5728 26.7566 23.4849 26.7671 23.3369C27.4173 22.147 28.051 21.4524 28.6742 21.2609Z" fill="white"/>
<path fill-rule="evenodd" clip-rule="evenodd" d="M45.3051 9.33119C45.7047 9.21107 46.3984 9.44087 47.389 10.0258L47.443 10.1137C47.9574 11.1844 46.6117 14.6296 43.4189 20.4416C43.0141 22.562 43.1081 24.1367 43.6974 25.1708C44.0256 25.7383 44.4033 25.9516 44.8299 25.821L44.9117 25.9629L44.5896 26.0612C43.808 26.3076 43.0141 25.9402 42.2107 24.9732L42.0749 24.7268C41.785 24.2307 41.5988 23.6832 41.5065 23.0817C40.67 25.7609 39.8883 27.2746 39.1615 27.6307C38.4782 27.8378 37.6095 27.5158 36.5432 26.6636L36.3291 26.2858C35.6022 25.0167 35.7441 23.2401 36.7608 20.9439C37.6574 19.1882 38.6645 18.1393 39.7734 17.7946C40.1068 17.6971 40.6979 17.9208 41.5387 18.4718L41.5935 18.571L42.3917 14.9404C43.5338 11.4473 44.5017 9.57753 45.3051 9.33119ZM43.3101 19.1507L43.3597 19.1342C45.2999 15.1266 46.3775 12.47 46.596 11.1522V10.7091L46.5412 10.7257C45.897 11.6274 45.1041 13.29 44.164 15.7281C43.5068 17.8546 43.223 18.9923 43.3101 19.1507ZM37.8759 26.587C38.0064 26.7132 38.1265 26.7672 38.2249 26.7506C39.0231 26.2144 40.0676 24.3996 41.3577 21.299C41.6205 20.3476 41.6588 19.6539 41.4682 19.2151C41.3637 19.1002 41.2158 19.0672 41.0356 19.1229L40.8275 19.1882C39.5428 19.5877 38.4878 21.1293 37.6617 23.8242C37.438 25.0332 37.5094 25.9516 37.8759 26.587Z" fill="white"/>
<path fill-rule="evenodd" clip-rule="evenodd" d="M48.6624 15.1165C49.2308 14.9416 50.1553 15.2906 51.4453 16.1715L51.5166 16.2046L51.5489 16.2542C52.0459 17.129 51.434 18.2876 49.707 19.7256C49.2195 20.0589 48.7878 20.2827 48.417 20.3976C47.9408 20.5011 47.6623 20.4959 47.597 20.3758C47.6405 20.2827 47.9791 20.0476 48.625 19.676C49.8332 18.2214 50.3198 17.0463 50.0743 16.1602L50.0195 16.1776C49.0681 16.686 48.0836 17.9925 47.0625 20.1033C46.5864 21.5631 46.5368 22.6242 46.9146 23.2787C47.2697 23.7166 47.6527 23.8759 48.0523 23.7488C48.9332 23.405 49.9551 22.1968 51.1084 20.1181L51.125 20.0529L51.185 20.0363L51.2677 20.0694L51.2947 20.1129C51.4148 20.9163 50.8621 22.2229 49.633 24.0282C49.2935 24.3564 49.0367 24.5479 48.8513 24.6018C47.9931 24.8699 47.0034 24.5479 45.8883 23.6443L45.407 23.136C44.4939 21.5448 45.0187 19.3365 46.9816 16.504C47.6675 15.7119 48.2307 15.2471 48.6624 15.1165Z" fill="white"/>
<path fill-rule="evenodd" clip-rule="evenodd" d="M55.9446 12.8797L56.0047 12.8579C56.4312 12.7274 57.2233 13.0329 58.3775 13.7771L58.4315 13.8694C57.7752 15.1707 57.2129 16.0516 56.7428 16.5156L56.6941 16.533C56.6114 16.3911 56.7263 15.5868 57.0431 14.1323L56.9839 14.1497C55.2988 15.5981 54.2873 17.3477 53.9548 19.4089C53.8956 20.0914 53.9757 20.6328 54.2011 21.0262L54.2551 21.1185C54.578 21.4911 54.9393 21.6164 55.3327 21.4963C56.2728 21.0976 57.2842 19.879 58.361 17.8334L58.5969 17.9161C58.542 18.9824 57.9998 20.2228 56.9726 21.6443C56.6889 22.0273 56.3764 22.2736 56.0273 22.3763C55.2335 22.6235 54.2229 22.2614 52.9981 21.2943L52.6978 20.8852L52.6213 20.7538C51.8666 19.4359 52.26 17.4687 53.812 14.8547C54.6981 13.7005 55.4145 13.0442 55.9446 12.8797Z" fill="white"/>
<path fill-rule="evenodd" clip-rule="evenodd" d="M63.1076 10.2784C63.6046 10.1243 64.4959 10.4089 65.7859 11.1366C66.0105 11.3333 66.0105 11.4474 65.7912 11.4918C65.2506 11.3873 64.8293 11.3821 64.529 11.4743C63.0031 11.9444 61.8176 13.4755 60.9697 16.0668C60.7339 17.2646 60.8104 18.2212 61.1934 18.9428L61.2814 19.0908C61.4894 19.4015 61.8498 19.5112 62.3755 19.4303C63.5941 19.0525 64.4925 17.3577 65.0591 14.3451C65.114 13.6783 64.9938 13.0925 64.6988 12.5789C64.6326 12.4754 64.4263 12.3874 64.0807 12.3117L64.0485 12.2612C63.9989 12.1733 64.0485 12.0924 64.2017 12.0158C64.3549 11.9392 64.5464 11.8678 64.7867 11.8025C65.4543 11.6719 66.0227 11.9287 66.4753 12.5624C66.8165 13.0568 66.9924 13.6235 67.0011 14.2607V14.3625C66.9863 15.495 66.4605 16.8494 65.4212 18.4284C64.6892 19.358 63.9841 19.9264 63.3113 20.1345L63.1415 20.1841C62.245 20.4957 61.5129 20.4957 60.9445 20.1954C60.3761 19.8951 59.9548 19.4468 59.6762 18.861L59.5614 18.659C58.6752 17.1227 58.905 15.1503 60.2499 12.7374C61.1221 11.416 62.0796 10.5952 63.1076 10.2784Z" fill="white"/>
<path fill-rule="evenodd" clip-rule="evenodd" d="M44.2118 32.7102H44.6427V32.0922H45.9614V32.7102H46.3984V31.7101H46.0981V29.9326H44.9447C44.8786 30.3539 44.7967 30.7143 44.7036 31.0154C44.6061 31.3166 44.4912 31.5456 44.3485 31.7101H44.2127V32.7102H44.2118ZM45.6498 31.7092H44.8403V31.7031C44.9064 31.5995 44.9717 31.4742 45.0265 31.3262C45.0866 31.1835 45.1362 31.025 45.1797 30.8501C45.2241 30.6751 45.2624 30.4897 45.2894 30.2982H45.6498V31.7092Z" fill="white"/>
<path fill-rule="evenodd" clip-rule="evenodd" d="M47.1757 32.0926H48.4213V31.7148H47.6231V31.1908H48.3073V30.813H47.6231V30.316H48.3073L48.4213 29.9321H47.1757V32.0926Z" fill="white"/>
<path fill-rule="evenodd" clip-rule="evenodd" d="M49.291 32.093H49.7392V31.1799H50.0291L50.0944 31.2016L50.1597 31.2669L50.2371 31.4036L50.5531 32.0921H51.0736L50.6245 31.2286C50.5923 31.1581 50.5531 31.1024 50.5157 31.065L50.3895 30.9823V30.9771L50.5096 30.8569L50.5975 30.6976L50.668 30.5288L50.7342 30.3921L50.7994 30.3381L50.8874 30.3164L50.9527 30.3225L51.0292 30.3434V29.9499L50.9144 29.9229L50.7934 29.9116C50.6193 29.9116 50.487 29.9882 50.3999 30.1362L50.3181 30.3164L50.2528 30.4966L50.1762 30.6602L50.0726 30.7751L49.9247 30.8186H49.7384V29.9325H49.2901V32.093H49.291Z" fill="white"/>
<path fill-rule="evenodd" clip-rule="evenodd" d="M52.8397 32.1251C53.0034 32.1251 53.1513 32.0981 53.2828 32.0485C53.4194 31.9945 53.5343 31.9179 53.6327 31.8187C53.731 31.7264 53.8068 31.6054 53.8625 31.4696C53.9121 31.3382 53.9391 31.185 53.9391 31.0205C53.9391 30.8568 53.9121 30.7036 53.8625 30.5722C53.8076 30.4355 53.7319 30.3215 53.6327 30.2223C53.5343 30.1248 53.4194 30.0482 53.2828 29.9925C53.1522 29.9385 53.0042 29.9106 52.8397 29.9106C52.6752 29.9106 52.5281 29.9376 52.3914 29.9925C52.26 30.0429 52.1399 30.1187 52.0467 30.217C51.9492 30.3154 51.8718 30.4355 51.8169 30.567C51.763 30.7028 51.7351 30.8568 51.7351 31.0205C51.7351 31.1841 51.7621 31.3321 51.8169 31.4696C51.8709 31.6054 51.9484 31.7212 52.0467 31.8187C52.1399 31.917 52.26 31.9936 52.3914 32.0485C52.5272 32.0981 52.6752 32.1251 52.8397 32.1251ZM52.8397 31.7534C52.7135 31.7534 52.6038 31.7264 52.5115 31.6663C52.4193 31.6115 52.3479 31.5288 52.2931 31.4191C52.2434 31.3112 52.2165 31.1798 52.2165 31.0205C52.2165 30.862 52.2434 30.7254 52.2931 30.6218C52.347 30.5121 52.4193 30.4303 52.5115 30.3694C52.6038 30.3154 52.7135 30.2875 52.8397 30.2875C52.9659 30.2875 53.0756 30.3154 53.1679 30.3763C53.2601 30.4303 53.3315 30.5121 53.3864 30.6218C53.436 30.7315 53.4629 30.862 53.4629 31.0205C53.4629 31.1798 53.436 31.3112 53.3811 31.4191C53.3315 31.5288 53.2601 31.6115 53.1679 31.6663C53.0747 31.7264 52.9651 31.7534 52.8397 31.7534Z" fill="white"/>
<path fill-rule="evenodd" clip-rule="evenodd" d="M54.786 32.0919H55.2334V31.3703H55.3109C55.4093 31.3703 55.4911 31.359 55.5677 31.3494C55.6451 31.3372 55.7156 31.3163 55.7757 31.2946C55.8793 31.2511 55.9672 31.1971 56.0273 31.1257C56.0926 31.0596 56.1369 30.983 56.1631 30.9011C56.19 30.8185 56.2014 30.7323 56.2014 30.6496C56.2022 30.4964 56.1744 30.3702 56.1091 30.2675C56.049 30.1639 55.9559 30.0812 55.841 30.0272C55.7757 29.9941 55.7043 29.9724 55.6225 29.9558C55.5398 29.9393 55.4476 29.9341 55.3492 29.9341H54.7869V32.0919H54.786ZM55.2334 31.0039V30.2988H55.3326L55.4745 30.3092L55.579 30.3475L55.6991 30.4738L55.7374 30.6487C55.7374 30.7253 55.7261 30.7906 55.6991 30.8411L55.5729 30.9612L55.4693 30.9934L55.3379 31.0047H55.2334V31.0039Z" fill="white"/>
<path fill-rule="evenodd" clip-rule="evenodd" d="M58.1643 32.0926H58.5795L59.4657 30.9114L59.5805 30.7591L59.6902 30.6111H59.6954L59.6902 30.7033L59.685 30.8183V32.0926H60.1333V29.9321H59.6902L58.8311 31.0698L58.7171 31.223L58.6126 31.371H58.6082L58.6126 31.2448V29.9321H58.1643V32.0926Z" fill="white"/>
<path fill-rule="evenodd" clip-rule="evenodd" d="M38.4659 35.6521C38.6244 35.6521 38.7723 35.6251 38.909 35.5702C39.0395 35.5206 39.1605 35.4431 39.2589 35.3457C39.3573 35.2473 39.4278 35.1333 39.4826 34.9957C39.5375 34.8599 39.5653 34.712 39.5653 34.5422C39.5653 34.3777 39.5383 34.2306 39.4826 34.0931C39.4339 33.9573 39.3573 33.8415 39.2589 33.7432C39.1605 33.6457 39.0456 33.5691 38.909 33.5142C38.7784 33.4637 38.6244 33.4376 38.4659 33.4307C38.3023 33.4376 38.1552 33.4585 38.0176 33.5142C37.881 33.5682 37.7661 33.6448 37.6677 33.7432C37.5702 33.8415 37.498 33.9573 37.4431 34.0931C37.3892 34.2297 37.3613 34.3769 37.3613 34.5422C37.3613 34.7059 37.3883 34.8591 37.4431 34.9957C37.4971 35.1272 37.5702 35.2473 37.6677 35.3457C37.7661 35.4431 37.881 35.5154 38.0176 35.5702C38.1543 35.6251 38.3014 35.6521 38.4659 35.6521ZM38.4659 35.2743C38.3397 35.2743 38.23 35.2473 38.1378 35.1925C38.0455 35.1376 37.9741 35.0558 37.9193 34.9461C37.8697 34.8364 37.8427 34.7007 37.8427 34.5422C37.8427 34.3829 37.8697 34.2515 37.9193 34.1427C37.9732 34.0339 38.0455 33.9512 38.1378 33.8972C38.23 33.8424 38.3397 33.8084 38.4659 33.8084C38.5922 33.8084 38.7018 33.8415 38.7941 33.8972C38.8864 33.9512 38.9577 34.0339 39.0073 34.1427C39.0613 34.2515 39.0839 34.3829 39.0892 34.5422C39.0839 34.7007 39.0622 34.8373 39.0073 34.9461C38.9577 35.0558 38.8811 35.1385 38.7889 35.1925C38.6957 35.2473 38.5861 35.2743 38.4659 35.2743Z" fill="white"/>
<path fill-rule="evenodd" clip-rule="evenodd" d="M42.0356 35.1221C41.959 35.1647 41.8764 35.2039 41.7902 35.2309C41.7014 35.2631 41.6039 35.2744 41.4942 35.2744C41.3523 35.2744 41.2322 35.2474 41.1278 35.1821C41.0303 35.1229 40.9476 35.0402 40.8928 34.9306C40.8388 34.8217 40.8101 34.6947 40.8048 34.5528C40.8048 34.4544 40.8214 34.3561 40.8484 34.269C40.8754 34.182 40.9197 34.0993 40.9798 34.034C41.0338 33.9626 41.1104 33.913 41.1983 33.8695C41.2862 33.832 41.3898 33.8155 41.5047 33.8094C41.6083 33.8094 41.7066 33.8259 41.8006 33.8486C41.8981 33.8695 41.986 33.9078 42.0731 33.9522V33.5413C42.0017 33.5091 41.9199 33.4821 41.8215 33.4647C41.7232 33.4438 41.6144 33.4386 41.4934 33.4316C41.3193 33.4386 41.1548 33.4647 41.012 33.5248C40.8701 33.5787 40.7439 33.6614 40.6456 33.765C40.542 33.8686 40.4654 33.9835 40.4105 34.1202C40.3557 34.2577 40.3278 34.4048 40.3278 34.558C40.3278 34.7164 40.3496 34.8644 40.3992 34.995C40.4488 35.1264 40.5202 35.2465 40.6125 35.3397C40.7047 35.4389 40.8196 35.5155 40.9572 35.5703C41.0991 35.6243 41.2575 35.6522 41.4385 35.6522C41.5534 35.6522 41.6683 35.6417 41.7884 35.6139C41.9086 35.586 42.0287 35.5425 42.1601 35.4711L42.0356 35.1221Z" fill="white"/>
<path fill-rule="evenodd" clip-rule="evenodd" d="M42.9384 35.6187H43.6774C43.8028 35.6187 43.9168 35.5978 44.0108 35.5647C44.1092 35.5273 44.1858 35.4768 44.2511 35.4176C44.3163 35.3567 44.3659 35.2862 44.3929 35.2104C44.4251 35.1338 44.4426 35.0503 44.4426 34.9693C44.4426 34.8884 44.4251 34.81 44.3981 34.7395C44.3659 34.6681 44.3216 34.609 44.2624 34.5593C44.2023 34.5097 44.1257 34.4714 44.0378 34.4497V34.4384L44.1797 34.3287L44.2676 34.1755L44.2946 34.0066C44.2946 33.9352 44.2832 33.87 44.2563 33.8047L44.1301 33.6306C44.0761 33.5757 44.0038 33.5374 43.9229 33.5044C43.835 33.4765 43.7314 33.46 43.6165 33.46H42.9384V35.6187ZM43.3867 35.2531V34.7065H43.6591C43.7627 34.7065 43.8445 34.7265 43.8994 34.777C43.9586 34.8213 43.9873 34.8866 43.9873 34.9685C43.9873 35.0668 43.9595 35.1382 43.895 35.1817C43.835 35.2313 43.7418 35.2531 43.6165 35.2531H43.3867ZM43.3867 34.3391V33.8247H43.5451C43.6165 33.8247 43.6765 33.8369 43.7201 33.8586L43.8237 33.9509L43.8567 34.0876L43.8237 34.2138L43.7201 34.306L43.5564 34.3382H43.3867V34.3391Z" fill="white"/>
<path fill-rule="evenodd" clip-rule="evenodd" d="M45.2626 35.6181H46.5082V35.2351H45.71V34.7111H46.3933V34.3333H45.71V33.8363H46.3933L46.5082 33.4585H45.2626V35.6181Z" fill="white"/>
<path fill-rule="evenodd" clip-rule="evenodd" d="M47.3766 35.6181H49.9088V36.2352H50.3457V35.2351H50.0454V33.4585H49.5972V35.2351H48.9356V33.4585H48.4882V35.2351H47.8258V33.4585H47.3766V35.6181Z" fill="white"/>
<path fill-rule="evenodd" clip-rule="evenodd" d="M51.1224 35.6181H52.3697V35.2351H51.5715V34.7111H52.2548V34.3333H51.5715V33.8363H52.2548L52.3697 33.4585H51.1224V35.6181Z" fill="white"/>
<path fill-rule="evenodd" clip-rule="evenodd" d="M53.2393 35.6181H53.6867V34.7111H54.6651V35.6181H55.1194V33.4585H54.6651V34.322H53.6867V33.4585H53.2393V35.6181Z" fill="white"/>
<path fill-rule="evenodd" clip-rule="evenodd" d="M56.0482 35.6181H56.4642L57.3495 34.4317L57.4644 34.2785L57.5741 34.1357H57.5793L57.5741 34.2297L57.5688 34.3385V35.6181H58.0163V33.4585H57.5741L56.7158 34.5962L56.6009 34.7485L56.4973 34.8913H56.4912L56.4973 34.7711V34.53V33.4585H56.0482V35.6181Z" fill="white"/>
<path fill-rule="evenodd" clip-rule="evenodd" d="M58.9521 35.6181H60.1986V35.2351H59.4056V34.7111H60.0889V34.3333H59.4056V33.8363H60.0837L60.2038 33.4585H58.9521V35.6181Z" fill="white"/>
</svg>
