<?xml version="1.0" encoding="iso-8859-1"?>
<!-- Generator: Adobe Illustrator 19.0.0, SVG Export Plug-In . SVG Version: 6.00 Build 0)  -->
<svg width="314" height="43" viewBox="0 0 314 43" fill="none" xmlns="http://www.w3.org/2000/svg">
<path fill-rule="evenodd" clip-rule="evenodd" d="M156.351 8.31281C155.624 9.43707 155.043 10.4511 154.61 11.3213H154.537C153.996 10.3782 153.415 9.50994 152.69 8.49397L146.709 0.157518H141.704V24.0446H147.215V11.6856C147.215 11.0319 147.215 10.0888 147.177 9.29334H147.25C147.758 10.199 148.339 10.9236 148.845 11.6128L153.305 17.7026H155.732L159.647 11.8313C160.046 11.217 161.025 9.80134 161.241 9.29532H161.277C161.241 10.0199 161.241 10.9965 161.241 11.8687V24.0485H166.75V0.161454H161.712L156.351 8.31281ZM177.481 0.137839L168.129 24.0446H173.545L175.711 18.374H183.441L185.717 24.0446H191.675L181.817 0.137839H177.481ZM177.266 13.9695L178.712 10.1439C179.109 9.09646 179.432 8.08442 179.578 7.29094H179.615C179.759 8.05095 180.084 9.05904 180.482 10.2148L181.781 13.9695H177.266ZM220.918 0.137839L211.853 23.3023C208.586 17.6416 206.499 14.0089 205.249 13.2785V13.241C207.354 12.2625 209.49 10.1616 209.49 7.1157C209.49 3.38261 207.171 0.157518 200.61 0.157518H193.142V24.0446H198.686V15.0918H200.356C201.154 15.4167 202.421 17.8109 206.009 24.0446H216.98L219.148 18.374H226.878L229.152 24.0446H235.11L225.251 0.137839H220.918ZM200.718 11.1402H198.686V4.68801H200.754C202.748 4.68801 204.052 5.99343 204.052 7.73396C204.054 9.68911 202.64 11.1402 200.718 11.1402ZM220.701 13.9695L222.146 10.1439C222.544 9.09646 222.867 8.08442 223.013 7.29094H223.05C223.194 8.05095 223.519 9.05904 223.916 10.2148L225.218 13.9695H220.701ZM65.266 0.202793L56.2011 23.3672C52.9346 17.7046 50.8476 14.0719 49.5973 13.3434V13.306C51.7001 12.3275 53.8384 10.2246 53.8384 7.18069C53.8384 3.4476 51.519 0.220519 44.9565 0.220519H37.4884V24.1095H43.0349V15.1548H44.7025C45.498 15.4817 46.7679 17.8759 50.3573 24.1095H61.3282L63.4959 18.439H71.226L73.502 24.1095H79.46L69.5996 0.202793H65.266ZM45.0668 11.2032H43.0368V4.75299H45.1042C47.0968 4.75299 48.4021 6.05643 48.4021 7.79697C48.4021 9.75408 46.9885 11.2032 45.0668 11.2032ZM65.0494 14.0345L66.4927 10.2069C66.8904 9.15946 67.2153 8.14742 67.359 7.35395H67.3964C67.5401 8.11395 67.867 9.12401 68.2627 10.2778L69.5642 14.0345H65.0494ZM235.99 0.157518L237.295 4.50688L247.154 4.43402L235.157 24.0446H255.492V19.5869L244.072 19.6952L255.709 0.157518H235.99ZM256.579 0.157518L257.884 4.50688L267.743 4.43402L255.744 24.0446H276.081V19.5869L264.661 19.6952L276.298 0.157518H256.579ZM277.963 0.157518V24.0446H283.51V0.157518H277.963ZM289.566 0.159501V15.6805L295.369 9.91157L301.555 16.1373L307.757 9.94507L313.491 15.6727V0.157518H289.566V0.159501ZM304.688 9.98641L301.575 6.87746L298.462 9.99035L296.883 8.4152L301.575 3.77445L306.241 8.43686L304.688 9.98641ZM301.551 19.2443L307.757 13.0501L313.491 18.7777V24.0446H289.566V18.7954L295.38 13.052L301.551 19.2443ZM13.434 24.0957L5.64296 13.8691H5.5327V24.0957H0V0.108307H5.49724V9.79149H5.60554L13.2489 0.181162H19.583L10.2286 11.5753L20.0929 24.0957H13.434ZM21.2231 24.0957V0.108307H35.6376L34.2908 4.58565H26.7932V9.60838H34.3283V14.1231H26.7932V19.6204H35.5667V24.0957H21.2231ZM100.234 24.0957V11.8667C100.234 10.9925 100.234 10.01 100.272 9.28153H100.234C100.016 9.79149 99.0331 11.2111 98.6334 11.8293L94.7015 17.7263H92.262L87.7846 11.6128C87.2747 10.9197 86.6938 10.1912 86.1839 9.28153H86.111C86.1485 10.0829 86.1485 11.0299 86.1485 11.6856V24.0977H80.6158V0.108307H85.6385L91.6437 8.48214C92.3722 9.50204 92.955 10.3743 93.5004 11.3194H93.5733C94.0104 10.4471 94.5932 9.42722 95.3197 8.29902L100.707 0.108307H105.767V24.0977H100.234V24.0957ZM124.659 24.0957L122.365 18.3819H114.574L112.39 24.0957H106.93L116.36 0H120.727L130.664 24.0957H124.659ZM119.38 10.1557C118.98 8.99013 118.652 7.97219 118.506 7.20628H118.47C118.325 8.00764 117.996 9.02557 117.596 10.0829L116.139 13.94H120.689L119.38 10.1557Z" fill="#325A8B"/>
<path fill-rule="evenodd" clip-rule="evenodd" d="M0.104431 32.4035H7.95258V42.195H5.96594V34.0122H2.08715V42.195H0.104431V32.4035ZM11.0143 32.4035H17.4467V42.195H15.4621V34.1401H12.8749V36.0953C12.8749 37.2254 12.8513 38.1371 12.8021 38.8321C12.7548 39.5252 12.6406 40.1316 12.4595 40.6592C12.2783 41.1869 11.9928 41.5945 11.603 41.878C11.2131 42.1655 10.6835 42.3072 10.016 42.3072C9.78762 42.3072 9.47062 42.2698 9.06896 42.195L9.15559 40.6396C9.39383 40.6888 9.56907 40.7124 9.68524 40.7124C10.2267 40.7124 10.587 40.4033 10.7622 39.7831C10.9394 39.1668 11.028 38.3202 11.028 37.2432C11.028 37.0443 11.0261 36.7608 11.0202 36.3867C11.0162 36.0165 11.0143 35.7527 11.0143 35.5912V32.4035ZM19.4078 32.4035H21.3925V37.4361L21.3511 39.8166H21.3925L22.0914 38.3891L25.5233 32.4035H27.8998V42.195H25.9131V37.1447L25.9565 34.782H25.9131L25.2437 36.2666L21.7863 42.197H19.4078V32.4035ZM29.0851 32.4035H36.7265V34.1401H33.8952V42.195H31.9105V34.1401H29.0831V32.4035H29.0851ZM37.9137 32.4035H39.8984V36.5875H39.9417L43.4799 32.4035H45.8446L41.761 36.8356L46.0986 42.195H43.5823L39.9417 37.3298H39.8984V42.195H37.9137V32.4035ZM50.3081 32.4035H52.5763L56.463 42.195H54.2263L53.3994 39.9997H49.3591L48.5341 42.195H46.4057L50.3081 32.4035ZM49.9892 38.3753H52.8146L51.3753 34.3725H51.3438L49.9892 38.3753ZM61.5645 42.3643L64.0453 32.0098H65.4866L62.9802 42.3643H61.5645ZM71.3619 32.4035H77.377V34.1401H73.3466V42.195H71.3619V32.4035ZM78.4953 32.4035H81.3936C82.8309 32.4035 83.8173 32.7284 84.3529 33.3841C84.8864 34.0397 85.1542 34.7348 85.1542 35.4672C85.1542 35.987 85.0282 36.4812 84.7762 36.9478C84.5242 37.4125 84.1422 37.7945 83.6283 38.0819C83.1124 38.3733 82.4863 38.519 81.7558 38.519H80.48V42.195H78.4973V32.4035H78.4953ZM80.478 36.9774H81.3896C81.9173 36.9774 82.3249 36.8277 82.6163 36.5265C82.9077 36.2252 83.0553 35.8511 83.0553 35.4101C83.0553 34.9927 82.9234 34.6422 82.6537 34.3626C82.3839 34.083 81.9646 33.9413 81.3896 33.9413H80.478V36.9774ZM89.8225 32.4035H92.0907L95.9774 42.195H93.7427L92.9157 39.9997H88.8755L88.0505 42.195H85.9201L89.8225 32.4035ZM89.5036 38.3753H92.327L90.8897 34.3725H90.8602L89.5036 38.3753ZM97.1686 32.4035H99.1533V36.3473H103.131V32.4035H105.115V42.195H103.131V37.9579H99.1533V42.195H97.1686V32.4035ZM107.074 32.4035H109.057V37.4361L109.016 39.8166H109.057L109.756 38.3891L113.188 32.4035H115.564V42.195H113.578V37.1447L113.621 34.782H113.578L112.908 36.2666L109.451 42.197H107.072V32.4035H107.074ZM116.752 32.4035H124.395V34.1401H121.564V42.195H119.579V34.1401H116.75V32.4035H116.752ZM129.491 42.3643L131.971 32.0098H133.413L130.906 42.3643H129.491ZM146.004 42.195H144.114L141.735 35.2014L141.284 33.7995H141.243L141.271 35.3136V42.195H139.288V32.4035H142.645L144.604 38.0977L145.037 39.8323H145.077L145.514 38.0977L147.475 32.4035H150.83V42.195H148.843V35.3136L148.871 33.7995H148.829L148.38 35.2014L146.004 42.195ZM157.237 32.2893C158.156 32.2893 158.979 32.4843 159.706 32.8702C160.432 33.2581 161.003 33.8291 161.415 34.5851C161.826 35.3392 162.035 36.2449 162.035 37.2963C162.035 38.3477 161.828 39.2515 161.415 40.0095C161.001 40.7675 160.43 41.3385 159.706 41.7244C158.979 42.1123 158.156 42.3053 157.237 42.3053C156.313 42.3053 155.49 42.1123 154.764 41.7244C154.039 41.3385 153.47 40.7675 153.057 40.0115C152.643 39.2554 152.436 38.3497 152.436 37.2963C152.436 36.243 152.643 35.3373 153.057 34.5851C153.468 33.8291 154.039 33.2581 154.764 32.8702C155.49 32.4843 156.313 32.2893 157.237 32.2893ZM157.235 33.6912C156.815 33.6912 156.402 33.7877 155.998 33.9787C155.595 34.1736 155.25 34.5398 154.966 35.0754C154.679 35.6109 154.537 36.3493 154.537 37.2963C154.537 38.2434 154.679 38.9817 154.966 39.5192C155.252 40.0548 155.597 40.423 155.998 40.6159C156.402 40.8108 156.815 40.9034 157.235 40.9034C157.532 40.9034 157.833 40.8561 158.138 40.7557C158.442 40.6573 158.731 40.4781 159.005 40.2202C159.28 39.9583 159.501 39.5882 159.676 39.1077C159.849 38.6254 159.936 38.0228 159.936 37.2983C159.936 36.3512 159.794 35.6109 159.507 35.0754C159.221 34.5418 158.875 34.1756 158.471 33.9806C158.066 33.7877 157.654 33.6912 157.235 33.6912ZM164.971 37.9008V36.2902H166.16C166.676 36.2902 167.066 36.1721 167.329 35.9397C167.593 35.7074 167.727 35.4042 167.727 35.032C167.727 34.2779 167.199 33.8999 166.146 33.8999C165.416 33.8999 164.663 34.0771 163.89 34.4335L163.697 32.7796C164.252 32.6024 164.738 32.4764 165.16 32.4055C165.577 32.3307 166.046 32.2913 166.565 32.2913C167.335 32.2913 167.965 32.4016 168.463 32.6241C168.958 32.8446 169.32 33.1419 169.55 33.514C169.781 33.8861 169.895 34.2996 169.895 34.7544C169.895 35.1187 169.826 35.4514 169.694 35.7547C169.562 36.0579 169.375 36.3119 169.133 36.5206C168.891 36.7293 168.603 36.875 168.271 36.9636V37.0049C168.881 37.1132 169.361 37.3869 169.708 37.8319C170.054 38.2788 170.23 38.8695 170.23 39.6059C170.23 40.3324 170.003 40.8975 169.552 41.2991C169.099 41.7028 168.574 41.9726 167.975 42.1064C167.377 42.2384 166.794 42.3072 166.227 42.3072C165.74 42.3072 165.309 42.2639 164.933 42.1773C164.559 42.0887 164.033 41.9331 163.362 41.7067L163.516 40.041C164.504 40.482 165.376 40.7006 166.132 40.7006C166.788 40.7006 167.272 40.5726 167.587 40.3147C167.904 40.0587 168.062 39.7555 168.062 39.3991C168.062 38.4009 167.428 37.9028 166.16 37.9028H164.971V37.9008ZM175.109 32.4035H177.377L181.263 42.195H179.027L178.2 39.9997H174.16L173.335 42.195H171.206L175.109 32.4035ZM174.79 38.3753H177.613L176.176 34.3725H176.144L174.79 38.3753ZM182.455 32.4035H184.439V37.4361L184.398 39.8166H184.439L185.138 38.3891L188.57 32.4035H190.947V42.195H188.96V37.1447L189.003 34.782H188.96L188.291 36.2666L184.833 42.197H182.455V32.4035ZM192.904 32.4035H194.888V36.5875H194.932L198.47 32.4035H200.835L196.751 36.8356L201.091 42.195H198.572L194.934 37.3298H194.89V42.195H192.906V32.4035H192.904ZM205.298 32.4035H207.566L211.453 42.195H209.218L208.391 39.9997H204.349L203.524 42.195H201.396L205.298 32.4035ZM204.979 38.3753H207.803L206.365 34.3725H206.334L204.979 38.3753Z" fill="#325A8B"/>
</svg>
