<?xml version="1.0" encoding="iso-8859-1"?>
<!-- Generator: Adobe Illustrator 19.0.0, SVG Export Plug-In . SVG Version: 6.00 Build 0)  -->
<svg width="104" height="66" viewBox="0 0 104 66" fill="none" xmlns="http://www.w3.org/2000/svg">
<path fill-rule="evenodd" clip-rule="evenodd" d="M68.9785 11.6436C68.9223 11.6656 67.0421 12.2894 66.9154 12.3445C67.5204 13.3981 69.0369 17.0847 67.9602 21.9781C67.4841 24.1482 65.4683 27.8006 62.4011 29.4957C59.6733 31.0023 55.5944 31.5225 51.4438 28.3374C47.734 33.082 42.7513 35.7436 40.2087 36.8325C42.8626 38.8979 47.6304 39.8325 51.1275 39.9582C61.1072 39.9681 70.4774 31.4134 70.8367 20.7438C70.8367 16.8566 70.0244 14.2214 68.9785 11.6436Z" fill="black"/>
<path fill-rule="evenodd" clip-rule="evenodd" d="M62.6126 4.14311C57.9958 -0.5916 48.4966 -0.766835 42.3523 1.12441C32.6603 4.10785 26.3969 13.6643 25.729 20.4799C25.1229 26.6628 31.9792 26.5878 31.9792 26.5878L35.8421 31.295C36.3976 20.276 36.5144 13.0571 44.831 6.66367C50.2545 2.49324 57.3809 2.84923 61.5325 4.49028C64.3826 7.09239 62.6126 4.14311 62.6126 4.14311Z" fill="black"/>
<path fill-rule="evenodd" clip-rule="evenodd" d="M30.0867 27.9156C31.396 29.3561 33.0481 31.4942 35.2303 34.4104C36.4096 36.1352 42.5792 35.9435 50.9124 26.6713C55.6647 21.3812 62.283 14.6428 68.1341 12.2975C69.1723 11.882 70.1841 11.6131 71.1606 11.5051C68.1209 6.70422 66.0005 3.07273 64.517 0.882812C58.074 3.18625 51.1813 9.78243 45.4866 15.3592C40.0289 20.7056 36.7071 23.2283 32.5521 24.4737C30.4846 25.0931 28.7785 25.016 27.6929 24.6324C27.3887 24.5233 27.1198 24.3999 26.8652 24.2368C26.6867 24.1221 26.4497 23.9755 26.3406 23.8312C26.3274 23.8146 26.2138 23.6174 26.3185 23.8157C26.8013 24.7327 27.7546 25.3477 30.0867 27.9156Z" fill="#EE3124"/>
<path fill-rule="evenodd" clip-rule="evenodd" d="M34.8567 30.4395C34.569 31.233 33.9552 31.9218 33.727 32.1412C33.727 32.1412 34.8148 31.2584 35.2215 30.7371C35.6293 30.2147 35.9302 29.5369 35.5687 29.269C35.2105 28.999 35.0474 29.9215 34.8567 30.4395ZM34.0753 32.8752C35 32.2734 36.2641 31.2462 37.1579 29.7231C37.3629 29.398 37.752 28.7995 37.418 28.3752C37.2207 28.1228 36.9617 28.1261 36.8174 28.4083C36.7523 28.5328 36.7369 28.6926 36.7656 28.8436C36.7854 28.9494 36.8526 29.1026 36.9551 29.0971C37.0279 29.0905 37.0323 29.236 36.9595 29.2404C36.7534 29.2536 36.6532 28.9373 36.6355 28.7367C36.6124 28.4612 36.7557 28.1548 36.964 28.0677C37.18 27.9774 37.3993 28.1261 37.5436 28.3399C37.6649 28.5218 37.6847 28.7433 37.6451 28.956C37.5822 29.2823 37.4015 29.571 37.2428 29.83C36.36 31.4038 34.9515 32.4586 34.1558 32.9821L34.0753 32.8752ZM34.4688 33.3954C34.9272 33.1672 35.3769 32.8752 35.8056 32.5203C37.0863 31.4578 38.1531 29.8719 39.1054 28.2364C39.1098 28.2308 39.1153 28.222 39.1186 28.2143C39.0414 28.0523 38.8772 27.6004 38.9985 26.8532C39.1528 25.8954 39.6333 25.6387 39.8493 24.9465C40.0455 24.315 40.0179 23.5005 39.7556 23.4267C39.5032 23.5755 39.4007 23.9656 39.3346 24.2819C39.2056 24.8969 39.1197 25.5549 38.6281 25.8701C38.2204 26.1346 37.6781 26.0552 37.4345 25.4821C37.3574 25.3047 37.3276 25.114 37.3398 24.9322C37.2858 24.8925 37.2329 24.8484 37.1833 24.7988C36.7347 24.3437 36.3831 23.3727 36.5242 22.7511C36.8482 22.5648 37.1734 22.3654 37.5007 22.1538C37.1612 22.6453 36.8152 23.1501 36.8912 23.8741C36.9276 24.2423 37.1061 24.5795 37.3585 24.7878C37.4081 24.5398 37.5359 24.326 37.7343 24.2092C37.9007 24.1078 38.1002 24.11 38.2601 24.2687C38.389 24.3944 38.4364 24.6192 38.3978 24.7999C38.3493 25.0336 38.1531 25.1262 37.9724 25.1394C37.7949 25.1592 37.6142 25.1052 37.4478 25.0071C37.4489 25.4425 37.7431 25.8624 38.1201 25.8811C38.432 25.8921 38.734 25.6794 38.9048 25.383C39.0558 25.1162 39.1142 24.7812 39.177 24.4638C39.2586 24.0296 39.3522 23.5589 39.6741 23.3143C39.8438 23.1831 40.0874 23.2151 40.2527 23.3837C40.2571 23.3892 40.2626 23.3947 40.2659 23.4024C40.6527 23.7562 40.6616 24.639 40.4665 25.394C40.4048 25.6276 40.3386 25.8613 40.2736 26.0718C40.7641 25.1107 41.2314 24.153 41.6976 23.2437C42.1042 22.4447 42.5032 21.6787 42.8945 20.9623C43.2967 20.2515 43.6671 19.5902 43.9084 18.8948C44.2137 18.0704 44.4154 17.2835 44.5421 16.598C44.5565 16.4833 44.5697 16.361 44.5829 16.2376L44.7405 16.0844C44.7306 16.1296 44.7207 16.167 44.713 16.1979C44.9301 15.8342 45.3456 15.5697 45.8107 16.0293C46.4708 16.6817 46.0355 17.2846 46.0355 17.2846C46.0796 17.0035 45.7941 16.6519 45.5362 16.5748C45.2806 16.4999 44.854 16.7467 44.6656 17.0454C44.5741 17.1898 44.4936 17.386 44.4308 17.5557C44.3217 18.002 44.185 18.4727 44.0109 18.962C43.7751 19.6663 43.4036 20.3584 43.0146 21.0637C42.7732 21.5101 42.5329 21.9785 42.2894 22.4612C42.5429 22.0953 42.8162 21.7338 43.0498 21.5123C43.2207 21.3481 43.4742 21.1398 43.7938 20.9216C44.6457 20.3363 45.9661 19.6773 47.4076 19.6255C47.5234 19.62 47.6424 19.6233 47.7603 19.631C47.9245 19.264 48.091 18.9003 48.2596 18.5432C48.307 18.4021 48.3412 18.2577 48.3356 18.1365C48.3213 17.775 47.9863 17.4521 47.6303 17.6957C47.6303 17.6957 47.7383 17.0124 48.2001 17.0531C48.5087 17.0796 48.6839 17.2735 48.7599 17.494C49.0796 16.8349 49.4047 16.1902 49.7309 15.5642C49.9227 15.0362 50.0307 14.2747 49.1281 14.17C49.1281 14.17 49.537 12.6138 48.0502 12.8706C48.3048 12.6248 48.5627 12.3801 48.8206 12.1344C48.8922 12.1255 48.9671 12.1211 49.0454 12.1233C49.7518 12.1432 50.4098 13.3202 50.433 14.0344C50.433 14.1193 50.4208 14.213 50.3999 14.311C50.477 14.1722 50.5553 14.0322 50.6313 13.8933C50.6688 13.8151 50.7096 13.7324 50.7515 13.6509C50.8286 13.4889 51.361 12.4804 52.0322 10.9959C52.2868 10.4514 52.5468 9.82653 52.786 9.14431C52.8301 8.93711 52.8775 8.67921 52.905 8.41691C53.0659 8.27804 53.2257 8.14028 53.3877 8.00361C53.0869 9.1917 52.6791 10.263 52.2856 11.1303C52.6879 10.5054 53.0869 9.9246 53.4759 9.39448C54.383 8.20089 55.2459 7.32471 55.9237 6.71854C57.4469 5.2946 58.9414 5.00364 59.4715 4.8758C60.0743 4.72811 60.2496 5.44999 59.8385 5.63184C59.4417 5.81038 59.1761 5.72994 58.1489 5.82583C57.2661 5.90738 56.607 6.32949 56.4241 6.45734C56.1243 6.73287 55.7639 7.08003 55.3627 7.50435C55.722 7.24866 56.013 7.07232 56.8131 6.95109C57.707 6.81442 57.5758 7.80192 56.9763 7.62447C56.3789 7.44373 55.7849 7.65534 55.3848 7.77547C55.1666 7.8427 54.8877 8.07415 54.6817 8.26922C54.4612 8.53043 54.2309 8.81256 53.9994 9.11895C54.416 8.80816 55.2173 8.52382 55.8135 8.51941C56.4098 8.5161 56.293 9.36913 55.8797 9.26112C55.4664 9.14981 54.7378 9.10463 54.1758 9.33497C53.9223 9.43967 53.6324 9.70088 53.4274 9.90919C53.1894 10.2542 52.9502 10.6212 52.71 11.0058C53.0957 10.6498 53.6291 10.3688 54.0193 10.7865C54.6287 11.4367 54.2199 12.0253 54.2199 12.0253C54.1526 11.7056 53.8848 11.202 53.5156 11.6252C53.1431 12.0495 52.8389 12.4551 52.4113 12.3548C52.1743 12.2997 51.9341 12.4363 51.7666 12.5686C51.1229 13.6784 50.4749 14.8952 49.8378 16.1769C50.2026 15.6711 50.6126 15.2137 51.059 14.8368C51.9759 14.062 53.0703 13.4955 54.2099 13.361C54.653 13.3114 55.1071 13.3379 55.5512 13.4613C55.592 13.3996 55.6328 13.3379 55.678 13.274C55.8554 13.0227 56.9851 11.3794 58.636 9.11895C59.0537 8.55467 59.5001 7.95291 59.9906 7.34234C60.4568 6.78246 60.9153 6.18291 61.3374 5.50511C61.9755 4.565 62.9288 3.15207 63.1581 2.38059C63.2837 1.98933 63.3807 1.62234 63.4314 1.30823C63.6628 1.20904 63.8943 1.11536 64.1246 1.02719C64.1235 1.12968 64.118 1.23107 64.1059 1.33026C64.1533 1.21454 64.2007 1.09772 64.2481 0.979796C64.3362 0.947835 64.4244 0.914774 64.5126 0.882812C63.7885 2.52938 62.4659 4.15941 61.6228 5.54919C61.1754 6.29973 60.6695 6.97203 60.1757 7.56938C59.6941 8.17996 59.2511 8.78391 58.84 9.34709C58.3859 9.97751 57.9715 10.5583 57.6067 11.0741C57.8976 10.7677 58.236 10.4338 58.6206 10.0932C60.0589 9.01095 62.0989 8.19098 64.0464 7.17041C64.0431 6.98526 64.0254 6.8034 64.0023 6.62596C63.902 5.94595 63.5581 5.15903 62.9211 5.18769C62.4494 5.21083 62.0273 5.63405 62.1353 6.25895C62.2003 6.62706 62.4681 7.13074 62.8076 7.13735C62.9861 7.13956 63.1471 6.9577 63.1393 6.73728C63.1338 6.62045 63.0842 6.49261 63.028 6.39782C62.9806 6.31847 63.0809 6.25235 63.1261 6.3295C63.1955 6.44963 63.2418 6.5984 63.2529 6.74388C63.276 7.0117 63.1062 7.18584 62.9211 7.25968C62.6224 7.38091 62.3138 7.00839 62.164 6.71303C61.9689 6.32287 61.9347 5.83574 62.1496 5.48306C62.4207 5.0367 63.0302 4.91326 63.4413 5.20753C63.9395 5.55801 64.1147 6.37247 64.1533 7.00509C64.1555 7.04035 64.1566 7.07673 64.1577 7.1131C64.1654 7.10759 64.1753 7.10539 64.1808 7.10098C65.2785 6.53559 66.3707 5.96248 67.3395 5.35851L67.4387 5.51944C66.4688 6.15095 65.3711 6.74939 64.2712 7.33462C64.2337 7.35556 64.1951 7.3754 64.1566 7.39744C64.1301 8.00692 63.9483 8.53594 63.6595 9.0363C63.6187 9.10794 63.5747 9.17847 63.5317 9.2457C67.0474 9.54989 69.7499 10.7248 71.1 11.4125L71.1573 11.5029L71.0977 11.5095C68.7723 10.5319 63.1305 8.36069 65.4405 11.3254C65.7976 12.3107 65.6169 12.9819 65.3403 13.4139C65.273 13.5451 65.1959 13.6674 65.1121 13.771C65.0746 13.8195 65.0328 13.8647 64.9909 13.9066C64.8024 14.0212 64.614 14.1402 64.4255 14.2615C64.0872 14.3871 63.7124 14.4036 63.373 14.3122C62.92 14.1909 62.5541 13.7501 62.4924 13.1814C62.488 13.1384 62.4858 13.0965 62.4847 13.0546C62.3414 12.8728 62.2334 12.649 62.1607 12.4154C61.9446 11.7144 62.1628 11.0708 62.4858 10.5462C62.6312 10.3114 62.7856 10.091 62.9443 9.8695C62.7712 9.79014 62.5927 9.74938 62.4229 9.73064C60.2396 9.92461 58.0916 11.1689 56.3888 13.2045C56.2687 13.3456 56.1475 13.49 56.0306 13.6388C56.6732 13.9341 57.2562 14.4654 57.7169 15.1013C57.8646 15.217 58.0321 15.3151 58.2095 15.3592C59.0372 15.562 59.3833 15.465 59.9366 14.6803C60.3532 14.0884 60.2595 12.2997 59.1397 12.3228C59.1397 12.3228 59.9674 11.7343 60.5747 12.7692C61.2062 13.8504 60.5868 14.9205 60.0666 15.2368C60.0666 15.2368 60.8117 15.4936 60.9064 16.2287C61.0012 16.944 60.1515 16.9561 60.1515 16.9561C60.1515 16.9561 60.5703 16.8107 60.3609 16.1814C60.1735 15.6171 59.758 15.4308 59.2257 15.5024C58.7044 15.5697 58.2658 15.5267 57.8932 15.3592C57.8943 15.3614 57.8932 15.3636 57.8943 15.3647C58.1048 15.6821 58.3837 16.2243 58.5402 17.0366C58.711 17.9282 58.4917 18.7581 57.955 19.4205C57.7367 19.6233 57.5185 19.8272 57.3025 20.0322C57.1085 20.1721 56.8958 20.2978 56.6633 20.4091C55.2393 21.0858 54.1802 20.192 54.534 19.1791C54.8756 18.2059 56.7007 17.3353 57.3885 18.4561C57.6739 18.9895 56.9234 20.0035 56.0791 19.8602C55.2052 19.7114 55.7066 18.8793 55.8245 18.8242C55.8664 18.8353 55.8587 18.8507 55.8587 18.8507C55.8587 18.8507 55.2779 19.6078 56.1144 19.7952C56.8583 19.9627 57.5615 19.0105 57.3113 18.5046C57.1173 18.1156 56.3668 17.7012 55.3109 18.3647C54.3466 18.9697 54.3014 20.0443 55.1964 20.4675C56.1376 20.9116 57.6045 19.9429 58.1588 19.0204C58.7132 18.0979 58.4597 16.9198 58.3242 16.5274C58.2624 16.3489 58.1544 16.0855 58.0233 15.8199C57.977 15.7361 57.923 15.6457 57.8624 15.5465C57.7477 15.3614 57.6221 15.1872 57.491 15.0208C57.491 15.0208 57.491 15.0208 57.491 15.0197C57.2463 14.7089 56.9785 14.4301 56.6897 14.203C56.4472 14.0102 56.1949 13.8614 55.937 13.7501C54.2331 15.9157 52.8962 18.6765 51.7434 21.6699C51.6155 21.9763 51.48 22.2816 51.3378 22.5803C51.5472 23.1401 51.6167 23.7562 51.5616 24.304C51.5042 24.865 51.2728 25.3885 50.8562 25.6475C50.5366 25.8459 50.0307 25.8635 49.6835 25.5516C48.6486 27.0835 47.6677 28.0865 47.4032 28.3807C46.7376 29.0376 45.4988 30.51 40.5029 34.244C39.7325 34.6639 39.0591 34.9703 38.443 35.1709C37.2604 35.3494 36.3512 35.2106 35.767 34.8854C38.1531 35.2282 39.2431 33.8219 40.9404 31.7587C41.9962 30.5089 43.0818 28.9384 44.1233 27.1651C44.2038 26.9832 44.2765 26.7793 44.2765 26.6162C44.2765 26.2558 43.9503 25.9142 43.5866 26.1357C43.5866 26.1357 43.7178 25.4623 44.1784 25.5273C44.5212 25.5769 44.6931 25.8194 44.7449 26.0696C45.6784 24.369 46.5579 22.513 47.3283 20.5821C47.4473 20.3088 47.5685 20.0366 47.6909 19.7632C47.5983 19.761 47.5035 19.7599 47.4132 19.7621C45.9969 19.8139 44.692 20.4631 43.8489 21.0417C43.5337 21.2566 43.2835 21.4649 43.1171 21.6214C42.8118 21.9135 42.4172 22.4712 42.1053 22.9539C41.9687 23.1644 41.8453 23.3606 41.7516 23.516C41.1763 24.6688 40.5954 25.8977 39.9639 27.1133C40.3287 26.9182 40.8335 27.2191 40.8996 27.7834C40.9691 28.3995 40.5216 28.5383 40.5216 28.5383C40.4941 27.9763 40.1215 27.7812 39.7898 27.8903C39.6289 27.9465 39.457 28.1228 39.3247 28.2914C39.3038 28.3223 39.2872 28.3576 39.2685 28.3917C38.3184 30.0449 37.256 31.6573 35.9412 32.7694C35.5279 33.1165 35.0914 33.4075 34.6473 33.6401L34.4688 33.3954ZM35.6657 23.2206C35.5973 23.2548 35.5268 23.29 35.4584 23.3253C35.4232 23.721 35.3438 24.0847 35.227 24.3933C35.1179 24.6688 34.9911 24.909 34.8556 25.1184C34.6252 25.4182 34.3343 25.6012 33.8119 25.8943C33.025 26.3352 31.8468 26.0685 31.5602 24.8021C31.5448 24.779 31.5327 24.7558 31.5184 24.7338C31.3068 24.7768 31.0985 24.8121 30.8968 24.8407C30.996 25.4182 31.3817 26.0001 31.7597 26.3771C32.4783 27.0901 33.4857 26.7518 33.4857 26.7518C33.381 27.272 33.7987 28.3322 34.7145 28.2242C35.6282 28.1151 35.4474 27.272 35.4474 27.272C35.2766 27.6126 34.7884 27.639 34.4643 27.1728C34.1403 26.7088 34.2428 26.2459 34.547 25.8249C34.6076 25.7423 34.6627 25.6651 34.7134 25.5946C34.9614 25.3135 35.1961 24.9531 35.3846 24.498C35.5301 24.1343 35.6282 23.6967 35.6657 23.2206ZM33.7127 29.0056C33.5771 29.0971 33.3986 29.031 33.3148 28.8568C33.23 28.6827 33.2708 28.4645 33.4052 28.373C33.5408 28.2804 33.7193 28.3477 33.8042 28.5229C33.8879 28.6959 33.8472 28.912 33.7127 29.0056ZM64.0475 7.45805C62.1364 8.48633 60.1327 9.33057 58.7793 10.3743C58.6548 10.4878 58.5336 10.6013 58.4167 10.7137C59.8925 9.72292 61.5203 9.1928 63.1239 9.2413C63.211 9.2413 63.2947 9.2435 63.384 9.2457C63.4656 9.12116 63.5471 8.99111 63.6198 8.85555C63.7852 8.56349 63.9218 8.24498 63.9946 7.89451C64.0232 7.75343 64.0397 7.60794 64.0475 7.45805ZM62.693 12.6612C62.6378 12.7604 62.6114 12.8827 62.6081 13.005C62.7613 13.1847 62.9586 13.3214 63.1526 13.2916C63.4623 13.2486 63.4964 12.7229 63.2374 12.5311C63.0434 12.3845 62.8054 12.4518 62.693 12.6612ZM63.0666 9.93233C62.8914 10.1792 62.7161 10.4217 62.5563 10.6829C62.4031 10.9308 62.2753 11.1965 62.2202 11.5084C62.1474 11.936 62.2279 12.3934 62.4373 12.767C62.4593 12.8011 62.4791 12.8375 62.5034 12.8728C62.553 12.5697 62.7216 12.3195 62.9971 12.314C63.2242 12.3118 63.4468 12.4815 63.5162 12.7615C63.5791 13.0205 63.4667 13.2905 63.2837 13.3974C63.0754 13.5175 62.8208 13.3776 62.6401 13.2155C62.6302 13.2067 62.6202 13.1979 62.6136 13.1891C62.6191 13.242 62.6279 13.2949 62.6367 13.3456C62.8164 14.1579 63.5724 14.2868 64.118 14.1942C64.3549 14.1546 64.5765 14.0598 64.7683 13.9165C64.9964 13.5396 65.1584 12.746 64.7914 12.1355C64.3671 11.4356 63.5736 11.7089 63.5736 11.7089C63.7102 11.5932 64.0993 11.1799 63.4821 10.317C63.3608 10.145 63.2187 10.0227 63.0666 9.93233ZM55.4641 13.5903C54.6287 13.3776 53.7603 13.5164 52.9612 13.8382C51.7676 14.321 50.7173 15.174 49.905 16.3279C49.6879 16.6343 49.4818 16.9583 49.2934 17.2967C49.203 17.4874 49.1137 17.6758 49.0234 17.8665C49.3187 17.7144 49.5546 17.8764 49.7563 18.2357C50.0032 18.6754 49.6152 19.0898 49.6152 19.0898C49.6152 19.0898 49.6549 18.6446 49.1281 18.519C48.8845 18.4627 48.6707 18.7118 48.5164 18.9741C48.4095 19.2089 48.3026 19.4491 48.1979 19.6861C49.3176 19.912 50.412 20.6945 51.081 22.0138C51.1736 21.8077 51.2662 21.6016 51.3533 21.3933C52.4719 18.509 53.7823 15.7868 55.4465 13.6145C55.4531 13.6079 55.4608 13.598 55.4641 13.5903ZM48.1428 19.8194C47.994 20.1611 47.8463 20.5006 47.7008 20.8499C46.9326 22.8359 46.0421 24.7614 45.091 26.5247C45.4503 26.3517 45.6971 26.5446 45.8768 26.9645C46.0807 27.4362 45.6509 27.7812 45.6509 27.7812C45.6509 27.7812 45.7368 27.3502 45.2188 27.1475C44.962 27.045 44.7031 27.3006 44.5212 27.553C43.4863 29.3605 42.3996 30.9652 41.3328 32.2492C40.9889 32.679 40.6428 33.0581 40.3023 33.4031C39.932 33.7811 39.5661 34.1162 39.22 34.4027C40.3717 33.7337 41.5014 32.949 42.6101 32.0883C42.6101 32.0883 45.1064 29.9964 45.6674 29.452C46.2989 28.8337 47.9708 27.2599 49.4146 25.1173C49.2923 24.7305 49.4543 24.3613 49.7838 24.2423C49.8444 24.2191 49.9095 24.2213 49.9745 24.2323C50.3646 23.5766 50.7228 22.8811 51.016 22.1482C50.7295 21.5597 50.358 21.0792 49.9337 20.7067C50.0064 20.8367 50.0538 21.012 50.0186 21.2368C49.9238 21.8176 49.3992 21.7471 49.3992 21.7471C49.7177 21.4759 49.4576 20.592 49.2449 20.3374C49.1556 20.2316 49.0355 20.1369 48.9264 20.0608C48.6707 19.9528 48.4073 19.869 48.1428 19.8194ZM49.8599 24.3712C49.6009 24.4208 49.4532 24.6908 49.5006 24.9906C49.6339 24.7878 49.7662 24.5817 49.894 24.3701C49.8819 24.3701 49.8709 24.369 49.8599 24.3712ZM49.7596 25.4535C49.9282 25.5946 50.1497 25.6541 50.3382 25.6552C50.6457 25.6552 50.9091 25.4899 51.0965 25.2518C51.5065 24.7305 51.5329 23.8907 51.3841 23.1445C51.3477 23.0101 51.3103 22.8756 51.2662 22.75C50.9785 23.3914 50.6633 23.9855 50.3382 24.5343C50.401 24.6633 50.4319 24.8187 50.3724 24.9311C50.336 25.0005 50.2269 24.9234 50.2621 24.8539C50.2919 24.7966 50.2853 24.7261 50.2632 24.6578C50.0957 24.9355 49.9271 25.2022 49.7596 25.4535ZM37.4599 24.8606C37.6924 25.0115 38.0683 25.0997 38.2446 24.8539C38.3692 24.6842 38.2677 24.3921 38.1002 24.3084C37.8677 24.1938 37.6175 24.4296 37.5194 24.6578C37.4886 24.7261 37.4687 24.7933 37.4599 24.8606ZM32.3328 27.3447C32.4023 27.3161 32.4353 27.456 32.3681 27.4847C31.9438 27.6677 30.435 28.1349 29.5621 27.3084C29.2183 27.0086 28.9427 26.1555 29.3428 25.8293C29.4971 25.7037 29.7153 25.7444 29.8751 25.8569C30.0603 25.9869 30.1319 26.2316 30.1033 26.4696C30.0933 26.56 29.9798 26.5181 29.9908 26.4289C30.0514 25.9109 29.3902 25.675 29.28 26.1743C29.2171 26.4608 29.3318 26.8322 29.4938 27.0549C30.349 28.1063 32.0375 27.4748 32.3328 27.3447ZM31.3266 27.2477C31.2307 27.3139 31.1029 27.2654 31.0422 27.1408C30.9805 27.0152 31.0114 26.8609 31.1073 26.7959C31.2054 26.7275 31.3321 26.7749 31.3927 26.9006C31.4533 27.0262 31.4247 27.1794 31.3266 27.2477ZM32.82 28.1691C32.8817 27.9399 32.9324 27.7051 32.971 27.4627C32.9853 27.3745 33.0977 27.4142 33.0856 27.5056C32.9456 28.3598 32.7682 29.3715 32.0264 29.6537C31.7377 29.7639 31.3365 29.603 31.3387 29.1566C31.3409 28.9913 31.4115 28.8447 31.5195 28.761C31.6539 28.6596 31.8237 28.7345 31.9504 28.8414C32.0121 28.8976 31.9592 29.0188 31.8953 28.9637C31.7663 28.8513 31.6297 28.8062 31.5184 28.9516C31.4368 29.0607 31.4368 29.2415 31.4996 29.3737C31.5856 29.5457 31.7906 29.5611 31.9239 29.5346C32.1102 29.5005 32.2039 29.4355 32.3372 29.2834C32.5885 28.9957 32.7164 28.5703 32.82 28.1691Z" fill="white"/>
<path fill-rule="evenodd" clip-rule="evenodd" d="M55.0641 56.9C55.0641 60.699 52.5909 63.635 49.4763 63.635C46.3617 63.635 43.8445 60.7177 43.8445 56.9C43.8445 53.0822 46.3617 50.1638 49.4763 50.1638C52.5909 50.1638 55.0641 53.0999 55.0641 56.9ZM49.4884 48.2373C44.735 48.2373 40.8908 51.9911 40.8908 56.9C40.8908 61.8088 44.7339 65.5637 49.4884 65.5637C54.243 65.5637 58.0189 61.7868 58.0189 56.9C58.0189 52.0132 54.2419 48.2373 49.4884 48.2373Z" fill="#EE3124"/>
<path fill-rule="evenodd" clip-rule="evenodd" d="M14.3727 63.4264H15.077V63.2533C15.077 63.2533 14.3739 63.2192 14.3739 62.4201C14.3739 62.4058 14.3727 62.397 14.3727 62.3849V51.3923C14.3727 51.3791 14.3739 51.3692 14.3739 51.3559C14.3739 50.5569 15.077 50.5227 15.077 50.5227V50.3497H14.3727H13.6707H11.1766L7.53518 60.3514L3.89489 50.3497H1.40738H0.70423H0V50.5227C0 50.5227 0.703154 50.5569 0.703154 51.3559C0.703154 51.3625 0.70423 51.3658 0.70423 51.3736V62.4047C0.70423 62.4102 0.703154 62.4146 0.703154 62.4212C0.703154 63.2203 0 63.2544 0 63.2544V63.4275H0.70423H1.40738H2.32768H3.02861H3.73399V63.2544C3.73399 63.2544 3.03083 63.2203 3.03083 62.4212C3.03083 62.4047 3.02972 62.3937 3.02861 62.3782V52.36L6.51021 63.4275H8.56017L12.0407 52.36V62.419C12.0407 62.4201 12.0407 62.4212 12.0407 62.4212C12.0407 63.2203 11.3375 63.2544 11.3375 63.2544V63.4275H12.0407H12.7438H13.6696H14.3727V63.4264ZM28.157 63.4264H28.8645V63.2533C28.8645 63.2533 28.1603 63.2192 28.1603 62.4201C28.1603 62.3904 28.1592 62.3672 28.157 62.3441V51.4331C28.1592 51.4099 28.1603 51.3857 28.1603 51.357C28.1603 50.558 28.8645 50.5238 28.8645 50.5238V50.3508H28.157H27.4583H25.7367L19.9043 59.5403V51.4452C19.9076 51.4198 19.9087 51.3912 19.9087 51.357C19.9087 50.558 20.6119 50.5238 20.6119 50.5238V50.3508H19.2066H18.2214H17.5215H16.8151V50.5238C16.8151 50.5238 17.5182 50.558 17.5182 51.357C17.5182 51.3802 17.5204 51.3967 17.5215 51.4154V63.4275H19.9043L25.7367 52.9209V62.4609C25.7114 63.2181 25.038 63.2544 25.038 63.2544V63.4275H25.7367H26.4443H27.4593H28.157V63.4264ZM37.3377 54.8254C37.3377 57.2997 35.5963 57.8375 34.8226 57.8375H33.7822V51.8111H34.8226C35.5963 51.8122 37.3377 52.2927 37.3377 54.8254ZM39.8108 54.8452C39.8108 53.483 39.2653 50.3497 34.6529 50.3497H33.7811H32.0728H31.3641H30.6665V50.5227C30.6665 50.5227 31.3344 50.5602 31.3641 51.3096V62.4664C31.3355 63.2159 30.6665 63.2533 30.6665 63.2533V63.4264H31.3641H32.0728H33.0802H33.7811H34.4865V63.2533C34.4865 63.2533 33.7833 63.2192 33.7833 62.4201C33.7833 62.3992 33.7811 62.3838 33.7811 62.365V59.3022H34.6529C38.8387 59.3022 39.8108 56.6549 39.8108 54.8452ZM62.0219 56.3551H63.0634C63.8371 56.3551 65.5784 56.9492 65.5784 59.2284C65.5784 61.5528 63.8371 61.9627 63.0634 61.9627H62.0219V56.3551ZM62.0219 54.8926V54.6689L62.0285 54.67V51.8331H65.3635C65.3833 51.8343 65.3966 51.8376 65.4186 51.8376C66.7412 51.8376 66.8976 53.6208 66.8976 53.6208H67.085V51.8331V50.7828V50.3497H62.0219H60.3114H59.606H58.904V50.5227C58.904 50.5227 59.5983 50.5569 59.606 51.3438V54.2512V62.4311C59.5994 63.2192 58.904 63.2533 58.904 63.2533V63.4264H59.606H60.3114H62.0219H62.8947C67.5071 63.4264 68.0516 60.5719 68.0516 59.2107C68.0516 57.4 67.0795 54.8926 62.8947 54.8926H62.0219ZM80.5584 56.8985C80.5584 59.9525 78.5713 62.311 76.0695 62.311C73.5666 62.311 71.5442 59.9657 71.5442 56.8985C71.5442 53.8324 73.5666 51.4871 76.0695 51.4871C78.5713 51.4871 80.5584 53.8467 80.5584 56.8985ZM82.9324 56.8985C82.9324 52.9727 79.8972 49.9375 76.0772 49.9375C72.2573 49.9375 69.1702 52.954 69.1702 56.8985C69.1702 60.843 72.2573 63.8595 76.0772 63.8595C79.8972 63.8595 82.9324 60.8253 82.9324 56.8985ZM92.1373 62.5094H92.1395V60.994H91.9092C91.9092 60.994 91.8607 61.9065 90.8578 61.9407H87.0631V56.9723H89.8725C90.6528 56.9845 90.6891 57.6744 90.6891 57.6744H90.8611V56.9723H90.8644V55.5142H90.8611V54.8144H90.6891C90.6891 54.8144 90.6517 55.4988 89.8802 55.5142H87.0764L87.0753 51.8287H90.8214C91.8629 51.8398 91.9092 52.7799 91.9092 52.7799H92.1395V51.8287V51.2634V50.3486H85.4012H84.6958H83.9948V50.5216C83.9948 50.5216 84.6826 50.5569 84.6958 51.335V62.4378C84.6826 63.2159 83.9948 63.2511 83.9948 63.2511V63.4242H85.4001H92.1362V62.5094H92.1373ZM100.613 59.5149C100.613 61.5539 98.8713 61.9639 98.0976 61.9639H97.0561V56.9734H98.0976C98.8713 56.9723 100.613 57.2357 100.613 59.5149ZM100.613 53.8015C100.613 55.3114 98.9121 55.5087 98.1252 55.5142C98.059 55.512 97.9962 55.5098 97.9279 55.5098H97.055V55.2861L97.0616 55.2872V51.832V51.8144H98.0965C98.8713 51.8155 100.613 52.091 100.613 53.8015ZM102.599 53.7541C102.599 52.5187 102.098 50.3497 97.8584 50.3497H97.055H95.3456H94.6392H93.9393V50.5227C93.9393 50.5227 94.6226 50.5591 94.6392 51.3295V54.2501V62.4455C94.6226 63.2159 93.9393 63.2522 93.9393 63.2522V63.4253H94.6392H95.3456H97.055H97.9279C102.54 63.4253 103.085 60.8573 103.085 59.4951C103.085 58.2949 102.656 57.1233 101.15 56.2438C102.212 55.4128 102.599 54.5135 102.599 53.7541Z" fill="black"/>
</svg>
