<?xml version="1.0" encoding="iso-8859-1"?>
<!-- Generator: Adobe Illustrator 19.0.0, SVG Export Plug-In . SVG Version: 6.00 Build 0)  -->
<svg width="210" height="42" viewBox="0 0 210 42" fill="none" xmlns="http://www.w3.org/2000/svg">
<path fill-rule="evenodd" clip-rule="evenodd" d="M3.93286 19.0468L9.66501 19.0429L11.1862 14.7034L14.272 14.7048L12.7402 19.0468H18.277L20.9995 11.3384L6.62911 11.3318L3.93286 19.0468ZM153.046 28.1926H166.83C168.03 28.1926 169.381 27.2116 169.835 26.013L174.572 13.4838C175.025 12.2852 174.415 11.3043 173.217 11.3043H159.433C158.233 11.3043 156.882 12.2852 156.428 13.4838L151.691 26.013C151.238 27.2103 151.847 28.1926 153.046 28.1926ZM158.235 22.8407H167.608V24.2898H158.235V22.8407ZM163.689 23.0715H164.784V24.0616H163.689V23.0715ZM166.348 23.0715H167.443V24.0616H166.348V23.0715ZM165.019 23.0715H166.114V24.0616H165.019V23.0715ZM158.255 15.3801H167.684V22.2755H158.255V15.3801ZM165.595 19.6265C166.1 19.6265 166.508 20.0356 166.508 20.5392C166.508 21.0428 166.099 21.452 165.595 21.452C165.091 21.452 164.682 21.0428 164.682 20.5392C164.682 20.0356 165.091 19.6265 165.595 19.6265ZM160.323 19.6265C160.828 19.6265 161.236 20.0356 161.236 20.5392C161.236 21.0428 160.827 21.452 160.323 21.452C159.82 21.452 159.41 21.0428 159.41 20.5392C159.41 20.0356 159.818 19.6265 160.323 19.6265ZM165.595 16.1722C166.1 16.1722 166.508 16.5814 166.508 17.085C166.508 17.5885 166.099 17.9977 165.595 17.9977C165.091 17.9977 164.682 17.5885 164.682 17.085C164.682 16.5801 165.091 16.1722 165.595 16.1722ZM160.323 16.1722C160.828 16.1722 161.236 16.5814 161.236 17.085C161.236 17.5885 160.827 17.9977 160.323 17.9977C159.82 17.9977 159.41 17.5885 159.41 17.085C159.409 16.5801 159.818 16.1722 160.323 16.1722ZM160.66 18.8829C161.405 19.0363 161.965 19.696 161.965 20.4867C161.965 21.3916 161.232 22.1247 160.327 22.1247C159.423 22.1247 158.689 21.3916 158.689 20.4867C158.689 19.696 159.249 19.0376 159.994 18.8829C159.249 18.7295 158.689 18.0685 158.689 17.2777C158.689 16.3742 159.423 15.6398 160.327 15.6398C161.232 15.6398 161.965 16.3742 161.965 17.2777C161.965 18.0685 161.405 18.7295 160.66 18.8829ZM165.966 18.8278C166.711 18.9813 167.271 19.6422 167.271 20.433C167.271 21.3365 166.538 22.0709 165.633 22.0709C164.729 22.0709 163.995 21.3365 163.995 20.433C163.995 19.6422 164.555 18.9826 165.3 18.8278C164.555 18.6744 163.995 18.0148 163.995 17.224C163.995 16.3191 164.729 15.586 165.633 15.586C166.538 15.586 167.271 16.3191 167.271 17.224C167.271 18.0148 166.711 18.6744 165.966 18.8278ZM158.47 14.6615H167.469C167.961 14.6615 168.363 15.0654 168.363 15.5572V24.2426C168.363 24.7344 167.961 25.137 167.469 25.137H158.47C157.978 25.137 157.576 24.7344 157.576 24.2426V15.5572C157.576 15.0654 157.978 14.6615 158.47 14.6615ZM113.935 28.1926H127.719C128.919 28.1926 130.27 27.2116 130.723 26.013L135.46 13.4838C135.914 12.2852 135.304 11.3043 134.104 11.3043H120.321C119.123 11.3043 117.771 12.2852 117.317 13.4838L112.58 26.013C112.126 27.2103 112.736 28.1926 113.935 28.1926ZM119.037 15.9886H129.002C129.96 15.9886 130.744 16.7742 130.744 17.7328V21.6854C130.744 22.644 129.96 23.4296 129.002 23.4296H119.037C118.079 23.4296 117.295 22.644 117.295 21.6854V17.7328C117.295 16.7742 118.079 15.9886 119.037 15.9886ZM118.181 16.8948H130.023V22.6047H118.181V16.8948ZM124.3 17.839H129.189V21.6447H124.3V17.839ZM125.172 18.3518C125.356 18.3518 125.505 18.5013 125.505 18.6862C125.505 18.8698 125.356 19.0193 125.172 19.0193C124.987 19.0193 124.838 18.8698 124.838 18.6862C124.838 18.5013 124.987 18.3518 125.172 18.3518ZM125.163 17.9819C125.562 17.9819 125.884 18.3046 125.884 18.7032C125.884 19.1019 125.562 19.4245 125.163 19.4245C124.764 19.4245 124.442 19.1019 124.442 18.7032C124.442 18.3046 124.766 17.9819 125.163 17.9819ZM124.952 17.1886H128.636C129.297 17.1886 129.837 17.7289 129.837 18.3898V21.1123C129.837 21.7733 129.297 22.3135 128.636 22.3135H124.952C124.291 22.3135 123.751 21.7733 123.751 21.1123V18.3898C123.751 17.7289 124.291 17.1886 124.952 17.1886ZM118.485 21.1451H123.234V21.8467H118.485V21.1451ZM118.485 18.9078H123.234V19.6094H118.485V18.9078ZM118.485 17.7774H123.234V18.4803H118.485V17.7774ZM118.485 20.0265H123.234V20.7293H118.485V20.0265ZM102.351 19.0468L104.886 14.2812L103.998 19.0468H108.889L109.591 11.3423L102.358 11.3397L97.5186 19.0521L102.351 19.0468ZM43.0652 19.0521L44.2834 15.7958L43.8769 19.0521H47.6656L47.6747 19.0481C47.8544 18.7334 48.9049 12.0138 48.9049 11.3738L40.424 11.3384L37.6832 19.0521H43.0652ZM69.1267 11.3423L63.5664 11.3371L60.874 19.0468L66.4265 19.0521L69.1267 11.3423ZM83.5994 0L76.902 19.0507L71.52 19.0495L71.84 18.1236L71.0427 19.0507H67.3681L83.5994 0ZM85.0773 18.4436C85.0812 18.0371 86.3612 14.4831 86.5802 14.2182C91.5793 13.7382 89.3171 18.4554 86.6208 18.4606L85.0773 18.4436ZM92.0933 11.3423L82.0716 11.3568L79.4015 19.0521H93.3667C94.0316 18.4082 95.1791 15.9139 95.2381 14.7179C95.3784 11.8459 92.6835 11.4853 92.0933 11.3423ZM29.6482 14.0832L28.7236 19.0586H33.6768L34.1607 11.3462L27.0044 11.3384L22.1601 19.0586H26.9113L29.6482 14.0832ZM48.097 19.0468L52.5047 11.3502L60.8806 11.3384L58.2014 19.0468H52.9296L54.1478 15.6123L52.0247 19.0455L48.097 19.0468Z" fill="#BE1F24"/>
<path fill-rule="evenodd" clip-rule="evenodd" d="M91.7746 28.2475H97.2563L98.8863 25.2733L102.662 25.2785L102.086 28.2475L108.054 28.2462L108.743 20.6178H103.605L103.249 22.2846H100.735L101.534 20.6178H96.5363L91.7746 28.2475ZM133.464 28.1925H147.248C148.447 28.1925 149.799 27.2115 150.253 26.0129L154.99 13.4837C155.442 12.2851 154.832 11.3042 153.634 11.3042H139.849C138.651 11.3042 137.299 12.2851 136.845 13.4837L132.108 26.0129C131.654 27.2102 132.266 28.1925 133.464 28.1925ZM140.937 14.5958H145.679V21.4151H146.779L149.701 25.0084H146.722V25.6719H139.895V25.0084H136.917L139.907 21.4151H140.938V14.5958H140.937ZM145.094 22.0708H146.467L148.324 24.3553H147.019L146.414 24.1088L140.064 24.1271L139.716 24.3566H138.31L140.211 22.0721H141.541V23.1646H145.094V22.0708ZM141.65 21.6604V14.9696H144.964V21.6604H141.65ZM17.7209 20.6165H12.1815L9.48525 28.2449H15.0378L17.7209 20.6165ZM0.676575 28.2462H6.41265L9.10101 20.6125H3.38591L0.676575 28.2462ZM28.4337 20.6178H33.5653L32.8138 28.2449L26.8325 28.2462L27.5695 25.2759H23.3966L21.9305 28.2449H16.4187L21.1896 20.6178H26.047L25.1723 22.2177L28.1348 22.2243L28.4337 20.6178ZM39.7735 28.2462L42.4881 20.6191L37.1428 20.6165L34.4452 28.2462H39.7735ZM51.0384 20.6139L43.629 20.6178L42.6625 28.2449H46.2898L51.0384 20.6139ZM54.9267 28.2475L49.6785 28.2462L52.3761 20.6178L57.6558 20.6152L54.9267 28.2475ZM69.6552 20.6139L60.2668 20.6165L53.7163 39.3538L69.6552 20.6139ZM73.6917 28.2462H68.3293L70.9928 20.6191L76.3525 20.6178L73.6917 28.2462ZM76.1387 28.2475H81.5548L83.9167 21.5895C85.2137 21.5567 90.5038 22.0459 91.1425 20.6178L78.7943 20.6453L76.1387 28.2475Z" fill="#838285"/>
<path fill-rule="evenodd" clip-rule="evenodd" d="M12.0464 2.90025C12.0424 2.92124 12.0359 2.94875 12.028 2.98678C12.0175 3.02481 12.0057 3.06679 11.9913 3.11269C11.9756 3.15727 11.9572 3.20581 11.9375 3.25564C11.9152 3.30679 11.8929 3.35135 11.868 3.39331C11.8431 3.43528 11.8182 3.47072 11.788 3.49432C11.7605 3.52186 11.729 3.53367 11.6989 3.53367H10.116L8.78886 7.38264C8.77968 7.40755 8.76393 7.42852 8.74163 7.44819C8.71934 7.46655 8.68787 7.48097 8.6459 7.49277C8.60263 7.50589 8.55015 7.51506 8.48458 7.52031C8.42032 7.52686 8.34167 7.53079 8.24593 7.53079C8.1502 7.53079 8.07283 7.52686 8.01381 7.52031C7.9548 7.51375 7.90889 7.50458 7.87742 7.49277C7.84332 7.48097 7.82364 7.46524 7.81315 7.44819C7.80266 7.42852 7.80398 7.40755 7.81447 7.38264L9.31601 3.04189C9.3488 2.9396 9.40125 2.8622 9.47337 2.81237C9.5455 2.76122 9.62419 2.73633 9.71074 2.73633H11.9782C12.0149 2.73633 12.0385 2.75076 12.045 2.78223C12.0529 2.81633 12.0529 2.85436 12.0464 2.90025ZM15.5124 3.9087C15.536 3.75133 15.5347 3.6097 15.5085 3.48512C15.4809 3.36185 15.4337 3.25434 15.3642 3.16123C15.2934 3.06943 15.2042 2.99203 15.0941 2.93039C14.9839 2.86875 14.8554 2.82285 14.7098 2.794C14.6154 2.77302 14.5171 2.75992 14.4161 2.75074C14.3177 2.74287 14.2036 2.73893 14.0764 2.73893H13.0326C12.9237 2.73893 12.8293 2.76647 12.7466 2.82418C12.664 2.88319 12.6037 2.96974 12.5644 3.08383L11.0785 7.37867C11.0667 7.40621 11.0668 7.42852 11.0759 7.44819C11.0864 7.46655 11.1061 7.48097 11.1402 7.49277C11.1717 7.50589 11.2202 7.51506 11.2766 7.52031C11.3369 7.52686 11.4116 7.53079 11.5034 7.53079C11.5952 7.53079 11.6752 7.52686 11.7408 7.52031C11.8064 7.51375 11.8602 7.50458 11.9034 7.49277C11.9454 7.48097 11.9808 7.46526 12.0018 7.44559C12.0254 7.42592 12.0398 7.4049 12.049 7.37867L12.5762 5.85352H13.0732C13.3578 5.85352 13.6056 5.82469 13.8233 5.76699C14.041 5.70929 14.2351 5.63061 14.4095 5.52963C14.5826 5.43127 14.7334 5.31585 14.8619 5.18733C14.9892 5.0575 15.098 4.92241 15.1885 4.77816C15.2777 4.6339 15.3485 4.48706 15.4023 4.33624C15.4573 4.18937 15.4927 4.04509 15.5124 3.9087ZM14.4764 4.01888C14.4646 4.09494 14.4463 4.17363 14.4187 4.25756C14.3912 4.33887 14.3558 4.42146 14.3112 4.50145C14.2666 4.58276 14.2115 4.66014 14.1485 4.73489C14.0843 4.80964 14.0122 4.87127 13.9282 4.92635C13.8469 4.98012 13.7512 5.0234 13.6476 5.0575C13.544 5.0916 13.422 5.10733 13.2817 5.10733H12.8385L13.3919 3.48908H13.8194C13.8981 3.48908 13.9689 3.49169 14.0318 3.49825C14.0948 3.5048 14.1512 3.51662 14.1997 3.53367C14.3138 3.56645 14.3912 3.62677 14.4358 3.71332C14.479 3.79856 14.4934 3.90085 14.4764 4.01888ZM17.8139 6.11317C17.5923 6.4148 17.3969 6.66265 17.2251 6.85412C17.0533 7.04558 16.8907 7.19509 16.7372 7.30131C16.5838 7.40885 16.4304 7.4836 16.2743 7.52163C16.117 7.55966 15.9452 7.58066 15.755 7.58066C15.7039 7.58066 15.6488 7.57672 15.5885 7.56885C15.5295 7.56098 15.4731 7.54916 15.4206 7.53736C15.3668 7.52162 15.3183 7.50459 15.2737 7.48361C15.2291 7.46525 15.1937 7.44034 15.1714 7.41149C15.1413 7.37477 15.1295 7.32624 15.1387 7.26329C15.1413 7.24362 15.1479 7.21213 15.1583 7.17016C15.1688 7.12689 15.1819 7.08101 15.1964 7.03117C15.2134 6.98003 15.2304 6.92757 15.2514 6.87249C15.2724 6.81741 15.2947 6.76628 15.3223 6.72169C15.3485 6.67579 15.376 6.63907 15.4023 6.60891C15.4311 6.58006 15.4599 6.56429 15.4888 6.56429C15.5137 6.56429 15.536 6.5735 15.5583 6.59186C15.5806 6.60891 15.6068 6.62595 15.6357 6.64693C15.6645 6.6666 15.7012 6.68366 15.7432 6.6994C15.7878 6.71645 15.8429 6.72429 15.9124 6.72429C15.9622 6.72429 16.012 6.71642 16.0645 6.70068C16.117 6.68625 16.172 6.66137 16.2297 6.62072C16.2861 6.584 16.3451 6.53413 16.4055 6.4738C16.4658 6.41348 16.5314 6.33742 16.6009 6.24824L16.1314 3.09564C16.1209 3.01695 16.117 2.95401 16.1222 2.90418C16.1261 2.85565 16.1458 2.81893 16.1799 2.79008C16.2127 2.76254 16.2639 2.7455 16.3347 2.73501C16.4055 2.72452 16.4999 2.71928 16.6179 2.71928C16.7333 2.71928 16.8225 2.72321 16.8881 2.72977C16.951 2.73632 17.0009 2.7468 17.0336 2.76122C17.0651 2.77827 17.0874 2.80188 17.0979 2.83466C17.1097 2.86613 17.1162 2.90681 17.1215 2.95664L17.313 4.41621C17.3366 4.57095 17.3536 4.72179 17.3694 4.8726C17.3838 5.0221 17.3969 5.17291 17.41 5.32372H17.4179C17.528 5.15324 17.6369 4.99062 17.7457 4.83194C17.8533 4.67326 17.9673 4.51327 18.088 4.35065L19.1385 2.88321C19.1608 2.85173 19.1869 2.82418 19.2184 2.80188C19.2499 2.77828 19.2906 2.76254 19.3378 2.75074C19.3876 2.73762 19.4506 2.72845 19.5253 2.7232C19.6014 2.71796 19.6958 2.71532 19.8059 2.71532C19.92 2.71532 20.0066 2.71929 20.0695 2.72584C20.1325 2.7324 20.1744 2.74681 20.1967 2.76911C20.2177 2.79402 20.2191 2.82548 20.2007 2.86876C20.181 2.91072 20.1456 2.96844 20.0932 3.04057L17.8139 6.11317ZM22.9035 7.38392L24.4037 3.04317C24.4405 2.94088 24.4431 2.86352 24.4116 2.81369C24.3801 2.76254 24.3198 2.73761 24.2306 2.73761H21.0833C20.9967 2.73761 20.9193 2.76254 20.8485 2.81369C20.7777 2.86352 20.7252 2.94088 20.6912 3.04317L19.1909 7.38392C19.1804 7.40883 19.1791 7.42984 19.1883 7.44951C19.1962 7.46787 19.2158 7.48229 19.2499 7.49409C19.2814 7.50721 19.3286 7.51638 19.3863 7.52163C19.444 7.52687 19.5227 7.53211 19.6197 7.53211C19.7128 7.53211 19.7928 7.52818 19.8571 7.52163C19.9226 7.51507 19.9751 7.5059 20.0184 7.49409C20.0604 7.48229 20.0931 7.46656 20.1141 7.44951C20.1377 7.42984 20.1522 7.40883 20.1614 7.38392L21.4872 3.54675H23.2641L21.9383 7.38392C21.9265 7.40883 21.9252 7.42984 21.937 7.44951C21.9488 7.46787 21.9698 7.48229 22.0026 7.49409C22.0353 7.50721 22.0825 7.51638 22.1415 7.52163C22.2006 7.52687 22.2792 7.53211 22.3723 7.53211C22.4681 7.53211 22.5494 7.52818 22.611 7.52163C22.6727 7.51507 22.7251 7.5059 22.7658 7.49409C22.8064 7.48229 22.8392 7.46656 22.8589 7.44951C22.8799 7.43115 22.8956 7.40883 22.9035 7.38392ZM27.66 7.38392C27.6508 7.40883 27.6364 7.42984 27.6167 7.44951C27.5944 7.46787 27.5642 7.48229 27.5236 7.49409C27.4816 7.50721 27.4305 7.51638 27.3688 7.52163C27.3059 7.52818 27.2272 7.53211 27.1302 7.53211C27.037 7.53211 26.9597 7.52818 26.898 7.52163C26.839 7.51507 26.7931 7.5059 26.759 7.49409C26.7275 7.48229 26.7066 7.46656 26.6948 7.44951C26.683 7.42984 26.6843 7.40883 26.6948 7.38392L28.0206 3.54675H26.2449L24.9191 7.38392C24.9099 7.40883 24.8942 7.42984 24.8719 7.44951C24.8496 7.46787 24.8181 7.48229 24.7762 7.49409C24.7329 7.50721 24.6805 7.51638 24.6149 7.52163C24.5493 7.52687 24.4719 7.53211 24.3775 7.53211C24.2805 7.53211 24.2031 7.52818 24.1441 7.52163C24.0851 7.51507 24.0378 7.5059 24.0064 7.49409C23.9736 7.48229 23.9526 7.46656 23.9461 7.44951C23.9369 7.42984 23.9369 7.40883 23.9487 7.38392L25.4489 3.04317C25.4817 2.94088 25.5355 2.86352 25.605 2.81369C25.6771 2.76254 25.7532 2.73761 25.8397 2.73761H28.9884C29.0763 2.73761 29.1366 2.76254 29.1681 2.81369C29.2008 2.86352 29.1969 2.94088 29.1615 3.04317L27.66 7.38392ZM32.6866 7.14919L32.68 2.91991C32.6826 2.87269 32.6774 2.836 32.6656 2.80977C32.6551 2.78223 32.6276 2.76255 32.583 2.74681C32.5384 2.73501 32.4741 2.72582 32.3902 2.72188C32.3076 2.71795 32.1922 2.71532 32.0453 2.71532C31.9207 2.71532 31.8184 2.71795 31.7424 2.72188C31.6637 2.72582 31.6007 2.73501 31.5522 2.74681C31.5063 2.76255 31.4683 2.7809 31.4394 2.80713C31.4106 2.83335 31.3817 2.86745 31.3516 2.9081L28.4193 7.14131C28.3603 7.22655 28.3183 7.29607 28.296 7.34722C28.2711 7.39967 28.2685 7.43903 28.2842 7.46788C28.2999 7.49673 28.3406 7.51376 28.4022 7.52163C28.4639 7.5295 28.5517 7.53343 28.6632 7.53343C28.7694 7.53343 28.8573 7.5308 28.9281 7.52555C29.0002 7.5203 29.0566 7.51113 29.0999 7.49802C29.1431 7.48621 29.1786 7.46919 29.2035 7.44559C29.2297 7.42067 29.2533 7.39312 29.2756 7.35902L29.9051 6.42269H31.6978L31.686 7.37999C31.6834 7.41409 31.6873 7.44165 31.6978 7.46132C31.707 7.4823 31.7253 7.49409 31.7568 7.50458C31.7882 7.51507 31.8328 7.52162 31.8918 7.52555C31.9495 7.52948 32.0256 7.53211 32.12 7.53211C32.2525 7.53211 32.3574 7.52818 32.4335 7.52163C32.5095 7.51507 32.5685 7.49935 32.6053 7.47312C32.6407 7.44821 32.6643 7.41016 32.6734 7.3577C32.6813 7.30787 32.6866 7.23706 32.6866 7.14919ZM31.7463 3.65037L31.724 5.67778H30.3824L31.7437 3.65037H31.7463ZM38.5118 7.32625C38.5053 7.3669 38.4922 7.40229 38.4738 7.4259C38.4528 7.45344 38.4226 7.47311 38.382 7.48885C38.34 7.5059 38.2863 7.51638 38.2181 7.52163C38.1499 7.52687 38.0673 7.53211 37.9663 7.53211C37.8614 7.53211 37.7787 7.52818 37.7197 7.52163C37.6607 7.51507 37.6148 7.5046 37.5833 7.49017C37.5532 7.47706 37.5335 7.45867 37.5257 7.43506C37.5165 7.41277 37.5139 7.38524 37.5139 7.35114L37.4863 6.2889C37.4824 6.13416 37.4679 6.00433 37.4443 5.89942C37.4194 5.79582 37.3814 5.71059 37.3289 5.64633C37.2752 5.58076 37.207 5.53484 37.127 5.50862C37.047 5.48239 36.9473 5.46796 36.8319 5.46796H36.6181L35.9572 7.37867C35.948 7.40621 35.9323 7.4272 35.91 7.44687C35.8877 7.46523 35.8562 7.48098 35.813 7.49409C35.771 7.50852 35.7172 7.5177 35.6543 7.52295C35.5913 7.52819 35.5127 7.53343 35.4169 7.53343C35.3212 7.53343 35.2438 7.52951 35.1848 7.52295C35.1258 7.51639 35.0799 7.50721 35.0484 7.49409C35.0156 7.48098 34.9946 7.46523 34.9841 7.44687C34.975 7.4272 34.975 7.40621 34.9868 7.37867L36.5474 2.87008C36.5539 2.84254 36.5697 2.82023 36.5933 2.80056C36.6155 2.7822 36.6483 2.76646 36.6903 2.75466C36.7322 2.74286 36.7847 2.73368 36.8489 2.72712C36.9132 2.72057 36.9932 2.71664 37.089 2.71664C37.1821 2.71664 37.2581 2.72057 37.3184 2.72712C37.3774 2.73368 37.4247 2.74286 37.4561 2.75466C37.4876 2.76646 37.5086 2.7822 37.5178 2.80056C37.5256 2.82023 37.5256 2.84123 37.5165 2.87008L36.8936 4.66013H37.1073C37.2162 4.66013 37.3158 4.64703 37.4076 4.61687C37.4981 4.58802 37.5886 4.54083 37.6765 4.47788C37.7643 4.41493 37.8535 4.331 37.944 4.22871C38.0332 4.12773 38.1302 4.0005 38.2325 3.85231L38.8843 2.89893C38.9092 2.86615 38.9341 2.83598 38.9643 2.81369C38.9918 2.79008 39.0272 2.77173 39.0744 2.75862C39.119 2.7442 39.1741 2.73501 39.2423 2.72977C39.3092 2.72321 39.3957 2.71928 39.5006 2.71928C39.5963 2.71928 39.6737 2.72321 39.7341 2.72977C39.7931 2.73632 39.839 2.7455 39.8691 2.7573C39.8993 2.7691 39.9176 2.78486 39.9255 2.79928C39.9334 2.81633 39.9347 2.83075 39.9321 2.84911C39.9268 2.88583 39.9098 2.92908 39.8836 2.97629C39.856 3.02482 39.8101 3.08909 39.7498 3.1704L39.1374 4.01756C39.0246 4.17755 38.9197 4.31394 38.8213 4.42541C38.7243 4.53688 38.6299 4.63132 38.5381 4.71C38.4476 4.78737 38.3558 4.85031 38.2666 4.90146C38.1787 4.95129 38.083 4.99325 37.9859 5.02472V5.02865C38.0673 5.07192 38.1368 5.11781 38.1958 5.16896C38.2561 5.22142 38.3033 5.28702 38.3426 5.3657C38.3807 5.44701 38.4109 5.54403 38.4292 5.66206C38.4515 5.77877 38.4633 5.92174 38.4738 6.09484L38.5171 7.08232C38.5223 7.13084 38.5236 7.17674 38.5223 7.21739C38.521 7.25411 38.5171 7.29084 38.5118 7.32625ZM44.2453 4.33624C44.2873 4.05036 44.2846 3.80247 44.2348 3.59134C44.1863 3.3802 44.0932 3.20447 43.9581 3.06546C43.823 2.92776 43.6499 2.82287 43.4309 2.7573C43.2132 2.6878 42.9575 2.65633 42.6585 2.65633C42.3123 2.65633 41.9949 2.70352 41.7077 2.80056C41.4205 2.89761 41.1635 3.03007 40.9353 3.19793C40.7071 3.36448 40.5038 3.55595 40.3268 3.77495C40.1485 3.99396 39.9989 4.22474 39.8731 4.46735C39.7472 4.70996 39.6475 4.95523 39.5701 5.20702C39.4928 5.45881 39.4363 5.70008 39.4036 5.9322C39.3629 6.21546 39.3669 6.4594 39.4167 6.66922C39.4652 6.87774 39.5583 7.05084 39.6947 7.18853C39.8311 7.32492 40.0068 7.42851 40.2258 7.49277C40.4422 7.55965 40.7006 7.59246 40.997 7.59246C41.351 7.59246 41.671 7.5426 41.9595 7.44163C42.248 7.34065 42.5103 7.2056 42.7385 7.03773C42.9666 6.86988 43.1673 6.67578 43.3431 6.45415C43.5175 6.23252 43.6657 6.00041 43.7889 5.75911C43.9122 5.51781 44.0105 5.2739 44.0866 5.02604C44.1614 4.78343 44.2151 4.55131 44.2453 4.33624ZM43.208 4.42801C43.1883 4.55784 43.1568 4.70606 43.1109 4.8726C43.0664 5.04046 43.0073 5.21225 42.9312 5.38535C42.8565 5.56108 42.7673 5.73417 42.6598 5.90334C42.5549 6.07251 42.4329 6.22333 42.2952 6.35578C42.1575 6.48692 42.0002 6.59447 41.8271 6.67447C41.6527 6.75446 41.4599 6.79641 41.2487 6.79641C41.0743 6.79641 40.9314 6.77281 40.8186 6.72953C40.7058 6.68495 40.618 6.62069 40.555 6.53807C40.4921 6.45546 40.454 6.35449 40.4357 6.23516C40.4212 6.11451 40.4239 5.97811 40.4475 5.82598C40.4658 5.7014 40.496 5.55453 40.5419 5.38667C40.5865 5.22144 40.6468 5.04833 40.7215 4.8726C40.7976 4.69688 40.8881 4.52246 40.993 4.35329C41.0992 4.1815 41.2225 4.02935 41.3628 3.8969C41.5005 3.76182 41.6592 3.65559 41.8323 3.57429C42.008 3.49167 42.2008 3.4497 42.4146 3.4497C42.5877 3.4497 42.728 3.47332 42.8408 3.51922C42.9535 3.56381 43.0401 3.62806 43.1017 3.71068C43.1634 3.79461 43.2014 3.89823 43.2172 4.01888C43.2342 4.14215 43.2302 4.2772 43.208 4.42801ZM49.6535 7.37999C49.6417 7.40622 49.6273 7.4272 49.6116 7.44687C49.5932 7.46785 49.5657 7.48229 49.5303 7.49409C49.4922 7.50721 49.4424 7.51638 49.3795 7.52163C49.3165 7.52687 49.2417 7.53211 49.1486 7.53211C49.0542 7.53211 48.9768 7.52818 48.9191 7.52163C48.8601 7.51507 48.8169 7.5059 48.7854 7.49409C48.7552 7.48229 48.7382 7.46654 48.7316 7.44687C48.725 7.4272 48.7277 7.40622 48.7368 7.37999L50.0758 3.49693H50.0679L47.3376 7.37739C47.3009 7.43772 47.2366 7.47967 47.1474 7.50066C47.0622 7.52164 46.9389 7.53211 46.7842 7.53211C46.6242 7.53211 46.5114 7.51639 46.4458 7.48885C46.3803 7.46131 46.3488 7.42588 46.3527 7.38392L46.3593 3.49432H46.3527L45.0085 7.37999C44.9994 7.40622 44.9849 7.4272 44.9679 7.44687C44.9482 7.46785 44.9207 7.48229 44.8839 7.49409C44.8459 7.50721 44.7974 7.51638 44.7357 7.52163C44.6741 7.52687 44.598 7.53211 44.5036 7.53211C44.4118 7.53211 44.3344 7.52818 44.2767 7.52163C44.2177 7.51507 44.1745 7.5059 44.143 7.49409C44.1128 7.48229 44.0945 7.46654 44.0879 7.44687C44.0801 7.4272 44.0827 7.40622 44.0932 7.37999L45.5619 3.12973C45.5829 3.0681 45.6105 3.01301 45.6433 2.96449C45.676 2.91465 45.7141 2.874 45.7586 2.8399C45.8006 2.80712 45.8465 2.7809 45.899 2.76254C45.9501 2.74549 46.0052 2.73761 46.0616 2.73761H46.6662C46.7737 2.73761 46.8641 2.74551 46.9389 2.76518C47.0123 2.78486 47.0701 2.81501 47.1133 2.85959C47.1553 2.90287 47.1854 2.96187 47.1986 3.03268C47.2156 3.10481 47.2208 3.19007 47.2156 3.28974L47.2628 6.12894H47.2825L49.3322 3.28974C49.3952 3.19532 49.4568 3.11136 49.5158 3.04317C49.5749 2.97104 49.6391 2.91335 49.706 2.86876C49.7729 2.82417 49.8437 2.78878 49.9211 2.76911C49.9984 2.74944 50.0876 2.73893 50.1873 2.73893H50.8731C50.9347 2.73893 50.9859 2.74682 51.0279 2.76386C51.0685 2.78222 51.1013 2.80713 51.121 2.84122C51.1433 2.87401 51.1511 2.91469 51.1498 2.96321C51.1498 3.01042 51.1393 3.0655 51.1223 3.12713L49.6535 7.37999ZM54.4048 7.38392L55.9063 3.04317C55.9417 2.94088 55.9456 2.86352 55.9129 2.81369C55.8814 2.76254 55.8211 2.73761 55.7319 2.73761H52.5845C52.4993 2.73761 52.4206 2.76254 52.3498 2.81369C52.2789 2.86352 52.2265 2.94088 52.1937 3.04317L50.6921 7.38392C50.6816 7.40883 50.6804 7.42984 50.6895 7.44951C50.6974 7.46787 50.7171 7.48229 50.7512 7.49409C50.7826 7.50721 50.8299 7.51638 50.8889 7.52163C50.9466 7.52818 51.0253 7.53211 51.121 7.53211C51.2141 7.53211 51.2941 7.52818 51.3584 7.52163C51.4239 7.51507 51.4777 7.5059 51.5196 7.49409C51.5616 7.48229 51.5957 7.46656 51.6154 7.44951C51.639 7.42984 51.6547 7.40883 51.6626 7.38392L52.9884 3.54675H54.7654L53.4395 7.38392C53.4277 7.40883 53.4264 7.42984 53.4383 7.44951C53.4501 7.46787 53.471 7.48229 53.5038 7.49409C53.5366 7.50721 53.5851 7.51638 53.6428 7.52163C53.7031 7.52818 53.7805 7.53211 53.8749 7.53211C53.9693 7.53211 54.0506 7.52818 54.1123 7.52163C54.1752 7.51507 54.2264 7.5059 54.2684 7.49409C54.3077 7.48229 54.3405 7.46656 54.3615 7.44951C54.3824 7.43115 54.3969 7.40883 54.4048 7.38392ZM59.4327 7.14919C59.4327 7.23706 59.4261 7.30788 59.4183 7.35902C59.4091 7.41148 59.3868 7.44949 59.3487 7.4744C59.312 7.50194 59.2556 7.51639 59.1782 7.52295C59.0996 7.52951 58.9947 7.53343 58.8635 7.53343C58.7691 7.53343 58.6943 7.5308 58.6353 7.52687C58.5763 7.52294 58.5331 7.51639 58.5016 7.5059C58.4701 7.49541 58.4504 7.48231 58.4413 7.46264C58.4321 7.44297 58.4268 7.41541 58.4307 7.38131L58.4413 6.42397H56.6498L56.0191 7.36034C55.9981 7.39444 55.9745 7.42326 55.947 7.44687C55.922 7.47047 55.8866 7.48753 55.8433 7.49934C55.8014 7.51245 55.7437 7.52162 55.6729 7.52687C55.6007 7.53212 55.5129 7.53475 55.4066 7.53475C55.2952 7.53475 55.2086 7.53082 55.147 7.52295C55.084 7.51508 55.046 7.4967 55.0276 7.46916C55.0119 7.44162 55.0145 7.40099 55.0394 7.34854C55.0631 7.29739 55.1037 7.22787 55.1628 7.14263L58.095 2.90942C58.1252 2.86877 58.1554 2.83336 58.1842 2.80845C58.2118 2.78222 58.2498 2.76387 58.297 2.74814C58.3442 2.73633 58.4072 2.72714 58.4858 2.7232C58.5645 2.71927 58.6668 2.71664 58.7901 2.71664C58.9357 2.71664 59.0497 2.71927 59.1337 2.7232C59.2189 2.72714 59.2832 2.73633 59.3278 2.74814C59.3724 2.76387 59.4012 2.7822 59.4104 2.81105C59.4209 2.83728 59.4261 2.87402 59.4248 2.92123L59.4327 7.14919ZM58.4924 3.65037H58.4898L57.1272 5.67778H58.4688L58.4924 3.65037ZM63.7459 7.37999C63.7367 7.40622 63.7223 7.4272 63.7 7.44687C63.6764 7.46785 63.6449 7.48229 63.6042 7.49409C63.5623 7.50721 63.5098 7.51638 63.4456 7.52163C63.38 7.52818 63.3013 7.53211 63.2082 7.53211C63.1151 7.53211 63.0364 7.52818 62.9761 7.52163C62.9171 7.51507 62.8698 7.5059 62.8397 7.49409C62.8082 7.48229 62.7873 7.46654 62.7768 7.44687C62.7676 7.4272 62.7689 7.40622 62.7807 7.37999L63.4442 5.44831H61.6607L60.9959 7.37999C60.988 7.40622 60.971 7.4272 60.95 7.44687C60.9264 7.46785 60.8949 7.48229 60.8529 7.49409C60.8096 7.50721 60.7572 7.51638 60.6942 7.52163C60.6313 7.52687 60.5526 7.53211 60.4569 7.53211C60.3611 7.53211 60.2838 7.52818 60.2248 7.52163C60.1657 7.51507 60.1198 7.5059 60.0884 7.49409C60.0543 7.48229 60.0346 7.46654 60.0241 7.44687C60.015 7.4272 60.0149 7.40622 60.0267 7.37999L61.5873 2.86876C61.5939 2.84253 61.6083 2.82155 61.6293 2.80188C61.6529 2.7809 61.6831 2.76518 61.725 2.75338C61.7657 2.74158 61.8181 2.7324 61.8837 2.72584C61.948 2.71929 62.028 2.71532 62.1211 2.71532C62.2142 2.71532 62.2915 2.71929 62.3531 2.72584C62.4135 2.7324 62.4607 2.74158 62.4922 2.75338C62.5237 2.76518 62.5446 2.7809 62.5525 2.80188C62.5617 2.82155 62.5604 2.84253 62.5525 2.86876L61.9466 4.62343H63.7341L64.336 2.86876C64.3452 2.84253 64.3622 2.82155 64.3832 2.80188C64.4055 2.7809 64.4383 2.76518 64.4789 2.75338C64.5183 2.74158 64.5708 2.7324 64.6363 2.72584C64.7019 2.71929 64.7806 2.71532 64.8763 2.71532C64.9681 2.71532 65.0455 2.71929 65.1058 2.72584C65.1661 2.7324 65.2133 2.74158 65.2448 2.75338C65.2776 2.76518 65.2986 2.7809 65.3078 2.80188C65.3143 2.82155 65.3156 2.84253 65.3064 2.86876L63.7459 7.37999ZM68.6702 7.38392L70.2321 2.86484C70.2413 2.83861 70.2413 2.81895 70.2334 2.79928C70.2242 2.78092 70.2045 2.76518 70.1731 2.75338C70.1416 2.74158 70.0944 2.7324 70.0367 2.72584C69.979 2.71929 69.9003 2.71532 69.8046 2.71532C69.7285 2.71532 69.6643 2.71796 69.6105 2.7232C69.558 2.72845 69.5095 2.73762 69.4689 2.75074C69.4282 2.76254 69.3915 2.77828 69.36 2.80188C69.3298 2.82287 69.2957 2.85042 69.2616 2.88321L66.9942 5.11389C66.9365 5.1729 66.8736 5.23455 66.8067 5.30143C66.7425 5.36962 66.6756 5.4378 66.6087 5.50862C66.5418 5.58074 66.4749 5.65027 66.4133 5.72109C66.3503 5.79059 66.2926 5.85744 66.2389 5.92039H66.231C66.2585 5.85876 66.2887 5.7919 66.3175 5.72109C66.3451 5.64765 66.3752 5.5755 66.4028 5.50337C66.4303 5.42994 66.4566 5.35911 66.4841 5.28698C66.5103 5.21617 66.5339 5.15061 66.5549 5.0916L67.3208 2.86616C67.33 2.83993 67.33 2.82023 67.3208 2.80056C67.3103 2.7822 67.2893 2.76646 67.2565 2.75466C67.2237 2.74286 67.1778 2.73368 67.1188 2.72712C67.0598 2.72057 66.9824 2.71664 66.8906 2.71664C66.7975 2.71664 66.7175 2.72057 66.6546 2.72712C66.5903 2.73368 66.5379 2.74286 66.4959 2.75466C66.4539 2.76646 66.4198 2.7822 66.3975 2.80056C66.3726 2.82023 66.3595 2.83993 66.353 2.86616L64.7924 7.37215C64.7806 7.40362 64.7779 7.42982 64.7845 7.45211C64.7924 7.47309 64.812 7.48885 64.8422 7.50066C64.8737 7.51377 64.9183 7.52295 64.9773 7.52819C65.035 7.53344 65.1137 7.53608 65.2094 7.53608C65.2881 7.53608 65.3537 7.53345 65.4074 7.52951C65.4599 7.52558 65.5071 7.51771 65.5465 7.50722C65.5845 7.49542 65.6199 7.47969 65.65 7.46264C65.6789 7.44428 65.7091 7.42064 65.7366 7.39048L67.9463 5.23583C68.0827 5.10076 68.2204 4.95915 68.362 4.80965C68.5049 4.65884 68.6427 4.51065 68.7738 4.36246H68.7777C68.745 4.43721 68.7109 4.5159 68.6781 4.60114C68.6466 4.68507 68.6125 4.77163 68.581 4.85556C68.5483 4.93949 68.5181 5.0221 68.4892 5.1034C68.4604 5.18471 68.4355 5.26209 68.4119 5.33553L67.7037 7.38524C67.6945 7.41015 67.6945 7.43116 67.7024 7.45083C67.7116 7.46919 67.7299 7.48361 67.7627 7.49541C67.7929 7.50853 67.8401 7.5177 67.8991 7.52295C67.9594 7.52951 68.0355 7.53343 68.1325 7.53343C68.2256 7.53343 68.3056 7.52951 68.3712 7.52295C68.4355 7.51639 68.4893 7.50722 68.5312 7.49541C68.5719 7.48361 68.6059 7.46788 68.6282 7.45083C68.6466 7.43116 68.6623 7.40883 68.6702 7.38392ZM73.5932 7.38392C73.584 7.40883 73.5683 7.42984 73.5473 7.44951C73.5237 7.46787 73.4922 7.48229 73.4503 7.49409C73.4083 7.50721 73.3546 7.51638 73.2903 7.52163C73.2247 7.52818 73.146 7.53211 73.0516 7.53211C72.9572 7.53211 72.8785 7.52818 72.8182 7.52163C72.7592 7.51507 72.7146 7.5059 72.6831 7.49409C72.6503 7.48229 72.632 7.46656 72.6228 7.44951C72.6136 7.42984 72.6149 7.40883 72.6228 7.38392L73.3309 5.33421C73.3545 5.26077 73.3794 5.18339 73.4096 5.10208C73.4385 5.02078 73.4686 4.93816 73.5001 4.85423C73.5329 4.77031 73.5657 4.68375 73.5971 4.59982C73.6312 4.51589 73.6653 4.43589 73.6981 4.36114H73.6942C73.5617 4.50933 73.424 4.65752 73.2824 4.80833C73.1395 4.95783 73.0018 5.10079 72.8667 5.23455L70.657 7.3892C70.6294 7.41805 70.5993 7.44296 70.5704 7.46132C70.5403 7.47968 70.5035 7.4941 70.4655 7.5059C70.4262 7.51639 70.3803 7.52426 70.3265 7.52819C70.2741 7.53213 70.2059 7.53475 70.1285 7.53475C70.0341 7.53475 69.9554 7.53212 69.8964 7.52687C69.8387 7.52162 69.7954 7.51245 69.7613 7.49934C69.7311 7.48753 69.7115 7.47181 69.7049 7.45083C69.697 7.42854 69.6996 7.40361 69.7127 7.37083L71.272 2.86484C71.2786 2.83861 71.293 2.81895 71.3166 2.79928C71.3402 2.78092 71.373 2.76518 71.415 2.75338C71.4569 2.74158 71.5094 2.7324 71.5736 2.72584C71.6379 2.71929 71.7153 2.71532 71.8097 2.71532C71.9041 2.71532 71.9789 2.71929 72.0392 2.72584C72.0982 2.7324 72.1454 2.74158 72.1769 2.75338C72.2084 2.76518 72.2307 2.78092 72.2411 2.79928C72.249 2.81895 72.2503 2.83861 72.2411 2.86484L71.474 5.09028C71.453 5.14929 71.4307 5.2162 71.4032 5.2857C71.3756 5.35783 71.3494 5.42861 71.3219 5.50205C71.2943 5.57418 71.2655 5.64633 71.2366 5.71977C71.2078 5.79189 71.1789 5.85747 71.1514 5.91911H71.1593C71.2117 5.85616 71.2707 5.78796 71.3337 5.71977C71.3966 5.64895 71.4622 5.57942 71.5291 5.5073C71.5959 5.43648 71.6628 5.3683 71.7271 5.30011C71.7927 5.23323 71.8556 5.17158 71.9133 5.11257L74.1807 2.88189C74.2148 2.85041 74.2489 2.82155 74.2791 2.80056C74.3106 2.77696 74.3486 2.76122 74.3892 2.74942C74.4299 2.7363 74.4771 2.72713 74.5309 2.72188C74.5846 2.71664 74.6489 2.71404 74.7236 2.71404C74.8207 2.71404 74.8981 2.71797 74.9571 2.72452C75.0161 2.73108 75.062 2.74025 75.0935 2.75206C75.1236 2.76386 75.1446 2.7796 75.1525 2.79796C75.1603 2.81763 75.1617 2.83729 75.1525 2.86352L73.5932 7.38392ZM75.0882 1.40788C75.0843 1.4341 75.0725 1.47737 75.0528 1.54163C75.0305 1.60588 74.999 1.67801 74.9505 1.7567C74.9046 1.838 74.8417 1.92064 74.763 2.00719C74.683 2.09374 74.586 2.17243 74.464 2.24455C74.3433 2.31406 74.1978 2.37306 74.0299 2.41896C73.8608 2.46617 73.664 2.48976 73.4411 2.48976C73.2221 2.48976 73.0385 2.4688 72.8903 2.43077C72.7434 2.39274 72.6254 2.33635 72.5349 2.26684C72.4483 2.19603 72.3893 2.11208 72.3592 2.01503C72.329 1.91668 72.3225 1.80916 72.3395 1.68982C72.3435 1.66228 72.35 1.62819 72.3566 1.59409C72.3658 1.56 72.3736 1.52722 72.3841 1.49312C72.3933 1.46033 72.4051 1.43015 72.4182 1.40523C72.4326 1.37769 72.4457 1.35935 72.4601 1.34492C72.4929 1.31738 72.5415 1.29772 72.6018 1.28985C72.6634 1.27936 72.7473 1.27409 72.8562 1.27409C72.9441 1.27409 73.0123 1.27673 73.0608 1.28329C73.1093 1.28985 73.1447 1.30034 73.167 1.31215C73.1906 1.32526 73.2011 1.34098 73.2037 1.36065C73.2064 1.3777 73.2063 1.39867 73.2024 1.42096C73.1998 1.44326 73.1946 1.46293 73.188 1.48392C73.1814 1.5049 73.1749 1.52721 73.171 1.55475C73.1552 1.65966 73.1762 1.74227 73.2313 1.80128C73.2863 1.86029 73.3965 1.88917 73.5618 1.88917C73.6431 1.88917 73.7178 1.87996 73.7886 1.86291C73.8594 1.84455 73.9224 1.81964 73.9788 1.78423C74.0365 1.75014 74.0863 1.70424 74.1296 1.64916C74.1742 1.59277 74.2109 1.52591 74.2424 1.44854C74.2542 1.41969 74.2699 1.39214 74.2869 1.36854C74.304 1.34493 74.3302 1.32654 74.3669 1.31343C74.401 1.30031 74.4483 1.28985 74.5033 1.28329C74.5584 1.27673 74.6345 1.27148 74.7276 1.27148C74.8089 1.27148 74.8745 1.27409 74.923 1.28065C74.9702 1.28721 75.0069 1.2951 75.0318 1.3069C75.058 1.31871 75.0738 1.33311 75.079 1.34884C75.0895 1.36589 75.0909 1.38558 75.0882 1.40788Z" fill="#BE1F24"/>
<path fill-rule="evenodd" clip-rule="evenodd" d="M62.1828 38.8456C62.1828 38.8456 62.3087 38.7945 62.5618 38.6948C62.5972 38.6804 62.6457 38.6633 62.706 38.6371C62.7191 38.6371 62.7336 38.6253 62.7506 38.6043C62.7677 38.5833 62.8057 38.4955 62.8621 38.3433C63.0103 37.9774 63.1349 37.6575 63.2358 37.386L63.6017 36.3985C63.7237 36.0694 63.9204 35.4989 64.1958 34.6898C64.3033 34.3672 64.424 33.9908 64.5564 33.5607C64.6312 33.3259 64.7374 32.9732 64.8751 32.4971C64.8895 32.4407 64.9039 32.3647 64.921 32.2702C64.8436 32.2388 64.7676 32.2152 64.6889 32.2034C64.66 32.1968 64.6141 32.1902 64.5525 32.1837C64.5394 32.1837 64.525 32.1797 64.5092 32.1732C64.4895 32.1732 64.4751 32.1732 64.462 32.1732L64.5433 31.9555C64.6889 31.9555 64.8318 31.9555 64.9708 31.9555C64.9708 31.9555 65.119 31.9555 65.4167 31.9555C65.14 32.9902 64.6391 34.4904 63.9112 36.4575L63.0247 38.8456C62.6942 38.8837 62.3874 38.9558 62.1002 39.0633L62.1828 38.8456ZM65.7878 34.7488C65.881 34.6675 66.0291 34.5468 66.2258 34.3881C66.5065 34.1613 66.715 33.9895 66.8527 33.8754C67.4126 33.4059 67.9294 32.8564 68.4067 32.2204C68.3831 32.2139 68.3411 32.2073 68.2795 32.202C68.2992 32.202 68.1825 32.1824 67.9307 32.1443C67.911 32.1443 67.8939 32.1417 67.8769 32.1352L67.9648 31.8965C68.2743 31.9476 68.589 31.9738 68.905 31.9738C68.6087 32.3791 68.2519 32.8027 67.8362 33.2459L69.465 31.9738C69.6971 31.9607 69.903 31.9358 70.0814 31.8965L69.9974 32.1247C69.8597 32.1758 69.7129 32.202 69.5621 32.202L69.229 32.4578L66.1786 34.7475L66.858 36.7054C67.094 37.3847 67.2684 37.8188 67.3812 38.0063C67.7077 38.5964 68.1182 38.8824 68.6113 38.8627L68.5366 39.0607C68.092 39.0987 67.7274 38.9807 67.4428 38.7092C67.2291 38.5007 67.0179 38.1479 66.8081 37.6535C66.673 37.3375 66.5668 37.0608 66.4895 36.8261L65.7878 34.7488ZM66.778 31.8978C66.5708 31.9293 66.2875 31.9516 65.9282 31.9647C65.8639 32.1037 65.7813 32.2938 65.679 32.5365C65.5203 32.9168 65.2397 33.6472 64.8384 34.7304L64.5446 35.5212C64.3309 36.0969 64.2246 36.3854 64.2246 36.3854L63.8837 37.3545L63.624 38.0575C63.5912 38.1453 63.5453 38.2752 63.4876 38.4483C63.4221 38.6253 63.3722 38.7577 63.3408 38.8469C63.5873 38.8272 63.8863 38.8535 64.2338 38.923L64.3309 38.6856C64.2011 38.641 64.0109 38.6004 63.7591 38.5624C63.7945 38.4483 63.8522 38.283 63.9322 38.0679C63.9742 37.9539 64.0686 37.7086 64.2168 37.3283C64.3781 36.8916 64.5 36.5638 64.5813 36.3421C64.7138 36.0064 64.7807 35.8281 64.7872 35.8097L65.258 35.4884L65.8023 37.0162C66.2508 38.2817 66.7399 38.9269 67.2671 38.9532C67.0337 38.8142 66.8029 38.481 66.5747 37.9552C66.5065 37.7978 66.4291 37.5985 66.3399 37.3585C66.2914 37.2497 66.256 37.1657 66.2311 37.1014C66.2062 37.0385 66.1904 36.9847 66.1826 36.9402C66.155 36.8903 66.1393 36.8523 66.1288 36.8261L65.5137 34.977L64.9407 35.3927C65.4102 34.0734 65.8246 33.0112 66.1786 32.206C66.4213 32.185 66.5891 32.1627 66.6888 32.1378L66.778 31.8978ZM72.9192 37.6588L74.2346 35.95C74.2831 35.8858 74.3867 35.735 74.5454 35.4937C74.6477 35.3547 74.7972 35.1488 74.9926 34.876C75.6614 33.9082 76.1073 33.0925 76.3276 32.4276C76.3079 32.4276 76.2791 32.425 76.2371 32.4184C76.1991 32.4184 76.1663 32.4184 76.1414 32.4184C76.0968 32.4053 76.0234 32.3974 75.9237 32.3935C75.8227 32.3909 75.7506 32.383 75.7047 32.3699L75.786 32.1234C75.8988 32.1299 76.0758 32.1456 76.3197 32.1705C76.4483 32.1837 76.5807 32.1902 76.721 32.1902C76.721 32.2217 76.7092 32.2571 76.683 32.2951C76.6528 32.3764 76.624 32.4328 76.6017 32.4656C76.5637 32.5666 76.5269 32.6558 76.4928 32.7318C76.3669 33.0033 76.1663 33.3639 75.8935 33.8124L77.1997 32.1811C77.2403 32.1745 77.3006 32.1705 77.3846 32.1705H77.6115C77.6744 32.1574 77.761 32.1443 77.8724 32.1338C77.917 32.1338 77.9537 32.1299 77.98 32.1234L77.9183 32.3424C77.7347 32.3725 77.5367 32.3988 77.3216 32.4184C77.2731 32.463 77.1708 32.5771 77.0148 32.7607C76.8587 32.9443 76.5938 33.2669 76.2201 33.7285C76.1322 33.8295 76.005 33.9843 75.8385 34.1928L72.6491 38.3696L72.4642 34.5639C72.4655 34.3554 72.4616 34.0419 72.4524 33.6236C72.4367 33.1174 72.4524 32.64 72.4983 32.1902C72.7003 32.1902 72.8012 32.1902 72.8012 32.1902C72.9783 32.1758 73.2379 32.1575 73.5815 32.1352C73.6261 32.1352 73.6838 32.1312 73.7572 32.1234L73.6969 32.362C73.6773 32.362 73.6497 32.3633 73.6104 32.366C73.5723 32.3699 73.5409 32.3738 73.5212 32.3804C73.4386 32.3804 73.3494 32.3909 73.2537 32.4092L72.9297 32.4368C72.8484 33.1843 72.817 33.8295 72.8327 34.3659L72.9192 37.6588ZM69.705 40.2869C69.848 40.2239 69.9974 40.157 70.1496 40.0888C70.4905 39.9367 70.8538 39.7557 71.242 39.5472C70.9771 39.7492 70.7056 39.9367 70.4276 40.1072C70.1483 40.279 70.0092 40.3642 70.0092 40.3642C69.9161 40.4141 69.844 40.4521 69.7968 40.477L69.865 40.7052C70.9417 40.0351 71.756 39.4161 72.3094 38.8456L72.1062 32.1732H72.0013C71.7023 32.143 71.4557 32.126 71.2603 32.126L71.1725 32.3646C71.3154 32.3896 71.4492 32.4014 71.5764 32.4014C71.5974 32.4145 71.6367 32.421 71.6931 32.421C71.6931 32.4905 71.6996 32.6164 71.7141 32.8C71.739 33.0597 71.7587 33.2538 71.7757 33.3797L71.9134 38.8456C71.7364 38.9964 71.5187 39.1486 71.2603 39.302C70.9692 39.4528 70.7515 39.5643 70.6059 39.6338C70.24 39.8174 70.0578 39.9091 70.0578 39.9091C69.9017 39.9721 69.7588 40.0233 69.6316 40.0613L69.705 40.2869ZM80.7693 34.6596L81.5221 33.8806C81.9627 33.4243 82.3601 32.9443 82.7102 32.4381C82.4964 32.3673 82.3391 32.3305 82.242 32.324L82.3627 32.1247C82.4506 32.1444 82.5791 32.1627 82.7495 32.1824C82.7495 32.1824 82.8295 32.1824 82.9869 32.1824C83.0354 32.1889 83.1115 32.1916 83.2125 32.1916L82.0335 33.6053L83.6741 32.202C83.8433 32.1889 84.078 32.164 84.3757 32.1247L84.3403 32.324C84.2852 32.3371 84.2393 32.3502 84.2039 32.362C84.0046 32.387 83.8249 32.4276 83.6649 32.4853C83.4957 32.6191 83.2256 32.8342 82.8571 33.1305C82.6302 33.3141 82.3024 33.5921 81.8735 33.9659C81.8368 33.9974 81.7778 34.0538 81.6952 34.1364L80.8624 35.0006L81.6454 37.7808C81.6506 37.8004 81.6584 37.8267 81.6689 37.8621C81.6781 37.8962 81.6821 37.9237 81.6821 37.9434C81.728 38.0575 81.7883 38.2279 81.8617 38.4561C81.8696 38.4692 81.8788 38.4876 81.8893 38.5125C81.8984 38.5387 81.9076 38.5571 81.9155 38.5702C81.9588 38.5899 82.006 38.603 82.0558 38.6135C82.1057 38.6227 82.1765 38.6423 82.2656 38.6738C82.3365 38.6882 82.3876 38.6974 82.4164 38.7027L82.3653 38.8928C82.3522 38.8928 82.3312 38.8928 82.2984 38.8928C82.2748 38.8863 82.2538 38.8837 82.2355 38.8837C82.1306 38.8771 81.9732 38.864 81.766 38.8456H81.5745L79.753 32.2112C79.8422 32.2047 79.989 32.1955 80.191 32.1837C80.2631 32.1771 80.3693 32.1706 80.5097 32.164C80.591 32.1509 80.6972 32.1378 80.827 32.126L80.726 32.3253C80.6854 32.3319 80.5359 32.3646 80.2815 32.421C80.2684 32.421 80.2356 32.4276 80.1792 32.4407C80.1949 32.505 80.2067 32.5509 80.2172 32.5824C80.2277 32.6138 80.2343 32.6676 80.2382 32.7436C80.2552 32.8525 80.2763 32.9535 80.3051 33.0492L80.7693 34.6596ZM79.9799 35.79L80.5057 37.6968C80.5293 37.7729 80.5608 37.8647 80.6028 37.9722C80.6211 38.0601 80.6447 38.1598 80.6749 38.2673C80.7024 38.3434 80.7195 38.4037 80.7221 38.4483C80.7444 38.5427 80.7615 38.6122 80.7772 38.6568C80.4769 38.784 80.2684 38.8522 80.149 38.8653L80.1044 39.0633C80.1779 39.0502 80.2356 39.0358 80.2736 39.0161C80.671 38.9348 80.9175 38.8863 81.0132 38.8744C81.109 38.8626 81.1851 38.8522 81.2375 38.8469L79.2678 32.2046C79.2101 32.2046 79.1392 32.2007 79.0579 32.1942C78.9753 32.1876 78.8966 32.1811 78.8219 32.1745C78.5491 32.1443 78.4127 32.1273 78.4127 32.1273L78.3419 32.3174C78.3773 32.324 78.4009 32.3306 78.4114 32.3371C78.738 32.4446 78.9058 32.5024 78.9137 32.5089C78.9203 32.5155 78.9294 32.5286 78.9373 32.5456C78.9465 32.5653 78.953 32.5771 78.957 32.5836C79.0225 32.7686 79.0697 32.905 79.0986 32.9928C79.2048 33.2708 79.2691 33.4387 79.2914 33.4964L79.8946 35.4543L78.6121 36.7644C78.1216 37.2667 77.441 37.8804 76.5702 38.6095C76.5636 38.6095 76.5545 38.6095 76.5427 38.6095C76.5269 38.6161 76.5164 38.6188 76.5112 38.6188C76.3866 38.6633 76.2909 38.7001 76.2214 38.7329C76.0653 38.7958 75.9407 38.8404 75.8503 38.8666L75.786 39.0646C75.8319 39.0581 75.8686 39.0515 75.8962 39.0463L76.1558 38.961C76.3224 38.923 76.4797 38.8915 76.6279 38.8666L78.1885 37.4424L77.1144 38.8299C77.2731 38.8299 77.5669 38.8522 77.9931 38.8955L78.0941 38.7263C78.0141 38.7001 77.9564 38.6817 77.9144 38.6686C77.8043 38.6437 77.7229 38.6253 77.6692 38.6122C77.6154 38.5991 77.5839 38.586 77.5695 38.5742C77.5957 38.5243 77.6377 38.4587 77.7006 38.3774C77.7728 38.2699 77.8606 38.1506 77.9668 38.0194C78.1662 37.7677 78.317 37.5788 78.4127 37.4542C78.7275 37.0818 78.9504 36.83 79.0829 36.6976L79.9799 35.79ZM88.0568 32.126L87.9703 32.3646C87.8837 32.3765 87.708 32.3988 87.4431 32.4302C87.2713 32.7909 87.1074 33.1738 86.9513 33.579C86.8674 33.8072 86.7401 34.1495 86.571 34.6032C86.5447 34.674 86.4988 34.7816 86.4333 34.9258H89.8023C89.8141 34.8957 89.9505 34.4393 90.2128 33.5594C90.3098 33.2302 90.4095 32.8669 90.5131 32.4683C90.4842 32.4617 90.3977 32.446 90.256 32.421C90.2206 32.4145 90.1747 32.4053 90.1157 32.3935C90.1026 32.3935 90.0882 32.3896 90.0724 32.383C90.0462 32.383 90.0278 32.383 90.0147 32.383L90.0934 32.1745C90.1052 32.1745 90.1629 32.1784 90.2652 32.185C90.3662 32.1916 90.4567 32.1942 90.5314 32.1942C90.5314 32.1942 90.6927 32.1942 91.0153 32.1942C90.8711 32.6872 90.7308 33.141 90.5983 33.5515C90.5196 33.798 90.399 34.1692 90.235 34.6622L89.8836 35.6864C89.8836 35.6864 89.7879 35.9461 89.5951 36.4654L88.8882 38.3735C88.8095 38.5807 88.7466 38.7394 88.6942 38.8469C88.3506 38.8849 88.0332 38.9571 87.7394 39.0646L87.8207 38.8469C87.9401 38.7958 88.1211 38.7263 88.3624 38.6384C88.3755 38.6384 88.3899 38.6319 88.4069 38.6188C88.445 38.5493 88.4882 38.4574 88.5381 38.3433C88.601 38.1925 88.7204 37.8726 88.8935 37.386C88.8935 37.386 89.0154 37.0568 89.2581 36.3985L89.6764 35.2694H86.3074L85.5442 37.3283C85.3619 37.8227 85.2701 38.0679 85.2701 38.0679C85.2701 38.0679 85.2098 38.2332 85.0865 38.5624C85.312 38.5873 85.514 38.6292 85.6963 38.6856L85.5992 38.923C85.2399 38.8535 84.9252 38.8286 84.6589 38.8469C84.6917 38.759 84.7402 38.6253 84.8058 38.4483C84.8635 38.2765 84.9081 38.148 84.9422 38.0588L85.2019 37.3572L85.5415 36.3894C85.5415 36.3894 85.6478 36.1008 85.8615 35.5251L86.154 34.737C86.5343 33.7128 86.7926 33.0348 86.9342 32.7056C86.9854 32.5863 87.0654 32.4145 87.1729 32.1929L88.0568 32.126ZM92.4225 32.126L91.5438 32.1929C91.4638 32.3384 91.3799 32.5259 91.2894 32.7528C91.0206 33.4111 90.7635 34.0721 90.517 34.737C90.3229 35.2615 90.2246 35.5251 90.2246 35.5251C89.8416 36.607 89.6252 37.2182 89.5741 37.3572L89.3144 38.0588C89.2817 38.1466 89.2358 38.2765 89.1794 38.4483C89.1138 38.6253 89.064 38.7577 89.0312 38.8469C89.2974 38.8272 89.6082 38.8535 89.9623 38.923L90.0685 38.6856C89.9111 38.6345 89.7079 38.5938 89.46 38.5624L89.6436 38.0679C89.8259 37.5749 89.9177 37.3283 89.9177 37.3283C90.0632 36.9493 90.1891 36.6201 90.2914 36.3421C90.5013 35.7782 90.6048 35.4963 90.6048 35.4963C90.6048 35.4963 90.715 35.1986 90.9353 34.6032C91.1242 34.097 91.254 33.7534 91.3287 33.5698C91.4035 33.3849 91.5058 33.1423 91.6369 32.8381C91.7497 32.5666 91.8074 32.4289 91.8074 32.4289C92.0028 32.4106 92.1798 32.3882 92.3346 32.3633L92.4225 32.126ZM85.6386 32.3817C85.6517 32.3817 85.6661 32.3817 85.6858 32.3817C85.7094 32.3883 85.7225 32.3922 85.7291 32.3922C85.8195 32.4053 85.8654 32.4145 85.8694 32.4197C86.049 32.4512 86.1369 32.4669 86.1369 32.4669C85.7605 33.84 85.3435 35.1501 84.8806 36.3959L84.5147 37.3834C84.2786 38.022 84.1593 38.3407 84.1593 38.3407C84.1134 38.4483 84.0741 38.5401 84.0387 38.6161C84.0203 38.6292 84.0033 38.6358 83.9836 38.6358C83.7423 38.7237 83.5587 38.7932 83.4315 38.8443L83.3502 39.062C83.6557 38.9545 83.9797 38.8823 84.3232 38.8443C84.3442 38.7879 84.377 38.7079 84.4203 38.6069C84.4596 38.4994 84.4885 38.4194 84.5068 38.3696C85.1704 36.5782 85.5022 35.6825 85.5022 35.6825C85.7763 34.9101 86.0189 34.1993 86.2274 33.5475C86.4372 32.8958 86.571 32.4433 86.6274 32.1902C86.3166 32.1902 86.1618 32.1902 86.1618 32.1902C86.0858 32.1902 85.9953 32.1876 85.8904 32.1811C85.7855 32.1745 85.7264 32.1705 85.7133 32.1705L85.6386 32.3817ZM96.2662 32.126L96.1796 32.3646C96.0249 32.3896 95.8479 32.4119 95.6525 32.4302C95.6564 32.4184 95.5974 32.5548 95.4728 32.8394C95.3469 33.1423 95.2459 33.3902 95.1699 33.579C95.065 33.8452 94.9351 34.1862 94.7804 34.6032C94.5601 35.1986 94.4499 35.4963 94.4499 35.4963C94.2965 35.8753 94.1863 36.1572 94.1181 36.3421L93.5162 37.9643L98.6189 32.4696C98.573 32.4565 98.489 32.442 98.371 32.4224C98.3356 32.4158 98.2857 32.4066 98.2202 32.3948C98.2071 32.3948 98.1927 32.3909 98.1769 32.3843C98.1507 32.3843 98.1323 32.3843 98.1205 32.3843L98.1979 32.1758C98.211 32.1758 98.27 32.1798 98.3749 32.1863C98.4799 32.1929 98.5703 32.1955 98.6464 32.1955C98.6464 32.1955 98.8051 32.1955 99.1211 32.1955C99.0411 32.4932 98.906 32.9443 98.712 33.5528C98.5021 34.2046 98.2609 34.9153 97.9868 35.6877C97.9868 35.6877 97.891 35.9474 97.6983 36.4667L96.9914 38.3748C96.914 38.582 96.8524 38.7407 96.8052 38.8482C96.4551 38.8863 96.1377 38.9584 95.8518 39.0659L95.9331 38.8482C95.9934 38.822 96.1232 38.7722 96.3213 38.6974C96.3501 38.683 96.4 38.666 96.4655 38.6397C96.4852 38.6397 96.5022 38.6331 96.5193 38.62C96.5534 38.544 96.5954 38.4522 96.6413 38.3447C96.7042 38.1938 96.8222 37.8739 96.9967 37.3874C96.9967 37.3874 97.1186 37.0582 97.3625 36.3998C97.8333 35.1278 98.2097 33.996 98.4877 33.002L93.3142 38.5636H93.2946C93.5201 38.5886 93.7221 38.6306 93.9044 38.687L93.8073 38.9243C93.448 38.8548 93.1332 38.8299 92.867 38.8482C92.8985 38.7604 92.9483 38.6266 93.0139 38.4496C93.0716 38.2778 93.1162 38.1493 93.1503 38.0601L93.4099 37.3585C93.6735 36.611 93.8939 36.0012 94.0696 35.5265L94.362 34.7383C94.8119 33.5239 95.1515 32.6768 95.3797 32.1955L96.2662 32.126ZM93.8467 32.3817L93.924 32.1732C93.9371 32.1732 93.9962 32.1771 94.1011 32.1837C94.206 32.1902 94.2965 32.1929 94.3725 32.1929C94.3725 32.1929 94.5286 32.1929 94.8381 32.1929C94.7817 32.446 94.6479 32.8984 94.4381 33.5501C94.2296 34.2019 93.987 34.9127 93.7129 35.6851C93.7129 35.6851 93.3811 36.5808 92.7175 38.3722C92.6992 38.422 92.6703 38.502 92.6297 38.6095C92.5877 38.7105 92.5536 38.7905 92.5339 38.8469C92.1903 38.8849 91.8664 38.9571 91.5609 39.0646L91.6422 38.8469C91.7681 38.7958 91.9517 38.7263 92.1943 38.6384C92.2139 38.6384 92.231 38.6319 92.2494 38.6188C92.2822 38.5427 92.3241 38.4509 92.37 38.3433C92.37 38.3433 92.488 38.0247 92.7254 37.386L93.0913 36.3985C93.5542 35.1527 93.9712 33.8426 94.3476 32.4696C94.3476 32.4696 94.2598 32.4538 94.0801 32.4224C94.0762 32.4158 94.0303 32.4066 93.9398 32.3948C93.9332 32.3948 93.9188 32.3909 93.8965 32.3843C93.8755 32.3817 93.8598 32.3817 93.8467 32.3817ZM100.537 32.126L99.6496 32.1929C99.4201 32.6742 99.0805 33.5226 98.632 34.7357C98.4379 35.2602 98.3395 35.5238 98.3395 35.5238C98.0851 36.2464 97.8648 36.8562 97.6786 37.3559L97.4189 38.0575C97.3874 38.1453 97.3415 38.2752 97.2838 38.4469C97.2183 38.624 97.1684 38.7565 97.137 38.8456C97.4032 38.826 97.7166 38.8522 98.0773 38.9217L98.1743 38.6843C97.992 38.6279 97.79 38.586 97.5645 38.561L97.7481 38.0666C97.9317 37.5735 98.0222 37.327 98.0222 37.327C98.1756 36.948 98.3041 36.6189 98.4064 36.3408C98.6162 35.7769 98.7198 35.495 98.7198 35.495C98.7198 35.495 98.83 35.1973 99.0503 34.6019C99.205 34.1849 99.3349 33.8439 99.4398 33.5777C99.5172 33.3876 99.6181 33.141 99.7414 32.8381C99.866 32.5535 99.9263 32.4184 99.9224 32.4289C100.118 32.4106 100.295 32.3882 100.45 32.3633L100.537 32.126ZM111.265 32.1916L112.514 32.1719C112.667 32.1719 112.988 32.1562 113.481 32.1247C113.522 32.0486 113.557 31.9883 113.586 31.945H113.794C113.712 32.0827 113.641 32.2296 113.585 32.3804H112.598C112.643 32.3935 112.713 32.4119 112.804 32.4381C112.928 32.4643 113.033 32.4866 113.119 32.5089C113.206 32.5325 113.33 32.5653 113.49 32.6086C113.332 32.901 113.191 33.2105 113.071 33.5397H112.852C112.941 33.2472 113.043 33.0072 113.157 32.8171C112.779 32.5705 112.229 32.4538 111.502 32.4656C111.345 32.7882 111.181 33.1712 111.01 33.6144C111.01 33.6144 110.884 33.9527 110.634 34.6294C110.599 34.7239 110.545 34.8734 110.469 35.0753C110.389 35.2707 110.332 35.4202 110.293 35.5212L109.622 37.3349C109.598 37.3978 109.549 37.5211 109.476 37.7047C109.42 37.8555 109.374 37.9801 109.338 38.0745C109.245 38.346 109.187 38.5073 109.169 38.5584C109.362 38.5833 109.556 38.6253 109.749 38.6817L109.652 38.9191C109.304 38.8496 109.004 38.8246 108.749 38.843C108.865 38.5138 109.038 38.0234 109.266 37.3716C109.328 37.188 109.446 36.8654 109.616 36.4038L110.221 34.7724C110.319 34.5062 110.456 34.1482 110.629 33.6997C110.706 33.4912 110.833 33.1725 111.013 32.7423C111.065 32.6164 111.149 32.4329 111.265 32.1916ZM110.255 32.4578C110.036 33.4072 109.615 34.7225 108.991 36.4051L108.625 37.3926C108.489 37.7598 108.367 38.0824 108.258 38.3604C108.25 38.3801 108.23 38.4234 108.199 38.4942C108.179 38.544 108.163 38.5886 108.149 38.6279C108.144 38.6279 108.137 38.6279 108.13 38.6279C108.115 38.6332 108.104 38.6371 108.099 38.6371C108.032 38.6633 107.986 38.6791 107.961 38.6896C107.935 38.6987 107.88 38.7184 107.796 38.7512C107.712 38.784 107.639 38.8142 107.576 38.8456L107.494 39.0633C107.753 38.9623 108.066 38.8902 108.429 38.8456L108.94 37.4686C109.374 36.2975 109.59 35.7127 109.59 35.7127L109.942 34.6885C110.112 34.1954 110.241 33.8256 110.324 33.5777C110.457 33.1725 110.592 32.7109 110.734 32.1916L109.506 32.1719C109.135 32.1653 108.82 32.1522 108.561 32.1352C108.568 32.0644 108.583 32.0014 108.603 31.945H108.385C108.356 32.1089 108.317 32.2545 108.269 32.3804H109.248C109.143 32.4066 109.063 32.425 109.008 32.4381C108.878 32.4643 108.752 32.4879 108.629 32.5142C108.428 32.5588 108.28 32.5902 108.184 32.6086C108.119 32.9758 108.032 33.2866 107.926 33.5397H108.134C108.258 33.2407 108.336 33.0007 108.374 32.8171C108.925 32.5784 109.552 32.4578 110.255 32.4578ZM112.282 38.8456L112.201 39.0633C112.505 38.9558 112.829 38.8837 113.173 38.8456C113.195 38.7892 113.227 38.7092 113.27 38.6083C113.309 38.5007 113.339 38.4207 113.358 38.3709L114.065 36.4628C114.468 35.3743 114.824 34.3344 115.135 33.3404C115.36 32.6309 115.482 32.2257 115.499 32.1247C115.19 32.1247 115.035 32.1247 115.035 32.1247C114.954 32.1247 114.861 32.1207 114.761 32.1102C114.66 32.1011 114.604 32.0958 114.59 32.0958L114.509 32.3135C114.522 32.3135 114.538 32.3135 114.558 32.3135C114.58 32.3201 114.594 32.324 114.601 32.324C114.815 32.362 114.948 32.3935 115.002 32.4184C114.777 33.3863 114.352 34.7121 113.729 36.3946L113.363 37.3821C113.126 38.0207 113.008 38.3394 113.008 38.3394C112.962 38.4469 112.922 38.5387 112.887 38.6148C112.87 38.6279 112.852 38.6345 112.832 38.6345C112.592 38.725 112.408 38.7945 112.282 38.8456ZM115.267 34.935L115.486 34.3462C115.51 34.2833 115.528 34.2386 115.544 34.2124C115.594 34.08 115.634 33.9856 115.67 33.9279C115.811 33.5423 115.982 33.1344 116.18 32.703L116.324 32.3909H116.542C116.757 32.3909 116.864 32.3909 116.864 32.3909C117.759 32.404 118.405 32.5456 118.804 32.8171C118.773 32.8682 118.741 32.9351 118.711 33.0164C118.669 33.1305 118.644 33.2118 118.639 33.263H118.866C118.933 33.1371 118.981 33.0387 119.013 32.9692C119.044 32.8997 119.079 32.8355 119.116 32.7791C119.153 32.7214 119.178 32.6781 119.19 32.6453C119.006 32.5246 118.613 32.4014 118.008 32.2755L119.332 32.3896C119.46 32.1483 119.537 32.0066 119.567 31.962H119.386C119.34 32.0197 119.305 32.063 119.281 32.0958H119.1C119.056 32.0958 118.982 32.0997 118.883 32.105C118.783 32.1129 118.707 32.1155 118.656 32.1155H118.182C118.131 32.1155 118.055 32.1155 117.954 32.1155C117.844 32.122 117.763 32.1247 117.713 32.1247H116.004L113.515 38.8443H116.893L116.855 38.9492C116.833 39.0056 116.824 39.0436 116.824 39.062H117.061C117.074 39.0253 117.083 38.9951 117.083 38.9781L117.167 38.7499C117.183 38.7237 117.199 38.6869 117.218 38.6358H115.729C115.864 38.6292 116.003 38.6135 116.143 38.5886C116.542 38.5243 116.841 38.4653 117.045 38.4076C117.222 38.3565 117.318 38.3276 117.334 38.3224L117.671 37.4122H117.481C117.371 37.5893 117.284 37.7676 117.218 37.9434C117.198 37.9814 117.174 38.0378 117.145 38.1139C116.235 38.4168 115.428 38.5702 114.727 38.5702H113.92L115.144 35.2668H115.827C116.479 35.2668 117.015 35.3809 117.438 35.6091C117.365 35.7861 117.314 35.9749 117.284 36.1795H117.559C117.601 35.8936 117.666 35.6419 117.755 35.4202C117.422 35.293 117.026 35.1881 116.571 35.1068H117.87C117.878 35.0871 117.891 35.0609 117.91 35.0255C117.928 34.9901 117.941 34.9639 117.949 34.9442C117.983 34.8498 118.016 34.7737 118.042 34.716C118.134 34.5206 118.198 34.3973 118.236 34.3462H117.997C117.908 34.5049 117.839 34.6216 117.793 34.6976C117.788 34.7107 117.776 34.7317 117.76 34.7606C117.744 34.7894 117.733 34.8065 117.733 34.8117C117.213 34.8943 116.621 34.9363 115.95 34.9363H115.267V34.935ZM122.526 34.6596L123.278 33.8806C123.719 33.4243 124.116 32.9443 124.467 32.4381C124.253 32.3673 124.096 32.3305 123.997 32.324L124.119 32.1247C124.206 32.1444 124.335 32.1627 124.506 32.1824C124.506 32.1824 124.586 32.1824 124.743 32.1824C124.792 32.1889 124.867 32.1916 124.968 32.1916L123.79 33.6053L125.431 32.202C125.6 32.1889 125.834 32.164 126.132 32.1247L126.097 32.324C126.042 32.3371 125.996 32.3502 125.96 32.362C125.761 32.387 125.581 32.4276 125.42 32.4853C125.251 32.6191 124.982 32.8342 124.612 33.1305C124.387 33.3141 124.059 33.5921 123.629 33.9659C123.593 33.9974 123.533 34.0538 123.452 34.1364L122.619 35.0006L123.402 37.7808C123.407 37.8004 123.415 37.8267 123.424 37.8621C123.433 37.8975 123.438 37.9237 123.437 37.9434C123.484 38.0575 123.545 38.2279 123.618 38.4561C123.626 38.4692 123.635 38.4876 123.646 38.5125C123.655 38.5387 123.664 38.5571 123.672 38.5702C123.715 38.5899 123.762 38.603 123.812 38.6135C123.862 38.6227 123.933 38.6423 124.022 38.6738C124.093 38.6882 124.144 38.6974 124.173 38.7027L124.122 38.8928C124.109 38.8928 124.086 38.8928 124.055 38.8928C124.03 38.8863 124.01 38.8837 123.991 38.8837C123.886 38.8771 123.73 38.864 123.522 38.8456H123.331L121.508 32.2112C121.599 32.2047 121.745 32.1955 121.946 32.1837C122.018 32.1771 122.126 32.1706 122.266 32.164C122.347 32.1509 122.454 32.1378 122.583 32.126L122.482 32.3253C122.442 32.3319 122.292 32.3646 122.038 32.421C122.025 32.421 121.991 32.4276 121.936 32.4407C121.95 32.505 121.963 32.5509 121.972 32.5824C121.984 32.6138 121.991 32.6676 121.995 32.7436C122.012 32.8525 122.033 32.9535 122.062 33.0492L122.526 34.6596ZM121.738 35.79L120.842 36.6936C120.709 36.8274 120.487 37.0778 120.172 37.4503C120.075 37.5748 119.925 37.7624 119.726 38.0155C119.618 38.1479 119.532 38.266 119.46 38.3735C119.397 38.4548 119.355 38.5204 119.329 38.5702C119.343 38.5833 119.376 38.5965 119.428 38.6083C119.481 38.6201 119.562 38.6397 119.673 38.6647C119.713 38.6778 119.772 38.6961 119.853 38.7223L119.752 38.8915C119.326 38.8482 119.032 38.8259 118.874 38.8259L119.948 37.4385L118.386 38.8627C118.237 38.8889 118.081 38.9191 117.915 38.9571L117.655 39.0423C117.628 39.0476 117.591 39.0541 117.545 39.0607L117.609 38.8627C117.7 38.8365 117.824 38.7918 117.98 38.7289C118.05 38.6974 118.146 38.6594 118.27 38.6148C118.277 38.6148 118.287 38.6122 118.302 38.6056C118.314 38.6056 118.324 38.6056 118.329 38.6056C119.2 37.8752 119.881 37.2627 120.37 36.7605L121.654 35.4504L121.05 33.4925C121.027 33.4348 120.964 33.2669 120.858 32.9889C120.827 32.901 120.779 32.7633 120.716 32.5797C120.712 32.5732 120.706 32.5601 120.696 32.5417C120.687 32.5233 120.679 32.5115 120.671 32.505C120.665 32.4984 120.497 32.4407 120.17 32.3332C120.16 32.3266 120.138 32.3201 120.101 32.3135L120.172 32.1234C120.172 32.1234 120.308 32.1404 120.581 32.1705C120.654 32.1771 120.733 32.1837 120.816 32.1902C120.898 32.1968 120.969 32.2007 121.026 32.2007L122.997 38.843C122.944 38.8495 122.868 38.8587 122.772 38.8705C122.677 38.8823 122.429 38.9309 122.033 39.0122C121.993 39.0318 121.937 39.0463 121.862 39.0594L121.908 38.8614C122.026 38.8482 122.236 38.7801 122.536 38.6529C122.521 38.6083 122.503 38.5388 122.481 38.4443C122.477 38.3998 122.462 38.3394 122.434 38.2634C122.404 38.1558 122.38 38.0575 122.362 37.9683C122.32 37.8608 122.287 37.7689 122.265 37.6929L121.738 35.79Z" fill="#BE1F24"/>
<path fill-rule="evenodd" clip-rule="evenodd" d="M129.815 32.126L129.728 32.3646C129.641 32.3765 129.464 32.3988 129.201 32.4302C129.029 32.7909 128.864 33.1738 128.708 33.579C128.625 33.8072 128.498 34.1495 128.329 34.6032C128.302 34.674 128.257 34.7816 128.191 34.9258H131.559C131.572 34.8957 131.708 34.4393 131.97 33.5594C132.066 33.2302 132.167 32.8669 132.271 32.4683C132.242 32.4617 132.155 32.446 132.014 32.421C131.978 32.4145 131.931 32.4053 131.873 32.3935C131.859 32.3935 131.846 32.3896 131.829 32.383C131.804 32.383 131.786 32.383 131.772 32.383L131.85 32.1745C131.863 32.1745 131.921 32.1784 132.023 32.185C132.124 32.1916 132.214 32.1942 132.289 32.1942C132.289 32.1942 132.45 32.1942 132.773 32.1942C132.629 32.6872 132.488 33.141 132.356 33.5515C132.276 33.798 132.157 34.1692 131.993 34.6622L131.641 35.6864C131.641 35.6864 131.546 35.9461 131.351 36.4654L130.646 38.3735C130.567 38.5807 130.503 38.7394 130.451 38.8469C130.108 38.8849 129.79 38.9571 129.497 39.0646L129.578 38.8469C129.698 38.7958 129.879 38.7263 130.12 38.6384C130.133 38.6384 130.148 38.6319 130.165 38.6188C130.203 38.5493 130.246 38.4574 130.296 38.3433C130.359 38.1925 130.477 37.8726 130.651 37.386C130.651 37.386 130.774 37.0568 131.017 36.3985L131.434 35.2694H128.066L127.303 37.3283C127.12 37.8227 127.029 38.0679 127.029 38.0679C127.029 38.0679 126.967 38.2332 126.845 38.5624C127.071 38.5873 127.273 38.6292 127.455 38.6856L127.358 38.923C126.999 38.8535 126.684 38.8286 126.418 38.8469C126.449 38.759 126.499 38.6253 126.565 38.4483C126.623 38.2765 126.667 38.148 126.7 38.0588L126.961 37.3572L127.301 36.3894C127.301 36.3894 127.407 36.1008 127.621 35.5251L127.913 34.737C128.292 33.7128 128.552 33.0348 128.693 32.7056C128.744 32.5863 128.824 32.4145 128.932 32.1929L129.815 32.126ZM134.18 32.126L133.302 32.1929C133.222 32.3384 133.138 32.5259 133.047 32.7528C132.778 33.4111 132.521 34.0721 132.275 34.737C132.081 35.2615 131.982 35.5251 131.982 35.5251C131.599 36.607 131.383 37.2182 131.332 37.3572L131.071 38.0588C131.039 38.1466 130.993 38.2765 130.936 38.4483C130.87 38.6253 130.822 38.7577 130.789 38.8469C131.055 38.8272 131.365 38.8535 131.719 38.923L131.826 38.6856C131.668 38.6345 131.466 38.5938 131.218 38.5624L131.4 38.0679C131.584 37.5749 131.675 37.3283 131.675 37.3283C131.821 36.9493 131.947 36.6201 132.049 36.3421C132.258 35.7782 132.363 35.4963 132.363 35.4963C132.363 35.4963 132.473 35.1986 132.693 34.6032C132.881 34.097 133.012 33.7534 133.086 33.5698C133.161 33.3849 133.264 33.1423 133.395 32.8381C133.507 32.5666 133.565 32.4289 133.565 32.4289C133.761 32.4106 133.938 32.3882 134.092 32.3633L134.18 32.126ZM127.395 32.3817C127.407 32.3817 127.423 32.3817 127.442 32.3817C127.466 32.3883 127.479 32.3922 127.485 32.3922C127.575 32.4053 127.622 32.4145 127.626 32.4197C127.805 32.4512 127.893 32.4669 127.893 32.4669C127.517 33.84 127.099 35.1501 126.637 36.3959L126.271 37.3834C126.034 38.022 125.916 38.3407 125.916 38.3407C125.87 38.4483 125.829 38.5401 125.794 38.6161C125.777 38.6292 125.76 38.6358 125.74 38.6358C125.497 38.7237 125.314 38.7932 125.188 38.8443L125.107 39.062C125.412 38.9545 125.736 38.8823 126.08 38.8443C126.101 38.7879 126.132 38.7079 126.175 38.6069C126.216 38.4994 126.245 38.4194 126.263 38.3696C126.927 36.5782 127.259 35.6825 127.259 35.6825C127.531 34.9101 127.774 34.1993 127.984 33.5475C128.194 32.8958 128.327 32.4433 128.382 32.1902C128.073 32.1902 127.918 32.1902 127.918 32.1902C127.842 32.1902 127.752 32.1876 127.647 32.1811C127.542 32.1745 127.483 32.1705 127.47 32.1705L127.395 32.3817ZM138.024 32.126L137.937 32.3646C137.783 32.3896 137.606 32.4119 137.41 32.4302C137.414 32.4184 137.354 32.5548 137.229 32.8394C137.103 33.1423 137.004 33.3902 136.928 33.579C136.823 33.8452 136.693 34.1862 136.538 34.6032C136.318 35.1986 136.208 35.4963 136.208 35.4963C136.054 35.8753 135.944 36.1572 135.875 36.3421L135.274 37.9643L140.377 32.4696C140.329 32.4565 140.247 32.442 140.129 32.4224C140.093 32.4158 140.043 32.4066 139.978 32.3948C139.965 32.3948 139.95 32.3909 139.935 32.3843C139.908 32.3843 139.89 32.3843 139.877 32.3843L139.956 32.1758C139.969 32.1758 140.028 32.1798 140.133 32.1863C140.238 32.1929 140.328 32.1955 140.404 32.1955C140.404 32.1955 140.561 32.1955 140.879 32.1955C140.799 32.4932 140.664 32.9443 140.47 33.5528C140.26 34.2046 140.017 34.9153 139.744 35.6877C139.744 35.6877 139.649 35.9474 139.456 36.4667L138.749 38.3748C138.672 38.582 138.61 38.7407 138.563 38.8482C138.213 38.8863 137.895 38.9584 137.609 39.0659L137.691 38.8482C137.75 38.822 137.881 38.7722 138.079 38.6974C138.108 38.683 138.158 38.666 138.223 38.6397C138.242 38.6397 138.26 38.6331 138.277 38.62C138.311 38.544 138.352 38.4522 138.399 38.3447C138.462 38.1938 138.58 37.8739 138.754 37.3874C138.754 37.3874 138.876 37.0582 139.12 36.3998C139.59 35.1278 139.967 33.996 140.245 33.002L135.072 38.5636H135.052C135.278 38.5886 135.48 38.6306 135.662 38.687L135.565 38.9243C135.206 38.8548 134.891 38.8299 134.625 38.8482C134.656 38.7604 134.706 38.6266 134.772 38.4496C134.829 38.2778 134.874 38.1493 134.907 38.0601L135.168 37.3585C135.431 36.611 135.65 36.0012 135.827 35.5265L136.12 34.7383C136.57 33.5239 136.909 32.6768 137.137 32.1955L138.024 32.126ZM135.603 32.3817L135.682 32.1732C135.695 32.1732 135.754 32.1771 135.859 32.1837C135.964 32.1902 136.054 32.1929 136.13 32.1929C136.13 32.1929 136.285 32.1929 136.594 32.1929C136.539 32.446 136.406 32.8984 136.196 33.5501C135.986 34.2019 135.745 34.9127 135.471 35.6851C135.471 35.6851 135.139 36.5808 134.475 38.3722C134.456 38.422 134.428 38.502 134.387 38.6095C134.344 38.7105 134.311 38.7905 134.29 38.8469C133.948 38.8849 133.624 38.9571 133.319 39.0646L133.4 38.8469C133.526 38.7958 133.709 38.7263 133.952 38.6384C133.972 38.6384 133.989 38.6319 134.006 38.6188C134.04 38.5427 134.082 38.4509 134.128 38.3433C134.128 38.3433 134.246 38.0247 134.483 37.386L134.849 36.3985C135.311 35.1527 135.729 33.8426 136.105 32.4696C136.105 32.4696 136.016 32.4538 135.838 32.4224C135.834 32.4158 135.787 32.4066 135.697 32.3948C135.691 32.3948 135.676 32.3909 135.654 32.3843C135.633 32.3817 135.616 32.3817 135.603 32.3817ZM142.295 32.126L141.406 32.1929C141.178 32.6742 140.838 33.5226 140.388 34.7357C140.194 35.2602 140.096 35.5238 140.096 35.5238C139.841 36.2464 139.623 36.8562 139.436 37.3559L139.177 38.0575C139.144 38.1453 139.099 38.2752 139.042 38.4469C138.976 38.624 138.926 38.7565 138.895 38.8456C139.161 38.826 139.473 38.8522 139.834 38.9217L139.931 38.6843C139.75 38.6279 139.548 38.586 139.322 38.561L139.506 38.0666C139.689 37.5735 139.78 37.327 139.78 37.327C139.933 36.948 140.062 36.6189 140.164 36.3408C140.373 35.7769 140.478 35.495 140.478 35.495C140.478 35.495 140.588 35.1973 140.808 34.6019C140.963 34.1849 141.093 33.8439 141.197 33.5777C141.274 33.3876 141.375 33.141 141.499 32.8381C141.624 32.5535 141.684 32.4184 141.68 32.4289C141.875 32.4106 142.051 32.3882 142.206 32.3633L142.295 32.126ZM141.512 38.8456C141.512 38.8456 141.638 38.7945 141.89 38.6948C141.927 38.6804 141.974 38.6633 142.034 38.6371C142.047 38.6371 142.062 38.6253 142.08 38.6043C142.097 38.582 142.134 38.4955 142.19 38.3433C142.338 37.9774 142.464 37.6575 142.565 37.386L142.93 36.3985C143.052 36.0694 143.25 35.4989 143.525 34.6898C143.631 34.3672 143.752 33.9908 143.886 33.5607C143.961 33.3259 144.067 32.9732 144.205 32.4971C144.219 32.4407 144.233 32.3647 144.249 32.2702C144.172 32.2388 144.096 32.2152 144.018 32.2034C143.989 32.1968 143.944 32.1902 143.882 32.1837C143.869 32.1837 143.854 32.1797 143.839 32.1732C143.819 32.1732 143.805 32.1732 143.791 32.1732L143.873 31.9555C144.018 31.9555 144.161 31.9555 144.299 31.9555C144.299 31.9555 144.448 31.9555 144.746 31.9555C144.469 32.9902 143.968 34.4904 143.239 36.4575L142.354 38.8456C142.024 38.8837 141.715 38.9558 141.43 39.0633L141.512 38.8456ZM145.117 34.7488C145.21 34.6675 145.357 34.5468 145.555 34.3881C145.836 34.1613 146.044 33.9895 146.182 33.8754C146.742 33.4059 147.259 32.8564 147.735 32.2204C147.711 32.2139 147.669 32.2073 147.609 32.202C147.629 32.202 147.512 32.1824 147.259 32.1443C147.239 32.1443 147.223 32.1417 147.206 32.1352L147.293 31.8965C147.604 31.9476 147.917 31.9738 148.233 31.9738C147.937 32.3791 147.581 32.8027 147.164 33.2459L148.793 31.9738C149.027 31.9607 149.232 31.9358 149.411 31.8965L149.327 32.1247C149.189 32.1758 149.042 32.202 148.89 32.202L148.558 32.4578L145.508 34.7475L146.187 36.7054C146.423 37.3847 146.598 37.8188 146.711 38.0063C147.036 38.5964 147.446 38.8824 147.941 38.8627L147.867 39.0607C147.423 39.0987 147.058 38.9807 146.772 38.7092C146.56 38.5007 146.349 38.1479 146.139 37.6535C146.004 37.3375 145.896 37.0608 145.82 36.8261L145.117 34.7488ZM146.107 31.8978C145.9 31.9293 145.617 31.9516 145.258 31.9647C145.193 32.1037 145.111 32.2938 145.008 32.5365C144.85 32.9168 144.569 33.6472 144.167 34.7304L143.874 35.5212C143.66 36.0969 143.553 36.3854 143.553 36.3854L143.213 37.3545L142.953 38.0575C142.921 38.1453 142.875 38.2752 142.817 38.4483C142.752 38.6253 142.702 38.7577 142.67 38.8469C142.917 38.8272 143.214 38.8535 143.562 38.923L143.66 38.6856C143.53 38.641 143.34 38.6004 143.089 38.5624C143.124 38.4483 143.182 38.283 143.262 38.0679C143.304 37.9539 143.398 37.7086 143.546 37.3283C143.708 36.8916 143.829 36.5638 143.911 36.3421C144.042 36.0064 144.11 35.8281 144.117 35.8097L144.587 35.4884L145.132 37.0162C145.58 38.2817 146.068 38.9269 146.597 38.9532C146.363 38.8142 146.132 38.481 145.904 37.9552C145.835 37.7978 145.757 37.5985 145.669 37.3585C145.621 37.2497 145.584 37.1657 145.561 37.1014C145.536 37.0385 145.52 36.9847 145.511 36.9402C145.484 36.8903 145.467 36.8523 145.458 36.8261L144.843 34.977L144.27 35.3927C144.74 34.0734 145.153 33.0112 145.508 32.206C145.749 32.185 145.919 32.1627 146.017 32.1378L146.107 31.8978ZM154.46 31.8978L154.481 34.4327C154.494 34.8248 154.508 35.4163 154.525 36.2084C154.524 36.5677 154.533 37.1067 154.553 37.8214C154.569 37.9853 154.582 38.2345 154.597 38.5702C154.656 38.5833 154.698 38.5965 154.726 38.6083C154.798 38.6214 154.849 38.6279 154.881 38.6279C154.951 38.6397 155.007 38.6463 155.045 38.6463C155.051 38.6463 155.064 38.6463 155.083 38.6463C155.092 38.6528 155.101 38.6568 155.108 38.6568L155.02 38.8941C154.991 38.8876 154.868 38.8718 154.649 38.8469C154.52 38.8338 154.388 38.8338 154.25 38.8469C154.246 38.6515 154.241 38.3499 154.233 37.9447L154.171 36.3408C154.162 35.954 154.146 35.373 154.125 34.5941C154.104 33.9488 154.098 33.3954 154.104 32.9325L154.119 31.8978H154.46ZM153.561 36.4248C153.576 37.0005 153.572 37.466 153.548 37.8201C153.529 38.0719 153.512 38.2594 153.492 38.3801C153.489 38.4365 153.484 38.5282 153.475 38.6555C153.255 38.7368 153.034 38.7932 152.814 38.8259L152.727 39.0633C153.279 38.9191 153.681 38.8456 153.927 38.8456L153.779 33.739C153.783 33.4741 153.782 33.2118 153.776 32.9508C153.774 32.5954 153.753 32.2453 153.711 31.8965H152.714L152.626 32.1352C152.639 32.1352 152.689 32.1378 152.775 32.1443C152.86 32.1509 152.936 32.1535 152.999 32.1535C153.194 32.1732 153.35 32.1824 153.463 32.1824L150.244 36.6713C150.179 36.7592 150.131 36.8221 150.098 36.8615C149.886 37.1277 149.727 37.3257 149.621 37.4595L148.794 38.4837C148.784 38.4968 148.762 38.523 148.726 38.565C148.693 38.6056 148.665 38.6371 148.645 38.6555C148.335 38.7564 148.14 38.8128 148.06 38.8259L147.974 39.0633C148.183 38.9754 148.459 38.8954 148.801 38.8259L150.01 37.2037L149.146 38.8456C149.328 38.8325 149.655 38.8495 150.124 38.8928L150.212 38.6555C149.876 38.624 149.652 38.5951 149.541 38.5702C149.729 37.9958 150.129 37.2798 150.743 36.4248H153.561ZM150.981 36.093L153.415 32.6951L153.569 36.093H150.981ZM169.639 38.7499H169.953C169.547 39.2941 169.09 39.7898 168.574 40.2396C168.156 40.6003 167.906 40.7812 167.824 40.7812C167.818 40.7812 167.815 40.7773 167.818 40.7708C167.83 40.7393 167.924 40.637 168.101 40.4678C168.248 40.3288 168.384 40.1924 168.509 40.06C168.677 39.8816 168.837 39.7046 168.991 39.5275C169.078 39.4266 169.209 39.2718 169.382 39.0633C169.445 38.9938 169.532 38.8902 169.639 38.7499ZM168.796 32.0879H168.445L168.514 36.9755C168.515 37.1093 168.507 37.2287 168.493 37.3362C168.489 37.3992 168.488 37.4975 168.489 37.63C168.49 37.7637 168.49 37.8647 168.49 37.9342C168.476 38.2437 168.477 38.4614 168.494 38.5886C168.493 38.6581 168.504 38.7433 168.522 38.8443H168.949C168.633 39.2364 168.266 39.6534 167.848 40.0967C167.588 40.376 167.411 40.5596 167.322 40.6475C167.054 40.9452 166.934 41.0973 166.964 41.1039C167.03 41.134 167.336 40.8914 167.89 40.3721C168.536 39.7715 169.071 39.1643 169.495 38.5492H168.917C168.923 38.5178 168.925 38.4732 168.925 38.4155C168.923 38.3591 168.922 38.3145 168.921 38.283C168.905 38.0679 168.892 37.9093 168.879 37.8083C168.86 37.3086 168.856 36.9795 168.864 36.8208L168.796 32.0879ZM163.411 38.5506H162.871C162.84 39.1656 162.921 39.7728 163.116 40.3734C163.292 40.8927 163.419 41.1353 163.502 41.1052C163.508 41.1052 163.514 41.0986 163.519 41.0855C163.546 41.0094 163.535 40.8639 163.481 40.6488C163.439 40.4901 163.4 40.3065 163.362 40.098C163.272 39.6429 163.219 39.2246 163.2 38.8456C163.838 38.8653 164.492 38.8732 165.163 38.8732C165.233 38.8732 165.365 38.864 165.563 38.8456C165.727 38.8456 165.858 38.8456 165.953 38.8456C166.268 38.8653 166.483 38.8732 166.597 38.8732C167.171 38.8732 167.714 38.864 168.22 38.8456L168.215 34.556C168.216 34.5193 168.218 34.4904 168.219 34.4721L168.215 34.1967C168.212 33.7797 168.198 33.4243 168.173 33.1331C168.149 32.9049 168.122 32.6689 168.087 32.421C168.071 32.2755 168.06 32.1653 168.059 32.0893C168.039 32.0893 168.009 32.0853 167.967 32.0788C167.93 32.0788 167.898 32.0788 167.873 32.0788C167.626 32.0788 167.412 32.063 167.237 32.0316C167.171 32.0184 167.124 32.0093 167.095 32.004L167.005 32.2505C167.186 32.2755 167.315 32.2978 167.398 32.3161C167.465 32.3227 167.548 32.3397 167.645 32.3646C167.658 32.3646 167.68 32.3646 167.711 32.3646C167.735 32.3699 167.752 32.3738 167.765 32.3738L164.516 37.0713C164.434 37.1854 164.375 37.2706 164.335 37.327C164.193 37.5224 164.087 37.6693 164.016 37.7637C163.945 37.8581 163.844 37.9919 163.713 38.1624C163.575 38.3328 163.477 38.4627 163.411 38.5506ZM162.446 38.7499C162.466 38.9204 162.489 39.18 162.52 39.5275C162.535 39.6731 162.567 39.8502 162.615 40.06C162.649 40.2042 162.686 40.3406 162.72 40.4678C162.765 40.6383 162.782 40.7393 162.77 40.7708C162.767 40.7773 162.762 40.7812 162.756 40.7812C162.719 40.7812 162.676 40.7393 162.631 40.6567C162.604 40.6265 162.55 40.5203 162.462 40.3445C162.402 40.2173 162.348 40.0718 162.302 39.9079C162.193 39.5341 162.137 39.1486 162.131 38.7499H162.446ZM167.828 34.6963L167.805 38.5492C166.614 38.6069 165.919 38.6345 165.723 38.6345C165.133 38.641 164.52 38.6122 163.886 38.5492C163.965 38.422 164.108 38.1978 164.316 37.8752C164.464 37.6601 164.576 37.5027 164.648 37.4004C164.721 37.2995 164.778 37.2208 164.817 37.1631L167.77 32.8551C167.764 32.9561 167.765 33.0728 167.773 33.2066C167.782 33.4413 167.788 33.6157 167.789 33.7285C167.819 34.2675 167.831 34.5901 167.828 34.6963ZM175.615 32.126L175.529 32.3646C175.374 32.3896 175.197 32.4119 175.002 32.4302C175.006 32.4184 174.945 32.5548 174.822 32.8394C174.695 33.1423 174.595 33.3902 174.519 33.579C174.414 33.8452 174.284 34.1862 174.129 34.6032C173.909 35.1986 173.799 35.4963 173.799 35.4963C173.646 35.8753 173.535 36.1572 173.467 36.3421L172.865 37.9643L177.968 32.4696C177.922 32.4565 177.838 32.442 177.72 32.4224C177.685 32.4158 177.635 32.4066 177.569 32.3948C177.556 32.3948 177.542 32.3909 177.526 32.3843C177.5 32.3843 177.481 32.3843 177.468 32.3843L177.547 32.1758C177.56 32.1758 177.619 32.1798 177.724 32.1863C177.829 32.1929 177.919 32.1955 177.995 32.1955C177.995 32.1955 178.153 32.1955 178.469 32.1955C178.39 32.4932 178.255 32.9443 178.061 33.5528C177.851 34.2046 177.609 34.9153 177.336 35.6877C177.336 35.6877 177.24 35.9474 177.047 36.4667L176.341 38.3748C176.263 38.582 176.202 38.7407 176.154 38.8482C175.804 38.8863 175.487 38.9584 175.201 39.0659L175.282 38.8482C175.341 38.822 175.472 38.7722 175.67 38.6974C175.699 38.683 175.749 38.666 175.815 38.6397C175.833 38.6397 175.851 38.6331 175.868 38.62C175.903 38.544 175.944 38.4522 175.99 38.3447C176.053 38.1938 176.171 37.8739 176.346 37.3874C176.346 37.3874 176.468 37.0582 176.712 36.3998C177.181 35.1278 177.559 33.996 177.837 33.002L172.663 38.5636H172.644C172.869 38.5886 173.071 38.6306 173.253 38.687L173.156 38.9243C172.797 38.8548 172.482 38.8299 172.216 38.8482C172.248 38.7604 172.297 38.6266 172.363 38.4496C172.421 38.2778 172.465 38.1493 172.498 38.0601L172.759 37.3585C173.023 36.611 173.243 36.0012 173.419 35.5265L173.711 34.7383C174.161 33.5239 174.501 32.6768 174.729 32.1955L175.615 32.126ZM173.194 32.3817C173.208 32.3817 173.223 32.3817 173.243 32.3817C173.267 32.3883 173.28 32.3922 173.286 32.3922C173.375 32.4053 173.423 32.4145 173.427 32.4197C173.606 32.4512 173.694 32.4669 173.694 32.4669C173.318 33.84 172.899 35.1501 172.438 36.3959L172.072 37.3834C171.835 38.022 171.716 38.3407 171.716 38.3407C171.671 38.4483 171.63 38.5401 171.595 38.6161C171.578 38.6292 171.56 38.6358 171.541 38.6358C171.298 38.7237 171.115 38.7932 170.989 38.8443L170.907 39.062C171.213 38.9545 171.537 38.8823 171.88 38.8443C171.901 38.7879 171.933 38.7079 171.976 38.6069C172.017 38.4994 172.046 38.4194 172.064 38.3696C172.728 36.5782 173.059 35.6825 173.059 35.6825C173.332 34.9101 173.576 34.1993 173.785 33.5475C173.994 32.8958 174.128 32.4433 174.183 32.1902C173.874 32.1902 173.719 32.1902 173.719 32.1902C173.643 32.1902 173.552 32.1876 173.448 32.1811C173.343 32.1745 173.284 32.1705 173.271 32.1705L173.194 32.3817ZM179.887 32.126L178.997 32.1929C178.769 32.6742 178.43 33.5226 177.98 34.7357C177.786 35.2602 177.687 35.5238 177.687 35.5238C177.434 36.2464 177.214 36.8562 177.028 37.3559L176.768 38.0575C176.735 38.1453 176.691 38.2752 176.633 38.4469C176.567 38.624 176.518 38.7565 176.486 38.8456C176.752 38.826 177.064 38.8522 177.426 38.9217L177.522 38.6843C177.341 38.6279 177.139 38.586 176.914 38.561L177.097 38.0666C177.281 37.5735 177.371 37.327 177.371 37.327C177.525 36.948 177.653 36.6189 177.756 36.3408C177.964 35.7769 178.069 35.495 178.069 35.495C178.069 35.495 178.179 35.1973 178.399 34.6019C178.554 34.1849 178.684 33.8439 178.789 33.5777C178.865 33.3876 178.966 33.141 179.091 32.8381C179.215 32.5535 179.275 32.4184 179.272 32.4289C179.467 32.4106 179.644 32.3882 179.799 32.3633L179.887 32.126ZM181.308 33.7967L181.11 33.8728C181.163 33.6957 181.206 33.4675 181.24 33.1895C181.309 33.1397 181.408 33.0676 181.538 32.9771C181.667 32.8853 181.766 32.8132 181.835 32.7633C182.035 32.6178 182.268 32.4748 182.534 32.3358C182.099 32.4368 181.681 32.5915 181.281 32.8C181.285 32.7568 181.288 32.6859 181.292 32.5915C181.295 32.5483 181.295 32.4905 181.288 32.421C181.29 32.4014 181.287 32.3765 181.283 32.345C181.279 32.3135 181.277 32.2912 181.274 32.2781L181.502 32.202C181.514 32.2388 181.517 32.3253 181.511 32.4578C182.441 32.084 183.3 31.8965 184.092 31.8965C184.794 31.8965 185.267 32.084 185.507 32.4578C185.708 32.7673 185.73 33.1384 185.571 33.5685C185.447 33.9029 185.223 34.2164 184.9 34.5075C184.577 34.7999 184.259 34.9822 183.945 35.0583C184.301 34.7999 184.573 34.5599 184.761 34.3422C184.95 34.1232 185.092 33.8689 185.186 33.5777C185.325 33.1345 185.283 32.7896 185.061 32.543C184.84 32.2965 184.479 32.1732 183.979 32.1732C183.138 32.1732 182.303 32.5404 181.475 33.2748C181.477 33.301 181.475 33.3246 181.465 33.3508C181.455 33.3771 181.446 33.4112 181.437 33.4557C181.42 33.499 181.408 33.5357 181.399 33.5594L181.346 33.701C181.344 33.701 181.33 33.7325 181.308 33.7967ZM181.876 35.3612C182.069 35.3678 182.21 35.3717 182.298 35.3717C182.772 35.3901 183.11 35.4255 183.313 35.4753C183.771 35.5894 184.062 35.8359 184.187 36.2149C184.293 36.5244 184.272 36.889 184.124 37.306C183.888 37.9775 183.371 38.5217 182.57 38.9387C182.922 38.8758 183.3 38.662 183.704 38.2987C184.108 37.9355 184.39 37.5512 184.553 37.1447C184.752 36.6385 184.727 36.1952 184.475 35.8163C184.209 35.4241 183.762 35.2117 183.136 35.1802C183.52 35.0478 183.875 34.8419 184.2 34.5639C184.525 34.2845 184.751 33.9908 184.879 33.6813C185.019 33.3325 185.012 33.0322 184.852 32.7791C184.693 32.526 184.429 32.3987 184.062 32.3987C183.928 32.3987 183.792 32.4184 183.652 32.4565C184.469 32.5378 184.772 32.9049 184.563 33.5567C184.438 33.9436 184.197 34.2728 183.835 34.5442C183.346 34.9101 182.728 35.0819 181.985 35.057L181.876 35.3612ZM179.571 37.6876L179.929 37.5159C179.921 38.047 180.119 38.4207 180.519 38.6358C180.736 38.7499 180.978 38.8063 181.244 38.8063C181.792 38.8128 182.275 38.645 182.692 38.304C183.042 38.0247 183.296 37.6798 183.454 37.2693C183.638 36.788 183.627 36.4025 183.418 36.1113C183.27 35.9159 183.051 35.7822 182.76 35.7114C183.227 35.6812 183.565 35.8228 183.774 36.1389C183.982 36.4549 183.989 36.8667 183.796 37.3716C183.603 37.8765 183.235 38.2896 182.693 38.6056C182.184 38.9033 181.641 39.0541 181.063 39.0607C180.073 39.0673 179.382 38.7315 178.987 38.0548L179.256 37.8935C179.49 38.3368 179.787 38.6279 180.148 38.7669C180.014 38.6463 179.89 38.4784 179.774 38.2634C179.657 38.0483 179.59 37.8581 179.571 37.6876ZM190.96 31.8978L190.98 34.4327C190.994 34.8248 191.007 35.4163 191.026 36.2084C191.024 36.5677 191.033 37.1067 191.053 37.8214C191.069 37.9853 191.082 38.2345 191.098 38.5702C191.157 38.5833 191.199 38.5965 191.226 38.6083C191.298 38.6214 191.35 38.6279 191.38 38.6279C191.452 38.6397 191.507 38.6463 191.544 38.6463C191.55 38.6463 191.563 38.6463 191.582 38.6463C191.592 38.6528 191.601 38.6568 191.607 38.6568L191.52 38.8941C191.491 38.8876 191.367 38.8718 191.149 38.8469C191.02 38.8338 190.888 38.8338 190.75 38.8469C190.746 38.6515 190.741 38.3499 190.732 37.9447L190.672 36.3408C190.662 35.954 190.647 35.373 190.626 34.5941C190.605 33.9488 190.598 33.3954 190.605 32.9325L190.618 31.8978H190.96ZM190.062 36.4248C190.076 37.0005 190.072 37.466 190.049 37.8201C190.029 38.0719 190.012 38.2594 189.992 38.3801C189.99 38.4365 189.984 38.5282 189.975 38.6555C189.755 38.7368 189.535 38.7932 189.314 38.8259L189.226 39.0633C189.78 38.9191 190.181 38.8456 190.428 38.8456L190.278 33.739C190.282 33.4741 190.282 33.2118 190.277 32.9508C190.274 32.5954 190.253 32.2453 190.211 31.8965H189.215L189.127 32.1352C189.14 32.1352 189.19 32.1378 189.275 32.1443C189.36 32.1509 189.436 32.1535 189.499 32.1535C189.695 32.1732 189.849 32.1824 189.963 32.1824L186.744 36.6713C186.68 36.7592 186.631 36.8221 186.598 36.8615C186.386 37.1277 186.227 37.3257 186.121 37.4595L185.295 38.4837C185.284 38.4968 185.262 38.523 185.227 38.565C185.191 38.6069 185.165 38.6371 185.145 38.6555C184.836 38.7564 184.64 38.8128 184.56 38.8259L184.473 39.0633C184.684 38.9754 184.959 38.8954 185.301 38.8259L186.51 37.2037L185.646 38.8456C185.829 38.8325 186.155 38.8495 186.625 38.8928L186.712 38.6555C186.375 38.624 186.152 38.5951 186.041 38.5702C186.23 37.9958 186.63 37.2798 187.244 36.4248H190.062ZM187.48 36.093L189.915 32.6951L190.07 36.093H187.48Z" fill="#BE1F24"/>
<path fill-rule="evenodd" clip-rule="evenodd" d="M197.697 30.6739L198.027 30.5493C198.115 30.9099 198.37 31.087 198.789 31.0804C199.19 31.0739 199.685 30.8745 200.274 30.4824L200.376 30.6909C199.545 31.3624 198.838 31.7099 198.253 31.7348C197.963 31.7479 197.714 31.6784 197.504 31.5263C197.276 31.3755 197.129 31.1513 197.061 30.8523L197.34 30.7683C197.553 31.2679 197.909 31.5027 198.408 31.4699C198.75 31.4502 199.066 31.3401 199.357 31.1381C199.071 31.2575 198.788 31.3152 198.506 31.3086C198.249 31.3021 198.051 31.2037 197.913 31.0135C197.873 30.9703 197.825 30.8929 197.77 30.7853C197.751 30.7499 197.727 30.7106 197.697 30.6739ZM197.13 32.1256L197.042 32.3643C196.888 32.3892 196.712 32.4115 196.515 32.4299C196.52 32.4181 196.46 32.5544 196.336 32.839C196.21 33.1419 196.109 33.3898 196.034 33.5786C195.929 33.8449 195.798 34.1858 195.643 34.6029C195.423 35.1982 195.313 35.4959 195.313 35.4959C195.161 35.8749 195.049 36.1569 194.981 36.3418L194.38 37.964L199.482 32.4692C199.436 32.4561 199.353 32.4417 199.234 32.422C199.2 32.4154 199.149 32.4063 199.084 32.3945C199.071 32.3945 199.057 32.3905 199.04 32.384C199.015 32.384 198.996 32.384 198.983 32.384L199.061 32.1755C199.074 32.1755 199.133 32.1794 199.238 32.186C199.343 32.1925 199.433 32.1951 199.509 32.1951C199.509 32.1951 199.668 32.1951 199.984 32.1951C199.905 32.4928 199.77 32.9439 199.575 33.5524C199.366 34.2042 199.124 34.915 198.851 35.6874C198.851 35.6874 198.755 35.947 198.561 36.4663L197.855 38.3745C197.777 38.5817 197.716 38.7403 197.669 38.8479C197.319 38.8859 197.002 38.958 196.715 39.0656L196.796 38.8479C196.856 38.8216 196.986 38.7718 197.184 38.6971C197.214 38.6826 197.263 38.6656 197.328 38.6394C197.348 38.6394 197.365 38.6328 197.383 38.6197C197.417 38.5436 197.458 38.4518 197.504 38.3443C197.567 38.1935 197.685 37.8735 197.859 37.387C197.859 37.387 197.981 37.0578 198.224 36.3995C198.695 35.1274 199.071 33.9957 199.349 33.0016L194.176 38.5633H194.157C194.382 38.5882 194.585 38.6302 194.766 38.6866L194.669 38.9239C194.309 38.8544 193.995 38.8295 193.728 38.8479C193.761 38.76 193.81 38.6263 193.877 38.4492C193.933 38.2774 193.978 38.1489 194.012 38.0597L194.271 37.3581C194.535 36.6106 194.755 36.0008 194.931 35.5261L195.223 34.7379C195.675 33.5236 196.014 32.6764 196.241 32.1951L197.13 32.1256ZM194.709 32.3813C194.723 32.3813 194.737 32.3813 194.757 32.3813C194.78 32.3879 194.793 32.3918 194.8 32.3918C194.89 32.4049 194.936 32.4141 194.942 32.4194C195.12 32.4508 195.208 32.4666 195.208 32.4666C194.833 33.8396 194.414 35.1497 193.951 36.3955L193.587 37.383C193.349 38.0217 193.231 38.3404 193.231 38.3404C193.186 38.4479 193.146 38.5397 193.111 38.6157C193.094 38.6289 193.075 38.6354 193.056 38.6354C192.814 38.7233 192.631 38.7928 192.504 38.8439L192.424 39.0616C192.728 38.9541 193.052 38.882 193.395 38.8439C193.418 38.7876 193.449 38.7076 193.492 38.6066C193.532 38.499 193.562 38.4191 193.58 38.3692C194.244 36.5778 194.576 35.6821 194.576 35.6821C194.848 34.9097 195.091 34.1989 195.301 33.5472C195.509 32.8954 195.643 32.443 195.7 32.1899C195.39 32.1899 195.235 32.1899 195.235 32.1899C195.159 32.1899 195.069 32.1873 194.964 32.1807C194.858 32.1742 194.799 32.1702 194.785 32.1702L194.709 32.3813ZM201.402 32.1256L200.512 32.1925C200.283 32.6738 199.943 33.5223 199.495 34.7353C199.301 35.2599 199.202 35.5235 199.202 35.5235C198.948 36.246 198.728 36.8558 198.543 37.3555L198.283 38.0571C198.25 38.145 198.204 38.2748 198.147 38.4466C198.081 38.6236 198.033 38.7561 198 38.8453C198.266 38.8256 198.579 38.8518 198.94 38.9213L199.037 38.6839C198.855 38.6276 198.653 38.5856 198.429 38.5607L198.611 38.0663C198.794 37.5732 198.886 37.3266 198.886 37.3266C199.038 36.9476 199.167 36.6185 199.27 36.3405C199.479 35.7766 199.583 35.4946 199.583 35.4946C199.583 35.4946 199.693 35.1969 199.913 34.6015C200.068 34.1845 200.198 33.8436 200.303 33.5774C200.38 33.3872 200.481 33.1406 200.605 32.8377C200.73 32.5531 200.79 32.4181 200.785 32.4286C200.981 32.4102 201.158 32.3879 201.312 32.363L201.402 32.1256ZM205.245 32.1256L205.157 32.3643C205.071 32.3761 204.895 32.3984 204.63 32.4299C204.458 32.7905 204.294 33.1734 204.138 33.5786C204.055 33.8068 203.927 34.1491 203.758 34.6029C203.732 34.6737 203.686 34.7812 203.62 34.9255H206.989C207.001 34.8953 207.138 34.4389 207.4 33.559C207.497 33.2298 207.597 32.8666 207.7 32.4679C207.671 32.4613 207.583 32.4456 207.442 32.4207C207.408 32.4141 207.361 32.4049 207.302 32.3931C207.288 32.3931 207.274 32.3892 207.258 32.3827C207.232 32.3827 207.214 32.3827 207.201 32.3827L207.279 32.1741C207.292 32.1741 207.349 32.1781 207.451 32.1846C207.553 32.1912 207.642 32.1938 207.719 32.1938C207.719 32.1938 207.88 32.1938 208.202 32.1938C208.057 32.6869 207.918 33.1406 207.784 33.5511C207.705 33.7976 207.585 34.1688 207.421 34.6619L207.069 35.6861C207.069 35.6861 206.974 35.9457 206.781 36.4651L206.074 38.3731C205.997 38.5803 205.932 38.739 205.88 38.8465C205.536 38.8846 205.219 38.9567 204.925 39.0643L205.007 38.8465C205.127 38.7954 205.307 38.7259 205.549 38.638C205.563 38.638 205.577 38.6315 205.594 38.6184C205.632 38.5489 205.675 38.4571 205.724 38.343C205.788 38.1922 205.906 37.8722 206.079 37.3857C206.079 37.3857 206.201 37.0565 206.444 36.3981L206.862 35.269H203.493L202.731 37.328C202.548 37.8224 202.456 38.0676 202.456 38.0676C202.456 38.0676 202.396 38.2328 202.274 38.562C202.498 38.5869 202.7 38.6289 202.882 38.6853L202.785 38.9226C202.426 38.8531 202.111 38.8282 201.845 38.8465C201.878 38.7587 201.926 38.6249 201.992 38.4479C202.049 38.2761 202.094 38.1476 202.128 38.0584L202.388 37.3568L202.727 36.389C202.727 36.389 202.835 36.1005 203.047 35.5248L203.34 34.7366C203.72 33.7124 203.98 33.0344 204.121 32.7053C204.171 32.5859 204.251 32.4141 204.359 32.1925L205.245 32.1256ZM209.61 32.1256L208.731 32.1925C208.651 32.3381 208.567 32.5256 208.477 32.7524C208.208 33.4108 207.951 34.0717 207.704 34.7366C207.51 35.2612 207.412 35.5248 207.412 35.5248C207.03 36.6067 206.812 37.2178 206.761 37.3568L206.502 38.0584C206.47 38.1463 206.424 38.2761 206.366 38.4479C206.301 38.6249 206.251 38.7574 206.22 38.8465C206.485 38.8269 206.795 38.8531 207.149 38.9226L207.256 38.6853C207.098 38.6341 206.895 38.5935 206.647 38.562L206.831 38.0676C207.014 37.5745 207.105 37.328 207.105 37.328C207.252 36.949 207.376 36.6198 207.48 36.3418C207.688 35.7779 207.792 35.4959 207.792 35.4959C207.792 35.4959 207.902 35.1982 208.122 34.6029C208.311 34.0967 208.441 33.7531 208.516 33.5695C208.591 33.3846 208.693 33.1419 208.824 32.8377C208.938 32.5662 208.995 32.4286 208.995 32.4286C209.191 32.4102 209.367 32.3879 209.522 32.363L209.61 32.1256ZM202.824 32.3813L202.902 32.1728C202.915 32.1728 202.974 32.1768 203.08 32.1833C203.185 32.1899 203.274 32.1925 203.352 32.1925C203.352 32.1925 203.506 32.1925 203.816 32.1925C203.759 32.4456 203.626 32.898 203.417 33.5498C203.207 34.2016 202.965 34.9124 202.692 35.6848C202.692 35.6848 202.36 36.5804 201.697 38.3718C201.677 38.4217 201.648 38.5016 201.609 38.6092C201.565 38.7102 201.533 38.7902 201.512 38.8465C201.168 38.8846 200.844 38.9567 200.539 39.0643L200.62 38.8465C200.747 38.7954 200.931 38.7259 201.172 38.638C201.192 38.638 201.209 38.6315 201.227 38.6184C201.261 38.5423 201.302 38.4505 201.348 38.343C201.348 38.343 201.467 38.0243 201.703 37.3857L202.068 36.3981C202.531 35.1523 202.949 33.8423 203.324 32.4692C203.324 32.4692 203.236 32.4535 203.058 32.422C203.053 32.4154 203.007 32.4063 202.916 32.3945C202.91 32.3945 202.895 32.3905 202.873 32.384C202.852 32.3814 202.838 32.3813 202.824 32.3813Z" fill="#BE1F24"/>
<path fill-rule="evenodd" clip-rule="evenodd" d="M106.249 30.5425H104.65L100.884 40.3597H102.484L106.249 30.5425Z" fill="#BE1F24"/>
<path fill-rule="evenodd" clip-rule="evenodd" d="M162.673 30.5425H161.073L157.307 40.3597H158.908L162.673 30.5425Z" fill="#BE1F24"/>
</svg>
