<?xml version="1.0" encoding="iso-8859-1"?>
<!-- Generator: Adobe Illustrator 19.0.0, SVG Export Plug-In . SVG Version: 6.00 Build 0)  -->
<svg width="353" height="9" viewBox="0 0 353 9" fill="none" xmlns="http://www.w3.org/2000/svg">
<line x1="0.5" y1="2.50226e-08" x2="0.5" y2="8.02639" stroke="white"/>
<line x1="11.8547" y1="3.51154" x2="11.8547" y2="8.02638" stroke="white"/>
<line x1="23.2097" y1="3.51154" x2="23.2097" y2="8.02638" stroke="white"/>
<line x1="34.5645" y1="3.51154" x2="34.5645" y2="8.02638" stroke="white"/>
<line x1="45.9194" y1="3.51154" x2="45.9194" y2="8.02638" stroke="white"/>
<line x1="57.2742" y1="3.51154" x2="57.2742" y2="8.02638" stroke="white"/>
<line x1="68.6292" y1="1.67054e-08" x2="68.6292" y2="8.02639" stroke="white"/>
<line x1="79.9839" y1="3.51154" x2="79.9839" y2="8.02638" stroke="white"/>
<line x1="91.3389" y1="3.51154" x2="91.3389" y2="8.02638" stroke="white"/>
<line x1="102.694" y1="3.51154" x2="102.694" y2="8.02638" stroke="white"/>
<line x1="114.048" y1="3.51154" x2="114.048" y2="8.02638" stroke="white"/>
<line x1="125.403" y1="3.51154" x2="125.403" y2="8.02638" stroke="white"/>
<line x1="136.758" y1="5.49521e-08" x2="136.758" y2="8.02639" stroke="white"/>
<line x1="148.113" y1="3.51154" x2="148.113" y2="8.02638" stroke="white"/>
<line x1="159.468" y1="3.51154" x2="159.468" y2="8.02638" stroke="white"/>
<line x1="170.823" y1="3.51154" x2="170.823" y2="8.02638" stroke="white"/>
<line x1="182.177" y1="3.51154" x2="182.177" y2="8.02638" stroke="white"/>
<line x1="193.532" y1="3.51154" x2="193.532" y2="8.02638" stroke="white"/>
<line x1="204.887" y1="1.67054e-08" x2="204.887" y2="8.02639" stroke="white"/>
<line x1="216.242" y1="3.51154" x2="216.242" y2="8.02638" stroke="white"/>
<line x1="227.597" y1="3.51154" x2="227.597" y2="8.02638" stroke="white"/>
<line x1="238.951" y1="3.51154" x2="238.951" y2="8.02638" stroke="white"/>
<line x1="250.306" y1="3.51154" x2="250.306" y2="8.02638" stroke="white"/>
<line x1="261.661" y1="3.51154" x2="261.661" y2="8.02638" stroke="white"/>
<line x1="273.016" y1="5.49521e-08" x2="273.016" y2="8.02639" stroke="white"/>
<line x1="295.726" y1="3.51154" x2="295.726" y2="8.02638" stroke="white"/>
<line x1="307.081" y1="3.51154" x2="307.081" y2="8.02638" stroke="white"/>
<line x1="318.435" y1="3.51154" x2="318.435" y2="8.02638" stroke="white"/>
<line x1="329.79" y1="3.51154" x2="329.79" y2="8.02638" stroke="white"/>
<line x1="341.145" y1="3.51154" x2="341.145" y2="8.02638" stroke="white"/>
<line x1="352.5" y1="5.49521e-08" x2="352.5" y2="8.02639" stroke="white"/>
<line x1="284.371" y1="3.51154" x2="284.371" y2="8.02638" stroke="white"/>
</svg>