<?xml version="1.0" encoding="iso-8859-1"?>
<!-- Generator: Adobe Illustrator 19.0.0, SVG Export Plug-In . SVG Version: 6.00 Build 0)  -->
<svg width="184" height="103" viewBox="0 0 184 103" fill="none" xmlns="http://www.w3.org/2000/svg">
<g filter="url(#filter0_d)">
<path d="M6 0H176V95L91 74.3145L6 95V0Z" fill="url(#paint0_linear)"/>
<path d="M90.8818 73.8287L6.5 94.3637V0.5H175.5V94.3637L91.1182 73.8287L91 73.7999L90.8818 73.8287Z" stroke="white"/>
</g>
<path d="M64.3199 35.6412H62.3005V32.7212H67.7972V30.7665H60.2933V42.8664H64.3199C65.1357 42.8664 68.5201 42.5191 68.5201 39.2033C68.5201 37.0063 67.2075 35.6412 64.3199 35.6412ZM64.3199 40.8633H62.3005V37.5959H64.3199C65.2205 37.5959 66.5008 37.8181 66.5008 39.2033C66.5008 40.6209 65.168 40.8633 64.3199 40.8633ZM76.2138 30.609C68.2455 30.609 68.2293 43.024 76.2138 43.024C84.166 43.024 84.1499 30.609 76.2138 30.609ZM76.2138 41.0692C70.9756 41.0692 70.9918 32.5799 76.2138 32.5799C81.452 32.5799 81.452 41.0692 76.2138 41.0692ZM91.5811 30.7665V35.7785H86.5489V30.7665H84.5295V42.8664H86.5489V37.8181H91.5811V42.8664H93.6045V30.7665H91.5811ZM95.0907 30.7665L98.358 39.0983L96.9404 42.8664H99.0123L103.713 30.7665H101.573L99.4283 36.5055L97.4049 30.7665H95.0907ZM110.838 41.0167C108.608 41.0167 106.827 39.4093 106.827 36.8165C106.827 34.3811 108.35 32.6162 110.838 32.6162C111.944 32.6162 112.962 33.0645 113.689 33.7915L115.107 32.3739C114.016 31.2673 112.514 30.5928 110.838 30.5928C107.292 30.5928 104.771 33.1695 104.771 36.8165C104.771 40.6209 107.502 43.0401 110.838 43.0401C112.514 43.0401 114.016 42.3656 115.107 41.2752L113.689 39.8415C112.962 40.5684 111.944 41.0167 110.838 41.0167ZM122.61 35.8674H116.524V37.6969H122.61V35.8674ZM134.347 30.7665H131.823L126.859 36.869V30.7665H124.84V42.8664H126.859V39.5466L128.002 38.2704L131.734 42.8664H134.379L129.351 36.9215L134.347 30.7665ZM142.125 42.8664H144.302L139.464 30.4192L134.638 42.8664H136.819L139.464 35.5564L142.125 42.8664ZM144.407 30.7665L147.675 39.0983L146.257 42.8664H148.329L153.03 30.7665H150.889L148.745 36.5055L146.721 30.7665H144.407ZM158.527 35.6412H156.507V32.7212H162.004V30.7665H154.5V42.8664H158.527C159.342 42.8664 162.727 42.5191 162.727 39.2033C162.727 37.0063 161.414 35.6412 158.527 35.6412ZM158.527 40.8633H156.507V37.5959H158.527C159.427 37.5959 160.707 37.8181 160.707 39.2033C160.707 40.6209 159.375 40.8633 158.527 40.8633Z" fill="#373737"/>
<path d="M62.2262 50.0075C62.2262 50.6164 62.0278 51.0438 61.3938 51.0438C61.0308 51.0438 60.4936 50.9423 60.1839 50.8408L60 51.765C60.15 51.8344 60.8131 52 61.3938 52C62.4682 52 63.3248 51.4017 63.3248 50.0021V48.9979C63.3248 47.5342 62.5892 47 61.4567 47C60.8324 47 60.121 47.1816 60 47.235L60.1839 48.1592C60.4743 48.0363 61.1228 47.9402 61.418 47.9402C61.9262 47.9402 62.2262 48.1645 62.2262 48.8697V48.9712H60.6195V49.8632H62.2262V50.0075ZM66.0611 47.0694H64.9819V51.9306H66.0611V49.5694H66.1627L67.5081 51.9306H68.7229L67.121 49.3077L68.6842 47.0694H67.4356L66.1531 49.1581H66.0611V47.0694ZM70.0315 50.0823C70.0315 51.3964 70.83 52 72.0883 52C73.3466 52 74.1452 51.3964 74.1452 50.0823V48.9605C74.1452 47.6464 73.3466 47 72.0883 47C70.8349 47 70.0315 47.6464 70.0315 48.9605V50.0823ZM71.1543 49.0566C71.1543 48.3942 71.4447 47.9188 72.0883 47.9188C72.7756 47.9188 73.0175 48.4156 73.0175 49.0566V49.9434C73.0175 50.6271 72.7756 51.0812 72.0883 51.0812C71.435 51.0812 71.1543 50.6271 71.1543 49.9434V49.0566ZM78.585 47.0694V48.9017H76.8863V47.0694H75.8022V51.9306H76.8863V49.8205H78.585V51.9306H79.6642V47.0694H78.585ZM81.3213 50.0823C81.3213 51.3964 82.1247 52 83.383 52C84.6413 52 85.4398 51.3964 85.4398 50.0823V48.9605C85.4398 47.6464 84.6413 47 83.383 47C82.1295 47 81.3213 47.6464 81.3213 48.9605V50.0823ZM82.4489 49.0566C82.4489 48.3942 82.7393 47.9188 83.383 47.9188C84.0654 47.9188 84.3122 48.4156 84.3122 49.0566V49.9434C84.3122 50.6271 84.0654 51.0812 83.383 51.0812C82.7248 51.0812 82.4489 50.6271 82.4489 49.9434V49.0566ZM89.1876 51.9306H90.1797L91.1863 48.4583H91.2057L91.288 51.9306H92.3962L92.0284 47.0694H90.7266L89.6861 50.7233H89.6715L88.6359 47.0694H87.334L86.971 51.9306H88.0793L88.1519 48.4583H88.1761L89.1876 51.9306ZM95.6988 51.9306C97.0006 51.9306 97.504 51.4712 97.504 50.3654C97.504 49.3558 97.0781 48.8002 95.994 48.8002C95.6988 48.8002 95.4568 48.8269 95.1858 48.859V47.0694H94.1017V51.9306H95.6988ZM95.6988 49.6122C96.1489 49.6122 96.4102 49.7617 96.4102 50.3761C96.4102 50.985 96.1585 51.14 95.6988 51.14H95.1858V49.6442C95.36 49.6175 95.5294 49.6122 95.6988 49.6122ZM97.6627 48.0577H98.8193V51.9306H99.9034V48.0577H101.06V47.0694H97.6627V48.0577ZM103.675 49.89H105.2V48.9872H103.675V47.9776H105.524V47.0694H102.591V51.9306H105.524V51.0224H103.675V49.89ZM115.024 47.0694V48.9017H113.326V47.0694H112.246V51.9306H113.326V49.8205H115.024V51.9306H116.108V47.0694H115.024ZM120.809 51.9306H121.942L120.568 47.0694H119.198L117.785 51.9306H118.922L119.193 50.8835H120.538L120.809 51.9306ZM119.89 48.1752L120.393 50.0929H119.353L119.89 48.1752ZM127.49 47.0694V51.9306H128.569V50.5363H129.087C130.365 50.5363 130.892 50.0609 130.892 48.7788C130.892 47.5021 130.365 47.0694 129.087 47.0694H127.49ZM128.569 47.9936H129.087C129.547 47.9936 129.799 48.1432 129.799 48.7735C129.799 49.484 129.484 49.6175 129.087 49.6175H128.569V47.9936ZM133.633 49.89H135.158V48.9872H133.633V47.9776H135.482V47.0694H132.549V51.9306H135.482V51.0224H133.633V49.89ZM139.23 51.9306H140.222L141.229 48.4583H141.248L141.33 51.9306H142.439L142.076 47.0694H140.769L139.733 50.7233H139.714L138.683 47.0694H137.381L137.013 51.9306H138.122L138.199 48.4583H138.223L139.23 51.9306ZM143.97 50.0823C143.97 51.3964 144.768 52 146.027 52C147.285 52 148.083 51.3964 148.083 50.0823V48.9605C148.083 47.6464 147.285 47 146.027 47C144.778 47 143.97 47.6464 143.97 48.9605V50.0823ZM145.097 49.0566C145.097 48.3942 145.388 47.9188 146.027 47.9188C146.714 47.9188 146.961 48.4156 146.961 49.0566V49.9434C146.961 50.6271 146.714 51.0812 146.027 51.0812C145.373 51.0812 145.097 50.6271 145.097 49.9434V49.0566ZM152.523 47.0694V48.9017H150.825V47.0694H149.745V51.9306H150.825V49.8205H152.523V51.9306H153.607V47.0694H152.523ZM155.139 48.0577H156.295V51.9306H157.379V48.0577H158.536V47.0694H155.139V48.0577ZM161.151 49.89H162.671V48.9872H161.151V47.9776H163V47.0694H160.067V51.9306H163V51.0224H161.151V49.89Z" fill="#373737"/>
<path d="M54.2352 47.1402L51.6864 49.7278L35.1269 33.1489L18.5577 49.7278L15.975 47.1402L35.1164 28.0012L35.1451 28.0287L35.2456 28L43.0714 35.7527V30.2576H46.3024V39.2841L54.2352 47.1402Z" fill="#F06920"/>
<path d="M38.6288 41.566H31.763V53.2782H38.6288V41.566Z" fill="#F06920"/>
<defs>
<filter id="filter0_d" x="0" y="-6" width="184" height="109" filterUnits="userSpaceOnUse" color-interpolation-filters="sRGB">
<feFlood flood-opacity="0" result="BackgroundImageFix"/>
<feColorMatrix in="SourceAlpha" type="matrix" values="0 0 0 0 0 0 0 0 0 0 0 0 0 0 0 0 0 0 127 0"/>
<feOffset dx="1" dy="1"/>
<feGaussianBlur stdDeviation="3.5"/>
<feColorMatrix type="matrix" values="0 0 0 0 0 0 0 0 0 0 0 0 0 0 0 0 0 0 0.15 0"/>
<feBlend mode="normal" in2="BackgroundImageFix" result="effect1_dropShadow"/>
<feBlend mode="normal" in="SourceGraphic" in2="effect1_dropShadow" result="shape"/>
</filter>
<linearGradient id="paint0_linear" x1="32.5318" y1="12.809" x2="97.1723" y2="89.8191" gradientUnits="userSpaceOnUse">
<stop stop-color="white"/>
<stop offset="1" stop-color="#F5F5F5"/>
</linearGradient>
</defs>
</svg>
