<?xml version="1.0" encoding="iso-8859-1"?>
<!-- Generator: Adobe Illustrator 19.0.0, SVG Export Plug-In . SVG Version: 6.00 Build 0)  -->
<svg width="199" height="100" viewBox="0 0 199 100" fill="none" xmlns="http://www.w3.org/2000/svg">
<path d="M8.28006 70.6083H4.3799V64.9686H14.9961V61.1933H0.503143V84.563H8.28006C9.85572 84.563 16.3924 83.8922 16.3924 77.4881C16.3924 73.2448 13.8573 70.6083 8.28006 70.6083ZM8.28006 80.6941H4.3799V74.3836H8.28006C10.0195 74.3836 12.4922 74.8126 12.4922 77.4881C12.4922 80.2261 9.91812 80.6941 8.28006 80.6941ZM31.252 60.8891C15.862 60.8891 15.8308 84.8672 31.252 84.8672C46.6108 84.8672 46.5796 60.8891 31.252 60.8891ZM31.252 81.0919C21.135 81.0919 21.1662 64.6956 31.252 64.6956C41.369 64.6956 41.369 81.0919 31.252 81.0919ZM60.9322 61.1933V70.8735H51.213V61.1933H47.3128V84.563H51.213V74.8126H60.9322V84.563H64.8401V61.1933H60.9322ZM67.7106 61.1933L74.0211 77.2853L71.2832 84.563H75.2847L84.3643 61.1933H80.2301L76.0882 72.2775L72.1802 61.1933H67.7106ZM98.1241 80.9905C93.8183 80.9905 90.3784 77.886 90.3784 72.8782C90.3784 68.1746 93.3191 64.7658 98.1241 64.7658C100.261 64.7658 102.227 65.6317 103.631 67.0357L106.369 64.2978C104.263 62.1605 101.361 60.8579 98.1241 60.8579C91.2754 60.8579 86.408 65.8345 86.408 72.8782C86.408 80.2261 91.681 84.8984 98.1241 84.8984C101.361 84.8984 104.263 83.5958 106.369 81.4897L103.631 78.7206C102.227 80.1246 100.261 80.9905 98.1241 80.9905ZM120.862 71.0451H109.107V74.5786H120.862V71.0451ZM143.53 61.1933H138.654L129.068 72.9796V61.1933H125.168V84.563H129.068V78.1512L131.275 75.6863L138.483 84.563H143.592L133.881 73.081L143.53 61.1933ZM158.553 84.563H162.757L153.413 60.5225L144.091 84.563H148.303L153.413 70.4445L158.553 84.563ZM162.96 61.1933L169.271 77.2853L166.533 84.563H170.534L179.614 61.1933H175.48L171.338 72.2775L167.43 61.1933H162.96ZM190.23 70.6083H186.33V64.9686H196.946V61.1933H182.453V84.563H190.23C191.806 84.563 198.342 83.8922 198.342 77.4881C198.342 73.2448 195.807 70.6083 190.23 70.6083ZM190.23 80.6941H186.33V74.3836H190.23C191.97 74.3836 194.442 74.8126 194.442 77.4881C194.442 80.2261 191.868 80.6941 190.23 80.6941Z" fill="#373737"/>
<path d="M3.58814 97.0905C3.58814 97.9798 3.26833 98.6038 2.24649 98.6038C1.66147 98.6038 0.795632 98.4556 0.296412 98.3074L0 99.6569C0.24181 99.7583 1.31045 100 2.24649 100C3.97816 100 5.35881 99.1264 5.35881 97.0827V95.6163C5.35881 93.479 4.17317 92.699 2.34789 92.699C1.34165 92.699 0.195008 92.9642 0 93.0422L0.296412 94.3916C0.764431 94.2122 1.80967 94.0718 2.28549 94.0718C3.10452 94.0718 3.58814 94.3994 3.58814 95.4291V95.5773H0.99844V96.8799H3.58814V97.0905ZM11.7005 92.8004H9.961V99.8987H11.7005V96.4509H11.8643L14.0328 99.8987H15.9906L13.4087 96.0687L15.9282 92.8004H13.9158L11.8487 95.8503H11.7005V92.8004ZM20.0312 97.1997C20.0312 99.1186 21.3183 100 23.3463 100C25.3744 100 26.6615 99.1186 26.6615 97.1997V95.5617C26.6615 93.6428 25.3744 92.699 23.3463 92.699C21.3261 92.699 20.0312 93.6428 20.0312 95.5617V97.1997ZM21.8409 95.7021C21.8409 94.7348 22.3089 94.0406 23.3463 94.0406C24.454 94.0406 24.844 94.7661 24.844 95.7021V96.9969C24.844 97.9954 24.454 98.6584 23.3463 98.6584C22.2933 98.6584 21.8409 97.9954 21.8409 96.9969V95.7021ZM35.7488 92.8004V95.4759H33.0109V92.8004H31.2636V99.8987H33.0109V96.8175H35.7488V99.8987H37.4883V92.8004H35.7488ZM42.0905 97.1997C42.0905 99.1186 43.3853 100 45.4134 100C47.4415 100 48.7285 99.1186 48.7285 97.1997V95.5617C48.7285 93.6428 47.4415 92.699 45.4134 92.699C43.3931 92.699 42.0905 93.6428 42.0905 95.5617V97.1997ZM43.908 95.7021C43.908 94.7348 44.376 94.0406 45.4134 94.0406C46.5133 94.0406 46.9111 94.7661 46.9111 95.7021V96.9969C46.9111 97.9954 46.5133 98.6584 45.4134 98.6584C44.3526 98.6584 43.908 97.9954 43.908 96.9969V95.7021ZM56.7005 99.8987H58.2995L59.922 94.8285H59.9532L60.0858 99.8987H61.8721L61.2793 92.8004H59.181L57.5039 98.1358H57.4805L55.8112 92.8004H53.7129L53.1279 99.8987H54.9142L55.0312 94.8285H55.0702L56.7005 99.8987ZM69.1264 99.8987C71.2247 99.8987 72.0359 99.2278 72.0359 97.6132C72.0359 96.1389 71.3495 95.3277 69.6022 95.3277C69.1264 95.3277 68.7364 95.3667 68.2995 95.4135V92.8004H66.5523V99.8987H69.1264ZM69.1264 96.5133C69.8518 96.5133 70.273 96.7317 70.273 97.6288C70.273 98.518 69.8674 98.7442 69.1264 98.7442H68.2995V96.5601C68.5804 96.5211 68.8534 96.5133 69.1264 96.5133ZM76.1545 94.2434H78.0187V99.8987H79.766V94.2434H81.6303V92.8004H76.1545V94.2434ZM87.7769 96.9189H90.234V95.6007H87.7769V94.1264H90.7566V92.8004H86.0296V99.8987H90.7566V98.5726H87.7769V96.9189ZM106.069 92.8004V95.4759H103.331V92.8004H101.591V99.8987H103.331V96.8175H106.069V99.8987H107.816V92.8004H106.069ZM117.325 99.8987H119.15L116.934 92.8004H114.727L112.449 99.8987H114.282L114.719 98.3698H116.888L117.325 99.8987ZM115.842 94.415L116.654 97.2154H114.977L115.842 94.415ZM130.023 92.8004V99.8987H131.763V97.8628H132.598C134.657 97.8628 135.507 97.1686 135.507 95.2965C135.507 93.4322 134.657 92.8004 132.598 92.8004H130.023ZM131.763 94.1498H132.598C133.339 94.1498 133.744 94.3682 133.744 95.2887C133.744 96.3261 133.237 96.5211 132.598 96.5211H131.763V94.1498ZM141.856 96.9189H144.314V95.6007H141.856V94.1264H144.836V92.8004H140.109V99.8987H144.836V98.5726H141.856V96.9189ZM152.808 99.8987H154.407L156.03 94.8285H156.061L156.193 99.8987H157.98L157.395 92.8004H155.289L153.619 98.1358H153.588L151.927 92.8004H149.828L149.236 99.8987H151.022L151.147 94.8285H151.186L152.808 99.8987ZM162.379 97.1997C162.379 99.1186 163.666 100 165.694 100C167.722 100 169.009 99.1186 169.009 97.1997V95.5617C169.009 93.6428 167.722 92.699 165.694 92.699C163.682 92.699 162.379 93.6428 162.379 95.5617V97.1997ZM164.197 95.7021C164.197 94.7348 164.665 94.0406 165.694 94.0406C166.802 94.0406 167.2 94.7661 167.2 95.7021V96.9969C167.2 97.9954 166.802 98.6584 165.694 98.6584C164.641 98.6584 164.197 97.9954 164.197 96.9969V95.7021ZM178.097 92.8004V95.4759H175.359V92.8004H173.619V99.8987H175.359V96.8175H178.097V99.8987H179.844V92.8004H178.097ZM184.243 94.2434H186.108V99.8987H187.855V94.2434H189.719V92.8004H184.243V94.2434ZM195.866 96.9189H198.315V95.6007H195.866V94.1264H198.846V92.8004H194.119V99.8987H198.846V98.5726H195.866V96.9189Z" fill="#373737"/>
<path d="M136.371 36.9672L131.448 41.9649L99.4649 9.94462L67.4634 41.9649L62.4751 36.9672L99.4446 0.0023403L99.5 0.0553823L99.6943 0L114.809 14.9735V4.36037H121.049V21.7941L136.371 36.9672Z" fill="#F06920"/>
<path d="M106.229 26.2012H92.9681V48.8221H106.229V26.2012Z" fill="#F06920"/>
</svg>
