<?xml version="1.0" encoding="iso-8859-1"?>
<!-- Generator: Adobe Illustrator 19.0.0, SVG Export Plug-In . SVG Version: 6.00 Build 0)  -->
<svg width="77" height="56" viewBox="0 0 77 56" fill="none" xmlns="http://www.w3.org/2000/svg">
<path d="M11.6758 29.0366L10.0021 30.7721C9.77981 31.0018 9.48343 31.1105 9.18705 31.1072C8.94335 31.2966 8.73424 31.5172 8.56958 31.7782C8.2946 32.2565 7.94881 32.6138 7.56763 32.8822C7.67548 36.1169 10.3339 38.7177 13.5949 38.7177C16.5884 38.7177 19.1036 36.5442 19.558 33.6174C17.7542 29.6459 13.1166 29.1066 11.6758 29.0366Z" fill="#C3D7F1"/>
<path d="M18.2853 39.4924V40.8228C20.369 40.072 21.4195 39.0626 21.8641 38.5217C21.5603 37.7273 21.3627 36.8184 21.2294 35.8584C20.6135 37.3428 19.582 38.5991 18.2853 39.4924Z" fill="#C3D7F1"/>
<path d="M13.595 40.9472C12.7379 40.9472 11.9113 40.8163 11.1333 40.5726V41.7615C11.1333 42.1509 11.037 42.5222 10.8625 42.8498L11.8998 43.8353C12.8499 44.7385 14.3401 44.7385 15.291 43.8353L16.3283 42.8498C16.1529 42.5222 16.0566 42.1501 16.0566 41.7615V40.5743C15.2761 40.8155 14.4496 40.9472 13.595 40.9472Z" fill="#C3D7F1"/>
<path d="M49.6724 19.4502C49.3587 18.5487 48.882 17.7756 48.3033 17.0709C47.9739 17.1211 47.6306 17.0363 47.3754 16.7803C45.8852 15.2901 43.3676 14.4174 39.8909 14.1869C36.9361 13.9902 34.0842 14.3244 32.6476 14.5409C32.6147 14.5459 32.5891 14.578 32.5891 14.6159V17.1845C32.5891 17.8003 32.091 18.2993 31.4744 18.2993C31.3295 18.2993 31.1912 18.2696 31.0644 18.2194C30.363 19.0205 29.673 19.8306 29.0128 20.6637V22.7368C29.0128 28.6455 33.4429 33.5614 39.0981 33.9269C41.7383 34.0982 44.2667 33.3366 46.3315 31.7691C46.3381 31.765 46.3446 31.7592 46.3512 31.7551C46.6451 31.5295 46.9317 31.2883 47.2066 31.0306C49.4106 28.965 50.6233 26.1642 50.6233 23.1451V20.6654C50.1927 20.3962 49.8527 19.9681 49.6724 19.4502Z" fill="#C3D7F1"/>
<path d="M68.5166 29.0111C68.4771 29.0152 68.4393 29.0275 68.3997 29.0275C68.2326 29.0275 68.0622 28.9897 67.9016 28.9098C66.3366 28.1269 63.2937 27.8873 61.755 27.8436C60.7242 28.2281 59.7223 28.9608 58.7681 30.134C58.7763 30.1875 58.787 30.2411 58.787 30.2962V32.3808C58.787 35.7768 61.4116 38.618 64.6365 38.7152C66.2847 38.7654 67.8457 38.1603 69.0279 37.0134C70.2101 35.8658 70.8614 34.327 70.8614 32.6805V30.5012C70.0916 29.9661 69.3078 29.454 68.5166 29.0111Z" fill="#C3D7F1"/>
<path d="M8.9031 40.8187V39.4825C7.60559 38.5852 6.57565 37.3263 5.96066 35.8527C5.82646 36.8143 5.62969 37.7256 5.32507 38.5218C5.7713 39.0676 6.8177 40.0679 8.9031 40.8187Z" fill="#C3D7F1"/>
<path d="M35.1718 45.1567C35.1784 45.1657 35.1924 45.1871 35.2286 45.1904C35.2649 45.1945 35.283 45.1764 35.2904 45.169L38.0805 42.3789L32.8205 38.7836L31.705 39.9559L35.1718 45.1567Z" fill="#C3D7F1"/>
<path d="M41.5572 42.3789L44.3473 45.1682C44.3547 45.1764 44.3737 45.1953 44.4091 45.1904C44.4453 45.1871 44.4601 45.1649 44.465 45.1558L47.9327 39.9551L46.818 38.7827L41.5572 42.3789Z" fill="#C3D7F1"/>
<path d="M16.8255 45.4522C15.9199 46.3125 14.7566 46.7431 13.5941 46.7431C12.4308 46.7431 11.2683 46.3125 10.3627 45.4522L9.06688 44.2206L5.34148 46.0829C4.50172 46.5027 3.98059 47.3466 3.98059 48.2843V55.5861H6.5188V50.8423C6.5188 50.2265 7.01769 49.7276 7.63351 49.7276C8.24851 49.7276 8.74825 50.2273 8.74825 50.8423V55.5861H18.4384V47.9402C18.4384 46.8164 18.7636 45.7428 19.3358 44.8282L18.1206 44.2206L16.8255 45.4522Z" fill="#C3D7F1"/>
<path d="M73.8458 44.9319L69.2386 43.6163C69.0732 43.5685 68.9151 43.5043 68.7661 43.4277L65.9389 46.2541V55.5853H70.8614V49.3678C70.8614 48.752 71.3611 48.253 71.9769 48.253C72.5911 48.253 73.09 48.7528 73.09 49.3678V55.5853H75.6307V47.298C75.6307 46.2063 74.8963 45.2324 73.8458 44.9319Z" fill="#C3D7F1"/>
<path d="M59.8261 43.7826L59.5511 43.8616C60.5835 44.9368 61.1993 46.3899 61.1993 47.941V55.5861H63.7095V46.2549L60.8618 43.4088C60.4822 43.5949 60.1043 43.7035 59.8261 43.7826Z" fill="#C3D7F1"/>
<path d="M67.285 41.0245V40.5758C66.4987 40.8195 65.6738 40.9471 64.8283 40.9471C64.7418 40.9471 64.6562 40.9455 64.5714 40.9438C63.8058 40.9208 63.0648 40.7841 62.3634 40.5536V41.0237C62.3634 41.2666 62.3395 41.4856 62.2942 41.6856L64.825 44.2156L67.3657 41.6741C67.313 41.4642 67.285 41.2468 67.285 41.0245Z" fill="#C3D7F1"/>
<path d="M35.2392 47.4207C35.1619 47.4207 35.0853 47.4174 35.0096 47.4092C34.318 47.3409 33.7022 46.9704 33.3169 46.3933L30.3061 41.8767L23.0743 44.5063C21.6352 45.0291 20.6695 46.4089 20.6695 47.9394V55.5853H25.5919V51.7521C25.5919 51.1362 26.0909 50.6373 26.7067 50.6373C27.3233 50.6373 27.8214 51.1362 27.8214 51.7521V55.5853H38.7045V44.9081L36.8677 46.7448C36.4314 47.1812 35.8477 47.4207 35.2392 47.4207Z" fill="#C3D7F1"/>
<path d="M56.5625 44.507L49.3315 41.8774L46.3216 46.3932C45.9363 46.9711 45.3196 47.3408 44.6289 47.4091C44.5515 47.4165 44.4749 47.4207 44.4 47.4207C43.79 47.4207 43.2071 47.1811 42.7707 46.7447L40.9356 44.908V55.5852H51.817V51.752C51.817 51.1362 52.3168 50.6372 52.9326 50.6372C53.5484 50.6372 54.0473 51.1362 54.0473 51.752V55.5852H58.9698V47.9401C58.9689 46.4096 58.004 45.0306 56.5625 44.507Z" fill="#C3D7F1"/>
<path d="M45.8564 34.7025C44.0138 35.6691 41.9622 36.1795 39.8299 36.1795C39.5385 36.1795 39.247 36.1705 38.9539 36.1507C37.0933 36.0305 35.3438 35.502 33.7828 34.6581V36.7385L39.8192 40.8665L45.8572 36.7385V34.7025H45.8564Z" fill="#C3D7F1"/>
<path d="M67.1476 25.1523C64.5575 23.8572 59.7009 23.8424 59.4967 23.8424C58.8793 23.8424 58.3812 24.3421 58.3812 24.9571C58.3812 25.573 58.8793 26.0719 59.4967 26.0719C60.749 26.0719 64.3862 26.2645 66.1489 27.1463C66.3094 27.2261 66.4799 27.264 66.647 27.264C67.0554 27.264 67.4497 27.0384 67.6456 26.6474C67.9214 26.0974 67.6975 25.4272 67.1476 25.1523Z" fill="url(#paint0_linear)"/>
<path d="M72.7047 41.0245L68.1009 39.7089C67.9016 39.6521 67.7633 39.4685 67.7633 39.261V37.7239C68.1379 37.4646 68.4936 37.174 68.8295 36.8496C70.4489 35.2788 71.338 33.172 71.338 30.917V28.7962L71.7851 27.9054C72.2741 26.9273 72.531 25.8332 72.531 24.7407V18.9958C72.531 18.3799 72.0329 17.881 71.4163 17.881H60.688C56.7872 17.881 53.6126 21.0548 53.6126 24.9556V25.0222C53.6126 25.9312 53.8267 26.8401 54.2334 27.6526L54.8039 28.7946V30.6157C54.8039 33.5013 56.2274 36.0905 58.3803 37.649L58.3819 39.2602C58.3819 39.508 58.3819 39.6109 57.4607 39.8744L55.2139 40.5165L48.714 38.1537C48.7363 37.8466 48.6334 37.5354 48.4102 37.3L46.3339 35.1174V31.4554C46.5537 31.2743 46.7702 31.0891 46.9794 30.8923C49.5991 28.4364 51.1024 24.9695 51.1024 21.38V18.4549C51.8936 16.7334 52.2937 14.9122 52.2937 13.0351V1.11474C52.2937 0.498917 51.7956 0 51.1789 0H34.4901C28.6167 0 23.8392 4.77755 23.8392 10.6509V13.0351C23.8392 14.9114 24.2401 16.7325 25.0313 18.4549V20.9717C25.0313 25.1392 26.8845 28.8942 29.7998 31.369V35.1174L27.7234 37.3C27.4995 37.5354 27.3966 37.8466 27.4197 38.1537L20.56 40.6474C20.0627 40.8286 19.6009 41.0731 19.1818 41.3695L18.105 40.831C21.3117 39.4347 22.3268 37.472 22.3762 37.3749C22.5326 37.0604 22.5326 36.6907 22.3762 36.3779C21.5726 34.7708 21.4755 31.8243 21.3973 29.4565C21.3718 28.6686 21.3462 27.9243 21.2993 27.2608C20.9189 21.9127 16.8544 17.8802 11.843 17.8802C6.83164 17.8802 2.76707 21.9127 2.38671 27.2608C2.33895 27.9235 2.31509 28.6686 2.28874 29.4565C2.21053 31.8234 2.11336 34.7708 1.30983 36.3779C1.15258 36.6916 1.15258 37.0604 1.30983 37.3749C1.35841 37.472 2.37271 39.4314 5.58436 40.8286L2.59253 42.3245C0.992876 43.1256 0 44.7326 0 46.5208V54.757C0 55.3736 0.498892 55.8717 1.11471 55.8717C1.73053 55.8717 2.22945 55.3728 2.22945 54.757V46.5208C2.22945 45.5822 2.7506 44.7392 3.59036 44.3193L7.31574 42.457L8.6116 43.6887C9.51804 44.549 10.6797 44.9796 11.843 44.9796C13.0055 44.9796 14.1688 44.549 15.0744 43.6887L16.3703 42.457L17.5855 43.0646C17.0133 43.9793 16.6881 45.0529 16.6881 46.1767V54.7578C16.6881 55.3736 17.187 55.8726 17.8028 55.8726C18.4186 55.8726 18.9175 55.3736 18.9175 54.7578V46.1775C18.9175 44.647 19.8841 43.2672 21.3224 42.7444L28.5541 40.1148L31.5649 44.6314C31.9494 45.2085 32.566 45.5789 33.2568 45.6473C33.3333 45.6547 33.4099 45.6588 33.4865 45.6588C34.0957 45.6588 34.6794 45.4192 35.1149 44.9837L36.9517 43.147V54.7595C36.9517 55.3753 37.4506 55.8742 38.0664 55.8742C38.6823 55.8742 39.1812 55.3753 39.1812 54.7595V43.147L41.0171 44.9837C41.4543 45.4201 42.0363 45.6596 42.6464 45.6596C42.723 45.6596 42.7987 45.6555 42.8761 45.6481C43.5668 45.5798 44.1835 45.2101 44.5679 44.6322L47.5787 40.1164L54.8097 42.746C56.2504 43.2696 57.2153 44.6486 57.2153 46.18V54.7603C57.2153 55.3761 57.7134 55.875 58.3309 55.875C58.9467 55.875 59.4456 55.3761 59.4456 54.7603V46.18C59.4456 44.6289 58.8298 43.1758 57.7974 42.1006L58.0724 42.0215C58.3506 41.9425 58.7285 41.8338 59.1081 41.6469L61.9558 44.493V54.7595C61.9558 55.3753 62.4539 55.8742 63.0714 55.8742C63.6855 55.8742 64.1861 55.3753 64.1861 54.7595V44.493L67.0133 41.6667C67.1631 41.7433 67.3204 41.8075 67.4859 41.8552L72.093 43.1708C73.1427 43.4713 73.8779 44.4445 73.8779 45.5378V54.7603C73.8779 55.3761 74.376 55.875 74.9926 55.875C75.6068 55.875 76.1074 55.3761 76.1074 54.7603V45.5378C76.1074 43.4516 74.7086 41.5967 72.7047 41.0245ZM7.1519 39.0552C5.06651 38.3044 4.0201 37.3049 3.57388 36.7582C3.87849 35.9621 4.07526 35.0507 4.20946 34.0891C4.82446 35.5628 5.8544 36.8216 7.1519 37.719V39.0552ZM13.539 42.0734C12.5881 42.9765 11.0988 42.9765 10.1479 42.0734L9.11051 41.0879C9.28504 40.7602 9.38138 40.3881 9.38138 39.9995V38.8107C10.1594 39.0536 10.986 39.1853 11.843 39.1853C12.6984 39.1853 13.5242 39.0536 14.3038 38.8123V39.9995C14.3038 40.3889 14.4001 40.7602 14.5755 41.0879L13.539 42.0734ZM11.8438 36.955C8.51445 36.955 5.80664 34.2464 5.80664 30.9178C5.80664 30.302 5.30773 29.8031 4.69191 29.8031C4.62934 29.8031 4.56925 29.8097 4.50915 29.8195C4.51244 29.724 4.51573 29.6277 4.51902 29.5322C4.54372 28.7657 4.5676 28.0412 4.61123 27.4213C4.75448 25.4174 5.55473 23.5724 6.8654 22.2231C8.18843 20.8622 9.95685 20.113 11.8438 20.113C13.7308 20.113 15.4984 20.8622 16.8223 22.2231C18.1329 23.5724 18.9332 25.4174 19.0756 27.4213C19.1201 28.0412 19.1439 28.7657 19.1695 29.5322C19.1711 29.5981 19.1736 29.6648 19.1761 29.7306C17.9633 27.8618 16.0895 26.4844 13.6699 25.7064C11.4338 24.9877 9.51062 25.0329 9.42911 25.0354C9.13767 25.0428 8.86023 25.1655 8.65688 25.3763L6.64559 27.4625C6.2183 27.9054 6.23147 28.6118 6.6744 29.0382C7.11816 29.4655 7.8237 29.4524 8.25099 29.0094L9.92475 27.2739C11.3655 27.3439 16.0031 27.884 17.8069 31.8547C17.3525 34.7815 14.8365 36.955 11.8438 36.955ZM16.5333 39.0593V37.7289C17.83 36.8364 18.8615 35.5801 19.4765 34.0949C19.6099 35.0548 19.8075 35.9638 20.1113 36.7582C19.6684 37.3 18.617 38.3093 16.5333 39.0593ZM27.2624 20.9725V18.2062C27.2624 18.0383 27.2245 17.8728 27.1521 17.7221C26.4342 16.2361 26.0711 14.6603 26.0711 13.0368V10.6525C26.0711 6.00919 29.8484 2.23112 34.4925 2.23112H50.0659V13.0368C50.0659 14.6603 49.7028 16.2361 48.9857 17.7221C48.9125 17.8728 48.8746 18.0383 48.8746 18.2062V21.3808C48.8746 24.3998 47.6611 27.1998 45.4579 29.2663C45.183 29.524 44.8973 29.7652 44.6025 29.9908C44.5951 29.9949 44.5885 29.9998 44.5828 30.0048C42.5179 31.5723 39.9896 32.3339 37.3485 32.1626C31.6917 31.7971 27.2624 26.8812 27.2624 20.9725ZM33.54 43.4055C33.5326 43.4137 33.5136 43.431 33.4774 43.4269C33.442 43.4244 33.4264 43.4022 33.4206 43.3931L29.9537 38.1924L31.0693 37.02L36.3293 40.6153L33.54 43.4055ZM38.0681 39.1038L32.0309 34.9758V32.8954C33.5927 33.74 35.3422 34.2678 37.2028 34.388C37.4959 34.4069 37.7882 34.4168 38.0796 34.4168C40.2111 34.4168 42.2636 33.9064 44.1061 32.9398V34.9758L38.0681 39.1038ZM42.7147 43.3939C42.7098 43.403 42.695 43.4244 42.6587 43.4285C42.6233 43.4335 42.6044 43.4145 42.597 43.4063L39.8069 40.617L45.0677 37.0217L46.1824 38.194L42.7147 43.3939ZM63.073 42.4521L60.5422 39.9221C60.5875 39.7221 60.6114 39.5031 60.6114 39.2602V38.7901C61.3128 39.0206 62.0538 39.1573 62.8194 39.1803C62.9051 39.182 62.9899 39.1836 63.0763 39.1836C63.9218 39.1836 64.7468 39.056 65.533 38.8123V39.261C65.533 39.4833 65.5602 39.7015 65.6137 39.9106L63.073 42.4521ZM67.2767 35.25C66.0945 36.3968 64.5335 37.0019 62.8853 36.9517C59.6597 36.8546 57.0358 34.0134 57.0358 30.6173V28.5327C57.0358 28.3599 56.9955 28.1886 56.9165 28.0347L56.2298 26.6573C55.9754 26.1526 55.8437 25.5878 55.8437 25.0239V24.9572C55.8437 22.2848 58.0164 20.1121 60.6888 20.1121H70.3015V24.7423C70.3015 25.4915 70.1262 26.2407 69.7902 26.91L69.2288 28.0355C69.1497 28.1903 69.1094 28.3607 69.1094 28.5336V30.9178C69.1094 32.5644 68.4582 34.1031 67.2767 35.25Z" fill="url(#paint1_linear)"/>
<path d="M70.2258 46.4902C69.61 46.4902 69.1102 46.99 69.1102 47.605V54.7569C69.1102 55.3735 69.61 55.8716 70.2258 55.8716C70.8399 55.8716 71.3389 55.3727 71.3389 54.7569V47.605C71.3381 46.99 70.8399 46.4902 70.2258 46.4902Z" fill="url(#paint2_linear)"/>
<path d="M5.88329 47.9648C5.26747 47.9648 4.76855 48.4638 4.76855 49.0796V54.7578C4.76855 55.3745 5.26747 55.8725 5.88329 55.8725C6.49829 55.8725 6.99803 55.3736 6.99803 54.7578V49.0796C6.99803 48.4646 6.49829 47.9648 5.88329 47.9648Z" fill="url(#paint3_linear)"/>
<path d="M30.838 12.8523C30.838 12.8144 30.8635 12.7823 30.8965 12.7774C32.3339 12.5608 35.185 12.2266 38.1398 12.4233C41.6165 12.6547 44.1341 13.5274 45.6243 15.0167C46.0598 15.4522 46.7654 15.4522 47.2009 15.0167C47.6364 14.5812 47.6364 13.8756 47.2009 13.4401C42.984 9.22322 34.1625 10.0292 30.5647 10.5718C29.4318 10.743 28.6094 11.7013 28.6094 12.8523V15.4209C28.6094 16.0368 29.1083 16.5357 29.7241 16.5357C30.3399 16.5357 30.8388 16.0368 30.8388 15.4209V12.8523H30.838Z" fill="url(#paint4_linear)"/>
<path d="M24.9556 48.8754C24.3398 48.8754 23.8409 49.3743 23.8409 49.9901V54.7578C23.8409 55.3744 24.3398 55.8725 24.9556 55.8725C25.5714 55.8725 26.0704 55.3736 26.0704 54.7578V49.9901C26.0704 49.3743 25.5714 48.8754 24.9556 48.8754Z" fill="url(#paint5_linear)"/>
<path d="M51.1807 48.8754C50.5649 48.8754 50.0651 49.3743 50.0651 49.9901V54.7578C50.0651 55.3744 50.5649 55.8725 51.1807 55.8725C51.7965 55.8725 52.2954 55.3736 52.2954 54.7578V49.9901C52.2946 49.3743 51.7965 48.8754 51.1807 48.8754Z" fill="url(#paint6_linear)"/>
<defs>
<linearGradient id="paint0_linear" x1="61.8415" y1="24.5552" x2="63.0972" y2="28.9867" gradientUnits="userSpaceOnUse">
<stop stop-color="#F8981D"/>
<stop offset="1" stop-color="#F85F1D"/>
</linearGradient>
<linearGradient id="paint1_linear" x1="28.069" y1="11.6406" x2="61.7151" y2="70.6246" gradientUnits="userSpaceOnUse">
<stop stop-color="#F8981D"/>
<stop offset="1" stop-color="#F85F1D"/>
</linearGradient>
<linearGradient id="paint2_linear" x1="69.9322" y1="48.4447" x2="73.6023" y2="49.5668" gradientUnits="userSpaceOnUse">
<stop stop-color="#F8981D"/>
<stop offset="1" stop-color="#F85F1D"/>
</linearGradient>
<linearGradient id="paint3_linear" x1="5.5908" y1="49.6123" x2="9.13839" y2="50.8996" gradientUnits="userSpaceOnUse">
<stop stop-color="#F8981D"/>
<stop offset="1" stop-color="#F85F1D"/>
</linearGradient>
<linearGradient id="paint4_linear" x1="35.5865" y1="11.4637" x2="37.7924" y2="19.8471" gradientUnits="userSpaceOnUse">
<stop stop-color="#F8981D"/>
<stop offset="1" stop-color="#F85F1D"/>
</linearGradient>
<linearGradient id="paint5_linear" x1="24.6631" y1="50.3331" x2="28.0999" y2="51.7425" gradientUnits="userSpaceOnUse">
<stop stop-color="#F8981D"/>
<stop offset="1" stop-color="#F85F1D"/>
</linearGradient>
<linearGradient id="paint6_linear" x1="50.8877" y1="50.3331" x2="54.3253" y2="51.7434" gradientUnits="userSpaceOnUse">
<stop stop-color="#F8981D"/>
<stop offset="1" stop-color="#F85F1D"/>
</linearGradient>
</defs>
</svg>
