<?xml version="1.0" encoding="iso-8859-1"?>
<!-- Generator: Adobe Illustrator 19.0.0, SVG Export Plug-In . SVG Version: 6.00 Build 0)  -->
<svg width="24" height="24" viewBox="0 0 24 24" fill="none" xmlns="http://www.w3.org/2000/svg">
<path d="M18.3435 23.162C13.8863 23.162 9.27793 21.1171 5.70055 17.5537L5.62853 17.478L5.63048 17.477C1.91797 13.7511 -0.104908 9.06999 0.0041949 4.55542L0.0121981 4.22242L0.219364 3.96118C0.539666 3.55538 0.857007 3.19649 1.18732 2.86647C2.40347 1.65707 3.83081 0.731776 5.43132 0.113615C5.6245 0.0388371 5.84569 0 6.08391 0C6.62342 0 7.8356 0.273173 8.1469 1.11965C8.69241 2.63215 9.38202 4.60328 9.8845 6.48967C10.0236 7.01909 9.88651 8.29827 9.14381 8.76488L7.37413 9.88259C7.39015 9.89654 7.38218 10.1717 7.61239 10.4858C8.29904 11.422 9.09375 12.3502 9.97559 13.2436C10.8634 14.112 11.7913 14.8996 12.7242 15.5756C12.9064 15.7082 13.1116 15.785 13.2777 15.785L13.8893 14.9335L14.4538 14.0482C14.9423 13.2904 16.1724 13.2695 16.3096 13.2695C16.4547 13.2695 16.5809 13.2824 16.699 13.3084C19.0292 13.8268 20.4175 14.2725 22.1962 15.0751C22.9879 15.4301 23.4864 16.8588 23.133 17.7552C22.5175 19.3454 21.5885 20.7672 20.3764 21.9756C20.0321 22.3156 19.6628 22.6406 19.2714 22.9447L19.0112 23.1481L18.3435 23.162ZM2.00205 4.9363C2.01807 8.78685 3.88684 12.9265 7.04582 16.0741L7.14192 16.1719C10.3089 19.3255 14.3828 21.1541 18.2985 21.169C18.5307 20.9756 18.7539 20.7742 18.9631 20.5668C19.974 19.5578 20.7498 18.3683 21.2683 17.0343C21.2583 17.0263 21.2192 16.9047 21.1762 16.807C19.6277 16.12 18.3555 15.7202 16.2616 15.2546C16.2105 15.2616 16.1074 15.2815 16.0273 15.3044L15.0204 16.8848C14.3968 17.8938 12.7372 18.0573 11.5441 17.1868C10.5351 16.457 9.5302 15.6036 8.56129 14.6544C7.59938 13.6793 6.74156 12.6783 5.99685 11.6633C5.50639 10.9943 5.30719 10.1996 5.44732 9.48174C5.55443 8.92839 5.86369 8.47076 6.31112 8.19358L7.89263 7.19356C7.91765 7.10084 7.93768 6.9782 7.93368 6.91838C7.49427 5.28624 6.87069 3.48561 6.3562 2.05188C6.27012 2.02097 6.16102 1.99407 6.08495 1.99407C4.81375 2.49059 3.61963 3.26525 2.60467 4.27524C2.40048 4.47964 2.20124 4.69701 2.00205 4.9363Z" fill="#F8961D"/>
</svg>