<?xml version="1.0" encoding="iso-8859-1"?>
<!-- Generator: Adobe Illustrator 19.0.0, SVG Export Plug-In . SVG Version: 6.00 Build 0)  -->
<svg width="64" height="63" viewBox="0 0 64 63" fill="none" xmlns="http://www.w3.org/2000/svg">
<path d="M28.7896 34.7124H25.6216C25.4175 34.7124 25.2536 34.8771 25.2536 35.0821V42.574H29.1576V35.0821C29.1585 34.8771 28.9946 34.7124 28.7896 34.7124Z" fill="#C3D7F1"/>
<path d="M19.0509 45.2332H17.8885H7.36682H6.20515L4.3338 62.0678H8.4198V54.7034C8.4198 54.1222 8.89071 53.6513 9.47278 53.6513H15.7858C16.3662 53.6513 16.8371 54.1222 16.8371 54.7034V62.0678H20.9231L19.8841 52.721L19.0509 45.2332Z" fill="#C3D7F1"/>
<path d="M24.2014 45.2332H21.1676L23.0373 62.0678H33.6701V45.2332H30.5136H24.2014Z" fill="#C3D7F1"/>
<path d="M14.8069 16.8248H10.4476L8.49887 43.1289H16.7556L14.8069 16.8248Z" fill="#C3D7F1"/>
<path d="M50.5063 44.8743V62.0679H53.6629V55.7549C53.6629 55.1736 54.1354 54.7035 54.7158 54.7035H58.9237C59.5041 54.7035 59.975 55.1736 59.975 55.7549V62.0679H63.1315V39.4636L50.5063 44.8743Z" fill="#C3D7F1"/>
<path d="M35.7761 44.8743V62.0679H38.9334V55.7557C38.9334 55.1745 39.4027 54.7035 39.9847 54.7035H44.1926C44.773 54.7035 45.2439 55.1736 45.2439 55.7557V62.0679H48.4021V44.1811V39.4636L35.7761 44.8743Z" fill="#C3D7F1"/>
<path d="M60.7794 8.64546C60.3932 10.4575 59.6004 11.7139 58.4766 12.4606C57.5586 13.0706 56.602 13.2361 55.717 13.153C54.5627 13.1382 53.2833 12.9315 52.218 12.3923C50.7599 11.6546 49.1874 10.7407 47.9739 9.93474C46.1314 8.71133 44.3481 6.66299 42.1253 6.22253C39.8777 5.77548 38.1117 6.28675 36.6232 7.46817C36.284 7.73738 35.1899 8.08562 34.9725 8.05599C23.0348 6.4267 23.0538 12.7529 23.6334 15.012C24.0639 16.6923 25.7336 18.4155 27.4295 18.4163C27.4501 18.4171 27.5053 18.4196 27.581 18.4212C28.4364 18.4435 29.445 18.4089 30.3893 18.273C31.467 18.1182 34.4382 16.619 34.4382 16.619L35.4904 17.6712C36.8249 19.0058 38.092 19.8249 39.2561 20.2415C39.9781 20.4992 40.5314 20.5642 40.8821 20.5329L41.0591 20.5181C42.5978 20.5181 44.158 19.8224 45.6415 18.6427C46.175 18.217 46.6624 17.7601 47.0856 17.3032C47.3367 17.0332 47.5087 16.829 47.5886 16.7219C47.9764 16.2173 48.719 16.1679 49.1693 16.6182C49.3348 16.7837 49.5052 16.9393 49.6773 17.0809C50.452 17.7181 51.2712 18.1075 52.0986 18.3018C52.6502 18.4311 53.1261 18.4583 53.5295 18.4253L53.6851 18.4138C53.96 18.4138 54.2251 18.4097 54.4845 18.4039C59.7165 18.2862 62.7347 12.8936 60.7794 8.64546Z" fill="#C3D7F1"/>
<path d="M61.6651 34.8172L48.4011 40.502V35.7845C48.4011 35.0296 47.6289 34.52 46.9348 34.8172L32.4021 41.0454H29.4621V33.0241C29.4621 31.6418 28.3425 30.5229 26.9601 30.5229H23.5452C22.1629 30.5229 21.0432 31.6418 21.0432 33.0241V41.0454H17.8875H16.7604L14.7277 13.6109C14.6874 13.0617 14.2296 12.6361 13.6789 12.6361H7.36587C6.81427 12.6361 6.35652 13.0617 6.31618 13.6109L4.28429 41.0454H3.15721C2.62043 41.0454 2.17009 41.4488 2.11082 41.9814L0.00648768 60.9212C-0.0626686 61.5444 0.42471 62.0895 1.05206 62.0895H7.36341C7.36341 62.0895 7.36422 62.0895 7.36587 62.0895H13.6789C13.6797 62.0895 13.6797 62.0895 13.6805 62.0895H19.9918H32.6186H37.877C37.8786 62.0895 37.8786 62.0895 37.8794 62.0895H42.0881C42.0889 62.0895 42.0889 62.0895 42.0906 62.0895H47.3489H52.6081C52.6097 62.0895 52.6097 62.0895 52.6114 62.0895H56.8184C56.82 62.0895 56.8201 62.0895 56.8217 62.0895H62.0801C62.6613 62.0895 63.1322 61.6186 63.1322 61.0373V35.7845C63.1322 35.0288 62.36 34.5191 61.6651 34.8172ZM23.1483 33.0241C23.1483 32.8042 23.3253 32.6289 23.5452 32.6289H26.9601C27.18 32.6289 27.357 32.8051 27.357 33.0241V41.0454H23.1483V33.0241ZM22.0962 43.1497H28.4091H31.5657V59.9843H20.9329L19.0623 43.1497H22.0962ZM8.34312 14.7413H12.7016L14.6495 41.0454H6.39356L8.34312 14.7413ZM4.09907 43.1497H5.26154H15.7832H16.9465L17.7788 50.6383L18.8178 59.9851H14.7318V52.6208C14.7318 52.0396 14.2609 51.5686 13.6805 51.5686H7.36753C6.78546 51.5686 6.31452 52.0396 6.31452 52.6208V59.9851H2.22935L4.09907 43.1497ZM8.41805 59.9843V53.6713H12.6267V59.9843H8.41805ZM33.67 42.7907L46.2968 37.3801V42.0975V59.9843H43.1394V53.6721C43.1394 53.0901 42.6685 52.62 42.0881 52.62H37.8794C37.2982 52.62 36.8281 53.0909 36.8281 53.6721V59.9843H33.6716L33.67 42.7907ZM38.9308 59.9843V54.7235H41.0359V59.9843H38.9308ZM55.7662 59.9843H53.6619V54.7235H55.7662V59.9843ZM61.0271 59.9843H57.8706V53.6713C57.8706 53.0901 57.3996 52.62 56.8184 52.62H52.6114C52.0302 52.62 51.5584 53.0901 51.5584 53.6713V59.9843H48.4019V42.7907L61.0279 37.3801V59.9843H61.0271Z" fill="url(#paint0_linear)"/>
<path d="M11.9565 10.4601C12.0281 10.4329 12.1722 10.3794 12.3756 10.3094C12.7205 10.1917 13.1017 10.0748 13.5068 9.96446C14.3408 9.73806 15.1591 9.57504 15.9099 9.50588C17.7747 9.33628 18.7684 9.72898 18.9586 10.7285C18.9759 10.917 19.0491 11.3616 19.1817 11.9222C19.4023 12.8567 19.7152 13.7911 20.1425 14.6728C21.4161 17.3033 23.4406 18.9482 26.3048 18.9482C27.4138 18.9778 28.5293 18.9408 29.6103 18.7852C31.0552 18.5794 32.202 18.2039 32.9043 17.5667C34.4768 19.1392 36.0073 20.1288 37.4727 20.6524C38.4887 21.0155 39.3465 21.1151 39.9944 21.0583C42.1144 21.0336 44.0706 20.1543 45.8744 18.721C46.4523 18.2607 46.9776 17.7717 47.4444 17.2794C49.2112 18.665 51.0512 19.0799 52.5735 18.9573C52.9415 18.9482 53.2033 18.9449 53.4569 18.9391C61.3284 18.7605 65.3575 9.35932 59.9074 3.71238C59.783 3.58395 59.6859 3.49093 59.6266 3.43741C58.9491 2.82735 57.8689 3.30733 57.8689 4.21789C57.8689 6.97262 57.2234 8.48171 56.2355 9.13705C55.772 9.44578 55.2821 9.5314 54.8985 9.49518C54.8837 9.49353 54.7124 9.47953 54.7124 9.47953C52.7406 9.47953 50.7211 7.67322 49.0226 5.01482C48.0273 3.45469 46.8335 2.17531 45.438 1.24088C43.9759 0.263632 42.8266 -0.0640335 42.0247 0.0100626C39.4503 0.0240585 37.3451 0.913196 35.7051 2.38194C35.4795 2.58447 35.2729 2.787 35.0844 2.98542C34.5945 2.30538 33.8675 1.80566 32.9759 1.48293C32.0761 1.15608 31.1902 1.054 30.5093 1.06141C28.0782 1.06141 26.0619 1.48705 24.4434 2.20414C23.7016 2.53181 23.145 2.87182 22.7605 3.16574H21.0423C17.3943 3.16574 14.6371 4.25412 12.6901 6.08182C11.4971 7.20067 10.8426 8.33682 10.5742 9.14858C10.2959 9.99328 11.1266 10.7828 11.9565 10.4601ZM21.044 5.27087H23.1483C23.4249 5.27087 23.69 5.16221 23.886 4.96792C24.0663 4.79091 24.5257 4.47063 25.2955 4.12814C26.6457 3.52961 28.3721 3.16574 30.5126 3.16574C30.9844 3.15997 31.6406 3.23654 32.258 3.45965C33.1925 3.79967 33.6691 4.3414 33.6691 5.27007C33.6691 6.38727 35.1807 6.73304 35.6681 5.72945C35.7101 5.64465 35.8146 5.46189 35.9875 5.21326C36.2856 4.78432 36.6593 4.35208 37.1096 3.95031C38.394 2.801 40.029 2.11439 42.0873 2.11439L42.2791 2.09628C42.2692 2.10122 42.4125 2.11438 42.6529 2.18353C43.0908 2.30785 43.6301 2.56473 44.2682 2.99037C45.4068 3.75109 46.4029 4.82053 47.2493 6.14768C49.2902 9.34286 51.7436 11.5468 54.6399 11.583C55.5242 11.667 56.4808 11.5007 57.4004 10.8907C58.5242 10.1439 59.3163 8.88759 59.7032 7.07553C61.6585 11.3237 58.6395 16.7163 53.4083 16.8348C53.1506 16.8406 52.8839 16.8447 52.6097 16.8447L52.4533 16.8562C52.0507 16.8892 51.5749 16.862 51.0224 16.7327C50.1942 16.5384 49.3767 16.149 48.602 15.5118C48.4291 15.3702 48.2586 15.2154 48.0932 15.0491C47.6428 14.5988 46.9002 14.6482 46.5125 15.1528C46.4318 15.2599 46.2605 15.464 46.0102 15.7341C45.5862 16.191 45.1005 16.6479 44.5662 17.0735C43.081 18.2541 41.5225 18.949 39.9837 18.949L39.8067 18.9638C39.456 18.9943 38.9028 18.9301 38.1808 18.6724C37.0166 18.2558 35.7496 17.4366 34.4142 16.1021L33.362 15.0499L31.2577 12.9448C30.8469 12.5339 30.18 12.5339 29.7692 12.9448C29.3584 13.3556 29.3584 14.0216 29.7692 14.4333L31.3911 16.0551C31.0881 16.2964 30.39 16.55 29.3131 16.7039C28.3688 16.8398 27.3603 16.8743 26.5049 16.8521C26.4291 16.8505 26.3748 16.848 26.3534 16.8471C24.3643 16.8463 22.9919 15.7308 22.0352 13.7565C21.6812 13.0271 21.4169 12.2351 21.2292 11.4414C21.1181 10.968 21.058 10.6058 21.0366 10.4164C20.5739 7.96632 18.5247 7.1554 15.7173 7.41309C15.1863 7.46166 14.6388 7.54645 14.0831 7.66335C15.6885 6.15509 17.9303 5.27087 21.044 5.27087Z" fill="url(#paint1_linear)"/>
<path d="M23.1484 56.8278C23.7296 56.8278 24.2005 56.3577 24.2005 55.7765V47.3592C24.2005 46.7771 23.7296 46.307 23.1484 46.307C22.5671 46.307 22.0962 46.7771 22.0962 47.3592V55.7765C22.0962 56.3577 22.5679 56.8278 23.1484 56.8278Z" fill="url(#paint2_linear)"/>
<path d="M28.4092 56.8278C28.9912 56.8278 29.4614 56.3577 29.4614 55.7765V47.3592C29.4614 46.7771 28.9904 46.307 28.4092 46.307C27.8279 46.307 27.357 46.7771 27.357 47.3592V55.7765C27.3578 56.3577 27.8279 56.8278 28.4092 56.8278Z" fill="url(#paint3_linear)"/>
<path d="M37.8794 49.4627H42.0881C42.6685 49.4627 43.1394 48.9918 43.1394 48.4113V44.2027C43.1394 43.6214 42.6685 43.1505 42.0881 43.1505H37.8794C37.2982 43.1505 36.8281 43.6214 36.8281 44.2027V48.4113C36.8273 48.9909 37.2982 49.4627 37.8794 49.4627ZM38.9308 45.254H41.0359V47.3592H38.9308V45.254Z" fill="url(#paint4_linear)"/>
<path d="M52.6106 49.4627H56.8177C57.3989 49.4627 57.8698 48.9918 57.8698 48.4113V44.2027C57.8698 43.6214 57.3989 43.1505 56.8177 43.1505H52.6106C52.0294 43.1505 51.5576 43.6214 51.5576 44.2027V48.4113C51.5576 48.9909 52.0294 49.4627 52.6106 49.4627ZM53.6628 45.254H55.7671V47.3592H53.6628V45.254Z" fill="url(#paint5_linear)"/>
<defs>
<linearGradient id="paint0_linear" x1="23.2836" y1="22.9389" x2="54.0129" y2="73.428" gradientUnits="userSpaceOnUse">
<stop stop-color="#F8981D"/>
<stop offset="1" stop-color="#F85F1D"/>
</linearGradient>
<linearGradient id="paint1_linear" x1="29.6579" y1="4.39024" x2="38.1186" y2="31.2049" gradientUnits="userSpaceOnUse">
<stop stop-color="#F8981D"/>
<stop offset="1" stop-color="#F85F1D"/>
</linearGradient>
<linearGradient id="paint2_linear" x1="22.8723" y1="48.4988" x2="26.4261" y2="49.4137" gradientUnits="userSpaceOnUse">
<stop stop-color="#F8981D"/>
<stop offset="1" stop-color="#F85F1D"/>
</linearGradient>
<linearGradient id="paint3_linear" x1="28.1331" y1="48.4988" x2="31.6869" y2="49.4137" gradientUnits="userSpaceOnUse">
<stop stop-color="#F8981D"/>
<stop offset="1" stop-color="#F85F1D"/>
</linearGradient>
<linearGradient id="paint4_linear" x1="39.1558" y1="44.4655" x2="43.4347" y2="49.972" gradientUnits="userSpaceOnUse">
<stop stop-color="#F8981D"/>
<stop offset="1" stop-color="#F85F1D"/>
</linearGradient>
<linearGradient id="paint5_linear" x1="53.8856" y1="44.4655" x2="58.1644" y2="49.9725" gradientUnits="userSpaceOnUse">
<stop stop-color="#F8981D"/>
<stop offset="1" stop-color="#F85F1D"/>
</linearGradient>
</defs>
</svg>
