<?xml version="1.0" encoding="iso-8859-1"?>
<!-- Generator: Adobe Illustrator 19.0.0, SVG Export Plug-In . SVG Version: 6.00 Build 0)  -->
<svg width="21" height="25" viewBox="0 0 21 25" fill="none" xmlns="http://www.w3.org/2000/svg">
<path d="M10.2616 24.178C10.0314 24.178 9.80021 24.0983 9.61304 23.9397C8.63011 23.1042 0 15.6215 0 10.2206C0 4.58536 4.60428 0 10.2616 0C15.9189 0 20.5232 4.58536 20.5232 10.2206C20.5232 15.6215 11.8961 23.1042 10.9102 23.9397C10.725 24.0993 10.4918 24.178 10.2616 24.178ZM10.2616 1.99406C5.70832 1.99406 2.00188 5.68409 2.00188 10.2206C2.00188 13.7222 7.46597 19.3464 10.2616 21.854C13.0572 19.3464 18.5213 13.7222 18.5213 10.2206C18.5213 5.68409 14.8159 1.99406 10.2616 1.99406Z" fill="#F8961D"/>
<path d="M10.2615 15.2057C7.50295 15.2057 5.25684 12.9693 5.25684 10.2205C5.25684 7.4717 7.50295 5.23535 10.2615 5.23535C13.0221 5.23535 15.2662 7.4717 15.2662 10.2205C15.2662 12.9693 13.0211 15.2057 10.2615 15.2057ZM10.2615 7.22942C8.60598 7.22942 7.25872 8.57143 7.25872 10.2205C7.25872 11.8696 8.60598 13.2116 10.2615 13.2116C11.9171 13.2116 13.2644 11.8696 13.2644 10.2205C13.2644 8.57143 11.9171 7.22942 10.2615 7.22942Z" fill="#F8961D"/>
</svg>