<?xml version="1.0" encoding="iso-8859-1"?>
<!-- Generator: Adobe Illustrator 19.0.0, SVG Export Plug-In . SVG Version: 6.00 Build 0)  -->
<svg width="70" height="70" viewBox="0 0 70 70" fill="none" xmlns="http://www.w3.org/2000/svg">
<path d="M21.5652 49.6146L19.6255 51.5551L21.4046 53.3351L23.3451 51.3946C22.7079 50.8463 22.1135 50.251 21.5652 49.6146Z" fill="#C3D7F1"/>
<path d="M5.07468 62.7379C4.38641 63.4262 4.00854 64.3401 4.00854 65.3115C4.00854 67.3179 5.64109 68.9505 7.64827 68.9505C8.62057 68.9505 9.53363 68.5734 10.2219 67.8851L21.501 56.6053L16.3538 51.4589L5.07468 62.7379Z" fill="#C3D7F1"/>
<path d="M51.1452 38.6484C51.1452 40.6094 50.7903 42.4849 50.1721 44.236C61.3861 43.9932 69.102 40.5955 69.102 37.5262V32.5593C66.0764 35.1288 60.0046 37.1656 51.0859 37.4735C51.1123 37.8638 51.1452 38.2524 51.1452 38.6484Z" fill="#C3D7F1"/>
<path d="M34.3114 24.059C26.2662 24.059 19.721 30.6049 19.721 38.6493C19.721 46.6937 26.2654 53.2396 34.3114 53.2396C42.3557 53.2396 48.9017 46.6945 48.9017 38.6493C48.9017 30.6041 42.3557 24.059 34.3114 24.059Z" fill="#C3D7F1"/>
<path d="M28.699 14.6768V22.796C30.4584 22.1728 32.3412 21.8147 34.3114 21.8147C38.6567 21.8147 42.6109 23.4843 45.6011 26.1987C46.6895 26.2613 47.7944 26.3041 48.9017 26.3041C60.8056 26.3041 69.1027 22.7557 69.1027 19.5704V14.6768C65.216 17.8761 56.8777 19.5704 48.9017 19.5704C40.9232 19.5704 32.5857 17.8761 28.699 14.6768Z" fill="#C3D7F1"/>
<path d="M47.7179 28.5105C49.2031 30.4691 50.2832 32.7496 50.7978 35.2409C61.6273 34.8803 69.102 31.4941 69.102 28.5492V23.6555C65.2152 26.8548 56.8769 28.5492 48.9009 28.5492C48.5041 28.5483 48.1147 28.5179 47.7179 28.5105Z" fill="#C3D7F1"/>
<path d="M47.1374 0C36.2552 0 24.6904 3.14662 24.6904 8.9788V22.1588C19.3564 24.9868 15.7125 30.591 15.7125 37.0357C15.7125 40.412 16.721 43.552 18.4384 46.1907L16.274 48.3551L14.5903 46.6723L1.72396 59.5378C0.611699 60.6501 0 62.1271 0 63.6987C0 66.9433 2.64027 69.5828 5.88403 69.5828C7.45569 69.5828 8.93353 68.9711 10.0441 67.8588L22.9105 54.9925L21.2269 53.3088L23.3921 51.1444C26.0308 52.8618 29.1716 53.8711 32.5471 53.8711C38.9935 53.8711 44.5984 50.224 47.4248 44.8899C58.2206 44.8347 69.5828 41.6939 69.5828 35.9135V8.9788C69.5836 3.14662 58.018 0 47.1374 0ZM8.45847 66.2715C7.7702 66.959 6.85719 67.3369 5.88488 67.3369C3.8777 67.3369 2.2451 65.7043 2.2451 63.6979C2.2451 62.7264 2.62298 61.8118 3.31125 61.1243L14.5903 49.8452L19.7375 54.9916L8.45847 66.2715ZM19.6404 51.7215L17.8613 49.9416L19.801 48.0011C20.3493 48.6375 20.9445 49.2327 21.5809 49.781L19.6404 51.7215ZM32.5471 51.6252C24.5019 51.6252 17.9567 45.0801 17.9567 37.0349C17.9567 28.9905 24.5011 22.4445 32.5471 22.4445C40.5915 22.4445 47.1374 28.9905 47.1374 37.0349C47.1374 45.0801 40.5915 51.6252 32.5471 51.6252ZM67.3385 35.9135C67.3385 38.9828 59.6226 42.3805 48.4086 42.6234C49.0269 40.8722 49.3817 38.9968 49.3817 37.0357C49.3817 36.6397 49.3488 36.2511 49.3233 35.8617C58.242 35.5538 64.3138 33.5161 67.3393 30.9475V35.9135H67.3385ZM67.3385 26.9347C67.3385 29.8805 59.8639 33.2658 49.0343 33.6264C48.5198 31.1352 47.4388 28.8547 45.9544 26.8961C46.3504 26.9043 46.7406 26.9347 47.1383 26.9347C55.1143 26.9347 63.4526 25.2404 67.3393 22.0411V26.9347H67.3385ZM67.3385 17.9568C67.3385 21.1421 59.0414 24.6905 47.1374 24.6905C46.0301 24.6905 44.9252 24.6476 43.8369 24.5851C40.8467 21.8715 36.8924 20.2011 32.5471 20.2011C30.5762 20.2011 28.6933 20.5592 26.9347 21.1824V13.0631C30.8223 16.2624 39.1598 17.9568 47.1374 17.9568C55.1135 17.9568 63.4517 16.2624 67.3385 13.0631V17.9568ZM47.1374 15.7117C35.2319 15.7117 26.9347 12.1633 26.9347 8.9788C26.9347 5.79349 35.2319 2.24429 47.1374 2.24429C59.0414 2.24429 67.3385 5.79349 67.3385 8.9788C67.3385 12.1633 59.0414 15.7117 47.1374 15.7117Z" fill="url(#paint0_linear)"/>
<path d="M47.1375 4.48865C45.5288 4.48865 31.4242 4.61461 31.4242 8.97886C31.4242 13.3415 45.5288 13.4674 47.1375 13.4674C48.7453 13.4674 62.8491 13.3415 62.8491 8.97886C62.8491 4.61461 48.7453 4.48865 47.1375 4.48865ZM47.1375 11.2223C39.3598 11.2223 34.5354 9.83837 33.7302 8.97804C34.5362 8.1177 39.3598 6.73293 47.1375 6.73293C54.9126 6.73293 59.7379 8.1177 60.5431 8.97804C59.7379 9.8392 54.9126 11.2223 47.1375 11.2223Z" fill="url(#paint1_linear)"/>
<path d="M32.5472 24.6897C25.7395 24.6897 20.202 30.2288 20.202 37.0349C20.202 43.8411 25.7403 49.3802 32.5472 49.3802C39.3542 49.3802 44.8916 43.8411 44.8916 37.0349C44.8916 30.2288 39.355 24.6897 32.5472 24.6897ZM32.5472 47.1367C26.9777 47.1367 22.4455 42.6045 22.4455 37.0358C22.4455 34.6392 23.2885 32.436 24.6906 30.7014V35.9136C24.6906 39.9082 30.4207 43.1396 39.4612 44.3778C37.6541 46.0829 35.2237 47.1367 32.5472 47.1367ZM42.6482 37.0349C42.6482 38.973 42.09 40.7776 41.1399 42.318C31.9166 41.3053 26.9349 38.3003 26.9349 35.9128V30.987C29.8724 33.4289 35.4971 35.1743 42.5535 35.7276C42.6095 36.1573 42.6482 36.5904 42.6482 37.0349ZM27.465 28.3221C28.9593 27.4452 30.6932 26.9348 32.548 26.9348C36.8464 26.9348 40.5158 29.6385 41.9706 33.4306C34.1304 32.7044 29.0342 30.4815 27.465 28.3221Z" fill="url(#paint2_linear)"/>
<defs>
<linearGradient id="paint0_linear" x1="25.6627" y1="14.4964" x2="72.8308" y2="75.2034" gradientUnits="userSpaceOnUse">
<stop stop-color="#F8981D"/>
<stop offset="1" stop-color="#F85F1D"/>
</linearGradient>
<linearGradient id="paint1_linear" x1="43.0139" y1="6.35923" x2="45.6718" y2="18.3317" gradientUnits="userSpaceOnUse">
<stop stop-color="#F8981D"/>
<stop offset="1" stop-color="#F85F1D"/>
</linearGradient>
<linearGradient id="paint2_linear" x1="29.3077" y1="29.8335" x2="46.0448" y2="51.374" gradientUnits="userSpaceOnUse">
<stop stop-color="#F8981D"/>
<stop offset="1" stop-color="#F85F1D"/>
</linearGradient>
</defs>
</svg>
