<?xml version="1.0" encoding="iso-8859-1"?>
<!-- Generator: Adobe Illustrator 19.0.0, SVG Export Plug-In . SVG Version: 6.00 Build 0)  -->
<svg width="62" height="62" viewBox="0 0 62 62" fill="none" xmlns="http://www.w3.org/2000/svg">
<path d="M41.0624 38.3562H29.2968V39.769C29.2968 40.4177 28.7691 40.9454 28.1203 40.9454C27.4716 40.9454 26.9439 40.4177 26.9439 39.769V29.4152C26.9439 28.6916 26.6623 28.0124 26.151 27.5019C25.6398 26.9907 24.9605 26.7091 24.2377 26.7091C23.4589 26.7091 22.8258 27.343 22.8258 28.121C22.8258 31.6818 22.2544 35.2013 21.1281 38.5809L20.7675 39.6652C20.253 41.2048 18.818 42.2396 17.1953 42.2396H15.0605V44.2987V44.9458V59.2998H17.2315C18.72 59.2998 20.127 59.8844 21.1932 60.9456C21.8049 61.5532 22.6166 61.8891 23.4803 61.8891H41.0633C41.8421 61.8891 42.476 61.2552 42.476 60.4771V59.1838C42.476 58.4049 41.8421 57.771 41.0633 57.771H32.0038C31.355 57.771 30.8273 57.2433 30.8273 56.5945C30.8273 55.9458 31.355 55.418 32.0038 55.418H41.0633C41.8421 55.418 42.476 54.7841 42.476 54.0053V52.7119C42.476 51.9339 41.8421 51.2999 41.0633 51.2999H32.0038C31.355 51.2999 30.8273 50.7714 30.8273 50.1226C30.8273 49.4739 31.355 48.9462 32.0038 48.9462H41.0633C41.8421 48.9462 42.476 48.3122 42.476 47.5342V46.24C42.476 45.4612 41.8421 44.8272 41.0633 44.8272H32.0038C31.355 44.8272 30.8273 44.2995 30.8273 43.6508C30.8273 43.002 31.355 42.4743 32.0038 42.4743H41.0633C41.8421 42.4743 42.476 41.8403 42.476 41.0615V39.7681C42.4752 38.9901 41.8413 38.3562 41.0624 38.3562Z" fill="#C3D7F1"/>
<path d="M60.9901 26.1106L55.2691 24.9662C54.8327 24.8797 54.4869 24.5587 54.3667 24.1297C53.9987 22.8116 53.4718 21.5413 52.8017 20.3525C52.5827 19.9639 52.6008 19.493 52.8478 19.1225L56.0841 14.2667C56.3789 13.8254 56.3204 13.2327 55.945 12.8564L53.7377 10.6492C53.3722 10.2836 52.7597 10.2235 52.3274 10.51L47.4725 13.7464C47.1119 13.9876 46.622 14.0066 46.2425 13.7925C45.0512 13.1223 43.7809 12.5962 42.4653 12.2291C42.0363 12.108 41.7152 11.7623 41.6288 11.3259L40.4844 5.60488C40.3807 5.08456 39.9188 4.70667 39.3878 4.70667H36.2667C35.7349 4.70667 35.2738 5.08456 35.1701 5.60488L34.0257 11.3259C33.9384 11.7623 33.6182 12.1081 33.1893 12.2283C31.8745 12.5954 30.6033 13.1223 29.4112 13.7925C29.0333 14.0074 28.5434 13.9884 28.1804 13.7464L23.3262 10.51C22.8948 10.2211 22.2807 10.2828 21.9159 10.6492L19.7087 12.8564C19.3333 13.2327 19.2748 13.8262 19.5696 14.2667L22.8059 19.1225C23.0529 19.4921 23.071 19.963 22.8528 20.3516C22.1819 21.5413 21.655 22.8116 21.287 24.1297C21.1668 24.5587 20.821 24.8789 20.3846 24.9662L14.6636 26.1106C14.1433 26.2143 13.7654 26.6762 13.7654 27.2072V30.3274C13.7654 30.8593 14.1433 31.3203 14.6636 31.4241L20.1525 32.4984C20.3608 31.0519 20.4719 29.5906 20.4719 28.1202C20.4719 26.0447 22.1613 24.3561 24.2368 24.3561C24.5999 24.3561 24.9564 24.3973 25.303 24.4714C25.4948 23.9091 25.7278 23.3706 25.9863 22.847C25.9995 22.6857 26.0415 22.5268 26.1221 22.3802C27.9087 19.1118 30.8989 16.8016 34.4472 15.8795C34.4637 15.8746 34.4761 15.8622 34.4925 15.8581C34.7107 15.803 34.9297 15.7733 35.1479 15.7297C35.3562 15.6861 35.5595 15.6284 35.7711 15.5955C35.818 15.5881 35.8649 15.5856 35.9111 15.579C36.023 15.5617 36.1342 15.5535 36.2461 15.5395C36.6043 15.4959 36.9624 15.4671 37.3205 15.4531C37.4193 15.4498 37.5181 15.4399 37.6161 15.4374C37.6647 15.4366 37.7132 15.4366 37.7618 15.4358C37.7956 15.4358 37.8301 15.4317 37.8639 15.4317C37.9676 15.4317 38.0705 15.4424 38.1743 15.4448C38.4237 15.4489 38.6715 15.4564 38.9202 15.4745C38.9515 15.4769 38.9811 15.4811 39.0116 15.4844C39.0206 15.4852 39.0289 15.486 39.0379 15.4868C39.0544 15.4885 39.0708 15.4901 39.0881 15.4918C40.738 15.6383 42.3599 16.0886 43.8879 16.8535C43.9389 16.879 43.9743 16.9243 44.0204 16.9564C44.656 17.2923 45.2694 17.6817 45.8556 18.1238C45.8786 18.1411 45.8901 18.1683 45.9124 18.1872C45.9527 18.2185 45.998 18.2424 46.0383 18.2745C46.5916 18.7067 47.1119 19.1834 47.5861 19.6922C47.9467 20.0783 48.2727 20.4883 48.5815 20.909C48.5988 20.9288 48.6243 20.9395 48.6399 20.9609C48.691 21.0317 48.7297 21.1082 48.7791 21.179C48.9791 21.4664 49.166 21.7603 49.3414 22.0608C49.4394 22.2279 49.5316 22.3975 49.6213 22.5688C49.7695 22.8512 49.9094 23.1368 50.0362 23.4299C50.1186 23.6185 50.1951 23.8095 50.2684 24.0013C50.3573 24.2359 50.4372 24.4739 50.5129 24.7143C50.6142 25.0337 50.7023 25.3564 50.7797 25.6857C50.8348 25.922 50.8908 26.1583 50.9336 26.3987C50.9525 26.5049 50.9847 26.6062 51.0019 26.7132C51.0258 26.868 51.0283 27.0203 51.0472 27.1742C51.0555 27.2393 51.0686 27.3035 51.076 27.3685C51.0777 27.3858 51.0703 27.4015 51.0719 27.4188C51.4745 31.3162 50.191 35.1371 47.4552 37.9955C47.363 38.0919 47.2543 38.166 47.1391 38.2253C46.445 38.9028 45.6753 39.5154 44.8281 40.0423V41.064C44.8281 41.3513 44.7869 41.6296 44.7252 41.9012L52.3274 47.0262C52.7589 47.3136 53.3722 47.2526 53.7377 46.8871L55.945 44.679C56.3212 44.3036 56.3797 43.7108 56.0841 43.2695L52.8478 38.4146C52.6008 38.0441 52.5827 37.5732 52.8017 37.1846C53.4718 35.995 53.9987 34.7246 54.3667 33.4074C54.4869 32.9792 54.8319 32.659 55.2691 32.5701L60.9901 31.4257C61.5104 31.322 61.8883 30.8601 61.8883 30.3291V27.2088C61.8883 26.6761 61.5104 26.2143 60.9901 26.1106Z" fill="#C3D7F1"/>
<path d="M48.7232 29.7807C48.892 28.0535 48.659 26.3641 48.0382 24.7595C47.9839 24.6195 47.9287 24.4796 47.8686 24.3421C47.7805 24.142 47.6842 23.9461 47.5837 23.751C47.4833 23.555 47.3771 23.3607 47.2643 23.1714C47.1359 22.9549 47.0017 22.7416 46.8568 22.5333C46.5563 22.1003 46.2278 21.6837 45.8631 21.2926C45.472 20.8744 45.0423 20.4825 44.587 20.1252C43.9119 19.5958 43.1899 19.1546 42.4341 18.803C42.4308 18.8014 42.4275 18.7997 42.4242 18.7981C41.6857 18.4539 40.9143 18.1987 40.1239 18.0291C40.0844 18.0201 40.0441 18.0118 40.0037 18.0044C39.6267 17.9279 39.2455 17.8694 38.861 17.8332C38.8511 17.8323 38.8412 17.8307 38.8305 17.8291C38.451 17.7945 38.0673 17.7846 37.6829 17.7904C37.6549 17.7904 37.6269 17.7928 37.5981 17.7936C37.4754 17.7969 37.3527 17.8085 37.2301 17.8151C37.058 17.8249 36.8859 17.8389 36.7139 17.857C36.4619 17.8859 36.2108 17.9188 35.9589 17.9649C35.3958 18.0686 34.8335 18.2185 34.2876 18.4095C31.0422 19.5456 28.5616 22.0723 27.4831 25.3441C27.4667 25.3935 27.4387 25.4346 27.4164 25.4807C27.5539 25.5927 27.6873 25.7096 27.8133 25.8372C28.7691 26.793 29.2952 28.0634 29.2952 29.4152V36.004H41.0608C42.346 36.004 43.4797 36.6527 44.1597 37.6382C46.7531 35.7924 48.4103 32.9743 48.7232 29.7807ZM42.0158 31.8258C41.1983 32.9463 39.9947 33.6815 38.6272 33.8947C38.3646 33.9367 38.0945 33.9573 37.8245 33.9573C35.2945 33.9565 33.0914 32.0695 32.7011 29.5683C32.2599 26.7412 34.2012 24.0836 37.0275 23.6423C37.2935 23.6003 37.5643 23.5797 37.8319 23.5797C40.361 23.5797 42.5633 25.4667 42.9536 27.9687C43.1668 29.3345 42.8334 30.7045 42.0158 31.8258Z" fill="#C3D7F1"/>
<path d="M59.0982 21.4508L54.0704 20.4448C53.7444 19.4296 53.3327 18.4359 52.8445 17.4867L55.689 13.2196C56.6037 11.8471 56.4209 10.0046 55.2551 8.83966L53.0487 6.63242C52.3942 5.97791 51.5215 5.61813 50.5912 5.61813C49.9037 5.61813 49.2385 5.81901 48.6688 6.19937L44.4025 9.04385C43.4541 8.55646 42.4604 8.14398 41.4444 7.81796L40.4384 2.79096C40.1148 1.17402 38.6839 0 37.0349 0H33.9138C32.2656 0 30.8339 1.17402 30.5103 2.79096L29.5043 7.81796C28.4883 8.14398 27.4938 8.55646 26.5462 9.04385L22.2791 6.19937C21.7094 5.81901 21.045 5.61813 20.3575 5.61813C19.4272 5.61813 18.5545 5.97873 17.9 6.63242L15.6936 8.83966C14.527 10.0054 14.345 11.8471 15.2605 13.2187L18.105 17.4867C17.6168 18.4351 17.2051 19.4288 16.8791 20.4448L11.8513 21.4508C10.2343 21.7744 9.06116 23.2053 9.06116 24.8543V27.9746C9.06116 29.6236 10.2343 31.0545 11.8513 31.378L15.1831 32.0449C15.8253 32.1692 16.4419 31.7452 16.5679 31.122C16.6947 30.4872 16.2806 29.8665 15.645 29.738L12.3123 29.0712C11.792 28.9674 11.4141 28.5056 11.4141 27.9746V24.8543C11.4141 24.3225 11.792 23.8614 12.3123 23.7577L18.0334 22.6133C18.4697 22.5269 18.8155 22.2058 18.9357 21.7768C19.3037 20.4588 19.8306 19.1884 20.5016 17.9988C20.7198 17.6102 20.7016 17.1393 20.4547 16.7696L17.2183 11.9138C16.9236 11.4734 16.982 10.8798 17.3574 10.5035L19.5647 8.29631C19.9294 7.92995 20.5428 7.8682 20.975 8.15717L25.8291 11.3935C26.1913 11.6356 26.6812 11.6537 27.0599 11.4396C28.252 10.7695 29.5232 10.2426 30.838 9.87538C31.2669 9.75518 31.5872 9.41021 31.6745 8.97305L32.8188 3.252C32.9226 2.73168 33.3836 2.35379 33.9155 2.35379H37.0365C37.5676 2.35379 38.0286 2.73168 38.1332 3.252L39.2775 8.97305C39.364 9.40857 39.6851 9.75434 40.114 9.87618C41.4296 10.2434 42.6999 10.7695 43.8912 11.4396C44.2708 11.6545 44.7606 11.6347 45.1212 11.3935L49.9762 8.15717C50.4084 7.87066 51.0209 7.93077 51.3865 8.29631L53.5937 10.5035C53.9691 10.8798 54.0276 11.4725 53.7329 11.9138L50.4965 16.7696C50.2495 17.1401 50.2314 17.611 50.4504 17.9996C51.1206 19.1884 51.6475 20.4588 52.0155 21.7768C52.1357 22.2058 52.4814 22.526 52.9178 22.6133L58.6388 23.7577C59.1592 23.8614 59.537 24.3233 59.537 24.8543V27.9746C59.537 28.5064 59.1592 28.9674 58.6388 29.0712L52.9178 30.2156C52.4814 30.3037 52.1357 30.6247 52.0155 31.0529C51.6475 32.3701 51.1206 33.6404 50.4504 34.8301C50.2314 35.2187 50.2495 35.6896 50.4965 36.0601L53.7329 40.915C54.0276 41.3563 53.9691 41.9491 53.5937 42.3245L51.3865 44.5326C51.0209 44.8981 50.4084 44.959 49.9762 44.6717L45.1212 41.4353C44.5976 41.0854 43.8369 41.2394 43.4903 41.7614C43.1305 42.3014 43.2771 43.0333 43.8163 43.3931L48.6713 46.6303C49.241 47.0098 49.9062 47.2107 50.5936 47.2107C51.524 47.2107 52.3967 46.8501 53.0512 46.1973L55.2584 43.9892C56.4242 42.8234 56.6061 40.9817 55.6915 39.6109L52.847 35.3438C53.3344 34.3971 53.746 33.4034 54.0729 32.3849L59.1007 31.3797C60.7176 31.0553 61.8908 29.6244 61.8908 27.9754V24.8543C61.8875 23.2053 60.7143 21.7744 59.0982 21.4508Z" fill="url(#paint0_linear)"/>
<path d="M38.7095 33.6504H29.65C29.0013 33.6504 28.4735 34.1789 28.4735 34.8277C28.4735 35.4756 29.0013 36.0033 29.65 36.0033H38.7095C39.4883 36.0033 40.1223 36.6373 40.1223 37.4161V38.7095C40.1223 39.4883 39.4883 40.1222 38.7095 40.1222H29.65C29.0013 40.1222 28.4735 40.65 28.4735 41.2987C28.4735 41.9475 29.0013 42.4752 29.65 42.4752H38.7095C39.4883 42.4752 40.1223 43.1091 40.1223 43.888V45.1822C40.1223 45.9602 39.4883 46.5941 38.7095 46.5941H29.65C29.0013 46.5941 28.4735 47.1219 28.4735 47.7706C28.4735 48.4194 29.0013 48.9479 29.65 48.9479H38.7095C39.4883 48.9479 40.1223 49.5818 40.1223 50.3599V51.6533C40.1223 52.4321 39.4883 53.066 38.7095 53.066H29.65C29.0013 53.066 28.4735 53.5937 28.4735 54.2425C28.4735 54.8912 29.0013 55.419 29.65 55.419H38.7095C39.4883 55.419 40.1223 56.0529 40.1223 56.8317V58.1251C40.1223 58.9031 39.4883 59.5371 38.7095 59.5371H21.1265C20.2629 59.5371 19.4511 59.202 18.8394 58.5936C17.7732 57.5324 16.3662 56.9478 14.8777 56.9478H12.7067V46.4772C12.7067 45.8285 12.179 45.3007 11.5311 45.3007C10.8823 45.3007 10.3538 45.8285 10.3538 46.4772V59.4193C10.3538 59.4844 10.3011 59.5371 10.236 59.5371H7.52987V46.4772C7.52987 45.8285 7.00214 45.3007 6.35339 45.3007C5.70464 45.3007 5.17691 45.8285 5.17691 46.4772V59.5371H2.47075C2.40571 59.5371 2.35302 59.4852 2.35302 59.4193V37.4169C2.35302 37.3519 2.40571 37.2992 2.47075 37.2992H10.236C10.3011 37.2992 10.3538 37.3511 10.3538 37.4169V42.5938C10.3538 43.2425 10.8823 43.7702 11.5311 43.7702C12.1798 43.7702 12.7067 43.2425 12.7067 42.5938V39.8876H14.8415C16.4642 39.8876 17.9 38.8527 18.4138 37.3132L18.7744 36.2289C19.9006 32.8493 20.472 29.3298 20.472 25.769C20.472 24.991 21.1051 24.3571 21.8839 24.3571C22.6068 24.3571 23.2868 24.6386 23.7972 25.1499C24.3085 25.6603 24.5901 26.3396 24.5901 27.0632V37.4169C24.5901 38.0657 25.1178 38.5934 25.7666 38.5934C26.4153 38.5934 26.943 38.0657 26.943 37.4169V27.0632C26.943 25.7114 26.417 24.441 25.4611 23.4852C24.5053 22.5302 23.2349 22.0033 21.8839 22.0033C19.8084 22.0033 18.119 23.6919 18.119 25.7674C18.119 29.077 17.588 32.3455 16.5416 35.4838L16.1802 36.5681C15.9883 37.1452 15.4499 37.5338 14.8415 37.5338H12.7067V37.4161C12.7067 36.0536 11.5986 34.9446 10.236 34.9446H2.47075C1.10821 34.9454 6.10352e-05 36.0544 6.10352e-05 37.4161V59.4185C6.10352e-05 60.7802 1.10821 61.8892 2.47075 61.8892H10.236C11.5986 61.8892 12.7067 60.7802 12.7067 59.4185V59.3008H14.8777C15.7405 59.3008 16.5581 59.6416 17.1796 60.2607C18.2359 61.3104 19.6372 61.8892 21.1265 61.8892H38.7095C40.785 61.8892 42.4744 60.1998 42.4744 58.1243V56.8301C42.4744 55.8693 42.0998 54.9382 41.4412 54.2417C42.1089 53.5394 42.4744 52.628 42.4744 51.6524V50.3582C42.4744 49.3826 42.1089 48.4721 41.4412 47.7698C42.0998 47.0725 42.4744 46.1413 42.4744 45.1814V43.8872C42.4744 42.9272 42.0998 41.9952 41.4412 41.2979C42.1089 40.5956 42.4744 39.6843 42.4744 38.7087V37.4153C42.4744 35.3398 40.7858 33.6504 38.7095 33.6504Z" fill="url(#paint1_linear)"/>
<path d="M35.4715 31.6036C35.7415 31.6036 36.0115 31.583 36.2742 31.541C37.6416 31.3278 38.8453 30.5934 39.6628 29.4721C40.4812 28.3516 40.8138 26.9817 40.6006 25.6142C40.2103 23.1122 38.008 21.2252 35.4789 21.2252C35.2113 21.2252 34.9404 21.2458 34.6745 21.2878C31.8482 21.7291 29.9068 24.3875 30.3481 27.2138C30.7384 29.7158 32.9407 31.6028 35.4715 31.6036ZM35.0368 23.6128C35.1817 23.5905 35.3282 23.579 35.4739 23.579C36.8579 23.579 38.0623 24.6106 38.2756 25.9773C38.3925 26.724 38.2097 27.4723 37.7627 28.0857C37.3156 28.699 36.6578 29.0992 35.9111 29.2161C35.7654 29.2383 35.618 29.2507 35.4715 29.2507C34.0892 29.2507 32.8855 28.2199 32.6723 26.8532C32.4319 25.3079 33.4923 23.854 35.0368 23.6128Z" fill="url(#paint2_linear)"/>
<path d="M44.2518 36.0033C44.5762 36.0033 44.8775 35.8748 45.1014 35.641C48.0019 32.6105 49.2944 28.499 48.649 24.3595C48.3205 22.256 47.526 20.3212 46.2861 18.6071C45.9198 18.1016 45.1517 17.9765 44.6429 18.3437C44.1176 18.7232 43.999 19.4601 44.3794 19.987C45.3986 21.3956 46.0531 22.9887 46.324 24.7217C46.8559 28.131 45.7913 31.518 43.4022 34.015C43.1848 34.2422 43.0687 34.5403 43.0761 34.8548C43.0835 35.1693 43.212 35.4615 43.4392 35.6797C43.659 35.8872 43.948 36.0033 44.2518 36.0033Z" fill="url(#paint3_linear)"/>
<path d="M43.7333 17.4159C43.9226 17.1656 44.0033 16.8561 43.9597 16.5448C43.916 16.2336 43.7539 15.9579 43.5027 15.7693C41.1671 14.0075 38.4041 13.0771 35.5111 13.0771C34.8162 13.0771 34.1123 13.1315 33.4183 13.2402C29.292 13.884 25.7749 16.358 23.7702 20.0257C23.6195 20.3015 23.5849 20.6193 23.673 20.9206C23.7611 21.222 23.962 21.4714 24.2386 21.6229C24.4123 21.7168 24.6066 21.767 24.8017 21.767C25.2331 21.767 25.6291 21.5323 25.835 21.1553C27.4873 18.133 30.3836 16.0962 33.7813 15.566C34.3535 15.477 34.9331 15.4309 35.5061 15.4309C37.8879 15.4309 40.1635 16.1982 42.0875 17.6481C42.2933 17.8028 42.5379 17.8844 42.7947 17.8844C43.1668 17.8844 43.5093 17.7131 43.7333 17.4159Z" fill="url(#paint4_linear)"/>
<defs>
<linearGradient id="paint0_linear" x1="28.5452" y1="9.83557" x2="59.4903" y2="54.4032" gradientUnits="userSpaceOnUse">
<stop stop-color="#F8981D"/>
<stop offset="1" stop-color="#F85F1D"/>
</linearGradient>
<linearGradient id="paint1_linear" x1="15.6649" y1="30.3129" x2="42.2367" y2="66.731" gradientUnits="userSpaceOnUse">
<stop stop-color="#F8981D"/>
<stop offset="1" stop-color="#F85F1D"/>
</linearGradient>
<linearGradient id="paint2_linear" x1="34.113" y1="23.3874" x2="41.1483" y2="32.4416" gradientUnits="userSpaceOnUse">
<stop stop-color="#F8981D"/>
<stop offset="1" stop-color="#F85F1D"/>
</linearGradient>
<linearGradient id="paint3_linear" x1="45.1913" y1="21.8552" x2="54.0146" y2="25.5001" gradientUnits="userSpaceOnUse">
<stop stop-color="#F8981D"/>
<stop offset="1" stop-color="#F85F1D"/>
</linearGradient>
<linearGradient id="paint4_linear" x1="31.129" y1="14.8875" x2="34.7635" y2="25.8397" gradientUnits="userSpaceOnUse">
<stop stop-color="#F8981D"/>
<stop offset="1" stop-color="#F85F1D"/>
</linearGradient>
</defs>
</svg>
