<?xml version="1.0" encoding="iso-8859-1"?>
<!-- Generator: Adobe Illustrator 19.0.0, SVG Export Plug-In . SVG Version: 6.00 Build 0)  -->
<svg width="68" height="62" viewBox="0 0 68 62" fill="none" xmlns="http://www.w3.org/2000/svg">
<path d="M35.9466 32.0416C36.605 32.0416 37.1387 31.5079 37.1387 30.8495C37.1387 30.1911 36.605 29.6573 35.9466 29.6573C35.2882 29.6573 34.7545 30.1911 34.7545 30.8495C34.7545 31.5079 35.2882 32.0416 35.9466 32.0416Z" fill="#C3D7F1"/>
<path d="M35.9466 38.4426C31.9133 38.4426 28.6317 41.7243 28.6317 45.7576C28.6317 49.7908 31.9133 53.0717 35.9466 53.0717C39.9799 53.0717 43.2615 49.7908 43.2615 45.7576C43.2615 41.7243 39.9799 38.4426 35.9466 38.4426ZM35.9466 51.2217C32.9333 51.2217 30.4824 48.7708 30.4824 45.7576C30.4824 42.7443 32.9333 40.2934 35.9466 40.2934C38.9598 40.2934 41.4108 42.7443 41.4108 45.7576C41.4108 48.7708 38.9598 51.2217 35.9466 51.2217Z" fill="#C3D7F1"/>
<path d="M35.9465 42.7031C34.2621 42.7031 32.8913 44.0739 32.8913 45.7584C32.8913 47.4428 34.2621 48.8136 35.9465 48.8136C37.631 48.8136 39.0018 47.4428 39.0018 45.7584C39.0018 44.0739 37.631 42.7031 35.9465 42.7031Z" fill="#C3D7F1"/>
<path d="M30.6281 53.8917V60.4714L35.4913 58.4865C35.7811 58.3679 36.1112 58.3679 36.4002 58.4865L41.2633 60.4714V53.8917C39.6785 54.9324 37.8483 55.4807 35.9457 55.4807C34.0431 55.4807 32.2129 54.9324 30.6281 53.8917Z" fill="#C3D7F1"/>
<path d="M66.0295 4.10083H5.8635C5.05997 4.10083 4.40628 4.75453 4.40628 5.55889V16.0287V18.8122V23.4547V27.2509V45.4925C4.40628 46.2969 5.05997 46.9514 5.8635 46.9514H26.2967C26.2473 46.5562 26.2235 46.1561 26.2235 45.7593C26.2235 45.3616 26.2481 44.9615 26.2967 44.5672H13.5843C12.9199 44.5672 12.3798 44.0271 12.3798 43.3627C12.3798 40.9439 10.4122 38.9762 7.99335 38.9762C7.32978 38.9762 6.7897 38.4361 6.7897 37.7726V13.2805C6.7897 12.6161 7.32978 12.076 7.99335 12.076C10.4122 12.076 12.3798 10.1084 12.3798 7.68956C12.3798 7.02599 12.9199 6.4859 13.5843 6.4859H58.3087C58.9731 6.4859 59.5132 7.02599 59.5132 7.68956C59.5132 10.1084 61.4808 12.076 63.8997 12.076C64.5632 12.076 65.1033 12.6161 65.1033 13.2805V37.7726C65.1033 38.4361 64.5632 38.9762 63.8997 38.9762C61.4808 38.9762 59.5132 40.9439 59.5132 43.3627C59.5132 44.0271 58.9731 44.5672 58.3087 44.5672H45.5963C45.6457 44.9615 45.6695 45.3608 45.6695 45.7585C45.6695 46.1561 45.6448 46.5562 45.5963 46.9506H66.0295C66.833 46.9506 67.4867 46.2969 67.4867 45.4925V5.5597C67.4867 4.75535 66.833 4.10083 66.0295 4.10083Z" fill="#C3D7F1"/>
<path d="M62.6952 36.6743V14.3771C59.9297 13.879 57.7102 11.6594 57.2121 8.89319H14.6817C14.1845 11.6586 11.9649 13.8782 9.19782 14.3771V36.6743C11.9641 37.1724 14.1837 39.3919 14.6817 42.1574H26.9167C28.3854 38.4888 31.9955 36.0346 35.9465 36.0346C39.8975 36.0346 43.5076 38.4888 44.9763 42.1574H57.2121C57.7093 39.3919 59.9289 37.1724 62.6952 36.6743ZM27.1612 12.8738H44.7326C45.3962 12.8738 45.9363 13.4139 45.9363 14.0774C45.9363 14.7418 45.3962 15.2819 44.7326 15.2819H27.1612C26.4976 15.2819 25.9575 14.7418 25.9575 14.0774C25.9567 13.4139 26.4968 12.8738 27.1612 12.8738ZM25.2981 32.054H20.5057C19.8421 32.054 19.302 31.5139 19.302 30.8495C19.302 30.1859 19.8421 29.6458 20.5057 29.6458H25.2981C25.9616 29.6458 26.5017 30.1859 26.5017 30.8495C26.5017 31.5139 25.9616 32.054 25.2981 32.054ZM35.9465 34.4497C33.9615 34.4497 32.3462 32.8353 32.3462 30.8495C32.3462 28.8645 33.9607 27.2501 35.9465 27.2501C37.9323 27.2501 39.5467 28.8645 39.5467 30.8495C39.5459 32.8344 37.9314 34.4497 35.9465 34.4497ZM51.3873 32.054H46.5949C45.9314 32.054 45.3913 31.5139 45.3913 30.8495C45.3913 30.1859 45.9314 29.6458 46.5949 29.6458H51.3873C52.0509 29.6458 52.5909 30.1859 52.5909 30.8495C52.5909 31.5139 52.0509 32.054 51.3873 32.054ZM51.3873 25.9312H20.5057C19.8421 25.9312 19.302 25.3911 19.302 24.7267C19.302 24.0623 19.8421 23.5222 20.5057 23.5222H51.3873C52.0509 23.5222 52.5909 24.0623 52.5909 24.7267C52.5909 25.3911 52.0509 25.9312 51.3873 25.9312ZM51.3873 20.6061H20.5057C19.8421 20.6061 19.302 20.0661 19.302 19.4025C19.302 18.7381 19.8421 18.198 20.5057 18.198H51.3873C52.0509 18.198 52.5909 18.7381 52.5909 19.4025C52.5909 20.0661 52.0509 20.6061 51.3873 20.6061Z" fill="#C3D7F1"/>
<path d="M64.0322 0H3.86617C1.73467 0 0 1.73385 0 3.86617V17.1195C0 17.7839 0.540076 18.3239 1.20447 18.3239C1.86887 18.3239 2.40895 17.7839 2.40895 17.1195V3.86617C2.40895 3.06264 3.06264 2.40811 3.86617 2.40811H64.0322C64.8357 2.40811 65.4894 3.06181 65.4894 3.86617V43.799C65.4894 44.6034 64.8357 45.257 64.0322 45.257H43.5989C43.6483 44.8627 43.6722 44.4626 43.6722 44.0649C43.6722 43.6673 43.6475 43.268 43.5989 42.8736H56.3114C56.9757 42.8736 57.5158 42.3335 57.5158 41.6691C57.5158 39.2503 59.4835 37.2827 61.9023 37.2827C62.5659 37.2827 63.106 36.7426 63.106 36.079V19.097C63.106 18.4326 62.5659 17.8926 61.9023 17.8926C61.2379 17.8926 60.6978 18.4326 60.6978 19.097V34.9824C57.9316 35.4805 55.712 37.7001 55.2147 40.4655H42.979C41.5103 36.7969 37.9001 34.3427 33.9492 34.3427C29.9982 34.3427 26.3873 36.7969 24.9193 40.4655H12.6844C12.1872 37.7001 9.96757 35.4805 7.20049 34.9824V12.6852C9.96675 12.1871 12.1863 9.96756 12.6844 7.20131H55.2147C55.7128 9.96674 57.9324 12.1863 60.6978 12.6852V14.4413C60.6978 15.1057 61.2379 15.6458 61.9023 15.6458C62.5659 15.6458 63.106 15.1057 63.106 14.4413V11.5886C63.106 10.9242 62.5659 10.3841 61.9023 10.3841C59.4835 10.3841 57.5158 8.41648 57.5158 5.99765C57.5158 5.33408 56.9757 4.79401 56.3114 4.79401H11.587C10.9226 4.79401 10.3825 5.33408 10.3825 5.99765C10.3825 8.41648 8.41485 10.3841 5.99602 10.3841C5.33245 10.3841 4.79237 10.9242 4.79237 11.5886V36.0807C4.79237 36.7442 5.33245 37.2843 5.99602 37.2843C8.41485 37.2843 10.3825 39.252 10.3825 41.6708C10.3825 42.3352 10.9226 42.8753 11.587 42.8753H24.2994C24.25 43.2696 24.2261 43.6698 24.2261 44.0674C24.2261 44.4642 24.2508 44.8643 24.2994 45.2595H3.86617C3.06264 45.2595 2.40895 44.605 2.40895 43.8006V21.762C2.40895 21.0976 1.86887 20.5575 1.20447 20.5575C0.540076 20.5575 0 21.0976 0 21.762V43.7998C0 45.9313 1.73385 47.666 3.86617 47.666H24.9193C25.2462 48.4843 25.6842 49.2549 26.2226 49.958V60.5719C26.2226 60.9745 26.4218 61.3482 26.7553 61.5713C27.0846 61.7928 27.5152 61.8365 27.8815 61.6866L33.9492 59.2102L40.0168 61.6866C40.1617 61.7459 40.3148 61.7755 40.4713 61.7755C40.7117 61.7755 40.9438 61.7047 41.1423 61.5705C41.4757 61.3466 41.6749 60.9728 41.6749 60.5711V57.7159C41.6749 57.0515 41.1348 56.5114 40.4713 56.5114C39.8069 56.5114 39.2668 57.0515 39.2668 57.7159V58.7788L34.4036 56.7938C34.1138 56.6752 33.7837 56.6752 33.4947 56.7938L28.6315 58.7788V52.199C30.2164 53.2397 32.0466 53.788 33.9492 53.788C35.8518 53.788 37.682 53.2397 39.2668 52.199V53.0503C39.2668 53.7147 39.8069 54.2548 40.4713 54.2548C41.1348 54.2548 41.6749 53.7147 41.6749 53.0503V49.9572C42.2133 49.2533 42.6522 48.4827 42.9782 47.6652H64.0313C66.1628 47.6652 67.8975 45.9313 67.8975 43.799V3.86617C67.8983 1.73467 66.1645 0 64.0322 0ZM33.9492 51.3798C29.9159 51.3798 26.6342 48.099 26.6342 44.0657C26.6342 40.0324 29.9159 36.7508 33.9492 36.7508C37.9825 36.7508 41.2641 40.0324 41.2641 44.0657C41.2641 48.099 37.9825 51.3798 33.9492 51.3798Z" fill="url(#paint0_linear)"/>
<path d="M42.7353 13.59C43.3989 13.59 43.939 13.0499 43.939 12.3855C43.939 11.722 43.3989 11.1819 42.7353 11.1819H25.1639C24.5003 11.1819 23.9602 11.722 23.9602 12.3855C23.9602 13.0499 24.5003 13.59 25.1639 13.59H42.7353Z" fill="url(#paint1_linear)"/>
<path d="M49.39 16.5052H18.5084C17.8448 16.5052 17.3048 17.0453 17.3048 17.7097C17.3048 18.3733 17.8448 18.9134 18.5084 18.9134H49.39C50.0536 18.9134 50.5937 18.3733 50.5937 17.7097C50.5937 17.0462 50.0536 16.5052 49.39 16.5052Z" fill="url(#paint2_linear)"/>
<path d="M49.39 21.8303H18.5084C17.8448 21.8303 17.3048 22.3704 17.3048 23.0348C17.3048 23.6992 17.8448 24.2393 18.5084 24.2393H49.39C50.0536 24.2393 50.5937 23.6992 50.5937 23.0348C50.5937 22.3704 50.0536 21.8303 49.39 21.8303Z" fill="url(#paint3_linear)"/>
<path d="M49.39 27.9531H44.5976C43.934 27.9531 43.394 28.4932 43.394 29.1568C43.394 29.8212 43.934 30.3612 44.5976 30.3612H49.39C50.0535 30.3612 50.5936 29.8212 50.5936 29.1568C50.5936 28.4932 50.0535 27.9531 49.39 27.9531Z" fill="url(#paint4_linear)"/>
<path d="M18.5084 27.9531C17.8448 27.9531 17.3048 28.4932 17.3048 29.1568C17.3048 29.8212 17.8448 30.3612 18.5084 30.3612H23.3008C23.9643 30.3612 24.5044 29.8212 24.5044 29.1568C24.5044 28.4932 23.9643 27.9531 23.3008 27.9531H18.5084Z" fill="url(#paint5_linear)"/>
<path d="M33.9492 38.6016C30.9359 38.6016 28.485 41.0525 28.485 44.0657C28.485 47.079 30.9359 49.5299 33.9492 49.5299C36.9624 49.5299 39.4133 47.079 39.4133 44.0657C39.4133 41.0525 36.9624 38.6016 33.9492 38.6016ZM33.9492 47.121C32.2647 47.121 30.8939 45.7502 30.8939 44.0657C30.8939 42.3813 32.2647 41.0105 33.9492 41.0105C35.6336 41.0105 37.0044 42.3813 37.0044 44.0657C37.0044 45.7502 35.6336 47.121 33.9492 47.121Z" fill="url(#paint6_linear)"/>
<path d="M30.3498 29.1568C30.3498 31.1417 31.9642 32.757 33.95 32.757C35.9358 32.757 37.5503 31.1426 37.5503 29.1568C37.5503 27.1718 35.9358 25.5574 33.95 25.5574C31.9642 25.5574 30.3498 27.1727 30.3498 29.1568ZM33.9492 30.3497C33.2922 30.3497 32.7571 29.8146 32.7571 29.1576C32.7571 28.5006 33.2914 27.9655 33.9492 27.9655C34.607 27.9655 35.1413 28.5006 35.1413 29.1576C35.1413 29.8146 34.6062 30.3497 33.9492 30.3497Z" fill="url(#paint7_linear)"/>
<defs>
<linearGradient id="paint0_linear" x1="25.0411" y1="12.8699" x2="65.7822" y2="70.5014" gradientUnits="userSpaceOnUse">
<stop stop-color="#F8981D"/>
<stop offset="1" stop-color="#F85F1D"/>
</linearGradient>
<linearGradient id="paint1_linear" x1="31.3285" y1="11.6836" x2="31.6413" y2="15.0236" gradientUnits="userSpaceOnUse">
<stop stop-color="#F8981D"/>
<stop offset="1" stop-color="#F85F1D"/>
</linearGradient>
<linearGradient id="paint2_linear" x1="29.582" y1="17.0069" x2="29.7707" y2="20.3656" gradientUnits="userSpaceOnUse">
<stop stop-color="#F8981D"/>
<stop offset="1" stop-color="#F85F1D"/>
</linearGradient>
<linearGradient id="paint3_linear" x1="29.582" y1="22.3322" x2="29.7709" y2="25.692" gradientUnits="userSpaceOnUse">
<stop stop-color="#F8981D"/>
<stop offset="1" stop-color="#F85F1D"/>
</linearGradient>
<linearGradient id="paint4_linear" x1="46.0492" y1="28.4548" x2="46.8695" y2="31.6109" gradientUnits="userSpaceOnUse">
<stop stop-color="#F8981D"/>
<stop offset="1" stop-color="#F85F1D"/>
</linearGradient>
<linearGradient id="paint5_linear" x1="19.9601" y1="28.4548" x2="20.7803" y2="31.6109" gradientUnits="userSpaceOnUse">
<stop stop-color="#F8981D"/>
<stop offset="1" stop-color="#F85F1D"/>
</linearGradient>
<linearGradient id="paint6_linear" x1="32.5155" y1="40.8783" x2="39.9235" y2="50.4127" gradientUnits="userSpaceOnUse">
<stop stop-color="#F8981D"/>
<stop offset="1" stop-color="#F85F1D"/>
</linearGradient>
<linearGradient id="paint7_linear" x1="33.0054" y1="27.0573" x2="37.8857" y2="33.3391" gradientUnits="userSpaceOnUse">
<stop stop-color="#F8981D"/>
<stop offset="1" stop-color="#F85F1D"/>
</linearGradient>
</defs>
</svg>
