<?xml version="1.0" encoding="iso-8859-1"?>
<!-- Generator: Adobe Illustrator 19.0.0, SVG Export Plug-In . SVG Version: 6.00 Build 0)  -->
<svg width="24" height="19" viewBox="0 0 24 19" fill="none" xmlns="http://www.w3.org/2000/svg">
<path d="M17.5634 18.9957H6.43912C5.99971 18.9957 5.64453 18.6419 5.64453 18.2042V0.791487C5.64453 0.353795 5.99971 0 6.43912 0H17.5634C18.0028 0 18.3579 0.353795 18.3579 0.791487V18.2042C18.3579 18.6419 18.002 18.9957 17.5634 18.9957ZM7.23371 17.4127H16.7688V1.58297H7.23371V17.4127Z" fill="white"/>
<path d="M15.9743 13.8503H8.02834C7.80824 13.8503 7.63104 13.673 7.63104 13.4545V3.43032C7.63104 3.21187 7.80824 3.03458 8.02834 3.03458H15.9743C16.1928 3.03458 16.3716 3.21187 16.3716 3.43032V13.4545C16.3716 13.673 16.1928 13.8503 15.9743 13.8503ZM8.42563 13.0588H15.577V3.82607H8.42563V13.0588Z" fill="white"/>
<path d="M12.0012 16.5556C12.5225 16.5556 12.9451 16.1346 12.9451 15.6152C12.9451 15.0959 12.5225 14.675 12.0012 14.675C11.4799 14.675 11.0573 15.0959 11.0573 15.6152C11.0573 16.1346 11.4799 16.5556 12.0012 16.5556Z" fill="white"/>
<path d="M21.1231 15.5885C20.9197 15.5885 20.7163 15.5109 20.5614 15.3566C20.2507 15.0471 20.2507 14.5469 20.5614 14.2374C23.0286 11.7799 23.0286 7.77963 20.5597 5.32048C20.249 5.01101 20.249 4.51078 20.5597 4.20131C20.8704 3.89184 21.3727 3.89184 21.6834 4.20131C24.772 7.27703 24.7719 12.2809 21.6849 15.3566C21.53 15.5109 21.3265 15.5885 21.1231 15.5885Z" fill="white"/>
<path d="M19.6443 14.114C19.4409 14.114 19.2375 14.0364 19.0825 13.882C18.7718 13.5726 18.7718 13.0723 19.0825 12.7629C20.7337 11.1173 20.7322 8.43894 19.081 6.79343C18.7703 6.48396 18.7703 5.98373 19.081 5.67426C19.3917 5.36479 19.8939 5.36479 20.2046 5.67426C22.4764 7.93714 22.4763 11.6192 20.2061 13.882C20.0504 14.0372 19.8478 14.114 19.6443 14.114Z" fill="white"/>
<path d="M2.87682 15.5885C2.67341 15.5885 2.46997 15.5109 2.31503 15.3566C-0.771915 12.2809 -0.771953 7.27703 2.31658 4.20131C2.62726 3.89184 3.12948 3.89184 3.44016 4.20131C3.75084 4.51078 3.75084 5.01101 3.44016 5.32048C0.971404 7.77884 0.971345 11.7791 3.43851 14.2374C3.74919 14.5469 3.74919 15.0471 3.43851 15.3566C3.28357 15.5109 3.08023 15.5885 2.87682 15.5885Z" fill="white"/>
<path d="M4.35707 14.114C4.15366 14.114 3.95032 14.0364 3.79538 13.882C1.52369 11.6199 1.52369 7.93714 3.79538 5.67426C4.10605 5.36479 4.60818 5.36479 4.91886 5.67426C5.22953 5.98373 5.22953 6.48396 4.91886 6.79343C3.26773 8.43973 3.26614 11.1173 4.91886 12.7629C5.22953 13.0723 5.22953 13.5726 4.91886 13.882C4.76391 14.0372 4.56048 14.114 4.35707 14.114Z" fill="white"/>
</svg>