<?xml version="1.0" encoding="iso-8859-1"?>
<!-- Generator: Adobe Illustrator 19.0.0, SVG Export Plug-In . SVG Version: 6.00 Build 0)  -->
<svg width="58" height="61" viewBox="0 0 58 61" fill="none" xmlns="http://www.w3.org/2000/svg">
<path d="M55.0019 36.8931C54.221 36.8931 53.586 36.258 53.586 35.4779C53.586 34.6977 54.221 34.0618 55.0019 34.0618H56.5326C56.3314 30.6055 55.4143 27.3422 53.9298 24.4136L52.6194 25.1707C51.9704 25.5459 51.0632 25.3035 50.6863 24.6536C50.2962 23.9782 50.5271 23.1114 51.2001 22.7197L52.5089 21.9643C50.6566 19.1627 48.246 16.7645 45.4362 14.9238L44.6932 16.2111C44.3163 16.8635 43.4058 17.1068 42.7568 16.7266C42.4327 16.5402 42.1976 16.2359 42.1011 15.8706C42.0014 15.5052 42.0525 15.1234 42.243 14.7943L42.9827 13.5119C40.1037 12.0678 36.9022 11.1722 33.5143 10.9627V12.4126C33.5143 13.1919 32.8793 13.8269 32.0983 13.8269C31.319 13.8269 30.6839 13.1919 30.6839 12.4126V10.9446C29.5928 11.0007 28.5224 11.1343 27.4734 11.3289C25.3729 15.1036 24.6933 19.5174 24.0657 23.8858C23.1783 30.0703 21.9553 37.4637 24.1927 43.5006C25.9163 48.1511 26.3526 51.6198 25.1626 56.5094C24.9671 57.3127 24.7543 58.1349 24.5143 58.9572C26.0062 59.4314 27.5575 59.7703 29.1574 59.9534C29.4419 59.9847 29.7273 60.0111 30.0143 60.0342C30.2378 60.0515 30.4596 60.0738 30.6848 60.0853V58.5456C30.6848 57.7655 31.3198 57.1304 32.0991 57.1304C32.8801 57.1304 33.5151 57.7655 33.5151 58.5456V60.0664C35.078 59.9699 36.6004 59.7324 38.07 59.3571C38.0939 59.3514 38.1186 59.3456 38.1426 59.3398C38.4386 59.2631 38.7322 59.1774 39.0242 59.0891C39.1495 59.0512 39.2757 59.0165 39.3994 58.9761C39.5891 58.9167 39.7771 58.8499 39.9652 58.7856C40.1953 58.7056 40.427 58.6273 40.6546 58.5399C40.7404 58.5077 40.8245 58.473 40.9094 58.4392C41.622 58.1588 42.3254 57.8479 43.0157 57.4983L42.2438 56.1606C42.055 55.8348 42.0038 55.4546 42.1003 55.0893C42.1985 54.7231 42.4318 54.4172 42.7609 54.2275C43.4149 53.8473 44.3204 54.0955 44.6957 54.7462L45.4643 56.0781C48.2625 54.2324 50.6945 51.8004 52.5369 49.0063L51.2034 48.2352C50.8768 48.0472 50.6426 47.742 50.5444 47.3775C50.4463 47.0121 50.4958 46.6303 50.6863 46.3021C51.0599 45.6539 51.9638 45.4056 52.6194 45.785L53.9562 46.5577C54.3175 45.8427 54.6399 45.1137 54.9286 44.3748C54.9517 44.3137 54.9781 44.2527 55.0011 44.1909C55.0993 43.9319 55.1892 43.6696 55.2782 43.4082C55.3302 43.2523 55.3863 43.0973 55.4357 42.9406C55.4852 42.7839 55.5289 42.6256 55.576 42.468C55.6518 42.2107 55.7294 41.9526 55.797 41.6912C55.8094 41.645 55.8184 41.5996 55.83 41.5543C56.2093 40.0517 56.4501 38.4938 56.5384 36.8955H55.0019V36.8931ZM45.2812 26.2791L35.8903 39.2608C35.2008 40.2075 34.1378 40.803 32.975 40.8929C32.8669 40.9011 32.7647 40.9052 32.6607 40.9052C31.5985 40.9052 30.599 40.4904 29.8452 39.7375C29.0222 38.9128 28.5999 37.773 28.6898 36.6094C28.7822 35.4432 29.3768 34.3818 30.3211 33.6957L43.3035 24.3023C43.8544 23.9048 44.6536 23.9708 45.1336 24.4483C45.6276 24.9423 45.6902 25.7117 45.2812 26.2791Z" fill="#C3D7F1"/>
<path d="M30.3722 38.9226C31.535 38.8328 32.5972 38.2373 33.2867 37.2906L42.6776 24.3089C43.0866 23.7415 43.0248 22.9729 42.5291 22.4781C42.05 22.0006 41.2509 21.9346 40.7 22.3321L27.7167 31.7254C26.7732 32.4116 26.1786 33.473 26.0862 34.6391C25.9972 35.8028 26.4186 36.9425 27.2425 37.7672C27.9954 38.5202 28.995 38.935 30.058 38.935C30.1611 38.9342 30.2633 38.9301 30.3722 38.9226ZM28.9092 34.8577C28.9347 34.5212 29.1055 34.2144 29.3776 34.0157L35.2173 29.7915L30.9949 35.6271C30.7969 35.9009 30.4885 36.0725 30.1537 36.0989L30.0695 36.1021C29.7537 36.1021 29.4601 35.9818 29.2432 35.7657C29.0048 35.5257 28.8828 35.195 28.9092 34.8577Z" fill="url(#paint0_linear)"/>
<path d="M52.4437 14.6525C52.5212 14.73 52.626 14.7729 52.7356 14.7729C52.8453 14.7729 52.9501 14.7292 53.0276 14.6525L57.2822 10.397C57.3598 10.3195 57.4026 10.2148 57.4026 10.1051C57.4026 9.99542 57.3589 9.89068 57.2822 9.81316L53.0276 5.55932C52.8668 5.39851 52.6053 5.39851 52.4445 5.55932L48.1899 9.81316C48.1124 9.89068 48.0695 9.99542 48.0695 10.1051C48.0695 10.2148 48.1132 10.3195 48.1899 10.397L49.3181 11.5244L47.7338 13.107C46.3186 11.8312 44.7764 10.7047 43.1971 9.79501C43.1798 9.77769 43.146 9.74139 43.0635 9.69026C43.0454 9.68037 43.0083 9.66801 42.9769 9.65646C39.8587 7.86521 36.4766 6.72217 32.9197 6.25786V5.83891H34.0116C35.6214 5.83891 36.931 4.52928 36.931 2.91946C36.931 1.30964 35.6206 0 34.0099 0H24.9844C23.3746 0 22.0649 1.30964 22.0649 2.91946C22.0649 4.52928 23.3746 5.83891 24.9844 5.83891H26.0763V6.21827C25.0867 6.3362 24.1086 6.50525 23.1651 6.72133C22.7965 6.80462 22.4822 7.0273 22.281 7.34811C22.0798 7.66892 22.0154 8.04829 22.1004 8.41528C22.2711 9.16741 23.0521 9.65152 23.7968 9.47915C24.7122 9.26968 25.6351 9.11216 26.5241 9.0099L27.5995 8.92659C27.7661 8.9134 27.9261 8.90267 28.0828 8.8936V10.4416C28.0828 11.2209 28.7178 11.8559 29.498 11.8559C30.2781 11.8559 30.9132 11.2209 30.9132 10.4416V8.90102C34.245 9.11215 37.4366 9.98057 40.4137 11.4873L39.6418 12.8233C39.4521 13.1516 39.401 13.5334 39.5 13.8996C39.5973 14.2649 39.8315 14.5692 40.1565 14.7556C40.8047 15.1358 41.716 14.8925 42.092 14.2401L42.8623 12.9074C45.6589 14.7515 48.0901 17.1835 49.9341 19.9793L48.6006 20.7495C47.9268 21.1413 47.6959 22.0072 48.0868 22.6835C48.4637 23.3333 49.37 23.5758 50.0191 23.2006L51.3567 22.4278C52.8866 25.4528 53.7583 28.6988 53.9504 32.0917H52.4016C51.6215 32.0917 50.9864 32.7275 50.9864 33.5077C50.9864 34.2879 51.6215 34.9229 52.4016 34.9229H53.9504C53.7591 38.3149 52.8874 41.5617 51.3567 44.5868L50.0191 43.814C49.3634 43.4347 48.4604 43.6829 48.0868 44.3311C47.8971 44.6585 47.8468 45.0404 47.9441 45.4065C48.0423 45.771 48.2765 46.0762 48.6039 46.2642L49.9366 47.0353C48.0942 49.8302 45.6613 52.2614 42.8639 54.1071L42.0953 52.7752C41.7201 52.1245 40.8154 51.8763 40.1606 52.2565C39.8332 52.4454 39.5981 52.7521 39.5008 53.1183C39.4035 53.4828 39.4546 53.8638 39.6443 54.1896L40.4162 55.5273C37.4391 57.0332 34.2474 57.9024 30.9148 58.1144V56.5755C30.9148 55.7953 30.2798 55.1603 29.4996 55.1603C28.7195 55.1603 28.0844 55.7953 28.0844 56.5755V58.1276C26.6231 58.0525 25.1831 57.8546 23.8034 57.5379C23.0554 57.3598 22.2752 57.8546 22.1037 58.5985C22.0187 58.9671 22.0823 59.3465 22.2835 59.6673C22.4847 59.9889 22.7981 60.2116 23.1651 60.2957C25.1955 60.7625 27.2713 61 29.3339 61L29.4485 60.9967C29.4658 60.9992 29.4823 61 29.498 61C29.5169 61 29.5384 60.9984 29.5606 60.9951C34.2672 60.9563 38.907 59.6986 42.9497 57.3746C42.9802 57.3631 43.0322 57.3457 43.1312 57.2715C47.2382 54.8774 50.6788 51.4409 53.0639 47.3611C53.0927 47.3273 53.12 47.2918 53.148 47.2431C53.1587 47.2233 53.1727 47.1854 53.1843 47.1516C55.5669 43.0066 56.8254 38.2902 56.8254 33.5094C56.8254 28.7154 55.5594 23.984 53.1966 19.9034C53.1884 19.8696 53.1793 19.8366 53.1298 19.7418C53.12 19.7261 53.0969 19.6989 53.0771 19.6766C52.1237 18.0453 51.0005 16.5114 49.737 15.1102L51.3213 13.5276L52.4437 14.6525ZM52.734 9.27132L53.5694 10.1059L52.734 10.9422L51.8978 10.1059L52.734 9.27132ZM29.4526 6.43021L29.3322 6.01705C29.2349 6.01705 29.1376 6.02116 29.0403 6.02528L28.905 6.02941V3.42088C28.905 3.19326 28.7203 3.00853 28.4927 3.00853H24.9819C24.9341 3.00853 24.8937 2.96812 24.8937 2.92029C24.8937 2.87245 24.9341 2.83205 24.9819 2.83205H34.0074C34.0561 2.83205 34.0965 2.87245 34.0965 2.92029C34.0965 2.96812 34.0553 3.00853 34.0074 3.00853H30.4975C30.2699 3.00853 30.0852 3.19326 30.0852 3.42088V6.02528C29.8839 6.01951 29.6877 6.01705 29.4947 6.01705C29.4889 6.01705 29.4403 6.01869 29.4345 6.01869L29.4526 6.43021Z" fill="url(#paint1_linear)"/>
<path d="M20.47 14.0406H15.4558C14.6748 14.0406 14.0398 14.6757 14.0398 15.4558C14.0398 16.236 14.6748 16.8719 15.4558 16.8719H20.47C21.2502 16.8719 21.8852 16.236 21.8852 15.4558C21.8852 14.6757 21.2502 14.0406 20.47 14.0406Z" fill="url(#paint2_linear)"/>
<path d="M20.4699 21.0604H10.4407C9.66054 21.0604 9.02551 21.6954 9.02551 22.4756C9.02551 23.2558 9.66054 23.8908 10.4407 23.8908H20.4699C21.2501 23.8908 21.8851 23.2558 21.8851 22.4756C21.8851 21.6954 21.2501 21.0604 20.4699 21.0604Z" fill="url(#paint3_linear)"/>
<path d="M20.47 28.0812H5.42655C4.64638 28.0812 4.01135 28.7162 4.01135 29.4964C4.01135 30.2765 4.64638 30.9115 5.42655 30.9115H20.47C21.2501 30.9115 21.8851 30.2765 21.8851 29.4964C21.8851 28.7162 21.2501 28.0812 20.47 28.0812Z" fill="url(#paint4_linear)"/>
<path d="M20.47 35.1011H1.41519C0.635024 35.1011 0 35.7361 0 36.5163C0 37.2964 0.635024 37.9323 1.41519 37.9323H20.47C21.2501 37.9323 21.8852 37.2964 21.8852 36.5163C21.8852 35.7361 21.2501 35.1011 20.47 35.1011Z" fill="url(#paint5_linear)"/>
<path d="M20.47 42.1217H7.43223C6.65124 42.1217 6.01624 42.7567 6.01624 43.5369C6.01624 44.3171 6.65124 44.9521 7.43223 44.9521H20.47C21.2502 44.9521 21.8852 44.3171 21.8852 43.5369C21.8852 42.7567 21.2502 42.1217 20.47 42.1217Z" fill="url(#paint6_linear)"/>
<path d="M20.47 49.1407H13.4493C12.6691 49.1407 12.0341 49.7766 12.0341 50.5568C12.0341 51.3369 12.6691 51.972 13.4493 51.972H20.47C21.2502 51.972 21.8852 51.3369 21.8852 50.5568C21.8852 49.7766 21.2502 49.1407 20.47 49.1407Z" fill="url(#paint7_linear)"/>
<defs>
<linearGradient id="paint0_linear" x1="32.2973" y1="25.5852" x2="43.7265" y2="40.3036" gradientUnits="userSpaceOnUse">
<stop stop-color="#F8981D"/>
<stop offset="1" stop-color="#F85F1D"/>
</linearGradient>
<linearGradient id="paint1_linear" x1="35.0971" y1="12.7083" x2="75.9958" y2="43.2028" gradientUnits="userSpaceOnUse">
<stop stop-color="#F8981D"/>
<stop offset="1" stop-color="#F85F1D"/>
</linearGradient>
<linearGradient id="paint2_linear" x1="16.9332" y1="14.6305" x2="17.963" y2="18.303" gradientUnits="userSpaceOnUse">
<stop stop-color="#F8981D"/>
<stop offset="1" stop-color="#F85F1D"/>
</linearGradient>
<linearGradient id="paint3_linear" x1="13.7682" y1="21.6501" x2="14.4262" y2="25.4976" gradientUnits="userSpaceOnUse">
<stop stop-color="#F8981D"/>
<stop offset="1" stop-color="#F85F1D"/>
</linearGradient>
<linearGradient id="paint4_linear" x1="10.6033" y1="28.6708" x2="11.0833" y2="32.5718" gradientUnits="userSpaceOnUse">
<stop stop-color="#F8981D"/>
<stop offset="1" stop-color="#F85F1D"/>
</linearGradient>
<linearGradient id="paint5_linear" x1="8.07142" y1="35.6909" x2="8.4656" y2="39.6125" gradientUnits="userSpaceOnUse">
<stop stop-color="#F8981D"/>
<stop offset="1" stop-color="#F85F1D"/>
</linearGradient>
<linearGradient id="paint6_linear" x1="11.8688" y1="42.7114" x2="12.4073" y2="46.5968" gradientUnits="userSpaceOnUse">
<stop stop-color="#F8981D"/>
<stop offset="1" stop-color="#F85F1D"/>
</linearGradient>
<linearGradient id="paint7_linear" x1="15.6673" y1="49.7306" x2="16.5098" y2="53.5037" gradientUnits="userSpaceOnUse">
<stop stop-color="#F8981D"/>
<stop offset="1" stop-color="#F85F1D"/>
</linearGradient>
</defs>
</svg>
